<svg width="101" height="96" viewBox="0 0 101 96" fill="none" xmlns="http://www.w3.org/2000/svg">
<g id="Group">
<path id="Vector" d="M48.2763 46.3732C60.7961 47.9454 64.9052 35.1414 62.0791 26.1834C61.5939 24.4273 60.5449 22.8596 59.0789 21.6996C57.6128 20.5396 55.803 19.8454 53.9026 19.7139L46.6743 19.7206C38.1714 20.3535 36.8956 30.2223 38.2956 36.532C38.7469 38.9311 39.9369 41.1479 41.7142 42.9004C43.4916 44.6529 45.7758 45.8618 48.2763 46.3732ZM42.1353 27.0431C42.408 26.0149 43.0035 25.0905 43.8423 24.3935C44.681 23.6964 45.7229 23.26 46.8289 23.1424L53.748 23.1357C59.7058 23.9421 59.69 30.3574 58.9127 35.8421C58.5663 38.0399 57.3301 40.0209 55.4691 41.3602C53.6081 42.6995 51.2706 43.2905 48.9578 43.0064C41.7276 41.7221 40.296 33.0249 42.1353 27.0431Z" fill="white"/>
<path id="Vector_2" d="M70.2171 50.854L64.2764 46.3917C63.3861 45.7262 62.2862 45.3666 61.1548 45.3711C60.0233 45.3757 58.9266 45.7442 58.0423 46.4168C55.8859 48.134 53.1372 49.0266 50.3293 48.9214C47.5428 49.0184 44.8176 48.1269 42.681 46.4194C41.797 45.7456 40.7001 45.3763 39.5682 45.3712C38.4363 45.3662 37.3358 45.7258 36.4453 46.3917L30.5098 50.849C29.4447 51.6402 28.5841 52.6536 27.994 53.8112C27.4038 54.9688 27.0999 56.24 27.1055 57.527V65.5125C27.1031 67.3002 27.6932 69.043 28.7915 70.4922C29.8899 71.9413 31.4404 73.0229 33.2219 73.5825C38.7515 75.3319 44.5347 76.2442 50.3608 76.2862C56.1876 76.2443 61.9714 75.3317 67.5015 73.5817C69.2826 73.022 70.8328 71.9405 71.9308 70.4915C73.0288 69.0424 73.6186 67.2999 73.6161 65.5125V57.5271C73.6221 56.2412 73.3188 54.9711 72.7296 53.8144C72.1404 52.6576 71.2809 51.6449 70.2171 50.854ZM70.0186 65.5125C70.0201 66.5786 69.6684 67.618 69.0136 68.4825C68.3587 69.3469 67.4343 69.9922 66.372 70.3264C61.2065 71.9623 55.8039 72.8164 50.3608 72.8576C44.9184 72.8164 39.5164 71.9626 34.3514 70.3272C33.2887 69.9931 32.3639 69.3478 31.7087 68.4832C31.0536 67.6186 30.7016 66.579 30.703 65.5125V57.527C30.699 56.7598 30.8798 56.002 31.2316 55.312C31.5833 54.6219 32.0966 54.018 32.7318 53.5468L38.6725 49.0845C38.9296 48.8971 39.2454 48.7978 39.569 48.8029C39.8926 48.8079 40.205 48.9169 40.4555 49.1122C42.5032 50.65 44.9077 51.698 47.4677 52.1682C49.7072 52.5259 52.0001 52.4389 54.2027 51.9127C56.4053 51.3865 58.4701 50.4325 60.2677 49.1103C60.5181 48.9151 60.8303 48.8063 61.1537 48.8016C61.4771 48.797 61.7927 48.8967 62.0491 49.0846L67.9951 53.5511C68.629 54.0222 69.141 54.6256 69.4918 55.3149C69.8427 56.0042 70.0229 56.761 70.0186 57.5271V65.5125Z" fill="white"/>
<path id="Vector_3" d="M96.2393 38.7338L90.6024 37.7059C90.2472 37.631 89.9199 37.4659 89.6551 37.228C89.3904 36.9902 89.1982 36.6885 89.0988 36.3549C88.384 34.1943 87.4712 32.0977 86.3708 30.0896C86.2002 29.7989 86.1153 29.4697 86.1252 29.1368C86.1351 28.8038 86.2394 28.4797 86.427 28.1987L89.6767 23.6376C90.3982 22.6233 90.7266 21.4011 90.6054 20.1811C90.4842 18.9611 89.9211 17.8194 89.0127 16.9521L82.942 11.1663C82.0322 10.3005 80.8345 9.76359 79.5545 9.64796C78.2745 9.53232 76.9922 9.84515 75.928 10.5327L71.1413 13.6298C70.8463 13.8083 70.5062 13.9077 70.1568 13.9174C69.8075 13.9271 69.4619 13.8469 69.1564 13.685C67.0493 12.6356 64.8491 11.7653 62.5815 11.0843C62.2319 10.9892 61.9158 10.8058 61.6665 10.5536C61.4173 10.3013 61.2443 9.98953 61.1657 9.65122L60.0872 4.27985C59.8448 3.0764 59.1703 1.99095 58.1795 1.20994C57.1886 0.42894 55.9434 0.00113042 54.6576 0H46.0715C44.7858 0.00111324 43.5407 0.428811 42.5499 1.20965C41.5591 1.99048 40.8845 3.07572 40.6419 4.27901L39.5634 9.65038C39.4848 9.98913 39.3116 10.3013 39.062 10.5539C38.8125 10.8065 38.4959 10.99 38.1458 11.0851C35.8783 11.766 33.6782 12.636 31.5709 13.685C31.2658 13.8468 30.9204 13.927 30.5714 13.9173C30.2223 13.9076 29.8825 13.8082 29.5878 13.6297L24.8011 10.5318C23.7366 9.84483 22.4543 9.53242 21.1745 9.6482C19.8946 9.76397 18.697 10.3007 17.7871 11.1663L11.7164 16.952C10.808 17.8192 10.2448 18.9607 10.1237 20.1806C10.0025 21.4005 10.3309 22.6225 11.0524 23.6367L14.302 28.1987C14.4895 28.4796 14.5939 28.8036 14.6041 29.1365C14.6143 29.4693 14.53 29.7986 14.36 30.0895C13.2582 32.0975 12.3447 34.1944 11.6303 36.3557C11.5307 36.6891 11.3384 36.9906 11.0737 37.2283C10.809 37.466 10.4818 37.631 10.1267 37.7059L4.4898 38.7338C3.2271 38.965 2.0883 39.6081 1.26899 40.5526C0.44968 41.497 0.000995706 42.6839 0 43.9093V52.0907C0.00156599 53.316 0.45046 54.5025 1.26968 55.4468C2.08889 56.3912 3.22737 57.0344 4.4898 57.2661L10.1267 58.294C10.4819 58.3689 10.8092 58.5341 11.0739 58.7719C11.3387 59.0098 11.5309 59.3115 11.6303 59.645C12.3449 61.806 13.2584 63.9026 14.36 65.9104C14.53 66.2011 14.6144 66.5303 14.6041 66.863C14.5939 67.1957 14.4896 67.5196 14.302 67.8004L11.0524 72.3624C10.3309 73.3767 10.0025 74.5989 10.1237 75.8189C10.2448 77.0389 10.808 78.1806 11.7164 79.0479L17.7871 84.8336C18.6968 85.6995 19.8946 86.2365 21.1746 86.3521C22.4546 86.4677 23.7369 86.1549 24.8011 85.4673L29.5878 82.3702C29.8826 82.1913 30.2228 82.0917 30.5722 82.0819C30.9217 82.0722 31.2673 82.1527 31.5727 82.3149C33.68 83.364 35.8801 84.2342 38.1475 84.9157C38.4971 85.0108 38.8133 85.1942 39.0625 85.4464C39.3117 85.6987 39.4848 86.0105 39.5633 86.3488L40.6419 91.7202C40.8843 92.9236 41.5588 94.0091 42.5496 94.7901C43.5404 95.5711 44.7857 95.9989 46.0715 96H54.6576C55.9433 95.9989 57.1884 95.5712 58.1792 94.7904C59.17 94.0095 59.8446 92.9243 60.0872 91.721L61.1657 86.3496C61.2443 86.0109 61.4175 85.6987 61.6671 85.4461C61.9166 85.1935 62.2332 85.01 62.5833 84.9149C64.8506 84.2335 67.0506 83.3635 69.1581 82.315C69.4631 82.1529 69.8085 82.0723 70.1576 82.0819C70.5067 82.0915 70.8466 82.1908 71.1413 82.3694L75.928 85.4682C76.9924 86.1555 78.2747 86.4681 79.5546 86.3524C80.8346 86.2366 82.0323 85.6996 82.942 84.8337L89.0127 79.048C89.9211 78.1808 90.4842 77.0393 90.6054 75.8194C90.7266 74.5995 90.3982 73.3775 89.6767 72.3633L86.427 67.8005C86.2395 67.5197 86.1351 67.1958 86.1249 66.8631C86.1147 66.5304 86.1991 66.2012 86.3691 65.9104C87.4709 63.9024 88.3843 61.8055 89.0988 59.6443C89.1983 59.3109 89.3906 59.0094 89.6554 58.7717C89.9201 58.534 90.2473 58.3689 90.6024 58.2941L96.241 57.2654C97.5031 57.0335 98.6412 56.3904 99.4601 55.4462C100.279 54.502 100.728 53.3157 100.729 52.0907V43.9093C100.728 42.6839 100.279 41.497 99.4601 40.5526C98.6407 39.6082 97.502 38.9651 96.2393 38.7338ZM97.1316 52.0907C97.1313 52.5185 96.9747 52.9328 96.6888 53.2626C96.4029 53.5923 96.0055 53.8169 95.5647 53.8979L89.9279 54.9257C88.9341 55.116 88.0131 55.5594 87.2627 56.2089C86.5123 56.8583 85.9607 57.6894 85.6665 58.6138C84.8514 62.2903 80.7631 66.0384 83.4514 69.7257L86.7011 74.2893C86.9529 74.6436 87.0675 75.0703 87.0252 75.4963C86.9829 75.9223 86.7863 76.321 86.4692 76.6239L80.3985 82.4096C80.0809 82.7124 79.6624 82.9002 79.2152 82.9407C78.7679 82.9812 78.3198 82.8718 77.9481 82.6314L73.1614 79.5326C69.2955 76.9707 65.3432 80.8676 61.5029 81.6443C60.5329 81.9246 59.6608 82.4501 58.9791 83.1649C58.2974 83.8798 57.8317 84.7573 57.6314 85.7042L56.5529 91.0773C56.4683 91.4974 56.2329 91.8764 55.887 92.149C55.5412 92.4217 55.1065 92.571 54.6576 92.5714H46.0715C45.6225 92.571 45.1876 92.4216 44.8417 92.1487C44.4958 91.8759 44.2605 91.4967 44.1761 91.0765L43.0976 85.7034C42.8974 84.7569 42.4319 83.8798 41.7505 83.1653C41.0692 82.4508 40.1974 81.9255 39.2279 81.6454C35.3655 80.8747 31.477 76.969 27.5678 79.5334L22.781 82.6306C22.4091 82.8704 21.9612 82.9796 21.5141 82.9392C21.0671 82.8989 20.6486 82.7117 20.3305 82.4096L14.2598 76.6239C13.9427 76.3208 13.7461 75.922 13.7038 75.4959C13.6615 75.0698 13.7761 74.6429 14.0279 74.2885L17.2776 69.7257C19.9638 66.0375 15.8844 62.2896 15.0627 58.6146C14.7686 57.69 14.217 56.8587 13.4666 56.2092C12.7162 55.5596 11.795 55.1161 10.8012 54.9257L5.16609 53.8987C4.72502 53.8178 4.32724 53.5931 4.04101 53.2632C3.75479 52.9333 3.59797 52.5188 3.59747 52.0907V43.9093C3.59751 43.4815 3.75396 43.067 4.03992 42.7372C4.32587 42.4074 4.72346 42.1828 5.16433 42.1021L10.8012 41.0743C11.7949 40.884 12.716 40.4406 13.4664 39.7911C14.2167 39.1417 14.7684 38.3106 15.0626 37.3862C15.8784 33.7102 19.967 29.9605 17.2777 26.2735L14.028 21.7107C13.7762 21.3564 13.6616 20.9297 13.7039 20.5037C13.7462 20.0777 13.9428 19.679 14.2598 19.3761L20.3306 13.5904C20.6486 13.2882 21.0669 13.1008 21.514 13.0603C21.9611 13.0199 22.409 13.1288 22.781 13.3686L27.5677 16.4657C31.4328 19.0284 35.3814 15.1349 39.2261 14.3556C40.1961 14.0754 41.0683 13.5499 41.75 12.8351C42.4317 12.1202 42.8974 11.2427 43.0976 10.2958L44.1762 4.92271C44.2607 4.50259 44.4962 4.12365 44.842 3.85098C45.1879 3.57832 45.6226 3.42897 46.0715 3.42857H54.6576C55.1066 3.42897 55.5414 3.57844 55.8873 3.85127C56.2332 4.1241 56.4686 4.50325 56.5529 4.92355L57.6314 10.2966C57.8316 11.2431 58.2972 12.1202 58.9785 12.8347C59.6599 13.5492 60.5317 14.0745 61.5012 14.3546C65.3498 15.1295 69.2965 19.0305 73.1613 16.4657L77.9481 13.3694C78.3196 13.1285 78.7677 13.0187 79.2151 13.059C79.6625 13.0993 80.0811 13.2873 80.3985 13.5904L86.4693 19.3761C86.7864 19.6792 86.9829 20.078 87.0252 20.5041C87.0675 20.9302 86.9529 21.3571 86.7011 21.7115L83.4515 26.2734C80.765 29.9607 84.8446 33.7107 85.6664 37.3854C85.9605 38.31 86.5121 39.1413 87.2625 39.7909C88.0129 40.4404 88.934 40.884 89.9279 41.0743L95.5647 42.1022C96.0056 42.1829 96.4032 42.4074 96.6891 42.7372C96.9751 43.067 97.1315 43.4815 97.1316 43.9093V52.0907Z" fill="white"/>
</g>
</svg>
