<svg width="87" height="96" viewBox="0 0 87 96" fill="none" xmlns="http://www.w3.org/2000/svg">
<g id="Go Green">
<path id="Vector" d="M85.0086 51.4929C84.3769 50.8611 83.6269 50.3599 82.8015 50.018C81.9761 49.676 81.0914 49.5 80.1979 49.5C79.3045 49.5 78.4198 49.676 77.5944 50.018C76.7689 50.3599 76.019 50.8611 75.3873 51.4929L63.7417 63.1386C63.2308 62.1927 62.4745 61.4021 61.5523 60.8498C60.63 60.2975 59.576 60.004 58.501 60.0002H41.4661C39.9996 58.2253 38.1784 56.7763 36.1193 55.7463C34.0602 54.7162 31.8086 54.1278 29.5088 54.0186C27.209 53.9094 24.9118 54.282 22.7644 55.1124C20.6169 55.9427 18.6667 57.2126 17.0387 58.8407L10.5002 65.3792L8.56069 63.4397C8.42144 63.3004 8.25611 63.1899 8.07413 63.1145C7.89216 63.0391 7.69711 63.0003 7.50013 63.0003C7.30315 63.0003 7.1081 63.0391 6.92613 63.1145C6.74415 63.1899 6.57882 63.3004 6.43957 63.4397L0.439468 69.4398C0.300144 69.5791 0.189623 69.7444 0.114217 69.9264C0.0388116 70.1084 0 70.3034 0 70.5004C0 70.6974 0.0388116 70.8924 0.114217 71.0744C0.189623 71.2564 0.300144 71.4217 0.439468 71.561L24.4399 95.5614C24.5791 95.7007 24.7445 95.8112 24.9264 95.8866C25.1084 95.962 25.3034 96.0008 25.5004 96.0008C25.6974 96.0008 25.8925 95.962 26.0744 95.8866C26.2564 95.8112 26.4217 95.7007 26.561 95.5614L32.5611 89.5613C32.7004 89.422 32.8109 89.2567 32.8863 89.0747C32.9618 88.8927 33.0006 88.6977 33.0006 88.5007C33.0006 88.3037 32.9618 88.1087 32.8863 87.9267C32.8109 87.7447 32.7004 87.5794 32.5611 87.4401L30.6217 85.5006L32.3041 83.8182C33.15 82.9776 34.2931 82.5041 35.4858 82.5005H57.409C59.3798 82.5061 61.332 82.1205 63.1528 81.3663C64.9735 80.6121 66.6265 79.5042 68.0161 78.1067L85.0086 61.1142C85.6404 60.4825 86.1416 59.7326 86.4835 58.9071C86.8255 58.0817 87.0015 57.197 87.0015 56.3036C87.0015 55.4101 86.8255 54.5254 86.4835 53.7C86.1416 52.8746 85.6404 52.1246 85.0086 51.4929ZM25.5005 92.3796L3.6212 70.5004L7.50018 66.6214L29.3794 88.5007L25.5005 92.3796ZM82.8874 58.9931L65.8949 75.9855C64.7831 77.1034 63.4607 77.9897 62.004 78.593C60.5474 79.1963 58.9856 79.5048 57.409 79.5005H35.4858C34.5005 79.4978 33.5245 79.6906 32.6143 80.0676C31.7041 80.4446 30.8777 80.9985 30.1829 81.6971L28.5005 83.3795L12.6213 67.5003L19.1599 60.9619C20.5098 59.6121 22.1301 58.5633 23.9142 57.8844C25.6984 57.2056 27.6061 56.912 29.5118 57.023C31.4175 57.1341 33.2782 57.6472 34.9714 58.5287C36.6647 59.4101 38.1522 60.64 39.3362 62.1374L39.5669 62.4297C39.7072 62.6075 39.886 62.7513 40.0899 62.8501C40.2937 62.9489 40.5173 63.0003 40.7439 63.0002H58.501C59.2967 63.0002 60.0598 63.3163 60.6224 63.8789C61.185 64.4415 61.5011 65.2046 61.5011 66.0003C61.5011 66.7959 61.185 67.559 60.6224 68.1216C60.0598 68.6843 59.2967 69.0003 58.501 69.0003H37.5007C37.1028 69.0003 36.7213 69.1584 36.44 69.4397C36.1587 69.721 36.0006 70.1025 36.0006 70.5004C36.0006 70.8982 36.1587 71.2797 36.44 71.561C36.7213 71.8423 37.1028 72.0004 37.5007 72.0004H58.501C59.9683 71.9958 61.3828 71.4525 62.476 70.4738C63.5692 69.4951 64.265 68.1491 64.4313 66.6912L77.5085 53.614C78.233 52.9222 79.1962 52.5362 80.198 52.5362C81.1997 52.5362 82.1629 52.9222 82.8875 53.614C83.2407 53.9672 83.5208 54.3865 83.712 54.848C83.9031 55.3094 84.0015 55.804 84.0015 56.3035C84.0015 56.803 83.9031 57.2976 83.712 57.7591C83.5208 58.2205 83.2406 58.6399 82.8874 58.9931Z" fill="white"/>
<path id="Vector_2" d="M25.1161 30.5661C25.0951 30.5954 25.0636 30.612 25.0445 30.6433C25.0396 30.6514 25.04 30.6608 25.0352 30.6691C20.473 36.4634 17.9948 43.625 18 50.9998C18 51.2452 18.0015 51.4891 18.0183 51.7337C18.0447 52.1123 18.2136 52.4669 18.491 52.7259C18.7684 52.985 19.1337 53.1293 19.5132 53.1297C19.5484 53.1297 19.5835 53.1282 19.6187 53.1261C19.8152 53.1124 20.0071 53.0602 20.1834 52.9724C20.3598 52.8846 20.5171 52.7629 20.6464 52.6143C20.7757 52.4657 20.8744 52.2931 20.937 52.1063C20.9996 51.9195 21.0247 51.7222 21.011 51.5257C20.9986 51.3499 21.0001 51.1749 21.0001 50.9998C21.0014 44.6949 23.0023 38.5529 26.7151 33.4571C30.9572 36.227 33.4402 38.903 33.5423 40.8966C33.3854 42.793 32.7864 44.6262 31.7932 46.2492C31.3516 47.1611 30.888 48.1206 30.4602 49.1482C30.3845 49.3301 30.3454 49.5251 30.345 49.7221C30.3447 49.9191 30.3832 50.1143 30.4583 50.2964C30.6099 50.6643 30.9015 50.9568 31.2688 51.1097C31.4507 51.1854 31.6457 51.2245 31.8427 51.2248C32.0397 51.2252 32.2349 51.1867 32.417 51.1116C32.7849 50.96 33.0774 50.6684 33.2303 50.3011C33.6353 49.3284 34.0755 48.4202 34.4937 47.5566C35.7391 45.4923 36.4423 43.1466 36.5379 40.7377C36.3828 37.7121 33.6956 34.477 28.6024 31.1105C30.8991 28.5107 33.6269 26.3265 36.6659 24.6539C39.5875 30.347 43.1029 33.3518 46.9414 33.3518C47.2207 33.3519 47.4997 33.3362 47.7771 33.305C50.4365 33.1356 52.9747 32.1316 55.0304 30.436C56.351 29.4149 56.8981 28.9931 59.926 30.0507C62.754 31.0353 65.7351 29.8009 68.436 26.5977C70.7737 28.2725 72.8587 30.2744 74.6271 32.5422C72.8215 34.4705 71.4006 36.7259 70.4409 39.1871C69.1614 41.9806 68.2963 43.7011 66.7055 43.8505C65.6721 43.9148 64.6356 43.9104 63.6029 43.8373C59.6448 43.6425 54.7221 43.4118 51.2057 50.3245C50.4083 51.8821 49.8726 53.5603 49.62 55.2919C49.5648 55.6858 49.6684 56.0855 49.908 56.4031C50.1475 56.7207 50.5034 56.9301 50.8973 56.9852C50.9669 56.9952 51.0372 57.0001 51.1075 56.9999C51.4689 56.9995 51.818 56.8685 52.0905 56.6311C52.3631 56.3937 52.5407 56.0658 52.5907 55.7079C52.7947 54.303 53.2311 52.9418 53.882 51.6802C56.5158 46.5019 59.5832 46.6535 63.46 46.8337C64.6324 46.9158 65.809 46.9172 66.9815 46.8381C70.3837 46.5173 71.7995 43.4257 73.1684 40.4359C73.9437 38.4744 75.0296 36.6504 76.3845 35.0339C78.3906 38.2086 79.7774 41.7345 80.4715 45.4252C80.5076 45.619 80.5814 45.8038 80.6889 45.969C80.7963 46.1342 80.9353 46.2766 81.0978 46.3881C81.2603 46.4996 81.4432 46.5779 81.6361 46.6187C81.8289 46.6594 82.0278 46.6618 82.2216 46.6256C82.4153 46.5894 82.6 46.5154 82.7651 46.4078C82.9302 46.3002 83.0725 46.1611 83.1838 45.9984C83.2952 45.8358 83.3734 45.6528 83.4139 45.46C83.4545 45.2671 83.4567 45.0681 83.4203 44.8745C82.0393 37.5765 78.2347 30.9585 72.6228 26.0928C67.0109 21.2271 59.9206 18.3987 52.5006 18.0658V16.4084C52.5007 15.5683 52.737 14.7452 53.1826 14.033C53.6281 13.3208 54.2649 12.7481 55.0202 12.3805C55.8548 13.3529 56.8897 14.1335 58.0539 14.6688C59.2182 15.2041 60.4844 15.4814 61.7659 15.4819C62.981 15.4715 64.1856 15.255 65.3284 14.8417C67.2417 14.172 69.0563 13.2482 70.7235 12.0952C71.4453 11.4473 72.3333 11.0133 73.2879 10.8418C74.2425 10.6703 75.2259 10.768 76.1281 11.1239C76.432 11.2019 76.7526 11.1826 77.0449 11.0689C77.3372 10.9551 77.5865 10.7526 77.7578 10.4897C77.929 10.2269 78.0135 9.91704 77.9995 9.60368C77.9854 9.29032 77.8735 8.98925 77.6794 8.74281C77.3579 8.33405 69.7201 -1.23374 62.3679 0.135184C55.2712 1.45797 54.4399 5.76238 54.0939 9.49524C52.8633 10.0166 51.7951 10.8586 51.0006 11.9334C50.2062 10.8584 49.1379 10.0163 47.9071 9.49477C47.561 5.76205 46.7297 1.45788 39.6332 0.135184C32.2802 -1.24106 24.6432 8.33479 24.3217 8.74275C24.1276 8.98919 24.0157 9.29026 24.0016 9.60362C23.9876 9.91698 24.0721 10.2269 24.2433 10.4897C24.4145 10.7525 24.6639 10.955 24.9562 11.0688C25.2485 11.1826 25.5691 11.2018 25.873 11.1239C26.7751 10.7677 27.7586 10.6699 28.7133 10.8414C29.6679 11.013 30.5558 11.4471 31.2775 12.0951C32.9448 13.2482 34.7594 14.172 36.6727 14.8417C37.8154 15.2554 39.02 15.4719 40.2352 15.4819C41.5167 15.4814 42.7829 15.2039 43.9472 14.6686C45.1115 14.1333 46.1464 13.3527 46.981 12.3803C47.7363 12.748 48.3731 13.3206 48.8186 14.0329C49.2641 14.7451 49.5004 15.5683 49.5005 16.4084V18.0373C44.7742 18.2493 40.1491 19.4782 35.9409 21.6404C31.7328 23.8026 28.0405 26.847 25.1161 30.5661ZM62.9173 3.08396C66.2037 2.46652 70.1325 5.32082 72.8073 7.87627C71.4514 8.15806 70.1767 8.74271 69.0785 9.58651C67.6142 10.605 66.0186 11.4203 64.3353 12.0101C63.2971 12.4631 62.1538 12.6193 61.0322 12.4614C59.9107 12.3035 58.8548 11.8377 57.9821 11.1157L61.9468 9.45175C62.129 9.37588 62.2944 9.2648 62.4335 9.12489C62.5727 8.98497 62.6829 8.81897 62.7578 8.63639C62.8327 8.45381 62.8708 8.25825 62.87 8.06091C62.8692 7.86357 62.8294 7.66833 62.753 7.48639C62.6766 7.30444 62.565 7.13937 62.4247 7.00062C62.2843 6.86187 62.118 6.75218 61.9352 6.67783C61.7524 6.60348 61.5567 6.56594 61.3594 6.56735C61.1621 6.56876 60.9669 6.60911 60.7852 6.68606L57.2722 8.16072C57.689 5.59484 58.7425 3.86254 62.9173 3.08396ZM37.6658 12.0101C35.9825 11.4203 34.3869 10.605 32.9226 9.58651C31.8235 8.74143 30.5471 8.15647 29.1894 7.87558C31.8599 5.31939 35.7769 2.46949 39.0838 3.08399C43.2586 3.86239 44.3119 5.59504 44.7288 8.1605L41.216 6.68606C41.0344 6.60979 40.8395 6.57003 40.6426 6.56906C40.4456 6.56808 40.2504 6.60591 40.068 6.68039C39.8857 6.75486 39.7198 6.86452 39.5798 7.00311C39.4399 7.14169 39.3286 7.30649 39.2523 7.48808C39.176 7.66968 39.1363 7.86452 39.1353 8.06148C39.1343 8.25844 39.1722 8.45367 39.2466 8.63601C39.3211 8.81835 39.4308 8.98424 39.5694 9.1242C39.7079 9.26416 39.8727 9.37546 40.0543 9.45174L44.0196 11.1158C43.1466 11.8373 42.0907 12.3028 40.9691 12.4607C39.8475 12.6185 38.7042 12.4626 37.6658 12.0101ZM60.9147 27.2177C56.6695 25.7367 55.1014 26.59 53.1956 28.0622C51.5733 29.4171 49.5559 30.2103 47.4453 30.3232C43.8913 30.7305 41.0308 26.6093 39.3484 23.3555C43.5992 21.5634 48.2061 20.7758 52.8108 21.0539C57.4156 21.3319 61.8942 22.6681 65.8985 24.9587C64.5986 26.4222 62.7649 27.864 60.9147 27.2177Z" fill="white"/>
</g>
</svg>
