<svg width="97" height="96" viewBox="0 0 97 96" fill="none" xmlns="http://www.w3.org/2000/svg">
<g id="testing 1">
<g id="Group">
<path id="Vector" d="M93.2773 82.5H88.7773V34.5H85.7773V82.5H10.7773V33H18.2773V34.5H13.7773C12.9478 34.5 12.2773 35.1705 12.2773 36V79.5C12.2773 80.3295 12.9478 81 13.7773 81H82.7773C83.6068 81 84.2773 80.3295 84.2773 79.5V36H81.2773V78H15.2773V37.5H18.2773V46.5C18.2773 47.3295 18.9478 48 19.7773 48H40.7773C41.6068 48 42.2773 47.3295 42.2773 46.5V37.5H55.7773V34.5H42.2773V33H55.7773V30H42.2773V25.5C42.2773 24.6705 41.6068 24 40.7773 24H19.7773C18.9478 24 18.2773 24.6705 18.2773 25.5V30H9.27734C8.44784 30 7.77734 30.6705 7.77734 31.5V82.5H3.27734C2.44784 82.5 1.77734 83.1705 1.77734 84V90C1.77734 92.481 3.79634 94.5 6.27734 94.5H90.2773C92.7583 94.5 94.7773 92.481 94.7773 90V84C94.7773 83.1705 94.1068 82.5 93.2773 82.5ZM21.2773 27H39.2773V45H21.2773V27ZM91.7773 90C91.7773 90.828 91.1053 91.5 90.2773 91.5H6.27734C5.44934 91.5 4.77734 90.828 4.77734 90V85.5H91.7773V90Z" fill="white"/>
<path id="Vector_2" d="M57.2773 24H59.4763C59.7403 24.8385 60.0763 25.65 60.4858 26.4285L58.9288 27.9855C58.3423 28.572 58.3423 29.52 58.9288 30.1065L63.1708 34.3485C63.7573 34.935 64.7053 34.935 65.2918 34.3485L66.8488 32.7915C67.6288 33.1995 68.4403 33.537 69.2773 33.801V36C69.2773 36.8295 69.9478 37.5 70.7773 37.5H76.7773C77.6068 37.5 78.2773 36.8295 78.2773 36V33.801C79.1158 33.537 79.9273 33.201 80.7058 32.7915L82.2628 34.3485C82.8493 34.935 83.7973 34.935 84.3838 34.3485L88.6258 30.1065C89.2123 29.52 89.2123 28.572 88.6258 27.9855L87.0688 26.4285C87.4768 25.6485 87.8143 24.837 88.0783 24H90.2773C91.1068 24 91.7773 23.3295 91.7773 22.5V16.5C91.7773 15.6705 91.1068 15 90.2773 15H88.0783C87.8143 14.1615 87.4783 13.35 87.0688 12.5715L88.6258 11.0145C89.2123 10.428 89.2123 9.48 88.6258 8.8935L84.3838 4.6515C83.7973 4.065 82.8493 4.065 82.2628 4.6515L80.7058 6.2085C79.9273 5.799 79.1158 5.463 78.2773 5.199V3C78.2773 2.1705 77.6068 1.5 76.7773 1.5H70.7773C69.9478 1.5 69.2773 2.1705 69.2773 3V5.199C68.4388 5.463 67.6273 5.799 66.8488 6.2085L65.2918 4.6515C64.7053 4.065 63.7573 4.065 63.1708 4.6515L58.9288 8.8935C58.3423 9.48 58.3423 10.428 58.9288 11.0145L60.4858 12.5715C60.0763 13.35 59.7403 14.1615 59.4763 15H57.2773C56.4478 15 55.7773 15.6705 55.7773 16.5V22.5C55.7773 23.3295 56.4478 24 57.2773 24ZM58.7773 18H60.6223C61.3228 18 61.9288 17.5155 62.0848 16.833C62.3848 15.5175 62.9038 14.2695 63.6253 13.122C63.9988 12.528 63.9118 11.757 63.4168 11.262L62.1088 9.954L64.2298 7.833L65.5378 9.141C66.0343 9.639 66.8068 9.723 67.3978 9.3495C68.5453 8.628 69.7933 8.109 71.1088 7.809C71.7928 7.653 72.2773 7.0455 72.2773 6.345V4.5H75.2773V6.345C75.2773 7.0455 75.7618 7.6515 76.4443 7.8075C77.7598 8.1075 79.0078 8.6265 80.1553 9.348C80.7478 9.7215 81.5188 9.6375 82.0153 9.1395L83.3233 7.8315L85.4443 9.9525L84.1363 11.2605C83.6413 11.7555 83.5543 12.528 83.9278 13.1205C84.6493 14.268 85.1683 15.516 85.4683 16.8315C85.6243 17.5155 86.2318 18 86.9323 18H88.7773V21H86.9323C86.2318 21 85.6258 21.4845 85.4698 22.167C85.1698 23.4825 84.6508 24.7305 83.9293 25.878C83.5558 26.472 83.6428 27.243 84.1378 27.738L85.4458 29.046L83.3248 31.167L82.0168 29.859C81.5203 29.3625 80.7478 29.277 80.1568 29.6505C79.0093 30.372 77.7613 30.891 76.4458 31.191C75.7618 31.347 75.2773 31.9545 75.2773 32.655V34.5H72.2773V32.655C72.2773 31.9545 71.7928 31.3485 71.1103 31.1925C69.7948 30.8925 68.5468 30.3735 67.3993 29.652C66.8068 29.2785 66.0358 29.364 65.5393 29.8605L64.2313 31.1685L62.1103 29.0475L63.4183 27.7395C63.9133 27.2445 64.0003 26.472 63.6268 25.8795C62.9053 24.732 62.3863 23.484 62.0863 22.1685C61.9303 21.4845 61.3228 21 60.6223 21H58.7773V18Z" fill="white"/>
<path id="Vector_3" d="M73.7773 30C79.5658 30 84.2773 25.2885 84.2773 19.5C84.2773 13.7115 79.5658 9 73.7773 9C67.9888 9 63.2773 13.7115 63.2773 19.5C63.2773 25.2885 67.9888 30 73.7773 30ZM73.7773 12C77.9128 12 81.2773 15.3645 81.2773 19.5C81.2773 23.6355 77.9128 27 73.7773 27C69.6418 27 66.2773 23.6355 66.2773 19.5C66.2773 15.3645 69.6418 12 73.7773 12Z" fill="white"/>
<path id="Vector_4" d="M79.7773 52.5V49.5H78.1573C77.9023 47.7255 77.2033 46.0965 76.1743 44.724L77.3233 43.575L75.2023 41.454L74.0533 42.603C72.6808 41.574 71.0518 40.875 69.2773 40.62V39H66.2773V40.62C64.5028 40.875 62.8738 41.574 61.5013 42.603L60.3523 41.454L58.2313 43.575L59.3803 44.724C58.3513 46.0965 57.6523 47.7255 57.3973 49.5H55.7773V52.5H57.3973C57.6523 54.2745 58.3513 55.9035 59.3803 57.276L58.2313 58.425L60.3523 60.546L61.5013 59.397C62.8738 60.426 64.5028 61.1235 66.2773 61.38V63H69.2773V61.38C71.0518 61.125 72.6808 60.426 74.0533 59.397L75.2023 60.546L77.3233 58.425L76.1743 57.276C77.2033 55.9035 77.9008 54.2745 78.1573 52.5H79.7773ZM75.2773 51C75.2773 55.1355 71.9128 58.5 67.7773 58.5C63.6418 58.5 60.2773 55.1355 60.2773 51C60.2773 46.8645 63.6418 43.5 67.7773 43.5C71.9128 43.5 75.2773 46.8645 75.2773 51Z" fill="white"/>
<path id="Vector_5" d="M67.7773 45C64.4683 45 61.7773 47.691 61.7773 51C61.7773 54.309 64.4683 57 67.7773 57C71.0863 57 73.7773 54.309 73.7773 51C73.7773 47.691 71.0863 45 67.7773 45ZM67.7773 54C66.1228 54 64.7773 52.6545 64.7773 51C64.7773 49.3455 66.1228 48 67.7773 48C69.4318 48 70.7773 49.3455 70.7773 51C70.7773 52.6545 69.4318 54 67.7773 54Z" fill="white"/>
<path id="Vector_6" d="M40.7773 51H19.7773C18.9478 51 18.2773 51.6705 18.2773 52.5V73.5C18.2773 74.3295 18.9478 75 19.7773 75H40.7773C41.6068 75 42.2773 74.3295 42.2773 73.5V52.5C42.2773 51.6705 41.6068 51 40.7773 51ZM39.2773 72H21.2773V54H39.2773V72Z" fill="white"/>
<path id="Vector_7" d="M28.6656 39.3496L25.4781 35.1001L23.0781 36.9001L27.5781 42.9001C27.8631 43.2796 28.3071 43.5001 28.7781 43.5001C28.7991 43.5001 28.8201 43.5001 28.8411 43.4986C29.3361 43.4776 29.7876 43.2151 30.0501 42.7951L37.5501 30.7951L35.0076 29.2036L28.6656 39.3496Z" fill="white"/>
<path id="Vector_8" d="M25.3398 70.0605L30.2792 65.121L35.2187 70.0605L37.3398 67.9395L32.4002 63L37.3398 58.0605L35.2187 55.9395L30.2792 60.879L25.3398 55.9395L23.2188 58.0605L28.1583 63L23.2188 67.9395L25.3398 70.0605Z" fill="white"/>
</g>
</g>
</svg>
