<svg width="96" height="96" viewBox="0 0 96 96" fill="none" xmlns="http://www.w3.org/2000/svg">
<g id="g183" clip-path="url(#clip0_4410_2588)">
<g id="g185">
<g id="Clip path group">
<mask id="mask0_4410_2588" style="mask-type:luminance" maskUnits="userSpaceOnUse" x="0" y="0" width="96" height="96">
<g id="clip-path">
<path id="path189" d="M1 1H95V95H1V1Z" fill="white" stroke="white" stroke-width="2"/>
</g>
</mask>
<g mask="url(#mask0_4410_2588)">
<g id="g187">
<g id="g193">
<g id="path195">
<mask id="path-2-inside-1_4410_2588" fill="white">
<path d="M7.49849 39.5039V38.4431C7.50865 30.2414 10.7712 22.3787 16.5707 16.5792C22.3701 10.7798 30.2329 7.51719 38.4345 7.50703C46.1083 7.51617 53.5056 10.3732 59.1935 15.5246C64.8813 20.6759 68.4548 27.7549 69.2217 35.3903L76.7385 42.2495C76.8249 41.3231 76.8729 40.4111 76.8729 39.5087V38.4479C76.8615 28.2569 72.808 18.4866 65.6019 11.2805C58.3958 4.07435 48.6255 0.0209556 38.4345 0.00952148C28.2435 0.0209556 18.4732 4.07435 11.2671 11.2805C4.06094 18.4866 0.00752789 28.2569 -0.00390625 38.4479V39.5087C-0.00390625 50.2271 6.14009 62.7166 18.2601 76.6318C23.73 82.8965 29.6861 88.7196 36.0729 94.0463L38.4297 95.9663V86.2175C30.8313 79.5599 7.49369 57.6335 7.49369 39.5183"/>
</mask>
<path d="M7.49849 39.5039V38.4431C7.50865 30.2414 10.7712 22.3787 16.5707 16.5792C22.3701 10.7798 30.2329 7.51719 38.4345 7.50703C46.1083 7.51617 53.5056 10.3732 59.1935 15.5246C64.8813 20.6759 68.4548 27.7549 69.2217 35.3903L76.7385 42.2495C76.8249 41.3231 76.8729 40.4111 76.8729 39.5087V38.4479C76.8615 28.2569 72.808 18.4866 65.6019 11.2805C58.3958 4.07435 48.6255 0.0209556 38.4345 0.00952148C28.2435 0.0209556 18.4732 4.07435 11.2671 11.2805C4.06094 18.4866 0.00752789 28.2569 -0.00390625 38.4479V39.5087C-0.00390625 50.2271 6.14009 62.7166 18.2601 76.6318C23.73 82.8965 29.6861 88.7196 36.0729 94.0463L38.4297 95.9663V86.2175C30.8313 79.5599 7.49369 57.6335 7.49369 39.5183" fill="white"/>
<path d="M7.49849 38.4431L5.49849 38.4406V38.4431H7.49849ZM38.4345 7.50703L38.4369 5.50703L38.432 5.50703L38.4345 7.50703ZM69.2217 35.3903L67.2317 35.5902L67.3082 36.3518L67.8736 36.8677L69.2217 35.3903ZM76.7385 42.2495L75.3904 43.7268L78.3569 46.4338L78.7298 42.4352L76.7385 42.2495ZM76.8729 38.4479H78.8729L78.8729 38.4457L76.8729 38.4479ZM38.4345 0.00952148L38.4367 -1.99048L38.4322 -1.99048L38.4345 0.00952148ZM-0.00390625 38.4479L-2.00391 38.4457V38.4479H-0.00390625ZM18.2601 76.6318L16.7519 77.9454L16.7535 77.9473L18.2601 76.6318ZM36.0729 94.0463L34.7919 95.5823L34.8007 95.5896L34.8097 95.5969L36.0729 94.0463ZM38.4297 95.9663L37.1665 97.5169L40.4297 100.175V95.9663H38.4297ZM38.4297 86.2175H40.4297V85.3108L39.7477 84.7132L38.4297 86.2175ZM9.49849 39.5039V38.4431H5.49849V39.5039H9.49849ZM9.49849 38.4455C9.508 30.7735 12.5599 23.4184 17.9849 17.9935L15.1564 15.165C8.98255 21.3389 5.50931 29.7094 5.49849 38.4406L9.49849 38.4455ZM17.9849 17.9935C23.4098 12.5685 30.7649 9.51654 38.437 9.50703L38.432 5.50703C29.7008 5.51785 21.3303 8.99115 15.1564 15.165L17.9849 17.9935ZM38.4321 9.50703C45.6105 9.51558 52.5303 12.1882 57.8509 17.007L60.536 14.0422C54.481 8.55828 46.6061 5.51677 38.4369 5.50703L38.4321 9.50703ZM57.8509 17.007C63.1715 21.8257 66.5143 28.4477 67.2317 35.5902L71.2117 35.1905C70.3953 27.0621 66.5911 19.5261 60.536 14.0422L57.8509 17.007ZM67.8736 36.8677L75.3904 43.7268L78.0866 40.7721L70.5698 33.913L67.8736 36.8677ZM78.7298 42.4352C78.8211 41.4564 78.8729 40.4819 78.8729 39.5087H74.8729C74.8729 40.3404 74.8286 41.1897 74.7471 42.0637L78.7298 42.4352ZM78.8729 39.5087V38.4479H74.8729V39.5087H78.8729ZM78.8729 38.4457C78.8609 27.725 74.5968 17.4469 67.0161 9.86626L64.1877 12.6947C71.0193 19.5263 74.862 28.7888 74.8729 38.4501L78.8729 38.4457ZM67.0161 9.86626C59.4355 2.28561 49.1574 -1.97845 38.4367 -1.99048L38.4322 2.00952C48.0936 2.02036 57.3561 5.86309 64.1877 12.6947L67.0161 9.86626ZM38.4322 -1.99048C27.7116 -1.97845 17.4335 2.28561 9.85285 9.86626L12.6813 12.6947C19.5129 5.86309 28.7754 2.02036 38.4367 2.00952L38.4322 -1.99048ZM9.85285 9.86626C2.2722 17.4469 -1.99188 27.725 -2.0039 38.4457L1.99609 38.4501C2.00693 28.7888 5.84968 19.5263 12.6813 12.6947L9.85285 9.86626ZM-2.00391 38.4479V39.5087H1.99609V38.4479H-2.00391ZM-2.00391 39.5087C-2.00391 50.9541 4.52393 63.9062 16.7519 77.9454L19.7682 75.3183C7.75626 61.5271 1.99609 49.5002 1.99609 39.5087H-2.00391ZM16.7535 77.9473C22.2927 84.2913 28.3242 90.188 34.7919 95.5823L37.3539 92.5104C31.048 87.2511 25.1673 81.5018 19.7666 75.3164L16.7535 77.9473ZM34.8097 95.5969L37.1665 97.5169L39.6929 94.4157L37.3361 92.4957L34.8097 95.5969ZM40.4297 95.9663V86.2175H36.4297V95.9663H40.4297ZM39.7477 84.7132C35.9894 81.4202 28.3572 74.3655 21.681 65.9238C14.9277 57.3848 9.49369 47.844 9.49369 39.5183H5.49369C5.49369 49.3077 11.7284 59.7878 18.5436 68.4051C25.4357 77.1198 33.2716 84.3571 37.1117 87.7218L39.7477 84.7132Z" fill="black" mask="url(#path-2-inside-1_4410_2588)"/>
</g>
</g>
<path id="path197" d="M71.7512 79.8127H62.5V70.5615H71.7512V79.8127Z" fill="white" stroke="black" stroke-width="2"/>
<g id="g199">
<path id="path201" d="M38.4395 23.6511C42.3598 23.6562 46.118 25.2157 48.8901 27.9878C51.6621 30.7598 53.2217 34.5181 53.2267 38.4383C53.2217 42.3586 51.6621 46.1168 48.8901 48.8888C46.118 51.6609 42.3598 53.2205 38.4395 53.2255C34.5193 53.2205 30.7611 51.6609 27.989 48.8888C25.217 46.1168 23.6574 42.3586 23.6523 38.4383C23.6574 34.5181 25.217 30.7598 27.989 27.9878C30.7611 25.2157 34.5193 23.6562 38.4395 23.6511ZM38.4407 28.8511L38.4384 28.8511C35.8969 28.854 33.4603 29.8649 31.6632 31.662C29.8661 33.4591 28.8552 35.8957 28.8523 38.4372L28.8523 38.4394C28.8552 40.981 29.8661 43.4176 31.6632 45.2147C33.4603 47.0118 35.8969 48.0227 38.4384 48.0255L38.4407 48.0255C40.9822 48.0227 43.4188 47.0118 45.2159 45.2147C47.013 43.4176 48.0239 40.981 48.0267 38.4394L48.0267 38.4372C48.0239 35.8957 47.013 33.4591 45.2159 31.662C43.4188 29.8649 40.9822 28.854 38.4407 28.8511Z" fill="white" stroke="black" stroke-width="2"/>
</g>
<g id="g203">
<path id="path205" d="M46.125 85.833V66.4382H51.325L51.325 85.8334L51.325 85.8351C51.3267 86.8466 51.7292 87.8162 52.4445 88.5315C53.1598 89.2467 54.1294 89.6493 55.1409 89.651H55.1426L78.8882 89.651L78.8899 89.651C79.9014 89.6493 80.871 89.2467 81.5862 88.5315C82.3015 87.8162 82.704 86.8466 82.7057 85.8351V85.8334V66.4382H87.9057V85.8325C87.9035 88.2214 86.9544 90.512 85.2664 92.2025C83.5787 93.8925 81.2901 94.8449 78.9017 94.851H55.1436C52.7524 94.8487 50.4598 93.8978 48.769 92.207C47.0783 90.5163 46.1274 88.224 46.125 85.833Z" fill="white" stroke="black" stroke-width="2"/>
</g>
<g id="g207">
<path id="path209" d="M91.1055 74.0913L67.7049 52.7428L67.031 52.1279L66.357 52.7428L42.9565 74.0912L39.4519 70.2503L67.031 45.0911L94.6102 70.2503L91.1055 74.0913Z" fill="white" stroke="black" stroke-width="2"/>
</g>
</g>
</g>
</g>
</g>
</g>
<defs>
<clipPath id="clip0_4410_2588">
<rect width="96" height="96" fill="white"/>
</clipPath>
</defs>
</svg>
