<svg width="97" height="97" viewBox="0 0 97 97" fill="none" xmlns="http://www.w3.org/2000/svg">
<g id="money 1" clip-path="url(#clip0_5370_2823)">
<path id="Vector" d="M81.1308 37.1833C81.464 38.1257 82.0802 38.9421 82.8951 39.5209C83.71 40.0997 84.6838 40.4125 85.6833 40.4167H92.15C93.4363 40.4167 94.6699 39.9057 95.5795 38.9961C96.489 38.0866 97 36.853 97 35.5667V4.85C97 3.5637 96.489 2.33008 95.5795 1.42053C94.6699 0.510981 93.4363 0 92.15 0L85.6833 0C84.6838 0.00414346 83.71 0.317002 82.8951 0.895775C82.0802 1.47455 81.464 2.29096 81.1308 3.23333H47.5769C45.4896 3.23166 43.4422 3.8056 41.6599 4.89203L15.5604 20.7952C14.5436 21.4086 13.7558 22.3384 13.3176 23.4422C12.8794 24.546 12.8151 25.763 13.1344 26.9068C13.4537 28.0506 14.139 29.0583 15.0855 29.7756C16.032 30.4929 17.1875 30.8802 18.375 30.8783C19.8446 30.8783 20.4961 30.3933 24.7059 29.0547C21.2288 33.3065 18.9568 38.4138 18.1273 43.8434C17.2978 49.273 17.9411 54.8257 19.9901 59.9217C18.6198 59.804 17.2437 59.7689 15.8692 59.8167C15.536 58.8743 14.9198 58.0579 14.1049 57.4791C13.29 56.9003 12.3162 56.5875 11.3167 56.5833H4.85C3.5637 56.5833 2.33008 57.0943 1.42053 58.0039C0.510981 58.9134 0 60.147 0 61.4333L0 92.15C0 93.4363 0.510981 94.6699 1.42053 95.5795C2.33008 96.489 3.5637 97 4.85 97H11.3167C12.3162 96.9959 13.29 96.683 14.1049 96.1042C14.9198 95.5255 15.536 94.709 15.8692 93.7667H49.4215C51.5088 93.7683 53.5562 93.1944 55.3385 92.108L81.438 76.2048C82.5849 75.515 83.4367 74.4261 83.8302 73.1469C84.2237 71.8676 84.131 70.4882 83.57 69.2731C83.0091 68.0579 82.0192 67.0927 80.7904 66.5624C79.5616 66.0322 78.1802 65.9742 76.9113 66.3997L72.2973 67.942C75.7736 63.6901 78.0449 58.583 78.8741 53.1538C79.7033 47.7246 79.0601 42.1724 77.0115 37.0766C78.3813 37.1942 79.7568 37.2298 81.1308 37.1833ZM85.6833 3.23333H92.15C92.5788 3.23333 92.99 3.40366 93.2932 3.70684C93.5963 4.01003 93.7667 4.42123 93.7667 4.85V35.5667C93.7667 35.9954 93.5963 36.4066 93.2932 36.7098C92.99 37.013 92.5788 37.1833 92.15 37.1833H85.6833C85.2546 37.1833 84.8434 37.013 84.5402 36.7098C84.237 36.4066 84.0667 35.9954 84.0667 35.5667V4.85C84.0667 4.42123 84.237 4.01003 84.5402 3.70684C84.8434 3.40366 85.2546 3.23333 85.6833 3.23333ZM19.0653 27.5335C18.5523 27.7012 17.9955 27.6746 17.5007 27.4587C17.0059 27.2428 16.6077 26.8528 16.3817 26.3626C16.1556 25.8724 16.1175 25.3162 16.2746 24.7998C16.4317 24.2834 16.773 23.8426 17.2337 23.5613L43.3445 7.65168C44.6192 6.87443 46.0839 6.46435 47.5769 6.46667H80.8333V33.95H78.6977C71.2417 33.95 69.5797 27.4833 61.852 27.4833H54.1082C50.613 27.4833 47.0806 23.7343 49.221 21.0167H60.882C64.0897 20.9793 67.1998 19.909 69.7511 17.9644C70.1078 17.7262 70.3553 17.3561 70.4392 16.9354C70.523 16.5147 70.4363 16.078 70.1981 15.7213C69.9599 15.3645 69.5898 15.117 69.1691 15.0332C68.7484 14.9494 68.3117 15.0361 67.955 15.2743C65.9367 16.8645 63.4512 17.7462 60.882 17.7833H49.0319C48.5082 17.8028 47.9887 17.8853 47.4847 18.0291L19.0653 27.5335ZM11.3167 93.7667H4.85C4.42123 93.7667 4.01003 93.5963 3.70684 93.2932C3.40366 92.99 3.23333 92.5788 3.23333 92.15V61.4333C3.23333 61.0046 3.40366 60.5934 3.70684 60.2902C4.01003 59.987 4.42123 59.8167 4.85 59.8167H11.3167C11.7454 59.8167 12.1566 59.987 12.4598 60.2902C12.763 60.5934 12.9333 61.0046 12.9333 61.4333V92.15C12.9333 92.5788 12.763 92.99 12.4598 93.2932C12.1566 93.5963 11.7454 93.7667 11.3167 93.7667ZM77.933 69.4666C78.4461 69.2988 79.0029 69.3254 79.4977 69.5413C79.9924 69.7571 80.3907 70.1472 80.6167 70.6374C80.8428 71.1276 80.8809 71.6838 80.7238 72.2002C80.5667 72.7166 80.2254 73.1574 79.7647 73.4387L53.6555 89.3483C52.3801 90.1252 50.915 90.5353 49.4215 90.5333H16.1667V63.05H18.3007C25.7551 63.05 27.4154 69.5167 35.1463 69.5167H42.8902C46.3789 69.5167 49.9178 73.2657 47.7773 75.9833H36.1163C32.9088 76.02 29.7988 77.091 27.2489 79.0372C26.9037 79.2799 26.667 79.648 26.5895 80.0628C26.5119 80.4776 26.5997 80.9063 26.834 81.2573C27.0683 81.6083 27.4305 81.8538 27.8433 81.9413C28.2562 82.0288 28.6869 81.9515 29.0434 81.7257C31.0616 80.1355 33.5472 79.2538 36.1163 79.2167H47.9665C48.4902 79.197 49.0096 79.1145 49.5137 78.9709L77.933 69.4666ZM65.2018 70.3153L51.6606 74.842C52.1246 70.962 48.2042 66.2736 42.8902 66.2736H35.1463C30.5049 66.2736 27.8439 62.5084 23.9994 60.9386C21.0806 55.218 20.2625 48.6544 21.6878 42.3924C23.113 36.1303 26.6912 30.5673 31.7982 26.6734L45.3378 22.1467C44.8738 26.0267 48.7959 30.7151 54.1082 30.7151H61.852C66.6374 30.7151 68.8377 34.3526 73.007 36.05C75.9255 41.7713 76.7427 48.3355 75.3163 54.5977C73.8898 60.8598 70.3102 66.4225 65.2018 70.3153Z" fill="white"/>
<path id="Vector_2" d="M42.8424 26.5326C42.706 26.1261 42.4138 25.7905 42.03 25.5995C41.6461 25.4085 41.2022 25.3778 40.7957 25.5141C37.6302 26.5753 34.7179 28.2788 32.2413 30.5177C29.7647 32.7567 27.7771 35.483 26.403 38.5258C25.0289 41.5685 24.2979 44.8623 24.2558 48.2007C24.2137 51.539 24.8615 54.8502 26.1584 57.9266C26.3261 58.3213 26.6436 58.6332 27.0412 58.7938C27.4389 58.9543 27.884 58.9503 28.2787 58.7826C28.6733 58.615 28.9853 58.2974 29.1458 57.8998C29.3063 57.5022 29.3023 57.0571 29.1347 56.6624C28.0119 53.9965 27.4516 51.1276 27.4888 48.2352C27.5259 45.3428 28.1597 42.4892 29.3506 39.853C30.5414 37.2169 32.2636 34.8549 34.4093 32.915C36.5551 30.9751 39.0782 29.4991 41.8207 28.5793C42.0222 28.5121 42.2085 28.4058 42.369 28.2665C42.5294 28.1273 42.6609 27.9578 42.7558 27.7677C42.8506 27.5776 42.9071 27.3707 42.922 27.1588C42.9369 26.9468 42.9098 26.734 42.8424 26.5326Z" fill="white"/>
<path id="Vector_3" d="M67.8657 40.3373C68.9884 43.0032 69.5488 45.8721 69.5116 48.7645C69.4745 51.6569 68.8406 54.5105 67.6498 57.1467C66.459 59.7828 64.7368 62.1448 62.5911 64.0847C60.4453 66.0246 57.9222 67.5006 55.1797 68.4204C54.7724 68.5568 54.4359 68.8494 54.2443 69.2338C54.0527 69.6182 54.0216 70.0631 54.158 70.4704C54.2943 70.8777 54.5869 71.2142 54.9713 71.4058C55.3558 71.5974 55.8006 71.6285 56.2079 71.4921C59.3739 70.4306 62.2866 68.7267 64.7634 66.4872C67.2403 64.2476 69.2279 61.5206 70.6017 58.4771C71.9756 55.4336 72.7061 52.1391 72.7474 48.8002C72.7887 45.4612 72.1401 42.1497 70.842 39.0731C70.6743 38.6784 70.3568 38.3665 69.9591 38.206C69.5615 38.0454 69.1164 38.0494 68.7217 38.2171C68.327 38.3847 68.0151 38.7023 67.8546 39.0999C67.6941 39.4975 67.698 39.9426 67.8657 40.3373Z" fill="white"/>
<path id="Vector_4" d="M58.2008 54.1585C58.2008 50.4935 54.7589 47.5512 50.1174 46.9886V38.9505C52.8658 39.4145 54.9674 41.0004 54.9674 42.8418C54.9674 43.2706 55.1378 43.6818 55.441 43.985C55.7441 44.2882 56.1553 44.4585 56.5841 44.4585C57.0129 44.4585 57.4241 44.2882 57.7273 43.985C58.0305 43.6818 58.2008 43.2706 58.2008 42.8418C58.2008 39.1768 54.7589 36.2345 50.1174 35.6719V33.9502C50.1174 33.5214 49.9471 33.1102 49.6439 32.807C49.3408 32.5038 48.9295 32.3335 48.5008 32.3335C48.072 32.3335 47.6608 32.5038 47.3576 32.807C47.0544 33.1102 46.8841 33.5214 46.8841 33.9502V35.6719C42.2427 36.2345 38.8008 39.1768 38.8008 42.8418C38.8008 46.5068 42.2427 49.4491 46.8841 50.0117V58.0498C44.1358 57.5858 42.0341 55.9999 42.0341 54.1585C42.0341 53.7297 41.8638 53.3185 41.5606 53.0153C41.2574 52.7122 40.8462 52.5418 40.4174 52.5418C39.9887 52.5418 39.5775 52.7122 39.2743 53.0153C38.9711 53.3185 38.8008 53.7297 38.8008 54.1585C38.8008 57.8235 42.2427 60.7658 46.8841 61.3284V63.0502C46.8841 63.4789 47.0544 63.8901 47.3576 64.1933C47.6608 64.4965 48.072 64.6668 48.5008 64.6668C48.9295 64.6668 49.3408 64.4965 49.6439 64.1933C49.9471 63.8901 50.1174 63.4789 50.1174 63.0502V61.3284C54.7589 60.7658 58.2008 57.8235 58.2008 54.1585ZM42.0341 42.8418C42.0341 41.0004 44.1358 39.4145 46.8841 38.9505V46.7331C44.1358 46.2692 42.0341 44.6832 42.0341 42.8418ZM50.1174 58.0498V50.2672C52.8658 50.7312 54.9674 52.3171 54.9674 54.1585C54.9674 55.9999 52.8658 57.5858 50.1174 58.0498Z" fill="white"/>
</g>
<defs>
<clipPath id="clip0_5370_2823">
<rect width="97" height="97" fill="white"/>
</clipPath>
</defs>
</svg>
