<svg width="96" height="96" viewBox="0 0 96 96" fill="none" xmlns="http://www.w3.org/2000/svg">
<g id="machine-learning 1" clip-path="url(#clip0_5362_3689)">
<g id="Group">
<path id="_x33_" d="M17.1312 35.203C16.3422 34.948 15.9154 34.0975 16.1502 33.3107C16.4059 32.524 17.2594 32.0987 18.0484 32.3545C20.5452 33.1412 22.7202 34.672 24.3207 36.6707C25.5792 38.2442 26.4972 40.1147 26.9239 42.1772C27.4782 42.0925 28.0332 42.0497 28.5882 42.0497C31.8094 42.0497 34.7532 43.3682 36.8659 45.4727C38.9779 47.5772 40.2792 50.4902 40.2792 53.722C40.2792 54.5507 39.6184 55.21 38.7859 55.21C37.9542 55.21 37.2717 54.5507 37.2717 53.722C37.2717 51.3197 36.3117 49.1507 34.7329 47.5982C33.1542 46.0247 30.9994 45.0475 28.5889 45.0475C27.0949 45.0475 25.7089 45.43 24.4932 46.0682C23.2339 46.7485 22.1674 47.7265 21.3567 48.8965C20.9089 49.5985 19.9699 49.768 19.2874 49.321C18.5832 48.8537 18.4122 47.9177 18.8607 47.2375C19.9272 45.643 21.3777 44.3462 23.0847 43.4312C23.3832 43.261 23.7034 43.1125 24.0229 42.985C23.7034 41.3267 22.9992 39.796 21.9754 38.542C20.7364 36.9887 19.0512 35.8195 17.1312 35.203ZM32.7687 77.1932C32.0862 77.6402 31.1472 77.449 30.6994 76.747C30.2727 76.045 30.4647 75.1315 31.1682 74.6845C32.1499 74.047 33.2382 73.558 34.4112 73.2385C35.5414 72.9197 36.7369 72.7285 37.9737 72.7285C41.1739 72.7285 44.0539 73.876 46.1659 75.7052C48.3417 77.5967 49.6647 80.212 49.6647 83.125C49.6647 83.9537 49.0039 84.613 48.1714 84.613C47.3397 84.613 46.6564 83.9537 46.6564 83.125C46.6564 81.1052 45.7182 79.2977 44.2032 77.9582C42.6244 76.5985 40.4269 75.748 37.9737 75.748C37.0137 75.748 36.0972 75.8755 35.2219 76.1087C34.3264 76.3637 33.5157 76.747 32.7687 77.1932ZM13.6324 53.062C14.4432 52.9772 15.1902 53.5727 15.2749 54.4015C15.3387 55.2302 14.7417 55.954 13.9099 56.0395C12.7579 56.146 11.6487 56.146 10.5814 56.0185C9.49318 55.891 8.44768 55.6345 7.44568 55.2527C6.67768 54.976 6.27268 54.1045 6.57118 53.3387C6.84793 52.573 7.72243 52.1695 8.49118 52.4672C9.23818 52.744 10.0699 52.9352 10.9444 53.0417C11.7979 53.1467 12.6942 53.1467 13.6324 53.062ZM31.4247 7.05323C31.6384 6.26648 32.4492 5.77748 33.2382 5.96948C34.0489 6.16073 34.5394 6.96848 34.3474 7.77623C34.2409 8.20148 34.1554 8.86073 34.2199 9.64748C34.2627 10.2212 34.3902 10.8595 34.6467 11.4542C34.9669 12.22 34.5829 13.0915 33.8149 13.4102C33.0679 13.708 32.1724 13.3465 31.8739 12.5807C31.4899 11.6455 31.2979 10.7312 31.2342 9.88073C31.1479 8.75423 31.2762 7.75523 31.4247 7.05323ZM36.0117 28.867C35.1799 28.867 34.4967 28.1867 34.4967 27.3572C34.4967 26.5285 35.1792 25.8482 36.0117 25.8482C37.7397 25.8482 39.3184 26.5495 40.4494 27.6977C41.5797 28.825 42.2839 30.3985 42.2839 32.1197C42.2839 33.8417 41.5797 35.4152 40.4494 36.5425C39.3184 37.69 37.7397 38.392 36.0117 38.392C35.1799 38.392 34.4967 37.7117 34.4967 36.8822C34.4967 36.0527 35.1792 35.3942 36.0117 35.3942C36.9079 35.3942 37.7187 35.0117 38.3157 34.4372C38.9134 33.8425 39.2764 33.034 39.2764 32.1197C39.2764 31.2272 38.9134 30.3977 38.3157 29.824C37.7187 29.2285 36.9079 28.867 36.0117 28.867ZM12.6094 71.326C12.2037 72.049 11.2864 72.304 10.5612 71.9005C9.85768 71.4962 9.60118 70.5812 10.0062 69.8582C10.6249 68.7955 11.3929 67.7965 12.2674 66.946C13.1637 66.0947 14.1664 65.3725 15.2757 64.7987C16.0009 64.4372 16.9182 64.714 17.3029 65.458C17.6652 66.181 17.3884 67.0952 16.6414 67.477C15.8097 67.9022 15.0417 68.455 14.3584 69.1142C13.6752 69.7727 13.0782 70.5167 12.6094 71.326ZM34.7959 64.9472C35.5002 64.5437 36.4182 64.777 36.8442 65.5C37.2492 66.202 37.0144 67.1372 36.2892 67.5407C34.4547 68.6042 32.3637 68.8165 30.4654 68.3065C28.5882 67.7965 26.8812 66.5845 25.8147 64.7567C24.7482 62.9282 24.5344 60.8447 25.0467 58.9532C25.5589 57.061 26.7964 55.3592 28.6309 54.3175C29.3352 53.8922 30.2524 54.1465 30.6784 54.8695C31.0842 55.5715 30.8277 56.4857 30.1242 56.9117C29.0149 57.55 28.2679 58.57 27.9484 59.7175C27.6499 60.8657 27.7774 62.1415 28.4172 63.247C29.0577 64.3525 30.1032 65.0965 31.2552 65.416C32.4064 65.7122 33.6657 65.5847 34.7959 64.9472ZM23.6592 21.9362C23.1469 21.277 23.2534 20.3417 23.9149 19.831C24.5554 19.321 25.5154 19.4267 26.0269 20.086C26.1552 20.2562 26.3044 20.4265 26.4327 20.554C27.0094 21.1075 27.6919 21.5327 28.4809 21.5965C29.2917 21.6812 30.2727 21.3835 31.4029 20.4902C31.7014 20.2352 32.0217 19.9802 32.3202 19.6825L32.3412 19.6397C33.8134 18.2582 35.4349 17.4925 37.0129 17.1947C38.8902 16.876 40.6827 17.1947 42.1114 17.9387C42.8584 18.3212 43.1352 19.2355 42.7512 19.9585C42.3672 20.7025 41.4709 20.9792 40.7247 20.596C39.8502 20.128 38.7192 19.9375 37.5462 20.1497C36.5007 20.341 35.4132 20.8517 34.4104 21.808C34.0264 22.2122 33.6424 22.552 33.2584 22.8287C31.4449 24.253 29.7379 24.721 28.2019 24.5717C26.6442 24.4442 25.3219 23.6792 24.3192 22.6802C24.0867 22.4252 23.8519 22.1912 23.6592 21.9362Z" fill="white"/>
<path id="_x32_" d="M49.2805 18.2791C48.4488 18.2791 47.7872 17.5988 47.7872 16.7693C47.7872 15.9398 48.4488 15.2813 49.2805 15.2813H56.0432C56.2997 14.5373 56.7048 13.8998 57.2388 13.3681C58.1133 12.4958 59.3073 11.9438 60.652 11.9438C61.996 11.9438 63.1907 12.4966 64.0862 13.3681C64.9615 14.2396 65.4947 15.4516 65.4947 16.7701C65.4947 18.1096 64.9615 19.3208 64.0862 20.1923C63.1907 21.0646 61.996 21.5963 60.652 21.5963C59.3073 21.5963 58.1133 21.0653 57.2388 20.1923C56.7048 19.6613 56.2997 19.0021 56.0432 18.2791H49.2805ZM70.828 64.8406C71.6597 64.8406 72.343 64.1603 72.343 63.3308C72.343 62.5013 71.6605 61.8428 70.828 61.8428C69.9955 61.8428 69.3347 62.5021 69.3347 63.3308C69.3347 64.1596 69.9955 64.8406 70.828 64.8406ZM70.828 67.5826C72.0002 67.5826 73.0675 67.1153 73.8572 66.3286C74.6252 65.5628 75.094 64.5001 75.094 63.3308C75.094 62.1616 74.6252 61.0981 73.8572 60.3331C73.0675 59.5673 72.0002 59.1001 70.828 59.1001C69.6542 59.1001 68.5878 59.5673 67.8198 60.3331C67.0518 61.0988 66.583 62.1616 66.583 63.3308C66.583 64.5001 67.0518 65.5636 67.8198 66.3286C68.587 67.1153 69.6535 67.5826 70.828 67.5826ZM48.1712 59.9723C47.3395 59.9723 46.6562 59.2921 46.6562 58.4626C46.6562 57.6331 47.3395 56.9746 48.1712 56.9746H60.0325C60.289 56.9746 60.502 57.0173 60.715 57.1231L65.11 58.8661C65.281 58.6538 65.494 58.4198 65.686 58.2076C67.009 56.9109 68.8217 56.0813 70.8272 56.0813C72.832 56.0813 74.6672 56.9101 75.9678 58.2076C77.2908 59.5253 78.1015 61.3321 78.1015 63.3308C78.1015 65.3296 77.2908 67.1581 75.9678 68.4541C74.6672 69.7726 72.8312 70.5803 70.8272 70.5803C68.821 70.5803 67.0083 69.7726 65.686 68.4541C64.3848 67.1573 63.5747 65.3296 63.5747 63.3308C63.5747 62.7353 63.6385 62.1406 63.7878 61.5661L59.7558 59.9716L48.1712 59.9723ZM48.1712 78.7448C47.3395 78.7448 46.6562 78.0863 46.6562 77.2576C46.6562 76.4288 47.3395 75.7478 48.1712 75.7478H57.1525C57.3873 75.0248 57.793 74.3656 58.3255 73.8338C59.2 72.9623 60.4165 72.4306 61.7605 72.4306C63.0828 72.4306 64.2993 72.9623 65.1738 73.8338C66.0483 74.7053 66.6033 75.9173 66.6033 77.2569C66.6033 78.5956 66.0483 79.7866 65.1738 80.6581C64.2993 81.5296 63.0828 82.0823 61.7605 82.0823C60.4165 82.0823 59.2 81.5296 58.3255 80.6581C57.7922 80.1263 57.3865 79.4881 57.1525 78.7441L48.1712 78.7448ZM63.0408 75.9601C62.7213 75.6413 62.251 75.4283 61.7612 75.4283C61.249 75.4283 60.7787 75.6413 60.46 75.9601C60.1187 76.2998 59.926 76.7468 59.926 77.2569C59.926 77.7668 60.1187 78.2131 60.46 78.5536C60.7795 78.8731 61.2497 79.0853 61.7612 79.0853C62.251 79.0853 62.7213 78.8731 63.0408 78.5536C63.3827 78.2138 63.5747 77.7668 63.5747 77.2569C63.5747 76.7468 63.3827 76.2998 63.0408 75.9601ZM70.828 28.1648C71.6597 28.1648 72.343 28.8241 72.343 29.6536C72.343 30.4831 71.6605 31.1633 70.828 31.1633C69.9955 31.1633 69.3347 30.4831 69.3347 29.6536C69.3347 28.8241 69.9955 28.1648 70.828 28.1648ZM78.742 44.8763C79.5737 44.8763 80.257 45.5348 80.257 46.3643C80.257 47.1938 79.5745 47.8741 78.742 47.8741C77.9095 47.8741 77.2488 47.1938 77.2488 46.3643C77.2488 45.5348 77.9102 44.8763 78.742 44.8763ZM48.1712 47.8741C47.3395 47.8741 46.6562 47.1938 46.6562 46.3643C46.6562 45.5348 47.3395 44.8763 48.1712 44.8763H71.6387C71.9365 43.4723 72.6408 42.2183 73.6008 41.2403C74.9238 39.9436 76.7372 39.1148 78.742 39.1148C80.7685 39.1148 82.582 39.9436 83.8833 41.2403C85.2063 42.5588 86.017 44.3656 86.017 46.3643C86.017 48.3631 85.2063 50.1916 83.8833 51.4883C82.582 52.8069 80.7685 53.6146 78.742 53.6146C76.7365 53.6146 74.923 52.8069 73.6008 51.4883C72.6408 50.5103 71.9365 49.2773 71.6387 47.8741H48.1712ZM75.7345 49.3839C76.5025 50.1496 77.569 50.6176 78.7427 50.6176C79.9375 50.6176 81.0047 50.1496 81.7728 49.3839C82.54 48.5979 83.0088 47.5343 83.0088 46.3651C83.0088 45.1958 82.54 44.1331 81.7728 43.3673C81.0047 42.6016 79.9375 42.1343 78.7427 42.1343C77.5697 42.1343 76.5032 42.6024 75.7345 43.3673C74.0702 45.0256 74.0702 47.7256 75.7345 49.3839ZM48.1712 36.0316C47.3395 36.0316 46.6562 35.3513 46.6562 34.5218C46.6562 33.6931 47.3395 33.0338 48.1712 33.0338H59.7558L63.7878 31.4393C63.6385 30.8648 63.5747 30.2701 63.5747 29.6536C63.5747 27.6548 64.3848 25.8481 65.686 24.5296C67.009 23.2328 68.8217 22.4251 70.8272 22.4251C72.832 22.4251 74.6672 23.2328 75.9678 24.5296C77.2908 25.8481 78.1015 27.6548 78.1015 29.6536C78.1015 31.6523 77.2908 33.4808 75.9678 34.7776C74.6672 36.0953 72.8312 36.9039 70.8272 36.9039C68.821 36.9039 67.0083 36.0953 65.686 34.7776C65.494 34.5653 65.281 34.3523 65.11 34.1183L60.715 35.8621C60.502 35.9686 60.289 36.0323 60.0325 36.0323L48.1712 36.0316ZM73.8572 26.6558C73.0675 25.8901 72.0002 25.4228 70.828 25.4228C69.6542 25.4228 68.5878 25.8908 67.8198 26.6558C67.0518 27.4216 66.583 28.4843 66.583 29.6536C66.583 30.8228 67.0518 31.8863 67.8198 32.6723C68.587 33.4381 69.6535 33.9053 70.828 33.9053C72.0002 33.9053 73.0675 33.4373 73.8572 32.6723C74.6252 31.8856 75.094 30.8228 75.094 29.6536C75.094 28.4843 74.6252 27.4216 73.8572 26.6558ZM61.9532 15.4726C61.6112 15.1538 61.1635 14.9408 60.652 14.9408C60.1405 14.9408 59.692 15.1538 59.3515 15.4726C59.0305 15.8123 58.8175 16.2586 58.8175 16.7693C58.8175 17.2793 59.0305 17.7256 59.3515 18.0661C59.692 18.3848 60.1405 18.5971 60.652 18.5971C61.1635 18.5971 61.6112 18.3848 61.9532 18.0661C62.2727 17.7256 62.4858 17.2793 62.4858 16.7693C62.485 16.2593 62.272 15.8123 61.9532 15.4726Z" fill="white"/>
<path id="_x31_" d="M46.6567 7.58487V83.0184C46.6567 87.9091 43.542 92.3949 38.5072 92.9469C37.1415 93.0961 35.7337 92.9259 34.4325 92.4586C31.9147 91.5234 29.7817 89.3971 29.0347 86.0589C28.821 85.1019 27.7335 84.6129 26.859 85.0801C24.4267 86.2284 21.9525 86.5899 19.7122 86.2921C17.664 86.0371 15.7867 85.1866 14.3362 83.9109C12.8857 82.6351 11.862 80.8921 11.4352 78.7869C11.0085 76.5976 11.2432 74.0244 12.3735 71.1331C12.672 70.3674 12.2887 69.4959 11.499 69.1981C11.2642 69.1134 11.0302 69.0916 10.7947 69.1134C8.96025 69.3264 7.3605 68.5614 6.18675 67.2849C5.397 66.4134 4.8 65.2861 4.45875 64.0749C4.11675 62.8629 4.032 61.5451 4.26675 60.2904C4.65075 58.2714 5.90925 56.3574 8.27775 55.2091C9.4725 54.6346 9.387 52.9554 8.19225 52.4664C6.35775 51.6376 4.971 50.1489 4.07475 48.3631C3.264 46.6839 2.88 44.7489 3.051 42.8349C3.20025 40.9434 3.86175 39.0931 5.09925 37.5624C6.4005 35.9679 8.36325 34.6921 11.0512 34.0756C12.0112 33.8416 12.48 32.7999 12.0532 31.9501C11.2425 30.2919 10.8375 28.3779 10.8802 26.4856C10.9237 24.7846 11.3287 23.1264 12.1177 21.6811C12.885 20.2779 14.0587 19.0876 15.6165 18.3009C16.9822 17.6206 18.6675 17.2591 20.673 17.3011C21.5047 17.3221 22.188 16.6629 22.209 15.8341C22.209 15.7494 22.209 15.6429 22.188 15.5371C21.996 14.2186 22.188 12.8791 22.7002 11.6671C23.106 10.7319 23.703 9.90237 24.471 9.26487C25.2382 8.64837 26.1772 8.20212 27.2655 8.03187C28.5885 7.81887 30.1665 8.03187 31.9582 8.79762C32.7262 9.11637 33.6225 8.75487 33.9427 7.98987C35.0092 5.67237 36.6735 4.20537 38.4232 3.50337C39.5752 3.03537 40.77 2.90862 41.8792 3.05712C44.3527 3.37512 46.4437 5.05437 46.6567 7.58487ZM48.0652 89.5674C49.0252 91.4806 50.3685 92.9686 51.948 94.0321C53.526 95.0949 55.3185 95.7331 57.153 95.9236C58.9875 96.1359 60.8647 95.9026 62.5935 95.2644C65.5583 94.1806 68.1188 91.8841 69.3982 88.4191C71.8732 89.3116 74.3475 89.5666 76.6725 89.2696C79.3402 88.9081 81.7725 87.8236 83.6707 86.1436C85.5908 84.4426 86.9557 82.1259 87.5107 79.3614C87.9368 77.1924 87.8512 74.7264 87.105 72.0481C89.0468 71.7511 90.732 70.7289 92.0332 69.3054C93.1425 68.0716 93.9743 66.5409 94.4438 64.8834C94.8923 63.2461 94.998 61.4611 94.6785 59.7384C94.251 57.5491 93.1417 55.4859 91.2008 53.8914C92.6513 52.7649 93.8033 51.3189 94.614 49.6824C95.6805 47.5134 96.15 45.0264 95.958 42.6024C95.745 40.1364 94.8698 37.7124 93.249 35.6926C91.8405 33.9496 89.8785 32.5246 87.3188 31.6321C87.894 29.9739 88.1722 28.1881 88.1295 26.4016C88.065 24.2544 87.5527 22.1071 86.508 20.2359C85.4618 18.3226 83.862 16.6854 81.729 15.6226C80.3422 14.9424 78.7207 14.4961 76.8863 14.3469C76.8652 13.0066 76.5877 11.6889 76.0545 10.4986C75.4785 9.13812 74.583 7.90512 73.4303 6.96912C72.279 6.01287 70.8495 5.33187 69.2063 5.07687C67.6913 4.84287 66.006 4.97037 64.1715 5.54487C62.7637 3.14187 60.7792 1.56912 58.6672 0.718619C57.0465 0.0811192 55.3395 -0.131881 53.739 0.0811192C52.0965 0.293369 50.5822 0.952619 49.3657 1.99437C48.897 2.37687 48.4912 2.84487 48.1072 3.35487C46.7632 1.59012 44.6295 0.399869 42.2617 0.0811192C40.662 -0.131881 38.955 0.0811192 37.3335 0.718619C35.2215 1.56912 33.2377 3.14187 31.8292 5.54487C29.9947 4.97037 28.3095 4.84287 26.7945 5.07687C25.152 5.33187 23.7225 6.01287 22.5495 6.96912C21.3975 7.90437 20.5222 9.13812 19.9252 10.4986C19.413 11.6889 19.1355 13.0074 19.1145 14.3469C17.2582 14.4954 15.6585 14.9416 14.2717 15.6226C12.117 16.6854 10.5382 18.3226 9.49275 20.2359C8.44725 22.1071 7.935 24.2544 7.87125 26.4016C7.8285 28.1874 8.106 29.9739 8.682 31.6321C6.1215 32.5246 4.1595 33.9496 2.751 35.6926C1.1085 37.7131 0.233995 40.1364 0.0419952 42.6024C-0.150005 45.0264 0.319495 47.5134 1.386 49.6824C2.19675 51.3196 3.34875 52.7649 4.79925 53.8914C2.8365 55.4859 1.72725 57.5491 1.3215 59.7384C0.980245 61.4611 1.08675 63.2469 1.55625 64.8834C2.02575 66.5416 2.8575 68.0724 3.96675 69.3054C5.268 70.7289 6.95325 71.7511 8.895 72.0481C8.148 74.7264 8.06325 77.1924 8.48925 79.3614C9.04425 82.1259 10.4092 84.4426 12.3292 86.1436C14.2282 87.8236 16.6597 88.9081 19.3267 89.2696C21.6307 89.5666 24.1267 89.3124 26.6017 88.4191C27.882 91.8841 30.4417 94.1806 33.4072 95.2644C35.1352 95.9026 37.0125 96.1359 38.8477 95.9236C43.0087 95.4556 46.2727 92.9686 48.0652 89.5674ZM49.665 7.58487C49.815 6.13887 50.4112 5.01162 51.3075 4.24662C52.0747 3.60912 53.0573 3.18387 54.1237 3.05637C55.233 2.90787 56.4277 3.03537 57.558 3.50262C59.5425 4.28937 61.2495 6.05412 62.0595 8.01012C62.4007 8.77587 63.2752 9.11562 64.044 8.79687C65.8365 8.03112 67.4153 7.81887 68.7375 8.03112C69.8258 8.20137 70.7647 8.64762 71.5327 9.26412C72.3008 9.90162 72.8985 10.7311 73.3035 11.6664C73.8158 12.8784 74.007 14.2179 73.8158 15.5364C73.644 16.4716 74.37 17.3221 75.309 17.3011C77.3355 17.2584 79.0208 17.6199 80.3865 18.3009C81.9435 19.0876 83.1172 20.2779 83.8853 21.6811C84.6742 23.1271 85.08 24.7854 85.122 26.4856C85.1655 28.3779 84.7598 30.2919 83.9273 31.9501C83.5433 32.9281 83.9062 33.8214 84.9518 34.0756C87.639 34.6921 89.6025 35.9679 90.9038 37.5624C92.1413 39.0931 92.8027 40.9426 92.9512 42.8349C93.1005 44.7489 92.7375 46.6831 91.9275 48.3631C91.0312 50.1489 89.6453 51.6376 87.7883 52.4664C87.468 52.6156 87.1695 52.8706 87.0202 53.2104C86.6588 53.9544 86.9565 54.8476 87.7035 55.2091C90.093 56.3574 91.3305 58.2714 91.7355 60.2904C91.9703 61.5451 91.884 62.8629 91.5435 64.0749C90.7538 66.9031 88.4287 69.4966 85.2285 69.1134H85.2075C84.9727 69.0924 84.7162 69.1134 84.4815 69.1981C83.7142 69.4959 83.3302 70.3681 83.628 71.1331C84.759 74.0244 84.9938 76.5976 84.546 78.7869C84.141 80.8921 83.0947 82.6351 81.666 83.9109C80.2148 85.1866 78.3375 86.0371 76.29 86.2921C74.028 86.5891 71.5748 86.2284 69.1215 85.0801C68.268 84.6129 67.1797 85.1011 66.9668 86.0589C66.2197 89.3971 64.086 91.5234 61.569 92.4586C60.2685 92.9259 58.86 93.0969 57.4942 92.9469C56.1292 92.7984 54.8063 92.3311 53.6333 91.5444C51.3293 90.0136 49.665 87.1644 49.665 83.0184V7.58487Z" fill="white"/>
</g>
</g>
<defs>
<clipPath id="clip0_5362_3689">
<rect width="96" height="96" fill="white"/>
</clipPath>
</defs>
</svg>
