<svg width="110" height="98" viewBox="0 0 110 98" fill="none" xmlns="http://www.w3.org/2000/svg">
<g id="Group">
<path id="Vector" d="M54.1429 1C44.7143 1 37 8.71429 37 18.1429C37 27.5714 44.7143 35.2857 54.1429 35.2857C63.5714 35.2857 71.2857 27.5714 71.2857 18.1429C71.2857 8.71429 63.5714 1 54.1429 1ZM54.1429 31.8571C46.6 31.8571 40.4286 25.6857 40.4286 18.1429C40.4286 10.6 46.6 4.42857 54.1429 4.42857C61.6857 4.42857 67.8571 10.6 67.8571 18.1429C67.8571 25.6857 61.6857 31.8571 54.1429 31.8571Z" fill="white" stroke="white"/>
<path id="Vector_2" d="M1 71.2859V91.8574C1 94.6859 3.31429 97.0002 6.14286 97.0002H26.7143C29.5429 97.0002 31.8571 94.6859 31.8571 91.8574V71.2859C31.8571 68.4574 29.5429 66.1431 26.7143 66.1431H6.14286C3.31429 66.1431 1 68.4574 1 71.2859ZM28.4286 71.2859V91.8574C28.4286 92.8002 27.6571 93.5716 26.7143 93.5716H6.14286C5.2 93.5716 4.42857 92.8002 4.42857 91.8574V71.2859C4.42857 70.3431 5.2 69.5716 6.14286 69.5716H26.7143C27.6571 69.5716 28.4286 70.3431 28.4286 71.2859Z" fill="white" stroke="white"/>
<path id="Vector_3" d="M76.4254 96.9999H107.283C107.883 96.9999 108.483 96.6571 108.74 96.1428C109.083 95.6285 109.083 95.0285 108.825 94.4285L93.3968 65.2856C93.1397 64.6856 92.5397 64.3428 91.8539 64.3428C91.1682 64.3428 90.6539 64.6856 90.3111 65.2856L74.8825 94.4285C74.6254 94.9428 74.6254 95.6285 74.9682 96.1428C75.2254 96.6571 75.8254 96.9999 76.4254 96.9999ZM91.8539 69.8285L104.454 93.5713H79.2539L91.8539 69.8285Z" fill="white" stroke="white"/>
<path id="Vector_4" d="M14.7132 35.2859V56.8859L12.4846 54.6574C11.7989 53.9716 10.7703 53.9716 10.0846 54.6574C9.39888 55.3431 9.39888 56.3716 10.0846 57.0574L15.2275 62.2002C15.5703 62.5431 15.9989 62.7145 16.4275 62.7145C16.856 62.7145 17.2846 62.5431 17.6275 62.2002L22.7703 57.0574C23.456 56.3716 23.456 55.3431 22.7703 54.6574C22.0846 53.9716 21.056 53.9716 20.3703 54.6574L18.1417 56.8859V35.2859C18.1417 27.7431 24.3132 21.5716 31.856 21.5716C32.7989 21.5716 33.5703 20.8002 33.5703 19.8574C33.5703 18.9145 32.7989 18.1431 31.856 18.1431C22.4275 18.1431 14.7132 25.8574 14.7132 35.2859Z" fill="white" stroke="white"/>
<path id="Vector_5" d="M66.6566 93.9143C66.9994 94.2572 67.428 94.4286 67.8566 94.4286C68.2852 94.4286 68.7137 94.2572 69.0566 93.9143L74.1994 88.7715C74.8852 88.0858 74.8852 87.0572 74.1994 86.3715L69.0566 81.2286C68.3709 80.5429 67.3423 80.5429 66.6566 81.2286C65.9709 81.9144 65.9709 82.9429 66.6566 83.6286L68.8852 85.8572H36.9994C36.0566 85.8572 35.2852 86.6286 35.2852 87.5715C35.2852 88.5144 36.0566 89.2858 36.9994 89.2858H68.8852L66.6566 91.5144C65.9709 92.2001 65.9709 93.2286 66.6566 93.9143Z" fill="white" stroke="white"/>
<path id="Vector_6" d="M68.7126 44.7142H41.284V42.9999C41.284 42.0571 40.5126 41.2856 39.5698 41.2856C38.6269 41.2856 37.8555 42.0571 37.8555 42.9999V49.8571C37.8555 50.7999 38.6269 51.5714 39.5698 51.5714C40.5126 51.5714 41.284 50.7999 41.284 49.8571V48.1428H68.7126C69.6555 48.1428 70.4269 47.3714 70.4269 46.4285C70.4269 45.4856 69.6555 44.7142 68.7126 44.7142Z" fill="white" stroke="white"/>
<path id="Vector_7" d="M68.7126 54.9999H55.8555V53.2856C55.8555 52.3427 55.084 51.5713 54.1412 51.5713C53.1983 51.5713 52.4269 52.3427 52.4269 53.2856V54.9999H39.5698C38.6269 54.9999 37.8555 55.7713 37.8555 56.7141C37.8555 57.657 38.6269 58.4284 39.5698 58.4284H52.4269V60.1427C52.4269 61.0856 53.1983 61.857 54.1412 61.857C55.084 61.857 55.8555 61.0856 55.8555 60.1427V58.4284H68.7126C69.6555 58.4284 70.4269 57.657 70.4269 56.7141C70.4269 55.7713 69.6555 54.9999 68.7126 54.9999Z" fill="white" stroke="white"/>
<path id="Vector_8" d="M68.7126 72.1426C69.6555 72.1426 70.4269 71.3712 70.4269 70.4284V63.5712C70.4269 62.6284 69.6555 61.8569 68.7126 61.8569C67.7698 61.8569 66.9983 62.6284 66.9983 63.5712V65.2855H39.5698C38.6269 65.2855 37.8555 66.0569 37.8555 66.9998C37.8555 67.9426 38.6269 68.7141 39.5698 68.7141H66.9983V70.4284C66.9983 71.3712 67.7698 72.1426 68.7126 72.1426Z" fill="white" stroke="white"/>
<path id="Vector_9" d="M80.7126 26.7143C81.1412 26.7143 81.5698 26.5429 81.9126 26.2C82.5983 25.5143 82.5983 24.4857 81.9126 23.8L80.284 22.1714C85.9412 23.8 90.1412 29.1143 90.1412 35.2857V61C90.1412 61.9429 90.9126 62.7143 91.8555 62.7143C92.7983 62.7143 93.5698 61.9429 93.5698 61V35.2857C93.5698 26.8857 87.484 19.8571 79.4269 18.4L81.9126 15.9143C82.5983 15.2286 82.5983 14.2 81.9126 13.5143C81.2269 12.8286 80.1983 12.8286 79.5126 13.5143L74.3698 18.6571C73.684 19.3429 73.684 20.3714 74.3698 21.0571L79.5126 26.2C79.8555 26.5429 80.284 26.7143 80.7126 26.7143Z" fill="white" stroke="white"/>
</g>
</svg>
