<svg width="91" height="96" viewBox="0 0 91 96" fill="none" xmlns="http://www.w3.org/2000/svg">
<g id="Vector">
<mask id="path-1-inside-1_5370_1433" fill="white">
<path fill-rule="evenodd" clip-rule="evenodd" d="M56.8717 65.5415C57.2467 65.2957 57.4134 64.8332 57.2884 64.404C57.1592 63.979 56.7676 63.6832 56.3176 63.6832H55.3301V65.7082H56.3176C56.5176 65.7082 56.7092 65.6499 56.8717 65.5415ZM40.751 37.6991C41.4094 37.6991 41.9427 38.2324 41.9427 38.8908C41.9427 39.545 41.4094 40.0783 40.751 40.0783H27.1295C26.4754 40.0783 25.942 39.545 25.942 38.8908C25.942 38.2324 26.4754 37.6991 27.1295 37.6991H40.751ZM40.751 47.6659C41.0719 47.6576 41.3844 47.7784 41.6177 47.9993C41.8469 48.2243 41.976 48.5326 41.976 48.8534C41.976 49.1743 41.8469 49.4826 41.6177 49.7076C41.3844 49.9326 41.0719 50.0535 40.751 50.041H35.401C35.0802 50.0535 34.7718 49.9326 34.5385 49.7076C34.3093 49.4826 34.176 49.1743 34.176 48.8534C34.176 48.5326 34.3093 48.2243 34.5385 47.9993C34.7718 47.7784 35.0802 47.6576 35.401 47.6659H40.751ZM40.751 42.6825C41.4094 42.6825 41.9427 43.2159 41.9427 43.87C41.9427 44.5284 41.4094 45.0576 40.751 45.0576H31.0259C30.3676 45.0576 29.8384 44.5284 29.8384 43.87C29.8384 43.2159 30.3675 42.6825 31.0259 42.6825H40.751ZM52.9549 63.679H49.6799V65.704H52.9549V63.679ZM47.3007 63.679H46.3131H46.3173C45.759 63.679 45.3048 64.1332 45.3048 64.6915C45.3048 65.254 45.759 65.7082 46.3173 65.7082H47.3048L47.3007 63.679ZM48.4923 68.0832H56.3591V79.7079H2.37983V16.2821H56.3591V31.4865H18.8835C18.2293 31.4865 17.6959 32.0199 17.6959 32.6741V60.3747C17.6959 60.8205 17.946 61.2288 18.3418 61.433L23.7502 65.4914C23.9668 65.6914 24.2502 65.7997 24.5418 65.7997H27.3086C28.0169 68.7873 30.6837 70.8956 33.7545 70.8956C36.8254 70.8956 39.4921 68.7872 40.2005 65.7997H43.113C43.5839 67.1622 44.8672 68.0789 46.3131 68.0831L48.4923 68.0832ZM67.0173 54.7913C66.3757 54.7747 65.8632 54.2455 65.8632 53.6038C65.8632 52.9621 66.3757 52.4329 67.0173 52.4163H67.7257C68.3674 52.4329 68.8798 52.9621 68.8798 53.6038C68.8798 54.2455 68.3673 54.7747 67.7257 54.7913H67.0173ZM86.017 51.1205C86.042 51.1871 86.0629 51.2538 86.0754 51.3205L88.3796 59.2289H88.3754C88.7921 59.3164 89.1713 59.5206 89.4671 59.8164C89.8712 60.2206 90.0962 60.7664 90.0962 61.3332V65.0416C90.0962 66.2249 89.1379 67.1832 87.9546 67.1832H84.9211C83.8044 69.4541 81.4961 70.8917 78.9669 70.8917C76.4377 70.8917 74.1293 69.4541 73.0127 67.1832H63.4418C62.7876 67.1832 62.2542 66.6499 62.2542 65.9957V65.804H59.5209C59.3584 66.2791 59.0875 66.7124 58.7292 67.0749V84.6879C58.7167 90.9297 53.6583 95.984 47.4171 96H11.3164C5.07462 95.9833 0.0160002 90.9291 0 84.6879V11.3121C0.0166669 5.07035 5.07504 0.0160002 11.3164 0H47.4171C53.6588 0.0166669 58.7175 5.07088 58.7292 11.3121V31.4873H63.4418C64.1001 31.4873 64.6335 32.0206 64.6335 32.6748V36.3124H74.121C80.5711 36.3124 83.7544 43.3542 85.2881 48.608L86.017 51.1205ZM84.0212 52.7413H71.9293C71.2751 52.7413 70.7418 52.208 70.7418 51.5538V42.487C70.7418 41.8286 71.2751 41.2953 71.9293 41.2953H79.1627C77.9668 39.7119 76.1126 38.7536 74.1251 38.6911H64.6333V59.1873H74.7292H74.7251C77.1834 57.1373 80.7501 57.1373 83.2085 59.1873H85.896L84.0212 52.7413ZM80.7753 43.6745H73.1127V50.3621H83.3294C82.7377 48.0412 81.8835 45.7954 80.7753 43.6745ZM78.9711 62.2582C78.1586 62.2624 77.4253 62.754 77.1169 63.5082C76.8044 64.2583 76.9752 65.1207 77.546 65.6999C78.021 66.1749 78.7043 66.3791 79.3627 66.2458C80.021 66.1166 80.571 65.6624 80.8252 65.0416C81.0836 64.4208 81.0127 63.7166 80.6419 63.1541C80.2669 62.5958 79.6419 62.2624 78.9711 62.2582ZM33.7578 62.2582C32.9453 62.2624 32.212 62.754 31.9036 63.5082C31.5911 64.2583 31.7619 65.1207 32.3327 65.6999C32.8077 66.1749 33.491 66.3833 34.1494 66.2499C34.8077 66.1208 35.3619 65.6666 35.6161 65.0458C35.8744 64.4249 35.8036 63.7166 35.4286 63.1583C35.0577 62.5999 34.4286 62.2624 33.7536 62.2624L33.7578 62.2582ZM85.017 61.5624V61.5665C85.4712 62.579 85.6628 63.6957 85.5712 64.8041H87.7253V61.5665L85.017 61.5624ZM72.363 64.8041C72.2755 63.6957 72.4672 62.5791 72.9213 61.5665H64.6338V64.8083L72.363 64.8041ZM81.9631 61.2707C80.7506 60.0582 78.9255 59.6915 77.3381 60.3499C75.7507 61.0083 74.7173 62.5582 74.7173 64.2749C74.7173 65.9917 75.7506 67.5416 77.3381 68.1958C78.9256 68.8542 80.7506 68.4917 81.9631 67.275C83.6215 65.6166 83.6215 62.9291 81.9631 61.2707ZM33.7503 57.6499C35.3003 57.6499 36.8045 58.1916 37.9921 59.1874H62.2547V33.8666H20.0708V59.1874H29.5126C30.7043 58.1916 32.2043 57.6499 33.7544 57.6499H33.7503ZM39.7962 61.5625V61.5666C40.0629 62.1541 40.2379 62.7791 40.3213 63.425H43.1713C43.513 62.5833 44.1755 61.9166 45.013 61.5666L39.7962 61.5625ZM27.1881 63.425C27.2673 62.7792 27.4464 62.1542 27.7089 61.5666H22.4589L24.9339 63.425H27.1881ZM36.7591 61.2708C35.7549 60.2708 34.3174 59.8374 32.9299 60.1125C31.5382 60.3917 30.3799 61.3458 29.8383 62.6542C29.2966 63.9626 29.4424 65.4584 30.2299 66.6376C31.0175 67.8168 32.3383 68.5251 33.755 68.5251C35.4759 68.5293 37.03 67.4918 37.6884 65.9043C38.3467 64.3126 37.9799 62.4834 36.7591 61.2708ZM59.4591 63.425H62.255V61.5666H57.6174C58.4549 61.9166 59.1173 62.5833 59.4591 63.425ZM21.3915 88.3501H37.6754C38.317 88.3334 38.8254 87.8042 38.8254 87.1625C38.8254 86.5209 38.317 85.9916 37.6754 85.975H21.3915C20.7498 85.9917 20.2415 86.5209 20.2415 87.1625C20.2415 87.8042 20.7498 88.3334 21.3915 88.3501ZM21.3915 9.58226H28.5207L28.5249 9.58643C29.1665 9.56559 29.679 9.04059 29.679 8.39473C29.679 7.75306 29.1665 7.228 28.5249 7.2072H21.3915C20.7498 7.22804 20.2415 7.75304 20.2415 8.39473C20.2415 9.04058 20.7498 9.56563 21.3915 9.58643L21.3915 9.58226ZM33.9377 9.58226H37.3378V9.58643C37.9836 9.56559 38.4919 9.04059 38.4919 8.39473C38.4919 7.75306 37.9836 7.228 37.3378 7.2072H33.9419C33.296 7.22804 32.7877 7.75304 32.7877 8.39473C32.7877 9.04058 33.2961 9.56563 33.9419 9.58643L33.9377 9.58226ZM2.37898 82.0919V84.6877C2.39565 89.617 6.38734 93.6087 11.3166 93.6212H47.4172C52.3465 93.6087 56.3424 89.617 56.359 84.6877V82.0919H2.37898ZM56.3582 13.9076V11.3118C56.3416 6.38254 52.3499 2.39082 47.4207 2.37834H11.3157C6.38649 2.39084 2.39477 6.38254 2.37812 11.3118V13.9035L56.3582 13.9076Z"/>
</mask>
<path fill-rule="evenodd" clip-rule="evenodd" d="M56.8717 65.5415C57.2467 65.2957 57.4134 64.8332 57.2884 64.404C57.1592 63.979 56.7676 63.6832 56.3176 63.6832H55.3301V65.7082H56.3176C56.5176 65.7082 56.7092 65.6499 56.8717 65.5415ZM40.751 37.6991C41.4094 37.6991 41.9427 38.2324 41.9427 38.8908C41.9427 39.545 41.4094 40.0783 40.751 40.0783H27.1295C26.4754 40.0783 25.942 39.545 25.942 38.8908C25.942 38.2324 26.4754 37.6991 27.1295 37.6991H40.751ZM40.751 47.6659C41.0719 47.6576 41.3844 47.7784 41.6177 47.9993C41.8469 48.2243 41.976 48.5326 41.976 48.8534C41.976 49.1743 41.8469 49.4826 41.6177 49.7076C41.3844 49.9326 41.0719 50.0535 40.751 50.041H35.401C35.0802 50.0535 34.7718 49.9326 34.5385 49.7076C34.3093 49.4826 34.176 49.1743 34.176 48.8534C34.176 48.5326 34.3093 48.2243 34.5385 47.9993C34.7718 47.7784 35.0802 47.6576 35.401 47.6659H40.751ZM40.751 42.6825C41.4094 42.6825 41.9427 43.2159 41.9427 43.87C41.9427 44.5284 41.4094 45.0576 40.751 45.0576H31.0259C30.3676 45.0576 29.8384 44.5284 29.8384 43.87C29.8384 43.2159 30.3675 42.6825 31.0259 42.6825H40.751ZM52.9549 63.679H49.6799V65.704H52.9549V63.679ZM47.3007 63.679H46.3131H46.3173C45.759 63.679 45.3048 64.1332 45.3048 64.6915C45.3048 65.254 45.759 65.7082 46.3173 65.7082H47.3048L47.3007 63.679ZM48.4923 68.0832H56.3591V79.7079H2.37983V16.2821H56.3591V31.4865H18.8835C18.2293 31.4865 17.6959 32.0199 17.6959 32.6741V60.3747C17.6959 60.8205 17.946 61.2288 18.3418 61.433L23.7502 65.4914C23.9668 65.6914 24.2502 65.7997 24.5418 65.7997H27.3086C28.0169 68.7873 30.6837 70.8956 33.7545 70.8956C36.8254 70.8956 39.4921 68.7872 40.2005 65.7997H43.113C43.5839 67.1622 44.8672 68.0789 46.3131 68.0831L48.4923 68.0832ZM67.0173 54.7913C66.3757 54.7747 65.8632 54.2455 65.8632 53.6038C65.8632 52.9621 66.3757 52.4329 67.0173 52.4163H67.7257C68.3674 52.4329 68.8798 52.9621 68.8798 53.6038C68.8798 54.2455 68.3673 54.7747 67.7257 54.7913H67.0173ZM86.017 51.1205C86.042 51.1871 86.0629 51.2538 86.0754 51.3205L88.3796 59.2289H88.3754C88.7921 59.3164 89.1713 59.5206 89.4671 59.8164C89.8712 60.2206 90.0962 60.7664 90.0962 61.3332V65.0416C90.0962 66.2249 89.1379 67.1832 87.9546 67.1832H84.9211C83.8044 69.4541 81.4961 70.8917 78.9669 70.8917C76.4377 70.8917 74.1293 69.4541 73.0127 67.1832H63.4418C62.7876 67.1832 62.2542 66.6499 62.2542 65.9957V65.804H59.5209C59.3584 66.2791 59.0875 66.7124 58.7292 67.0749V84.6879C58.7167 90.9297 53.6583 95.984 47.4171 96H11.3164C5.07462 95.9833 0.0160002 90.9291 0 84.6879V11.3121C0.0166669 5.07035 5.07504 0.0160002 11.3164 0H47.4171C53.6588 0.0166669 58.7175 5.07088 58.7292 11.3121V31.4873H63.4418C64.1001 31.4873 64.6335 32.0206 64.6335 32.6748V36.3124H74.121C80.5711 36.3124 83.7544 43.3542 85.2881 48.608L86.017 51.1205ZM84.0212 52.7413H71.9293C71.2751 52.7413 70.7418 52.208 70.7418 51.5538V42.487C70.7418 41.8286 71.2751 41.2953 71.9293 41.2953H79.1627C77.9668 39.7119 76.1126 38.7536 74.1251 38.6911H64.6333V59.1873H74.7292H74.7251C77.1834 57.1373 80.7501 57.1373 83.2085 59.1873H85.896L84.0212 52.7413ZM80.7753 43.6745H73.1127V50.3621H83.3294C82.7377 48.0412 81.8835 45.7954 80.7753 43.6745ZM78.9711 62.2582C78.1586 62.2624 77.4253 62.754 77.1169 63.5082C76.8044 64.2583 76.9752 65.1207 77.546 65.6999C78.021 66.1749 78.7043 66.3791 79.3627 66.2458C80.021 66.1166 80.571 65.6624 80.8252 65.0416C81.0836 64.4208 81.0127 63.7166 80.6419 63.1541C80.2669 62.5958 79.6419 62.2624 78.9711 62.2582ZM33.7578 62.2582C32.9453 62.2624 32.212 62.754 31.9036 63.5082C31.5911 64.2583 31.7619 65.1207 32.3327 65.6999C32.8077 66.1749 33.491 66.3833 34.1494 66.2499C34.8077 66.1208 35.3619 65.6666 35.6161 65.0458C35.8744 64.4249 35.8036 63.7166 35.4286 63.1583C35.0577 62.5999 34.4286 62.2624 33.7536 62.2624L33.7578 62.2582ZM85.017 61.5624V61.5665C85.4712 62.579 85.6628 63.6957 85.5712 64.8041H87.7253V61.5665L85.017 61.5624ZM72.363 64.8041C72.2755 63.6957 72.4672 62.5791 72.9213 61.5665H64.6338V64.8083L72.363 64.8041ZM81.9631 61.2707C80.7506 60.0582 78.9255 59.6915 77.3381 60.3499C75.7507 61.0083 74.7173 62.5582 74.7173 64.2749C74.7173 65.9917 75.7506 67.5416 77.3381 68.1958C78.9256 68.8542 80.7506 68.4917 81.9631 67.275C83.6215 65.6166 83.6215 62.9291 81.9631 61.2707ZM33.7503 57.6499C35.3003 57.6499 36.8045 58.1916 37.9921 59.1874H62.2547V33.8666H20.0708V59.1874H29.5126C30.7043 58.1916 32.2043 57.6499 33.7544 57.6499H33.7503ZM39.7962 61.5625V61.5666C40.0629 62.1541 40.2379 62.7791 40.3213 63.425H43.1713C43.513 62.5833 44.1755 61.9166 45.013 61.5666L39.7962 61.5625ZM27.1881 63.425C27.2673 62.7792 27.4464 62.1542 27.7089 61.5666H22.4589L24.9339 63.425H27.1881ZM36.7591 61.2708C35.7549 60.2708 34.3174 59.8374 32.9299 60.1125C31.5382 60.3917 30.3799 61.3458 29.8383 62.6542C29.2966 63.9626 29.4424 65.4584 30.2299 66.6376C31.0175 67.8168 32.3383 68.5251 33.755 68.5251C35.4759 68.5293 37.03 67.4918 37.6884 65.9043C38.3467 64.3126 37.9799 62.4834 36.7591 61.2708ZM59.4591 63.425H62.255V61.5666H57.6174C58.4549 61.9166 59.1173 62.5833 59.4591 63.425ZM21.3915 88.3501H37.6754C38.317 88.3334 38.8254 87.8042 38.8254 87.1625C38.8254 86.5209 38.317 85.9916 37.6754 85.975H21.3915C20.7498 85.9917 20.2415 86.5209 20.2415 87.1625C20.2415 87.8042 20.7498 88.3334 21.3915 88.3501ZM21.3915 9.58226H28.5207L28.5249 9.58643C29.1665 9.56559 29.679 9.04059 29.679 8.39473C29.679 7.75306 29.1665 7.228 28.5249 7.2072H21.3915C20.7498 7.22804 20.2415 7.75304 20.2415 8.39473C20.2415 9.04058 20.7498 9.56563 21.3915 9.58643L21.3915 9.58226ZM33.9377 9.58226H37.3378V9.58643C37.9836 9.56559 38.4919 9.04059 38.4919 8.39473C38.4919 7.75306 37.9836 7.228 37.3378 7.2072H33.9419C33.296 7.22804 32.7877 7.75304 32.7877 8.39473C32.7877 9.04058 33.2961 9.56563 33.9419 9.58643L33.9377 9.58226ZM2.37898 82.0919V84.6877C2.39565 89.617 6.38734 93.6087 11.3166 93.6212H47.4172C52.3465 93.6087 56.3424 89.617 56.359 84.6877V82.0919H2.37898ZM56.3582 13.9076V11.3118C56.3416 6.38254 52.3499 2.39082 47.4207 2.37834H11.3157C6.38649 2.39084 2.39477 6.38254 2.37812 11.3118V13.9035L56.3582 13.9076Z" fill="white"/>
<path d="M37.2591 61.275V61.2708H36.2591V61.275H37.2591ZM56.8717 65.5415L56.3235 64.7052L56.317 64.7095L56.8717 65.5415ZM57.2884 64.404L58.2486 64.1244L58.2452 64.1133L57.2884 64.404ZM55.3301 63.6832V62.6832H54.3301V63.6832H55.3301ZM55.3301 65.7082H54.3301V66.7082H55.3301V65.7082ZM40.751 47.6659V48.6659H40.764L40.777 48.6656L40.751 47.6659ZM41.6177 47.9993L42.3183 47.2857L42.3118 47.2793L42.3051 47.273L41.6177 47.9993ZM41.6177 49.7076L42.3119 50.4275L42.3183 50.4212L41.6177 49.7076ZM40.751 50.041L40.79 49.0417L40.7705 49.041H40.751V50.041ZM35.401 50.041V49.041H35.3815L35.3621 49.0417L35.401 50.041ZM34.5385 49.7076L33.8379 50.4212L33.8444 50.4275L34.5385 49.7076ZM34.5385 47.9993L33.8511 47.273L33.8444 47.2793L33.8379 47.2857L34.5385 47.9993ZM35.401 47.6659L35.375 48.6656L35.388 48.6659H35.401V47.6659ZM52.9549 63.679H53.9549V62.679H52.9549V63.679ZM49.6799 63.679V62.679H48.6799V63.679H49.6799ZM49.6799 65.704H48.6799V66.704H49.6799V65.704ZM52.9549 65.704V66.704H53.9549V65.704H52.9549ZM47.3007 63.679L48.3006 63.677L48.2986 62.679H47.3007V63.679ZM47.3048 65.7082V66.7082H48.3069L48.3048 65.7061L47.3048 65.7082ZM48.4923 68.0832L48.4923 69.0832H48.4923V68.0832ZM56.3591 68.0832H57.3591V67.0832H56.3591V68.0832ZM56.3591 79.7079V80.7079H57.3591V79.7079H56.3591ZM2.37983 79.7079H1.37983V80.7079H2.37983V79.7079ZM2.37983 16.2821V15.2821H1.37983V16.2821H2.37983ZM56.3591 16.2821H57.3591V15.2821H56.3591V16.2821ZM56.3591 31.4865V32.4865H57.3591V31.4865H56.3591ZM18.3418 61.433L18.942 60.6331L18.8748 60.5828L18.8002 60.5443L18.3418 61.433ZM23.7502 65.4914L24.4285 64.7566L24.3911 64.7221L24.3504 64.6915L23.7502 65.4914ZM27.3086 65.7997L28.2816 65.569L28.0992 64.7997H27.3086V65.7997ZM40.2005 65.7997V64.7997H39.4099L39.2275 65.569L40.2005 65.7997ZM43.113 65.7997L44.0582 65.4731L43.8255 64.7997H43.113V65.7997ZM46.3131 68.0831L46.3102 69.0831H46.313L46.3131 68.0831ZM67.0173 54.7913L66.9914 55.791L67.0044 55.7913H67.0173V54.7913ZM67.0173 52.4163V51.4163H67.0044L66.9914 51.4166L67.0173 52.4163ZM67.7257 52.4163L67.7517 51.4166L67.7387 51.4163H67.7257V52.4163ZM67.7257 54.7913V55.7913H67.7387L67.7516 55.791L67.7257 54.7913ZM86.017 51.1205L85.0566 51.3991L85.0673 51.4358L85.0807 51.4716L86.017 51.1205ZM86.0754 51.3205L85.0925 51.5048L85.1015 51.553L85.1153 51.6002L86.0754 51.3205ZM88.3796 59.2289V60.2289H89.7125L89.3397 58.9492L88.3796 59.2289ZM88.3754 59.2289V58.2289L88.1699 60.2076L88.3754 59.2289ZM89.4671 59.8164L88.7599 60.5235L88.76 60.5236L89.4671 59.8164ZM84.9211 67.1832V66.1832H84.2985L84.0238 66.742L84.9211 67.1832ZM73.0127 67.1832L73.9101 66.742L73.6354 66.1832H73.0127V67.1832ZM62.2542 65.804H63.2542V64.804H62.2542V65.804ZM59.5209 65.804V64.804H58.8061L58.5747 65.4804L59.5209 65.804ZM58.7292 67.0749L58.018 66.3719L57.7292 66.664V67.0749H58.7292ZM58.7292 84.6879L59.7292 84.6899V84.6879H58.7292ZM47.4171 96V97H47.4196L47.4171 96ZM11.3164 96L11.3137 97H11.3164V96ZM0 84.6879H-1L-0.999997 84.6904L0 84.6879ZM0 11.3121L-1 11.3095V11.3121H0ZM11.3164 0V-1L11.3138 -0.999997L11.3164 0ZM47.4171 0L47.4197 -1H47.4171V0ZM58.7292 11.3121H59.7292V11.3102L58.7292 11.3121ZM58.7292 31.4873H57.7292V32.4873H58.7292V31.4873ZM64.6335 36.3124H63.6335V37.3124H64.6335V36.3124ZM85.2881 48.608L86.2485 48.3294L86.248 48.3278L85.2881 48.608ZM84.0212 52.7413L84.9814 52.462L84.7718 51.7413H84.0212V52.7413ZM79.1627 41.2953V42.2953H81.1711L79.9606 40.6926L79.1627 41.2953ZM74.1251 38.6911L74.1565 37.6916L74.1408 37.6911H74.1251V38.6911ZM64.6333 38.6911V37.6911H63.6333V38.6911H64.6333ZM64.6333 59.1873H63.6333V60.1873H64.6333V59.1873ZM74.7251 59.1873L74.0846 58.4193L71.9645 60.1873H74.7251V59.1873ZM83.2085 59.1873L82.568 59.9553L82.8462 60.1873H83.2085V59.1873ZM85.896 59.1873V60.1873H87.2282L86.8562 58.9081L85.896 59.1873ZM80.7753 43.6745L81.6615 43.2114L81.381 42.6745H80.7753V43.6745ZM73.1127 43.6745V42.6745H72.1127V43.6745H73.1127ZM73.1127 50.3621H72.1127V51.3621H73.1127V50.3621ZM83.3294 50.3621V51.3621H84.6163L84.2984 50.115L83.3294 50.3621ZM78.9711 62.2582L78.9773 61.2581L78.966 61.2582L78.9711 62.2582ZM77.1169 63.5082L78.04 63.8929L78.0425 63.8867L77.1169 63.5082ZM77.546 65.6999L76.8338 66.4019L76.8389 66.4071L77.546 65.6999ZM79.3627 66.2458L79.1702 65.2645L79.1642 65.2657L79.3627 66.2458ZM80.8252 65.0416L79.902 64.6574L79.8998 64.6627L80.8252 65.0416ZM80.6419 63.1541L81.4768 62.6037L81.472 62.5966L80.6419 63.1541ZM33.7578 62.2582L34.4687 62.9615L36.1659 61.2458L33.7527 61.2582L33.7578 62.2582ZM31.9036 63.5082L32.8267 63.8929L32.8292 63.8867L31.9036 63.5082ZM32.3327 65.6999L31.6205 66.4019L31.6256 66.4071L32.3327 65.6999ZM34.1494 66.2499L33.9569 65.2686L33.9509 65.2698L34.1494 66.2499ZM35.6161 65.0458L34.6928 64.6616L34.6907 64.6669L35.6161 65.0458ZM35.4286 63.1583L34.5956 63.7116L34.5985 63.7159L35.4286 63.1583ZM33.7536 62.2624L33.0427 61.5592L31.3577 63.2624H33.7536V62.2624ZM85.017 61.5624L85.0186 60.5624L84.017 60.5608V61.5624H85.017ZM85.017 61.5665H84.017V61.7805L84.1046 61.9758L85.017 61.5665ZM85.5712 64.8041L84.5746 64.7217L84.4851 65.8041H85.5712V64.8041ZM87.7253 64.8041V65.8041H88.7253V64.8041H87.7253ZM87.7253 61.5665H88.7253V60.5681L87.7269 60.5665L87.7253 61.5665ZM72.363 64.8041L72.3635 65.8041L73.445 65.8035L73.3599 64.7254L72.363 64.8041ZM72.9213 61.5665L73.8338 61.9758L74.4659 60.5665H72.9213V61.5665ZM64.6338 61.5665V60.5665H63.6338V61.5665H64.6338ZM64.6338 64.8083H63.6338V65.8088L64.6343 65.8083L64.6338 64.8083ZM77.3381 68.1958L77.7212 67.2721L77.7191 67.2713L77.3381 68.1958ZM81.9631 67.275L81.256 66.5679L81.2548 66.5691L81.9631 67.275ZM37.9921 59.1874L37.3495 59.9536L37.6283 60.1874H37.9921V59.1874ZM62.2547 59.1874V60.1874H63.2547V59.1874H62.2547ZM62.2547 33.8666H63.2547V32.8666H62.2547V33.8666ZM20.0708 33.8666V32.8666H19.0708V33.8666H20.0708ZM20.0708 59.1874H19.0708V60.1874H20.0708V59.1874ZM29.5126 59.1874V60.1874H29.8754L30.1539 59.9547L29.5126 59.1874ZM39.7962 61.5625L39.797 60.5625L38.7962 60.5617V61.5625H39.7962ZM39.7962 61.5666H38.7962V61.783L38.8857 61.98L39.7962 61.5666ZM40.3213 63.425L39.3295 63.553L39.442 64.425H40.3213V63.425ZM43.1713 63.425V64.425H43.8446L44.0979 63.8011L43.1713 63.425ZM45.013 61.5666L45.3986 62.4893L45.0138 60.5666L45.013 61.5666ZM27.1881 63.425V64.425H28.073L28.1807 63.5467L27.1881 63.425ZM27.7089 61.5666L28.622 61.9746L29.251 60.5666H27.7089V61.5666ZM22.4589 61.5666V60.5666H19.4616L21.8584 62.3663L22.4589 61.5666ZM24.9339 63.425L24.3334 64.2247L24.6002 64.425H24.9339V63.425ZM36.7591 61.2708L36.0535 61.9794L36.0544 61.9803L36.7591 61.2708ZM32.9299 60.1125L32.7354 59.1316L32.7333 59.1321L32.9299 60.1125ZM29.8383 62.6542L30.7622 63.0367L30.7622 63.0367L29.8383 62.6542ZM33.755 68.5251L33.7574 67.5251H33.755V68.5251ZM37.6884 65.9043L38.6121 66.2874L38.6124 66.2865L37.6884 65.9043ZM59.4591 63.425L58.5325 63.8012L58.7858 64.425H59.4591V63.425ZM62.255 63.425V64.425H63.255V63.425H62.255ZM62.255 61.5666H63.255V60.5666H62.255V61.5666ZM57.6174 61.5666V60.5666L57.2318 62.4893L57.6174 61.5666ZM21.3915 88.3501L21.3655 89.3497L21.3785 89.3501H21.3915V88.3501ZM37.6754 88.3501V89.3501H37.6884L37.7013 89.3497L37.6754 88.3501ZM37.6754 85.975L37.7013 84.9753L37.6883 84.975H37.6754V85.975ZM21.3915 85.975V84.975H21.3785L21.3655 84.9753L21.3915 85.975ZM21.3915 9.58226V8.58226H20.3896L20.3915 9.58409L21.3915 9.58226ZM28.5207 9.58226L29.2277 8.87507L28.9349 8.58226H28.5207V9.58226ZM28.5249 9.58643L27.8179 10.2936L28.1243 10.6L28.5573 10.5859L28.5249 9.58643ZM28.5249 7.2072L28.5573 6.20773L28.5411 6.2072H28.5249V7.2072ZM21.3915 7.2072V6.2072H21.3752L21.359 6.20773L21.3915 7.2072ZM21.3915 9.58643L21.3591 10.5859L22.3934 10.6194L22.3915 9.5846L21.3915 9.58643ZM33.9377 9.58226V8.58226H31.5255L33.2302 10.289L33.9377 9.58226ZM37.3378 9.58226H38.3378V8.58226H37.3378V9.58226ZM37.3378 9.58643H36.3378V10.6192L37.37 10.5859L37.3378 9.58643ZM37.3378 7.2072L37.37 6.20772L37.3539 6.2072H37.3378V7.2072ZM33.9419 7.2072V6.2072H33.9258L33.9096 6.20772L33.9419 7.2072ZM33.9419 9.58643L33.9097 10.5859L36.4349 10.6672L34.6494 8.87973L33.9419 9.58643ZM2.37898 82.0919V81.0919H1.37898V82.0919H2.37898ZM2.37898 84.6877H1.37897L1.37898 84.6911L2.37898 84.6877ZM11.3166 93.6212L11.314 94.6212H11.3166V93.6212ZM47.4172 93.6212V94.6212H47.4198L47.4172 93.6212ZM56.359 84.6877L57.359 84.6911V84.6877H56.359ZM56.359 82.0919H57.359V81.0919H56.359V82.0919ZM56.3582 13.9076L56.3582 14.9076L57.3582 14.9077V13.9076H56.3582ZM56.3582 11.3118H57.3582L57.3582 11.3084L56.3582 11.3118ZM47.4207 2.37834L47.4232 1.37834H47.4207V2.37834ZM11.3157 2.37834V1.37834L11.3132 1.37834L11.3157 2.37834ZM2.37812 11.3118L1.37812 11.3084V11.3118H2.37812ZM2.37812 13.9035H1.37812V14.9034L2.37805 14.9035L2.37812 13.9035ZM57.42 66.3779C58.1681 65.8874 58.4946 64.9693 58.2485 64.1244L56.3283 64.6837C56.3301 64.6897 56.3297 64.6947 56.3281 64.699C56.3273 64.7011 56.3264 64.7025 56.3259 64.7032C56.3255 64.7036 56.325 64.7042 56.3235 64.7052L57.42 66.3779ZM58.2452 64.1133C57.9895 63.272 57.2131 62.6832 56.3176 62.6832V64.6832C56.32 64.6832 56.3211 64.6835 56.3216 64.6837C56.3225 64.684 56.3237 64.6846 56.3253 64.6857C56.3284 64.6881 56.3305 64.691 56.3316 64.6948L58.2452 64.1133ZM56.3176 62.6832H55.3301V64.6832H56.3176V62.6832ZM54.3301 63.6832V65.7082H56.3301V63.6832H54.3301ZM55.3301 66.7082H56.3176V64.7082H55.3301V66.7082ZM56.3176 66.7082C56.7135 66.7082 57.0984 66.5923 57.4265 66.3736L56.317 64.7095C56.3181 64.7088 56.3192 64.7083 56.32 64.7081C56.3208 64.7078 56.3202 64.7082 56.3176 64.7082V66.7082ZM40.751 38.6991C40.8571 38.6991 40.9427 38.7847 40.9427 38.8908H42.9427C42.9427 37.6801 41.9617 36.6991 40.751 36.6991V38.6991ZM40.9427 38.8908C40.9427 38.9904 40.8594 39.0783 40.751 39.0783V41.0783C41.9594 41.0783 42.9427 40.0995 42.9427 38.8908H40.9427ZM40.751 39.0783H27.1295V41.0783H40.751V39.0783ZM27.1295 39.0783C27.0277 39.0783 26.942 38.9927 26.942 38.8908H24.942C24.942 40.0973 25.9231 41.0783 27.1295 41.0783V39.0783ZM26.942 38.8908C26.942 38.7824 27.0299 38.6991 27.1295 38.6991V36.6991C25.9208 36.6991 24.942 37.6824 24.942 38.8908H26.942ZM27.1295 38.6991H40.751V36.6991H27.1295V38.6991ZM40.777 48.6656C40.8308 48.6642 40.8875 48.685 40.9303 48.7256L42.3051 47.273C41.8813 46.8719 41.3129 46.651 40.7251 46.6663L40.777 48.6656ZM40.9171 48.7128C40.9546 48.7496 40.976 48.8007 40.976 48.8534H42.976C42.976 48.2645 42.7392 47.6989 42.3183 47.2857L40.9171 48.7128ZM40.976 48.8534C40.976 48.9062 40.9546 48.9573 40.9171 48.994L42.3183 50.4212C42.7392 50.0079 42.976 49.4424 42.976 48.8534H40.976ZM40.9236 48.9878C40.8827 49.0272 40.8335 49.0434 40.79 49.0417L40.7121 51.0402C41.3102 51.0635 41.8861 50.838 42.3119 50.4275L40.9236 48.9878ZM40.751 49.041H35.401V51.041H40.751V49.041ZM35.3621 49.0417C35.3219 49.0433 35.2761 49.0297 35.2326 48.9878L33.8444 50.4275C34.2676 50.8356 34.8384 51.0636 35.4399 51.0402L35.3621 49.0417ZM35.2391 48.9941C35.1953 48.9511 35.176 48.8974 35.176 48.8534H33.176C33.176 49.4511 33.4233 50.0141 33.8379 50.4212L35.2391 48.9941ZM35.176 48.8534C35.176 48.8094 35.1953 48.7558 35.2391 48.7128L33.8379 47.2857C33.4233 47.6928 33.176 48.2558 33.176 48.8534H35.176ZM35.2259 48.7256C35.2713 48.6826 35.3246 48.6643 35.375 48.6656L35.427 46.6663C34.8357 46.6509 34.2724 46.8743 33.8511 47.273L35.2259 48.7256ZM35.401 48.6659H40.751V46.6659H35.401V48.6659ZM40.751 43.6825C40.8594 43.6825 40.9427 43.7704 40.9427 43.87H42.9427C42.9427 42.6613 41.9594 41.6825 40.751 41.6825V43.6825ZM40.9427 43.87C40.9427 43.9716 40.8617 44.0576 40.751 44.0576V46.0576C41.9571 46.0576 42.9427 45.0852 42.9427 43.87H40.9427ZM40.751 44.0576H31.0259V46.0576H40.751V44.0576ZM31.0259 44.0576C30.9198 44.0576 30.8384 43.9761 30.8384 43.87H28.8384C28.8384 45.0807 29.8153 46.0576 31.0259 46.0576V44.0576ZM30.8384 43.87C30.8384 43.7659 30.9221 43.6825 31.0259 43.6825V41.6825C29.813 41.6825 28.8384 42.6659 28.8384 43.87H30.8384ZM31.0259 43.6825H40.751V41.6825H31.0259V43.6825ZM52.9549 62.679H49.6799V64.679H52.9549V62.679ZM48.6799 63.679V65.704H50.6799V63.679H48.6799ZM49.6799 66.704H52.9549V64.704H49.6799V66.704ZM53.9549 65.704V63.679H51.9549V65.704H53.9549ZM47.3007 62.679H46.3131V64.679H47.3007V62.679ZM46.3131 64.679H46.3173V62.679H46.3131V64.679ZM46.3173 62.679C45.2067 62.679 44.3048 63.5809 44.3048 64.6915H46.3048C46.3048 64.6897 46.305 64.6888 46.305 64.6887C46.3051 64.6884 46.3051 64.6882 46.3053 64.6879C46.3056 64.687 46.3067 64.6851 46.3088 64.683C46.3109 64.6809 46.3128 64.6798 46.3136 64.6795C46.314 64.6793 46.3142 64.6793 46.3144 64.6792C46.3146 64.6792 46.3155 64.679 46.3173 64.679V62.679ZM44.3048 64.6915C44.3048 65.8036 45.204 66.7082 46.3173 66.7082V64.7082C46.3155 64.7082 46.3147 64.708 46.3146 64.708C46.3144 64.708 46.3143 64.7079 46.3141 64.7078C46.3135 64.7076 46.3118 64.7067 46.3098 64.7047C46.3078 64.7027 46.3066 64.7006 46.3059 64.6992C46.3057 64.6985 46.3054 64.6978 46.3052 64.6969C46.3051 64.6961 46.3048 64.6944 46.3048 64.6915H44.3048ZM46.3173 66.7082H47.3048V64.7082H46.3173V66.7082ZM48.3048 65.7061L48.3006 63.677L46.3007 63.6811L46.3048 65.7103L48.3048 65.7061ZM48.4923 69.0832H56.3591V67.0832H48.4923V69.0832ZM55.3591 68.0832V79.7079H57.3591V68.0832H55.3591ZM56.3591 78.7079H2.37983V80.7079H56.3591V78.7079ZM3.37983 79.7079V16.2821H1.37983V79.7079H3.37983ZM2.37983 17.2821H56.3591V15.2821H2.37983V17.2821ZM55.3591 16.2821V31.4865H57.3591V16.2821H55.3591ZM56.3591 30.4865H18.8835V32.4865H56.3591V30.4865ZM18.8835 30.4865C17.677 30.4865 16.6959 31.4676 16.6959 32.6741H18.6959C18.6959 32.5722 18.7816 32.4865 18.8835 32.4865V30.4865ZM16.6959 32.6741V60.3747H18.6959V32.6741H16.6959ZM16.6959 60.3747C16.6959 61.1964 17.1564 61.9467 17.8834 62.3217L18.8002 60.5443C18.7356 60.5109 18.6959 60.4446 18.6959 60.3747H16.6959ZM17.7416 62.2328L23.15 66.2912L24.3504 64.6915L18.942 60.6331L17.7416 62.2328ZM23.0719 66.2262C23.4764 66.5996 24.003 66.7997 24.5418 66.7997V64.7997C24.4973 64.7997 24.4573 64.7832 24.4285 64.7566L23.0719 66.2262ZM24.5418 66.7997H27.3086V64.7997H24.5418V66.7997ZM26.3356 66.0304C27.1508 69.469 30.2203 71.8956 33.7545 71.8956V69.8956C31.147 69.8956 28.883 68.1056 28.2816 65.569L26.3356 66.0304ZM33.7545 71.8956C37.2888 71.8956 40.3582 69.4688 41.1735 66.0304L39.2275 65.569C38.626 68.1055 36.362 69.8956 33.7545 69.8956V71.8956ZM40.2005 66.7997H43.113V64.7997H40.2005V66.7997ZM42.1679 66.1264C42.778 67.8917 44.4399 69.0777 46.3102 69.0831L46.316 67.0831C45.2945 67.0801 44.3898 66.4327 44.0582 65.4731L42.1679 66.1264ZM46.313 69.0831L48.4923 69.0832L48.4924 67.0832L46.3132 67.0831L46.313 69.0831ZM67.0433 53.7917C66.947 53.7892 66.8632 53.7067 66.8632 53.6038H64.8632C64.8632 54.7843 65.8043 55.7602 66.9914 55.791L67.0433 53.7917ZM66.8632 53.6038C66.8632 53.5009 66.9471 53.4184 67.0433 53.4159L66.9914 51.4166C65.8043 51.4474 64.8632 52.4234 64.8632 53.6038H66.8632ZM67.0173 53.4163H67.7257V51.4163H67.0173V53.4163ZM67.6997 53.4159C67.796 53.4184 67.8798 53.5009 67.8798 53.6038H69.8798C69.8798 52.4233 68.9387 51.4474 67.7517 51.4166L67.6997 53.4159ZM67.8798 53.6038C67.8798 53.7067 67.796 53.7892 67.6998 53.7917L67.7516 55.791C68.9387 55.7602 69.8798 54.7842 69.8798 53.6038H67.8798ZM67.7257 53.7913H67.0173V55.7913H67.7257V53.7913ZM85.0807 51.4716C85.0869 51.4882 85.0904 51.4989 85.0922 51.5051C85.094 51.5112 85.0936 51.5107 85.0925 51.5048L87.0582 51.1362C87.0314 50.993 86.9902 50.8675 86.9534 50.7693L85.0807 51.4716ZM85.1153 51.6002L87.4195 59.5087L89.3397 58.9492L87.0354 51.0407L85.1153 51.6002ZM88.3796 58.2289H88.3754V60.2289H88.3796V58.2289ZM88.1699 60.2076C88.3999 60.2559 88.6038 60.3674 88.7599 60.5235L90.1742 59.1094C89.7387 58.6738 89.1843 58.377 88.5809 58.2503L88.1699 60.2076ZM88.76 60.5236C88.9765 60.7401 89.0962 61.0316 89.0962 61.3332H91.0962C91.0962 60.5013 90.766 59.7011 90.1742 59.1093L88.76 60.5236ZM89.0962 61.3332V65.0416H91.0962V61.3332H89.0962ZM89.0962 65.0416C89.0962 65.6726 88.5856 66.1832 87.9546 66.1832V68.1832C89.6902 68.1832 91.0962 66.7772 91.0962 65.0416H89.0962ZM87.9546 66.1832H84.9211V68.1832H87.9546V66.1832ZM84.0238 66.742C83.0752 68.671 81.1148 69.8917 78.9669 69.8917V71.8917C81.8775 71.8917 84.5337 70.2372 85.8185 67.6245L84.0238 66.742ZM78.9669 69.8917C76.8191 69.8917 74.8586 68.671 73.9101 66.742L72.1154 67.6245C73.4001 70.2372 76.0564 71.8917 78.9669 71.8917V69.8917ZM73.0127 66.1832H63.4418V68.1832H73.0127V66.1832ZM63.4418 66.1832C63.3399 66.1832 63.2542 66.0976 63.2542 65.9957H61.2542C61.2542 67.2022 62.2353 68.1832 63.4418 68.1832V66.1832ZM63.2542 65.9957V65.804H61.2542V65.9957H63.2542ZM62.2542 64.804H59.5209V66.804H62.2542V64.804ZM58.5747 65.4804C58.4622 65.8091 58.2732 66.1137 58.018 66.3719L59.4404 67.7779C59.9018 67.3111 60.2545 66.749 60.467 66.1277L58.5747 65.4804ZM57.7292 67.0749V84.6879H59.7292V67.0749H57.7292ZM57.7292 84.6859C57.7178 90.3764 53.106 94.9854 47.4145 95L47.4196 97C54.2106 96.9826 59.7156 91.4829 59.7292 84.6899L57.7292 84.6859ZM47.4171 95H11.3164V97H47.4171V95ZM11.3191 95C5.62693 94.9848 1.01458 90.3757 0.999997 84.6853L-0.999997 84.6904C-0.982584 91.4825 4.52231 96.9819 11.3137 97L11.3191 95ZM1 84.6879V11.3121H-1V84.6879H1ZM0.999996 11.3148C1.01519 5.62364 5.62747 1.01459 11.319 0.999997L11.3138 -0.999997C4.52262 -0.982587 -0.981859 4.51706 -0.999996 11.3095L0.999996 11.3148ZM11.3164 1H47.4171V-1H11.3164V1ZM47.4144 0.999996C53.1067 1.0152 57.7185 5.62427 57.7292 11.314L59.7292 11.3102C59.7164 4.5175 54.211 -0.981862 47.4197 -0.999996L47.4144 0.999996ZM57.7292 11.3121V31.4873H59.7292V11.3121H57.7292ZM58.7292 32.4873H63.4418V30.4873H58.7292V32.4873ZM63.4418 32.4873C63.5501 32.4873 63.6335 32.5752 63.6335 32.6748H65.6335C65.6335 31.4661 64.6501 30.4873 63.4418 30.4873V32.4873ZM63.6335 32.6748V36.3124H65.6335V32.6748H63.6335ZM64.6335 37.3124H74.121V35.3124H64.6335V37.3124ZM74.121 37.3124C76.9235 37.3124 79.0664 38.8238 80.7452 41.086C82.4354 43.3635 83.5743 46.3057 84.3282 48.8882L86.248 48.3278C85.4682 45.6565 84.2487 42.4509 82.3513 39.8941C80.4425 37.322 77.7686 35.3124 74.121 35.3124V37.3124ZM84.3277 48.8866L85.0566 51.3991L86.9774 50.8418L86.2485 48.3294L84.3277 48.8866ZM84.0212 51.7413H71.9293V53.7413H84.0212V51.7413ZM71.9293 51.7413C71.8274 51.7413 71.7418 51.6557 71.7418 51.5538H69.7418C69.7418 52.7603 70.7229 53.7413 71.9293 53.7413V51.7413ZM71.7418 51.5538V42.487H69.7418V51.5538H71.7418ZM71.7418 42.487C71.7418 42.3787 71.8297 42.2953 71.9293 42.2953V40.2953C70.7206 40.2953 69.7418 41.2786 69.7418 42.487H71.7418ZM71.9293 42.2953H79.1627V40.2953H71.9293V42.2953ZM79.9606 40.6926C78.5819 38.8671 76.4455 37.7636 74.1565 37.6916L74.0936 39.6906C75.7797 39.7436 77.3517 40.5567 78.3647 41.898L79.9606 40.6926ZM74.1251 37.6911H64.6333V39.6911H74.1251V37.6911ZM63.6333 38.6911V59.1873H65.6333V38.6911H63.6333ZM64.6333 60.1873H74.7292V58.1873H64.6333V60.1873ZM74.7292 58.1873H74.7251V60.1873H74.7292V58.1873ZM75.3655 59.9553C77.4529 58.2146 80.4806 58.2146 82.568 59.9553L83.8489 58.4193C81.0196 56.06 76.9139 56.06 74.0846 58.4193L75.3655 59.9553ZM83.2085 60.1873H85.896V58.1873H83.2085V60.1873ZM86.8562 58.9081L84.9814 52.462L83.061 53.0206L84.9357 59.4666L86.8562 58.9081ZM80.7753 42.6745H73.1127V44.6745H80.7753V42.6745ZM72.1127 43.6745V50.3621H74.1127V43.6745H72.1127ZM73.1127 51.3621H83.3294V49.3621H73.1127V51.3621ZM84.2984 50.115C83.688 47.7206 82.8063 45.4021 81.6615 43.2114L79.889 44.1377C80.9607 46.1887 81.7875 48.3618 82.3604 50.6091L84.2984 50.115ZM78.966 61.2582C77.7515 61.2644 76.6535 61.9993 76.1913 63.1298L78.0425 63.8867C78.197 63.5088 78.5656 63.2603 78.9762 63.2582L78.966 61.2582ZM76.1938 63.1236C75.725 64.2487 75.983 65.5386 76.8338 66.4019L78.2583 64.998C77.9674 64.7029 77.8837 64.2678 78.04 63.8929L76.1938 63.1236ZM76.8389 66.4071C77.5524 67.1205 78.5763 67.4254 79.5612 67.2259L79.1642 65.2657C78.8324 65.3329 78.4897 65.2294 78.2532 64.9928L76.8389 66.4071ZM79.5552 67.2271C80.5455 67.0328 81.3697 66.3509 81.7507 65.4205L79.8998 64.6627C79.7723 64.974 79.4966 65.2004 79.1702 65.2645L79.5552 67.2271ZM81.7485 65.4258C82.1365 64.4933 82.0277 63.4392 81.4768 62.6037L79.807 63.7046C79.9978 63.9939 80.0306 64.3483 79.902 64.6574L81.7485 65.4258ZM81.472 62.5966C80.9116 61.7621 79.9773 61.2644 78.9773 61.2582L78.9649 63.2582C79.3065 63.2603 79.6222 63.4295 79.8118 63.7117L81.472 62.5966ZM33.7527 61.2582C32.5382 61.2644 31.4402 61.9993 30.978 63.1298L32.8292 63.8867C32.9837 63.5088 33.3523 63.2603 33.7629 63.2582L33.7527 61.2582ZM30.9805 63.1236C30.5117 64.2487 30.7697 65.5386 31.6205 66.4019L33.045 64.998C32.7541 64.7029 32.6704 64.2678 32.8267 63.8929L30.9805 63.1236ZM31.6256 66.4071C32.3358 67.1172 33.3584 67.4304 34.3479 67.23L33.9509 65.2698C33.6237 65.3361 33.2797 65.2327 33.0398 64.9928L31.6256 66.4071ZM34.3419 67.2312C35.3292 67.0375 36.1594 66.3578 36.5415 65.4247L34.6907 64.6669C34.5643 64.9753 34.2863 65.204 33.9569 65.2687L34.3419 67.2312ZM36.5393 65.4299C36.9269 64.4986 36.8202 63.4367 36.2587 62.6007L34.5985 63.7159C34.787 63.9965 34.8219 64.3513 34.6928 64.6616L36.5393 65.4299ZM36.2616 62.605C35.7048 61.7666 34.7623 61.2624 33.7536 61.2624V63.2624C34.0948 63.2624 34.4107 63.4332 34.5956 63.7115L36.2616 62.605ZM34.4645 62.9657L34.4687 62.9615L33.0469 61.5549L33.0427 61.5592L34.4645 62.9657ZM84.017 61.5624V61.5665H86.017V61.5624H84.017ZM84.1046 61.9758C84.4897 62.8342 84.6523 63.7818 84.5746 64.7217L86.5678 64.8865C86.6734 63.6097 86.4527 62.3238 85.9294 61.1573L84.1046 61.9758ZM85.5712 65.8041H87.7253V63.8041H85.5712V65.8041ZM88.7253 64.8041V61.5665H86.7253V64.8041H88.7253ZM87.7269 60.5665L85.0186 60.5624L85.0155 62.5624L87.7238 62.5665L87.7269 60.5665ZM73.3599 64.7254C73.2855 63.783 73.4487 62.8343 73.8338 61.9758L72.0089 61.1573C71.4856 62.3239 71.2655 63.6084 71.3661 64.8828L73.3599 64.7254ZM72.9213 60.5665H64.6338V62.5665H72.9213V60.5665ZM63.6338 61.5665V64.8083H65.6338V61.5665H63.6338ZM64.6343 65.8083L72.3635 65.8041L72.3625 63.8041L64.6333 63.8083L64.6343 65.8083ZM82.6702 60.5636C81.1726 59.066 78.9175 58.6122 76.955 59.4262L77.7212 61.2736C78.9335 60.7708 80.3286 61.0504 81.256 61.9778L82.6702 60.5636ZM76.955 59.4262C74.9937 60.2396 73.7173 62.1544 73.7173 64.2749H75.7173C75.7173 62.9621 76.5076 61.7769 77.7212 61.2736L76.955 59.4262ZM73.7173 64.2749C73.7173 66.3951 74.9934 68.3112 76.9571 69.1204L77.7191 67.2713C76.5078 66.7721 75.7173 65.5883 75.7173 64.2749H73.7173ZM76.955 69.1196C78.916 69.9328 81.1722 69.4853 82.6714 67.9809L81.2548 66.5691C80.329 67.4981 78.9353 67.7756 77.7212 67.2721L76.955 69.1196ZM82.6702 67.9821C84.7191 65.9332 84.7191 62.6125 82.6702 60.5636L81.256 61.9778C82.5238 63.2457 82.5238 65.3001 81.256 66.5679L82.6702 67.9821ZM33.7503 58.6499C35.0678 58.6499 36.3439 59.1104 37.3495 59.9536L38.6346 58.4212C37.2652 57.2728 35.5329 56.6499 33.7503 56.6499V58.6499ZM37.9921 60.1874H62.2547V58.1874H37.9921V60.1874ZM63.2547 59.1874V33.8666H61.2547V59.1874H63.2547ZM62.2547 32.8666H20.0708V34.8666H62.2547V32.8666ZM19.0708 33.8666V59.1874H21.0708V33.8666H19.0708ZM20.0708 60.1874H29.5126V58.1874H20.0708V60.1874ZM30.1539 59.9547C31.165 59.1098 32.4378 58.6499 33.7544 58.6499V56.6499C31.9707 56.6499 30.2436 57.2733 28.8714 58.4201L30.1539 59.9547ZM33.7544 56.6499H33.7503V58.6499H33.7544V56.6499ZM38.7962 61.5625V61.5666H40.7962V61.5625H38.7962ZM38.8857 61.98C39.1099 62.4739 39.2584 63.0024 39.3295 63.553L41.313 63.297C41.2174 62.5558 41.016 61.8344 40.7068 61.1533L38.8857 61.98ZM40.3213 64.425H43.1713V62.425H40.3213V64.425ZM44.0979 63.8011C44.3388 63.2077 44.8058 62.737 45.3986 62.4893L44.6275 60.644C43.5452 61.0962 42.6872 61.9589 42.2448 63.0489L44.0979 63.8011ZM45.0138 60.5666L39.797 60.5625L39.7954 62.5625L45.0122 62.5666L45.0138 60.5666ZM28.1807 63.5467C28.2471 63.0045 28.398 62.4757 28.622 61.9746L26.7959 61.1587C26.4949 61.8326 26.2874 62.5538 26.1955 63.3033L28.1807 63.5467ZM27.7089 60.5666H22.4589V62.5666H27.7089V60.5666ZM21.8584 62.3663L24.3334 64.2247L25.5343 62.6253L23.0593 60.767L21.8584 62.3663ZM24.9339 64.425H27.1881V62.425H24.9339V64.425ZM37.4647 60.5623C36.2243 59.3269 34.4491 58.7918 32.7354 59.1316L33.1244 61.0934C34.1856 60.883 35.2856 61.2147 36.0535 61.9794L37.4647 60.5623ZM32.7333 59.1321C31.0143 59.4769 29.5834 60.6555 28.9143 62.2717L30.7622 63.0367C31.1764 62.0361 32.0622 61.3065 33.1266 61.093L32.7333 59.1321ZM28.9143 62.2717C28.2452 63.888 28.4251 65.7357 29.3983 67.193L31.0616 66.0822C30.4597 65.1811 30.348 64.0372 30.7622 63.0367L28.9143 62.2717ZM29.3983 67.193C30.3707 68.649 32.0031 69.5251 33.755 69.5251V67.5251C32.6736 67.5251 31.6642 66.9846 31.0616 66.0822L29.3983 67.193ZM33.7526 69.5251C35.8792 69.5302 37.7987 68.2486 38.6121 66.2874L36.7647 65.5212C36.2613 66.735 35.0725 67.5283 33.7574 67.5251L33.7526 69.5251ZM38.6124 66.2865C39.4255 64.3206 38.9728 62.0601 37.4638 60.5613L36.0544 61.9803C36.9871 62.9067 37.2679 64.3045 36.7643 65.5221L38.6124 66.2865ZM59.4591 64.425H62.255V62.425H59.4591V64.425ZM63.255 63.425V61.5666H61.255V63.425H63.255ZM62.255 60.5666H57.6174V62.5666H62.255V60.5666ZM57.2318 62.4893C57.8246 62.737 58.2916 63.2077 58.5325 63.8012L60.3856 63.0488C59.9431 61.9589 59.0852 61.0962 58.0029 60.644L57.2318 62.4893ZM21.3915 89.3501H37.6754V87.3501H21.3915V89.3501ZM37.7013 89.3497C38.893 89.3188 39.8254 88.3384 39.8254 87.1625H37.8254C37.8254 87.2701 37.7411 87.348 37.6494 87.3504L37.7013 89.3497ZM39.8254 87.1625C39.8254 85.9868 38.893 85.0062 37.7013 84.9753L37.6494 86.9747C37.741 86.977 37.8254 87.0549 37.8254 87.1625H39.8254ZM37.6754 84.975H21.3915V86.975H37.6754V84.975ZM21.3655 84.9753C20.1738 85.0063 19.2415 85.9867 19.2415 87.1625H21.2415C21.2415 87.055 21.3258 86.9771 21.4174 86.9747L21.3655 84.9753ZM19.2415 87.1625C19.2415 88.3383 20.1738 89.3188 21.3655 89.3497L21.4174 87.3504C21.3258 87.348 21.2415 87.2701 21.2415 87.1625H19.2415ZM21.3915 10.5823H28.5207V8.58226H21.3915V10.5823ZM27.8137 10.2894L27.8179 10.2936L29.2319 8.87924L29.2277 8.87507L27.8137 10.2894ZM28.5573 10.5859C29.7357 10.5476 30.679 9.58289 30.679 8.39473H28.679C28.679 8.49829 28.5974 8.58355 28.4924 8.58695L28.5573 10.5859ZM30.679 8.39473C30.679 7.20856 29.7335 6.24585 28.5573 6.20773L28.4925 8.20668C28.5996 8.21015 28.679 8.29757 28.679 8.39473H30.679ZM28.5249 6.2072H21.3915V8.2072H28.5249V6.2072ZM21.359 6.20773C20.1782 6.24607 19.2415 7.21313 19.2415 8.39473H21.2415C21.2415 8.29295 21.3214 8.21 21.4239 8.20667L21.359 6.20773ZM19.2415 8.39473C19.2415 9.5782 20.176 10.5476 21.3591 10.5859L21.4239 8.58695C21.3237 8.5837 21.2415 8.50295 21.2415 8.39473H19.2415ZM22.3915 9.5846L22.3915 9.58043L20.3915 9.58409L20.3915 9.58826L22.3915 9.5846ZM33.9377 10.5823H37.3378V8.58226H33.9377V10.5823ZM36.3378 9.58226V9.58643H38.3378V9.58226H36.3378ZM37.37 10.5859C38.5552 10.5477 39.4919 9.58045 39.4919 8.39473H37.4919C37.4919 8.50072 37.412 8.58351 37.3055 8.58695L37.37 10.5859ZM39.4919 8.39473C39.4919 7.21099 38.5529 6.24582 37.37 6.20772L37.3056 8.20668C37.4142 8.21018 37.4919 8.29514 37.4919 8.39473H39.4919ZM37.3378 6.2072H33.9419V8.2072H37.3378V6.2072ZM33.9096 6.20772C32.7267 6.24588 31.7877 7.21093 31.7877 8.39473H33.7877C33.7877 8.29515 33.8654 8.21019 33.9741 8.20668L33.9096 6.20772ZM31.7877 8.39473C31.7877 9.58041 32.7245 10.5477 33.9097 10.5859L33.9741 8.58695C33.8677 8.58352 33.7877 8.50075 33.7877 8.39473H31.7877ZM34.6494 8.87973L34.6452 8.87556L33.2302 10.289L33.2344 10.2931L34.6494 8.87973ZM1.37898 82.0919V84.6877H3.37898V82.0919H1.37898ZM1.37898 84.6911C1.39751 90.1698 5.83434 94.6073 11.314 94.6212L11.3191 92.6212C6.94035 92.6101 3.39378 89.0641 3.37897 84.6844L1.37898 84.6911ZM11.3166 94.6212H47.4172V92.6212H11.3166V94.6212ZM47.4198 94.6212C52.8989 94.6073 57.3405 90.1704 57.359 84.6911L55.359 84.6844C55.3442 89.0635 51.7941 92.6101 47.4147 92.6212L47.4198 94.6212ZM57.359 84.6877V82.0919H55.359V84.6877H57.359ZM56.359 81.0919H2.37898V83.0919H56.359V81.0919ZM57.3582 13.9076V11.3118H55.3582V13.9076H57.3582ZM57.3582 11.3084C57.3397 5.82969 52.9029 1.39222 47.4232 1.37834L47.4181 3.37834C51.7969 3.38942 55.3434 6.9354 55.3582 11.3152L57.3582 11.3084ZM47.4207 1.37834H11.3157V3.37834H47.4207V1.37834ZM11.3132 1.37834C5.83349 1.39224 1.39663 5.82968 1.37813 11.3084L3.37812 11.3151C3.3929 6.93541 6.93949 3.38944 11.3183 3.37834L11.3132 1.37834ZM1.37812 11.3118V13.9035H3.37812V11.3118H1.37812ZM2.37805 14.9035L56.3582 14.9076L56.3583 12.9076L2.3782 12.9035L2.37805 14.9035Z" fill="white" mask="url(#path-1-inside-1_5370_1433)"/>
</g>
</svg>
