<svg width="96" height="96" viewBox="0 0 96 96" fill="none" xmlns="http://www.w3.org/2000/svg">
<g id="analytics 1" clip-path="url(#clip0_5362_3732)">
<g id="Group">
<g id="Group_2">
<g id="Group_3">
<path id="Vector" d="M14.4058 68.8037H4.80716C2.15777 68.8065 0.0106246 70.9537 0.0078125 73.6031V94.4002C0.0078125 95.2837 0.723965 95.9999 1.60753 95.9999H17.6053C18.4889 95.9999 19.205 95.2837 19.205 94.4002V73.6031C19.2022 70.9537 17.0552 68.8067 14.4058 68.8037ZM16.0056 92.8004H3.20725V73.6031C3.20838 72.7201 3.92396 72.0045 4.80697 72.0033H14.4057C15.2887 72.0045 16.0043 72.7201 16.0054 73.6031L16.0056 92.8004Z" fill="white"/>
<path id="Vector_2" d="M40.0035 46.4067H30.4048C27.7554 46.4096 25.6083 48.5567 25.6055 51.2061V94.4002C25.6055 95.2837 26.3216 95.9999 27.2052 95.9999H43.2029C44.0865 95.9999 44.8027 95.2837 44.8027 94.4002V51.2061C44.7998 48.5565 42.6529 46.4096 40.0035 46.4067ZM41.6032 92.8003H28.8049V51.2061C28.806 50.3231 29.5216 49.6075 30.4046 49.6064H40.0033C40.8863 49.6075 41.6019 50.3231 41.603 51.2061L41.6032 92.8003Z" fill="white"/>
<path id="Vector_3" d="M65.5972 56.0054H55.9986C53.3492 56.0082 51.202 58.1553 51.1992 60.8047V94.4001C51.1992 95.2837 51.9154 95.9998 52.7989 95.9998H68.7967C69.6803 95.9998 70.3964 95.2837 70.3964 94.4001V60.8047C70.3938 58.1551 68.2466 56.0082 65.5972 56.0054ZM67.1972 92.8002H54.3988V60.8047C54.4 59.9217 55.1156 59.2061 55.9986 59.205H65.5972C66.4803 59.2061 67.1958 59.9217 67.197 60.8047L67.1972 92.8002Z" fill="white"/>
<path id="Vector_4" d="M91.1949 43.207H81.5962C78.9468 43.2098 76.7997 45.357 76.7969 48.0064V94.4001C76.7969 95.2837 77.513 95.9998 78.3966 95.9998H94.3943C95.2779 95.9998 95.9941 95.2837 95.9941 94.4001V48.0064C95.9913 45.357 93.8443 43.2098 91.1949 43.207ZM92.7946 92.8002H79.9963V48.0064C79.9974 47.1234 80.713 46.4078 81.596 46.4067H91.1947C92.0777 46.4078 92.7933 47.1234 92.7944 48.0064V92.8002H92.7946Z" fill="white"/>
<path id="Vector_5" d="M79.2308 19.1763C82.1615 22.4751 86.9648 23.3491 90.8697 21.294C94.7746 19.2389 96.7739 14.7849 95.7141 10.5013C94.6543 6.21768 90.8088 3.20984 86.3962 3.21246C83.1927 3.21003 80.1994 4.80693 78.4179 7.46926C76.6361 10.1316 76.3013 13.5076 77.5253 16.468L67.9652 22.4438C66.2452 20.4939 63.8044 19.3293 61.2066 19.2186C58.6088 19.108 56.078 20.0613 54.1986 21.8581L43.7278 14.005C45.9415 9.72326 44.6359 4.46385 40.6768 1.71436C36.7178 -1.03514 31.3335 -0.421728 28.0945 3.14797C24.8555 6.71767 24.7666 12.1361 27.8868 15.81L14.4745 31.7487C10.1738 29.2182 4.65139 30.4051 1.7701 34.4791C-1.1112 38.5531 -0.390547 44.1554 3.42831 47.3674C7.24716 50.5794 12.8899 50.3296 16.4102 46.7929C19.9304 43.2562 20.1535 37.6121 16.9235 33.8085L30.3358 17.8698C34.0183 20.0604 38.71 19.5254 41.8049 16.5618L52.2757 24.4149C50.2378 28.3622 51.1756 33.1922 54.5424 36.0902C57.9093 38.9882 62.8253 39.1963 66.4251 36.5934C70.025 33.9905 71.3679 29.2572 69.6711 25.1517L79.2308 19.1763ZM86.3962 6.41209C89.9303 6.41209 92.7953 9.27707 92.7953 12.8112C92.7912 16.3435 89.9286 19.2063 86.3962 19.2102C82.8621 19.2102 79.9971 16.3452 79.9971 12.8112C79.9971 9.27707 82.862 6.41209 86.3962 6.41209ZM9.60671 46.4067C6.07263 46.4067 3.20765 43.5418 3.20765 40.0077C3.20765 36.4736 6.07263 33.6086 9.60671 33.6086C13.1408 33.6086 16.0058 36.4736 16.0058 40.0077C16.0016 43.5401 13.1391 46.4026 9.60671 46.4067ZM35.2032 16.0108C31.6691 16.0108 28.8041 13.1458 28.8041 9.61171C28.8041 6.07763 31.6691 3.21265 35.2032 3.21265C38.7372 3.21265 41.6022 6.07763 41.6022 9.61171C41.5983 13.1441 38.7355 16.0068 35.2032 16.0108ZM60.7996 35.2082C57.2655 35.2082 54.4005 32.3432 54.4005 28.8091C54.4005 25.275 57.2655 22.41 60.7996 22.41C64.3337 22.41 67.1987 25.275 67.1987 28.8091C67.1947 32.3415 64.3322 35.2042 60.7996 35.2082Z" fill="white"/>
</g>
</g>
</g>
</g>
<defs>
<clipPath id="clip0_5362_3732">
<rect width="96" height="96" fill="white"/>
</clipPath>
</defs>
</svg>
