<svg width="84" height="96" viewBox="0 0 84 96" fill="none" xmlns="http://www.w3.org/2000/svg">
<g id="Group">
<g id="Group_2">
<path id="Vector" fill-rule="evenodd" clip-rule="evenodd" d="M22.4015 9.44733L19.2215 6.26739C18.1204 5.16937 16.6307 4.55248 15.0762 4.55248C13.5217 4.55248 12.0321 5.16937 10.934 6.26739C9.04334 8.15809 6.58821 10.6132 4.69443 12.507C2.40585 14.7925 2.40585 18.5061 4.69443 20.7947L7.87425 23.9715L5.1509 26.695C1.85375 29.9952 0 34.4706 0 39.1372V87.6661C0 89.8776 0.876 91.9966 2.43976 93.5572C4.00352 95.121 6.12234 96 8.33072 96C22.0067 96 61.7146 96 75.3905 96C77.602 96 79.7209 95.121 81.2846 93.5572C82.8453 91.9966 83.7244 89.8776 83.7244 87.6661C83.7244 70.6375 83.7244 25.3625 83.7244 8.33389C83.7244 6.12242 82.8453 4.00348 81.2846 2.43972C79.7209 0.879047 77.602 0 75.3905 0C75.3905 0 51.1383 0 39.134 0C34.4705 0 29.9951 1.85371 26.6949 5.15395L22.4015 9.44733ZM39.134 3.46988H75.3905C76.6798 3.46988 77.9166 3.98188 78.8295 4.89484C79.7425 5.80472 80.2545 7.04463 80.2545 8.33389C80.2545 25.3625 80.2545 70.6375 80.2545 87.6661C80.2545 88.9554 79.7425 90.1922 78.8295 91.1052C77.9166 92.0182 76.6798 92.5301 75.3905 92.5301C61.7146 92.5301 22.0067 92.5301 8.33072 92.5301C7.04147 92.5301 5.80476 92.0182 4.89488 91.1052C3.98192 90.1922 3.46988 88.9554 3.46988 87.6661C3.46988 87.6661 3.46988 53.7477 3.46988 39.1372C3.46988 35.3897 4.95658 31.7995 7.60602 29.1501C13.4231 23.333 23.3299 13.423 29.15 7.60599C31.7964 4.95654 35.3897 3.46988 39.134 3.46988ZM73.0432 53.1925C73.0432 48.4673 69.2156 44.6365 64.4904 44.6365H19.2339C14.5087 44.6365 10.678 48.4673 10.678 53.1925C10.678 59.8361 10.678 69.8788 10.678 76.5224C10.678 81.2446 14.5087 85.0753 19.2339 85.0753C30.5657 85.0753 53.1554 85.0753 64.4904 85.0753C69.2156 85.0753 73.0432 81.2446 73.0432 76.5224V53.1925ZM69.5733 53.1925V76.5224C69.5733 79.3292 67.2971 81.6054 64.4904 81.6054H19.2339C16.4241 81.6054 14.1479 79.3292 14.1479 76.5224V53.1925C14.1479 50.3826 16.4241 48.1064 19.2339 48.1064H64.4904C67.2971 48.1064 69.5733 50.3826 69.5733 53.1925ZM73.0432 16.6493C73.0432 14.885 72.3431 13.1948 71.097 11.9457C69.8509 10.6996 68.1576 9.99944 66.3934 9.99944C60.5393 9.99944 50.8114 9.99944 44.9542 9.99944C43.1931 9.99944 41.4997 10.6996 40.2536 11.9457C39.0075 13.1948 38.3075 14.885 38.3075 16.6493C38.3075 18.4135 39.0075 20.1037 40.2536 21.3529C41.4997 22.5989 43.1931 23.2991 44.9542 23.2991H66.3934C68.1576 23.2991 69.8509 22.5989 71.097 21.3529C72.3431 20.1037 73.0432 18.4135 73.0432 16.6493ZM19.9464 11.8994L16.7664 8.72252C16.3192 8.2722 15.7116 8.02236 15.0762 8.02236C14.4439 8.02236 13.8363 8.2722 13.386 8.72252C11.4953 10.6132 9.04025 13.0683 7.14955 14.959C6.21499 15.8936 6.21499 17.4049 7.14955 18.3395L10.3294 21.5194L19.9464 11.8994ZM69.5733 16.6493C69.5733 17.4913 69.2402 18.3025 68.6419 18.8977C68.0466 19.493 67.2385 19.8292 66.3934 19.8292H44.9542C44.1122 19.8292 43.3041 19.493 42.7057 18.8977C42.1104 18.3025 41.7774 17.4913 41.7774 16.6493C41.7774 15.8042 42.1104 14.9961 42.7057 14.4008C43.3041 13.8055 44.1122 13.4693 44.9542 13.4693H66.3934C67.2385 13.4693 68.0466 13.8055 68.6419 14.4008C69.2402 14.9961 69.5733 15.8042 69.5733 16.6493Z" fill="white"/>
</g>
</g>
</svg>
