<svg width="96" height="96" viewBox="0 0 96 96" fill="none" xmlns="http://www.w3.org/2000/svg">
<g id="social-engagement 1" clip-path="url(#clip0_5362_3747)">
<g id="_x3C_Group_x3E_">
<path id="_x32_3" d="M87.7144 16.2666C86.9937 15.8646 86.7342 14.9541 87.1347 14.2333C87.5374 13.5111 88.4472 13.2516 89.1679 13.6536C91.2319 14.7973 92.9517 16.4016 94.1442 18.3021C95.3164 20.1673 95.9854 22.3093 95.9854 24.5826V36.6328C95.9854 37.4608 95.3127 38.1313 94.4854 38.1313H65.9937C65.1657 38.1313 64.4922 37.4593 64.4922 36.6328V24.5826C64.4922 22.3101 65.1619 20.1673 66.3319 18.3021C67.5259 16.4016 69.2442 14.7973 71.3082 13.6536C72.0304 13.2516 72.9417 13.5111 73.3414 14.2333C73.7427 14.9541 73.4832 15.8646 72.7617 16.2666C71.1372 17.1673 69.7909 18.4191 68.8654 19.8958C67.9924 21.2863 67.4952 22.8838 67.4952 24.5826V35.1306H92.9839V24.5826C92.9839 22.8838 92.4874 21.2856 91.6144 19.8958C90.6882 18.4191 89.3404 17.1673 87.7174 16.2666H87.7144Z" fill="white"/>
<path id="_x32_2" d="M80.2398 0C82.093 0 83.782 0.762 85.0083 1.992C86.2308 3.2175 86.9913 4.9065 86.9913 6.76125V9.3765C86.9913 11.2238 86.209 13.2412 84.964 14.7405C83.7588 16.194 82.1005 17.1975 80.2398 17.1975C78.3783 17.1975 76.7215 16.194 75.514 14.7405C74.2705 13.2412 73.4883 11.2245 73.4883 9.3765V6.762C73.4883 4.9065 74.2488 3.2175 75.4705 1.99275C76.6968 0.76275 78.3858 0 80.2398 0ZM82.8873 4.10025C82.21 3.4215 81.2725 3 80.2398 3C79.2055 3 78.2665 3.42225 77.59 4.10025C76.9105 4.78125 76.4868 5.724 76.4868 6.76125V9.37725C76.4868 10.5533 76.9983 11.8522 77.8098 12.8317C78.4833 13.6395 79.342 14.1975 80.2398 14.1975C81.1338 14.1975 81.9948 13.6387 82.6668 12.8317C83.4798 11.8515 83.9898 10.5525 83.9898 9.37725V6.76125C83.9898 5.724 83.5683 4.78125 82.8873 4.10025Z" fill="white"/>
<path id="_x32_1" d="M74.4282 36.6331C74.4282 37.4611 73.7562 38.1316 72.9282 38.1316C72.1002 38.1316 71.4297 37.4604 71.4297 36.6331V27.2139C71.4297 26.3844 72.1009 25.7139 72.9282 25.7139C73.7562 25.7139 74.4282 26.3851 74.4282 27.2139V36.6331ZM89.0464 36.6331C89.0464 37.4611 88.3752 38.1316 87.5464 38.1316C86.7184 38.1316 86.0479 37.4604 86.0479 36.6331V27.2139C86.0479 26.3844 86.7199 25.7139 87.5464 25.7139C88.3752 25.7139 89.0464 26.3851 89.0464 27.2139V36.6331Z" fill="white"/>
<path id="_x32_0" d="M23.2066 16.2666C22.4859 15.8646 22.2264 14.9541 22.6269 14.2333C23.0289 13.5111 23.9394 13.2516 24.6601 13.6536C26.7234 14.7973 28.4424 16.4016 29.6364 18.3021C30.8086 20.1673 31.4754 22.3093 31.4754 24.5826V36.6328C31.4754 37.4608 30.8034 38.1313 29.9769 38.1313H1.48512C0.655625 38.1313 -0.015625 37.4593 -0.015625 36.6328V24.5826C-0.015625 22.3101 0.654125 20.1673 1.82412 18.3021C3.01812 16.4016 4.73637 14.7973 6.79962 13.6536C7.52262 13.2516 8.43313 13.5111 8.83288 14.2333C9.23488 14.9541 8.97538 15.8646 8.25312 16.2666C6.62937 17.1673 5.28312 18.4191 4.35612 19.8958C3.48312 21.2863 2.98438 22.8838 2.98438 24.5826V35.1306H28.4761V24.5826C28.4761 22.8838 27.9796 21.2856 27.1066 19.8958C26.1789 18.4191 24.8311 17.1681 23.2066 16.2666Z" fill="white"/>
<path id="_x31_9" d="M15.7312 0C17.5845 0 19.2735 0.762 20.4982 1.992C21.7222 3.2175 22.4827 4.9065 22.4827 6.76125V9.3765C22.4827 11.2238 21.7005 13.2412 20.4555 14.7405C19.2495 16.194 17.5912 17.1975 15.7312 17.1975C13.8705 17.1975 12.2137 16.194 11.0047 14.7405C9.76197 13.2412 8.98047 11.2245 8.98047 9.3765V6.762C8.98047 4.9065 9.73797 3.2175 10.9627 1.99275C12.1875 0.76275 13.8757 0 15.7312 0ZM18.378 4.10025C17.7007 3.4215 16.7647 3 15.7305 3C14.6977 3 13.7587 3.42225 13.0822 4.10025C12.4027 4.78125 11.979 5.724 11.979 6.76125V9.37725C11.979 10.5533 12.4897 11.8522 13.302 12.8317C13.9732 13.6395 14.8342 14.1975 15.7305 14.1975C16.6252 14.1975 17.487 13.6387 18.1575 12.8317C18.9697 11.8515 19.4805 10.5525 19.4805 9.37725V6.76125C19.4805 5.724 19.0582 4.78125 18.378 4.10025Z" fill="white"/>
<path id="_x31_8" d="M9.92338 36.6331C9.92338 37.4611 9.24988 38.1316 8.42188 38.1316C7.59388 38.1316 6.92188 37.4604 6.92188 36.6331V27.2139C6.92188 26.3844 7.59538 25.7139 8.42188 25.7139C9.24988 25.7139 9.92338 26.3851 9.92338 27.2139V36.6331ZM24.5416 36.6331C24.5416 37.4611 23.8696 38.1316 23.0401 38.1316C22.2121 38.1316 21.5416 37.4604 21.5416 36.6331V27.2139C21.5416 26.3844 22.2136 25.7139 23.0401 25.7139C23.8704 25.7139 24.5416 26.3851 24.5416 27.2139V36.6331Z" fill="white"/>
<path id="_x31_7" d="M10.075 50.9998C9.24697 50.9998 8.57422 50.3278 8.57422 49.4998C8.57422 48.6718 9.24697 47.999 10.075 47.999H25.8265C26.6545 47.999 27.328 48.6718 27.328 49.4998C27.328 50.3278 26.6545 50.9998 25.8265 50.9998H10.075Z" fill="white"/>
<path id="_x31_6" d="M22.5204 55.4647C21.9699 56.0842 21.0212 56.1382 20.4039 55.5907C19.7867 55.0402 19.7312 54.0937 20.2817 53.4742L23.8194 49.4999L20.2817 45.5264C19.7312 44.9092 19.7867 43.9597 20.4039 43.4099C21.0212 42.8617 21.9699 42.9149 22.5204 43.5344L26.9319 48.4904C27.4427 49.0484 27.4584 49.9169 26.9439 50.4959L22.5204 55.4647Z" fill="white"/>
<path id="_x31_5" d="M85.8936 47.999C86.7216 47.999 87.3921 48.6718 87.3921 49.4998C87.3921 50.3278 86.7201 50.9998 85.8936 50.9998H70.1421C69.3119 50.9998 68.6406 50.3278 68.6406 49.4998C68.6406 48.6718 69.3119 47.999 70.1421 47.999H85.8936Z" fill="white"/>
<path id="_x31_4" d="M75.6858 53.4742C76.2348 54.0937 76.1793 55.0402 75.5613 55.5907C74.9448 56.1382 73.9968 56.0842 73.4478 55.4647L69.025 50.4959C68.5083 49.9177 68.5233 49.0484 69.037 48.4904L73.45 43.5344C73.9983 42.9149 74.9448 42.8617 75.5628 43.4099C76.1808 43.9597 76.2355 44.9084 75.6873 45.5264L72.148 49.4999L75.6858 53.4742Z" fill="white"/>
<path id="_x31_3" d="M49.4836 85.5923C49.4836 86.4211 48.8124 87.0923 47.9836 87.0923C47.1556 87.0923 46.4844 86.4211 46.4844 85.5923V69.8393C46.4844 69.0113 47.1564 68.3408 47.9836 68.3408C48.8124 68.3408 49.4836 69.0121 49.4836 69.8393V85.5923Z" fill="white"/>
<path id="_x31_2" d="M53.9489 73.1451C54.5669 73.6948 54.6224 74.642 54.0719 75.26C53.5214 75.8773 52.5749 75.9328 51.9569 75.3823L47.9826 71.8431L44.0091 75.3823C43.3919 75.9328 42.4431 75.8773 41.8949 75.26C41.3444 74.642 41.3999 73.6948 42.0179 73.1451L46.9731 68.7343C47.5334 68.2206 48.4004 68.2055 48.9779 68.7185L53.9489 73.1451Z" fill="white"/>
<path id="_x31_1" d="M46.4844 13.4077C46.4844 12.5782 47.1556 11.9077 47.9829 11.9077C48.8124 11.9077 49.4836 12.579 49.4836 13.4077V29.16C49.4836 29.988 48.8116 30.6592 47.9829 30.6592C47.1549 30.6592 46.4844 29.988 46.4844 29.16V13.4077Z" fill="white"/>
<path id="_x31_0" d="M51.9596 23.6165C52.5761 23.066 53.5226 23.1215 54.0731 23.7395C54.6228 24.3575 54.5673 25.3055 53.9501 25.8545L48.9783 30.2795C48.4001 30.7948 47.5331 30.7783 46.9728 30.2653L42.0176 25.8545C41.3996 25.3063 41.3448 24.3575 41.8946 23.7395C42.4436 23.1223 43.3916 23.0668 44.0096 23.6165L47.9831 27.155L51.9596 23.6165Z" fill="white"/>
<path id="_x39_" d="M39.8969 36.6328H56.0744C57.3854 36.6328 58.5794 37.1691 59.4442 38.0346L59.4509 38.0406C60.3142 38.9046 60.8542 40.0993 60.8542 41.4096V57.5901C60.8542 58.8981 60.3142 60.0921 59.4509 60.9591L59.4479 60.9606L59.4442 60.9651L59.4382 60.9711C58.5712 61.8321 57.3787 62.3668 56.0744 62.3668H39.8969C38.5799 62.3668 37.3844 61.8306 36.5189 60.9651C36.4867 60.9328 36.4597 60.9021 36.4297 60.8683C35.6182 60.0111 35.1172 58.8538 35.1172 57.5901V41.4096C35.1172 40.0956 35.6542 38.8986 36.5189 38.0346C37.3852 37.1691 38.5799 36.6328 39.8969 36.6328ZM56.0744 39.6321H39.8969C39.4079 39.6321 38.9624 39.8323 38.6399 40.1541C38.3159 40.4781 38.1172 40.9228 38.1172 41.4096V57.5901C38.1172 58.0498 38.2949 58.4721 38.5822 58.7901C38.6017 58.8073 38.6219 58.8253 38.6399 58.8456C38.9624 59.1681 39.4072 59.3668 39.8969 59.3668H56.0744C56.5642 59.3668 57.0119 59.1688 57.3299 58.8508L57.3359 58.8448C57.6554 58.5238 57.8519 58.0791 57.8519 57.5893V41.4103C57.8519 40.9213 57.6539 40.4758 57.3314 40.1526C57.0089 39.8316 56.5649 39.6328 56.0744 39.6321Z" fill="white"/>
<path id="_x38_" d="M87.7144 74.1346C86.9937 73.7319 86.7342 72.8221 87.1347 72.1014C87.5374 71.3806 88.4472 71.1181 89.1679 71.5216C91.2319 72.6654 92.9517 74.2696 94.1442 76.1694C95.3164 78.0339 95.9854 80.1789 95.9854 82.4521V94.4994C95.9854 95.3274 95.3127 96.0009 94.4854 96.0009H65.9937C65.1657 96.0009 64.4922 95.3281 64.4922 94.4994V82.4521C64.4922 80.1789 65.1619 78.0339 66.3319 76.1694C67.5259 74.2696 69.2442 72.6654 71.3082 71.5216C72.0304 71.1196 72.9417 71.3806 73.3414 72.1014C73.7427 72.8221 73.4832 73.7319 72.7617 74.1346C71.1372 75.0354 69.7909 76.2864 68.8654 77.7631C67.9924 79.1536 67.4952 80.7526 67.4952 82.4521V92.9994H92.9839V82.4521C92.9839 80.7526 92.4874 79.1544 91.6144 77.7631C90.6882 76.2864 89.3404 75.0354 87.7174 74.1346H87.7144Z" fill="white"/>
<path id="_x37_" d="M80.2398 57.8672C82.093 57.8672 83.782 58.6322 85.0083 59.8592C86.2308 61.0839 86.9913 62.7729 86.9913 64.6292V67.2422C86.9913 69.0924 86.209 71.1084 84.964 72.6069C83.7588 74.0604 82.1005 75.0647 80.2398 75.0647C78.3783 75.0647 76.7215 74.0597 75.514 72.6069C74.2705 71.1084 73.4883 69.0909 73.4883 67.2422V64.6292C73.4883 62.7707 74.2488 61.0824 75.4705 59.8592C76.6968 58.6322 78.3858 57.8672 80.2398 57.8672ZM82.8873 61.9689C82.2108 61.2909 81.2733 60.8687 80.2405 60.8687C79.2063 60.8687 78.2673 61.2909 77.5915 61.9689C76.912 62.6499 76.4875 63.5934 76.4875 64.6307V67.2437C76.4875 68.4197 76.9998 69.7209 77.8113 70.6989C78.484 71.5052 79.3435 72.0632 80.2405 72.0632C81.1353 72.0632 81.9963 71.5052 82.6675 70.6989C83.4805 69.7194 83.9905 68.4197 83.9905 67.2437V64.6307C83.9898 63.5934 83.5683 62.6499 82.8873 61.9689Z" fill="white"/>
<path id="_x36_" d="M74.4282 94.4983C74.4282 95.3263 73.7562 95.9998 72.9282 95.9998C72.1002 95.9998 71.4297 95.3263 71.4297 94.4983V85.0805C71.4297 84.2525 72.1009 83.582 72.9282 83.582C73.7562 83.582 74.4282 84.2533 74.4282 85.0805V94.4983ZM89.0464 94.4983C89.0464 95.3263 88.3752 95.9998 87.5464 95.9998C86.7184 95.9998 86.0479 95.3263 86.0479 94.4983V85.0805C86.0479 84.2525 86.7199 83.582 87.5464 83.582C88.3752 83.582 89.0464 84.2533 89.0464 85.0805V94.4983Z" fill="white"/>
<path id="_x35_" d="M23.2066 74.1346C22.4859 73.7319 22.2264 72.8221 22.6269 72.1014C23.0289 71.3806 23.9394 71.1181 24.6601 71.5216C26.7234 72.6654 28.4424 74.2696 29.6364 76.1694C30.8086 78.0339 31.4754 80.1789 31.4754 82.4521V94.4994C31.4754 95.3274 30.8034 96.0009 29.9769 96.0009H1.48512C0.655625 96.0009 -0.015625 95.3281 -0.015625 94.4994V82.4521C-0.015625 80.1789 0.654125 78.0339 1.82412 76.1694C3.01812 74.2696 4.73637 72.6654 6.79962 71.5216C7.52262 71.1196 8.43313 71.3806 8.83288 72.1014C9.23488 72.8221 8.97538 73.7319 8.25312 74.1346C6.62937 75.0354 5.28312 76.2864 4.35612 77.7631C3.48312 79.1536 2.98438 80.7526 2.98438 82.4521V92.9994H28.4761V82.4521C28.4761 80.7526 27.9796 79.1544 27.1066 77.7631C26.1789 76.2864 24.8311 75.0354 23.2066 74.1346Z" fill="white"/>
<path id="_x34_" d="M15.7312 57.8672C17.5845 57.8672 19.2735 58.6322 20.4982 59.8592C21.7222 61.0839 22.4827 62.7729 22.4827 64.6292V67.2422C22.4827 69.0924 21.7005 71.1084 20.4555 72.6069C19.2495 74.0604 17.5912 75.0647 15.7312 75.0647C13.8705 75.0647 12.2137 74.0597 11.0047 72.6069C9.76197 71.1084 8.98047 69.0909 8.98047 67.2422V64.6292C8.98047 62.7707 9.73797 61.0824 10.9627 59.8592C12.1875 58.6322 13.8757 57.8672 15.7312 57.8672ZM18.378 61.9689C17.7007 61.2909 16.7647 60.8687 15.7305 60.8687C14.6977 60.8687 13.7587 61.2909 13.0822 61.9689C12.4027 62.6499 11.979 63.5934 11.979 64.6307V67.2437C11.979 68.4197 12.4897 69.7209 13.302 70.6989C13.9732 71.5052 14.8342 72.0632 15.7305 72.0632C16.6252 72.0632 17.487 71.5052 18.1575 70.6989C18.9697 69.7194 19.4805 68.4197 19.4805 67.2437V64.6307C19.4805 63.5934 19.0582 62.6499 18.378 61.9689Z" fill="white"/>
<path id="_x33_" d="M9.92338 94.4983C9.92338 95.3263 9.24988 95.9998 8.42188 95.9998C7.59388 95.9998 6.92188 95.3263 6.92188 94.4983V85.0805C6.92188 84.2525 7.59538 83.582 8.42188 83.582C9.24988 83.582 9.92338 84.2533 9.92338 85.0805V94.4983ZM24.5416 94.4983C24.5416 95.3263 23.8696 95.9998 23.0401 95.9998C22.2121 95.9998 21.5416 95.3263 21.5416 94.4983V85.0805C21.5416 84.2525 22.2136 83.582 23.0401 83.582C23.8704 83.582 24.5416 84.2533 24.5416 85.0805V94.4983Z" fill="white"/>
<path id="_x32_" d="M46.4844 44.3594C46.4844 43.5314 47.1556 42.8594 47.9829 42.8594C48.8124 42.8594 49.4836 43.5321 49.4836 44.3594V54.6404C49.4836 55.4684 48.8116 56.1404 47.9829 56.1404C47.1549 56.1404 46.4844 55.4684 46.4844 54.6404V44.3594Z" fill="white"/>
<path id="_x31_" d="M53.1218 47.999C53.9498 47.999 54.6233 48.6718 54.6233 49.4998C54.6233 50.3278 53.9498 50.9998 53.1218 50.9998H42.843C42.015 50.9998 41.3438 50.3278 41.3438 49.4998C41.3438 48.6718 42.0158 47.999 42.843 47.999H53.1218Z" fill="white"/>
</g>
</g>
<defs>
<clipPath id="clip0_5362_3747">
<rect width="96" height="96" fill="white"/>
</clipPath>
</defs>
</svg>
