<svg width="115" height="95" viewBox="0 0 115 95" fill="none" xmlns="http://www.w3.org/2000/svg">
<g id="Group">
<path id="Vector" fill-rule="evenodd" clip-rule="evenodd" d="M43.1092 82.1125H70.9387C70.9387 83.7237 72.043 86.5232 72.6524 87.5823C73.5452 89.131 74.6468 90.4416 75.9561 91.5792H38.0918C39.3904 90.4509 40.4269 89.2122 41.3516 87.6541C41.9929 86.5737 43.1092 83.7291 43.1092 82.1125ZM114.048 38.2768V38.8821V39.0032C114.048 42.9908 112.504 47.2126 110.578 50.3606C110.302 50.809 110.091 51.0858 109.78 51.4996C108.968 52.5773 108.259 53.5167 107.29 54.4853C106.069 55.7067 105.043 56.4492 103.663 57.3592C103.361 57.5588 103.304 57.5708 103.212 57.8223C104.296 57.8223 107.596 57.6746 108.393 57.8875C109.509 58.1868 110.74 59.4535 110.74 60.7867V67.4021C110.74 68.066 110.42 69.0373 110.243 69.6414C109.636 71.717 107.983 79.0722 107.397 80.1393C106 82.6833 103.064 82.1125 99.9057 82.1125C99.9057 83.7943 98.8106 86.5352 98.1467 87.6541C97.2233 89.2122 96.1842 90.4509 94.8882 91.5792H110.627C111.512 91.5792 112.402 91.4834 113.062 91.7668C113.694 92.0369 113.996 92.5571 114.048 93.1013V93.4419C113.973 94.2429 113.393 95 112.564 95H1.48354C0.785014 95 0 94.2177 0 93.5178C0 91.2812 1.84412 91.5792 3.53655 91.5792H19.1597C17.8531 90.4416 16.7514 89.131 15.8586 87.5823C15.2253 86.4846 14.1422 83.7876 14.1422 82.1125H9.92311C6.37059 82.1125 6.01134 78.222 5.4299 75.8856C5.19307 74.9369 3.3077 68.1712 3.3077 67.4021V60.7867C3.3077 59.4535 4.53844 58.1868 5.65476 57.8875C6.45175 57.6746 9.75147 57.8223 10.8359 57.8223C10.7401 57.5588 10.7733 57.6586 10.587 57.4976C10.4274 57.3592 10.4833 57.4258 10.3143 57.3153C9.13011 56.5556 7.72374 55.4539 6.75777 54.4853C6.08852 53.8147 5.58957 53.212 5.0028 52.4775C3.39419 50.4618 1.82682 47.802 1.10035 45.3166C0.455042 43.1146 0.0758403 40.874 0 38.6466V37.0154C0.103782 34.0137 0.779692 31.052 2.12752 28.2445C3.64965 25.0765 4.26436 24.7319 5.97941 22.5153C7.42703 20.6419 10.8718 18.3534 13.1164 17.2197C15.1681 16.1846 18.819 15.0536 21.8979 15.0536H33.1888V10.0349C29.4154 9.15672 29.8811 6.35994 29.8811 3.64832C29.8811 1.72304 31.7013 0 33.6452 0H51.7777C53.7162 0 55.5417 1.73768 55.5417 3.64832C55.5417 5.77451 55.8451 7.43102 54.4906 8.87066C53.9331 9.46541 53.1401 9.82465 52.234 10.0349V15.0536H73.6742V10.0349C73.6742 7.80357 77.0964 7.7091 77.0964 10.0349V15.0536H90.0983C90.6358 15.0536 90.4403 14.2048 90.4389 13.2282C90.4389 12.3141 90.2713 9.74881 90.6638 9.11947C91.2785 8.13754 92.6237 8.04041 93.3994 8.8986C93.6522 9.17934 93.8611 9.61842 93.8611 10.1506V15.1681C94.4917 15.1814 95.5655 15.4368 96.1908 15.5752C99.6356 16.3389 102.315 17.7067 105.087 19.7943C106.099 20.5581 107.017 21.3537 107.862 22.2665L109.094 23.77C109.527 24.3208 109.821 24.6787 110.216 25.2721C111.809 27.6644 112.693 29.7214 113.409 32.5701C114.005 34.9411 114.044 36.1452 114.048 38.2768ZM74.245 80.6303C74.245 79.4261 74.3076 78.8314 74.563 77.755C76.6839 68.8111 88.5296 65.9265 94.4984 73.8352C94.8323 74.2796 95.2954 75.0181 95.5349 75.5343C99.0235 83.0252 93.5524 91.5792 85.7634 91.5792C82.2801 91.5792 79.8519 90.6265 77.5248 88.2994C75.521 86.2957 74.245 83.6918 74.245 80.6303ZM28.9683 91.5792C27.0098 91.5792 25.4118 91.3397 23.758 90.5174C21.4774 89.3772 19.5468 87.4146 18.4359 85.1181C16.7687 81.6707 17.2317 77.0365 19.5016 73.9018C20.5075 72.5127 22.3623 70.8562 24.0148 70.2015C29.4167 68.0647 34.655 69.6241 37.7512 73.9018C38.5708 75.0327 39.1296 76.2901 39.4623 77.6632C41.2252 84.9398 35.7168 91.5792 28.9683 91.5792ZM99.3349 75.8403H105.039C105.039 76.3566 104.529 78.2113 104.354 78.5786C103.301 78.8234 101.096 78.6917 99.9057 78.6917C99.9057 78.1195 99.5012 76.2116 99.3349 75.8403ZM42.5398 75.8403H71.5081C71.3125 76.6812 70.9387 77.7164 70.9387 78.6917H43.1092C43.1092 78.1195 42.7061 76.2116 42.5398 75.8403ZM14.1422 78.6917C12.9514 78.6917 10.7467 78.8234 9.69426 78.5786C9.51863 78.2113 9.00903 76.3566 9.00903 75.8403H14.713C14.5161 76.6812 14.1422 77.7164 14.1422 78.6917ZM16.4241 72.4195H8.09762C7.91001 72.0244 6.72983 67.3196 6.72983 66.8313V61.1286H107.318V66.8313C107.318 67.3249 106.138 72.027 105.95 72.4195H97.6238C97.4349 71.7104 95.5602 69.8197 94.9854 69.3567C94.7365 69.1557 94.6501 69.056 94.368 68.8338C90.5547 65.8494 85.7288 65.0936 81.0613 66.4627C78.1887 67.3063 75.3294 69.3114 73.609 71.7849C73.4214 72.055 73.3097 72.4195 72.9903 72.4195H41.0576C40.7023 72.4195 40.512 71.8048 39.9971 71.1994C39.0179 70.0499 37.6328 68.6661 36.3036 67.9356C32.3492 65.7589 28.6703 65.1695 24.2662 66.4627C22.6962 66.9244 20.9878 67.7946 19.7451 68.7845L18.5037 69.8223C18.2948 70.0286 18.1285 70.1803 17.9329 70.3931C17.6282 70.7231 16.5186 72.0656 16.4241 72.4195ZM90.0983 57.8223H77.0964V50.6361H90.4389V57.479C90.4389 57.7411 90.3604 57.8223 90.0983 57.8223ZM77.0964 39.916H90.4389V47.1008H77.0964V39.916ZM93.8611 57.5934V18.5889C94.1179 18.7113 95.2102 18.8683 95.64 18.9761C96.3199 19.1464 96.8481 19.2834 97.4122 19.487C104.999 22.2239 110.627 29.3715 110.627 37.521C110.627 41.949 109.737 45.427 107.455 48.8345L106.039 50.7252C105.068 51.8362 104.479 52.5214 103.213 53.4887C98.152 57.3606 94.7086 57.1863 93.8611 57.5934ZM3.4208 38.6613C3.4208 34.8732 3.91443 32.4264 5.39797 29.462C6.03263 28.1953 6.53291 27.4116 7.2993 26.3445C8.29986 24.9488 9.15539 24.1518 10.4034 23.0634C14.3312 19.636 19.1197 18.3613 24.6348 18.3613H73.6742V57.8223H24.9767C19.2182 57.8223 15.5739 56.9029 11.2909 53.8307C11.0554 53.6617 10.8398 53.4714 10.5924 53.2732C6.93872 50.3633 3.4208 44.9294 3.4208 38.6613ZM77.0964 29.0814H90.0983C90.3604 29.0814 90.4389 29.1599 90.4389 29.4234V36.3794H77.0964V29.0814ZM77.0964 18.3613H90.4389V25.6606H77.0964V18.3613ZM36.6096 14.7117V10.3782C36.6096 10.116 36.6881 10.0349 36.9515 10.0349H48.47C48.7321 10.0349 48.8132 10.116 48.8132 10.3782V14.7117C48.8132 14.9751 48.7321 15.0536 48.47 15.0536H36.9515C36.6881 15.0536 36.6096 14.9751 36.6096 14.7117ZM33.3019 6.1577C33.3019 4.74734 33.0491 3.4208 33.7583 3.4208H51.6632C52.3724 3.4208 52.1196 4.74734 52.1196 6.1577C52.1196 6.42514 51.9307 6.61408 51.6632 6.61408H33.7583C33.4922 6.61408 33.3019 6.42514 33.3019 6.1577Z" fill="white"/>
<path id="Vector_2" fill-rule="evenodd" clip-rule="evenodd" d="M55.2001 31.5895L55.3585 30.4944C55.4769 30.0753 55.4942 29.8531 55.7696 29.6522C55.9745 32.1137 59.3048 35.7687 61.1596 37.6061C61.6439 38.0878 62.0071 38.5215 62.4196 39.083C64.1533 41.4381 64.8066 43.5283 63.162 45.9393C62.2626 47.2605 60.94 48.1187 59.3314 48.4965C57.5153 48.9223 55.4889 48.8691 53.831 48.1266C51.0888 46.9012 49.9538 45.1463 49.9538 42.1965C50.6298 42.6502 50.8054 43.1638 51.6995 43.6441C53.7166 44.7205 56.0277 44.7138 57.3915 42.6781C58.2298 41.4327 58.114 40.3683 57.6643 38.8209C57.0576 36.7413 55.2001 33.9498 55.2001 31.5895ZM51.778 31.3619C51.778 35.6502 54.5149 38.6173 54.5149 40.8287C50.9677 40.8287 52.5444 35.9243 49.8394 35.9243C48.3625 35.9243 48.1244 37.05 47.4431 38.4311C46.1725 41.0043 46.0647 43.9661 47.3287 46.534C47.7798 47.4534 48.7577 48.8345 49.5454 49.4492C51.6875 51.1217 54.0639 52.234 57.0243 52.234C59.8636 52.234 62.8307 51.1031 64.3502 49.7526C65.8377 48.43 67.63 45.9659 67.63 43.2236C67.63 41.1759 66.499 39.0604 65.6701 37.7711C65.4293 37.3932 65.2031 37.0367 64.921 36.696C64.6136 36.3222 64.3183 36.0188 64.0295 35.6476C63.4707 34.9278 62.6591 34.2665 61.7809 33.2207C61.6146 33.0251 61.4962 32.9466 61.3299 32.7577C57.4341 28.3895 59.7333 25.8974 58.3708 24.5416C57.6856 23.8577 56.7396 23.7779 55.9306 24.3381C53.831 25.7897 51.778 28.4986 51.778 31.3619Z" fill="white"/>
<path id="Vector_3" fill-rule="evenodd" clip-rule="evenodd" d="M80.8583 80.4028C80.8583 77.6925 83.8799 74.8318 87.1837 76.2449C89.7196 77.3292 91.1779 80.9988 88.6432 83.5109C86.702 85.4335 84.1314 85.4442 82.2554 83.5681C81.8469 83.1596 81.5475 82.8177 81.2814 82.2602C81.0965 81.8757 80.8583 80.9217 80.8583 80.4028ZM77.4375 80.4028C77.4375 84.7217 80.9554 88.386 85.5351 88.386C92.2117 88.386 96.2233 79.969 91.0382 74.7839C85.8917 69.6374 77.4375 73.5505 77.4375 80.4028Z" fill="white"/>
<path id="Vector_4" fill-rule="evenodd" clip-rule="evenodd" d="M24.0628 80.403C24.0628 76.8266 28.6704 74.1149 31.7905 77.2364C33.3525 78.7984 33.6346 80.9818 32.3852 82.9084C32.0127 83.4819 31.1412 84.2044 30.5451 84.4904C27.2507 86.0605 24.0628 83.2943 24.0628 80.403ZM20.6406 80.2886C20.6406 84.8217 24.2051 88.3862 28.7369 88.3862C33.0106 88.3862 36.607 84.6993 36.607 80.403C36.607 73.4816 28.069 69.7082 23.0622 74.7283C21.8102 75.9843 20.6406 77.8364 20.6406 80.2886Z" fill="white"/>
</g>
</svg>
