<svg width="62" height="96" viewBox="0 0 62 96" fill="none" xmlns="http://www.w3.org/2000/svg">
<g id="Group 1000005362">
<path id="Vector" d="M56.8193 57.75H44.8984V48.1875H45.674C47.0042 48.1875 48.0859 47.1057 48.0859 45.7756V41.4118C48.0859 40.0818 47.0042 39 45.674 39H41.3103C39.9802 39 38.8984 40.0818 38.8984 41.4118V45.7756C38.8984 47.1057 39.9802 48.1875 41.3103 48.1875H42.0859V57.75H35.3433C34.9829 56.8711 34.1194 56.25 33.1123 56.25H28.7478C27.7407 56.25 26.8772 56.8711 26.5169 57.75H22.575L21.3357 51.8576C21.3255 51.8093 21.313 51.7625 21.2976 51.7156C20.9424 50.6147 19.9265 49.875 18.77 49.875H4.99169C3.52759 49.875 2.33668 51.0667 2.33668 52.5308V75.7031C2.33668 76.4795 2.96584 77.1094 3.74293 77.1094C4.51928 77.1094 5.14918 76.4795 5.14918 75.7031V52.6875H18.636L20.0576 59.4456C20.1946 60.0967 20.7688 60.5625 21.4338 60.5625H26.3359V63.0256C26.3359 64.3557 27.4177 65.4375 28.7478 65.4375H33.1115C34.4417 65.4375 35.5234 64.3557 35.5234 63.0256V60.5625H42.0859V64.0313C42.0859 64.8076 42.7151 65.4375 43.4922 65.4375C44.2685 65.4375 44.8984 64.8076 44.8984 64.0313V60.5625H56.8186C56.9658 60.5625 57.0859 60.6826 57.0859 60.8291V91.426C57.0859 92.3972 56.2956 93.1875 55.3237 93.1875H6.90991C5.93874 93.1875 5.14844 92.3972 5.14844 91.426V81.3281C5.14844 80.5518 4.51854 79.9219 3.74219 79.9219C2.96584 79.9219 2.33594 80.5518 2.33594 81.3281V91.426C2.33594 93.9477 4.38821 96 6.90991 96H55.3245C57.8462 96 59.8984 93.9477 59.8984 91.426V60.8291C59.8984 59.1313 58.5171 57.75 56.8193 57.75ZM32.7109 62.625H29.1484V59.0625H32.7109V62.625ZM41.7109 45.375V41.8125H45.2734V45.375H41.7109Z" fill="white"/>
<path id="Vector_2" d="M33.1115 33.75H28.7478C27.4177 33.75 26.3359 34.8318 26.3359 36.1618V40.5256C26.3359 41.8557 27.4177 42.9375 28.7478 42.9375H33.1115C34.4417 42.9375 35.5234 41.8557 35.5234 40.5256V36.1618C35.5234 34.8318 34.4417 33.75 33.1115 33.75ZM32.7109 40.125H29.1484V36.5625H32.7109V40.125Z" fill="white"/>
<path id="Vector_3" d="M45.6743 27.9365H41.3061C39.9753 27.9365 38.8984 29.0235 38.8984 30.3543V34.7124C38.8984 36.0432 39.9753 37.12 41.3061 37.12H45.6743C47.0051 37.12 48.0819 36.0432 48.0819 34.7124V30.3543C48.0819 29.0235 47.0051 27.9365 45.6743 27.9365Z" fill="white"/>
<path id="Vector_4" d="M58.803 45H54.4392C53.1091 45 52.0273 46.0818 52.0273 47.4118V51.7756C52.0273 53.1057 53.1091 54.1875 54.4392 54.1875H58.803C60.1331 54.1875 61.2148 53.1057 61.2148 51.7756V47.4118C61.2148 46.0818 60.1331 45 58.803 45ZM58.4023 51.375H54.8398V47.8125H58.4023V51.375Z" fill="white"/>
<path id="Vector_5" d="M54.435 32.8124H58.8032C60.134 32.8124 61.2108 31.7254 61.2108 30.4048V26.0365C61.2108 24.7057 60.134 23.6289 58.8032 23.6289H54.435C53.1042 23.6289 52.0273 24.7057 52.0273 26.0365V30.4048C52.0273 31.7254 53.1042 32.8124 54.435 32.8124Z" fill="white"/>
<path id="Vector_6" d="M41.3103 26.4375H45.674C47.0042 26.4375 48.0859 25.3557 48.0859 24.0256V19.6618C48.0859 18.3318 47.0042 17.25 45.674 17.25H41.3103C39.9802 17.25 38.8984 18.3318 38.8984 19.6618V24.0256C38.8984 25.3557 39.9802 26.4375 41.3103 26.4375ZM41.7109 20.0625H45.2734V23.625H41.7109V20.0625Z" fill="white"/>
<path id="Vector_7" d="M16.1892 26.4375H16.9648V33.8438C16.9648 34.6201 17.5947 35.25 18.3711 35.25C19.1474 35.25 19.7773 34.6201 19.7773 33.8438V26.4375H20.553C21.8831 26.4375 22.9648 25.3557 22.9648 24.0256V19.6618C22.9648 18.3318 21.8831 17.25 20.553 17.25H16.1892C14.8591 17.25 13.7773 18.3318 13.7773 19.6618V24.0256C13.7773 25.3557 14.8591 26.4375 16.1892 26.4375ZM16.5898 20.0625H20.1523V23.625H16.5898V20.0625Z" fill="white"/>
<path id="Vector_8" d="M3.4672 31.685V35.718C3.4672 36.4901 4.09704 37.1199 4.86911 37.1199C5.64112 37.1199 6.27096 36.4901 6.27096 35.718V31.685H7.0532C8.38399 31.685 9.46081 30.6082 9.46081 29.2774V24.9091C9.46081 23.5783 8.38399 22.5015 7.0532 22.5015H2.68496C1.35417 22.5015 0.277344 23.5783 0.277344 24.9091V29.2774C0.277344 30.6082 1.35417 31.685 2.68496 31.685H3.4672Z" fill="white"/>
<path id="Vector_9" d="M16.185 15.746H20.5532C21.8841 15.746 22.9609 14.6692 22.9609 13.3384V8.97011C22.9609 7.63932 21.8841 6.5625 20.5532 6.5625H16.185C14.8542 6.5625 13.7773 7.63932 13.7773 8.97011V13.3384C13.7773 14.6692 14.8542 15.746 16.185 15.746Z" fill="white"/>
<path id="Vector_10" d="M28.7537 54.1864H33.1119C34.4426 54.1864 35.5296 53.1096 35.5296 51.7788V47.4105C35.5296 46.0798 34.4426 45.0029 33.1119 45.0029H28.7537C27.4229 45.0029 26.3359 46.0798 26.3359 47.4105V51.7788C26.3359 53.1096 27.4229 54.1864 28.7537 54.1864Z" fill="white"/>
<path id="Vector_11" d="M33.1119 87.934C34.4426 87.934 35.5296 86.8572 35.5296 85.5264V81.1582C35.5296 79.8273 34.4426 78.7505 33.1119 78.7505H28.7537C27.4229 78.7505 26.3359 79.8273 26.3359 81.1582V85.5264C26.3359 86.8572 27.4229 87.934 28.7537 87.934H33.1119Z" fill="white"/>
<path id="Vector_12" d="M28.7537 20.4392H33.1119C34.4426 20.4392 35.5296 19.3523 35.5296 18.0215V13.6634C35.5296 12.3326 34.4426 11.2456 33.1119 11.2456H28.7537C27.4229 11.2456 26.3359 12.3326 26.3359 13.6634V18.0215C26.3359 19.3523 27.4229 20.4392 28.7537 20.4392Z" fill="white"/>
<path id="Vector_13" d="M28.7478 9.1875H33.1115C34.4417 9.1875 35.5234 8.10572 35.5234 6.77561V2.41183C35.5234 1.08178 34.4417 0 33.1115 0H28.7478C27.4177 0 26.3359 1.08178 26.3359 2.41183V6.77561C26.3359 8.10572 27.4177 9.1875 28.7478 9.1875ZM29.1484 2.8125H32.7109V6.375H29.1484V2.8125Z" fill="white"/>
<path id="Vector_14" d="M4.87109 39.375C4.09474 39.375 3.46484 40.0049 3.46484 40.7813V42.4688C3.46484 43.2451 4.09474 43.875 4.87109 43.875C5.64745 43.875 6.27734 43.2451 6.27734 42.4688V40.7813C6.27734 40.0049 5.64745 39.375 4.87109 39.375Z" fill="white"/>
<path id="Vector_15" d="M44.8984 71.9063V68.9063C44.8984 68.1299 44.2693 67.5 43.4922 67.5C42.7151 67.5 42.0859 68.1299 42.0859 68.9063V71.9063C42.0859 72.6826 42.7151 73.3125 43.4922 73.3125C44.2693 73.3125 44.8984 72.6826 44.8984 71.9063Z" fill="white"/>
<path id="Vector_16" d="M18.3711 36.9375C17.5947 36.9375 16.9648 37.5674 16.9648 38.3438V39.8438C16.9648 40.6201 17.5947 41.25 18.3711 41.25C19.1474 41.25 19.7773 40.6201 19.7773 39.8438V38.3438C19.7773 37.5674 19.1474 36.9375 18.3711 36.9375Z" fill="white"/>
</g>
</svg>
