<svg width="96" height="96" viewBox="0 0 96 96" fill="none" xmlns="http://www.w3.org/2000/svg">
<path id="Vector" d="M47.9977 30.4831C38.3355 30.4831 30.473 38.3451 30.473 48.0078C30.473 57.6704 38.335 65.5324 47.9977 65.5324C48.7478 65.5324 49.3525 64.9277 49.3525 64.1776V31.8394C49.3525 31.0893 48.7478 30.4845 47.9977 30.4845V30.4831ZM46.6428 62.7613C39.1044 62.0768 33.1831 55.7197 33.1831 48.0078C33.1831 40.2958 39.1088 33.9383 46.6428 33.2542V62.7613ZM47.9977 0.00151196H40.2998C39.6575 0.00151196 39.1043 0.451571 38.973 1.07978L36.3664 13.607L31.9032 15.4542L21.2002 8.4407C20.6658 8.08909 19.9532 8.1641 19.4984 8.61415L8.61264 19.4999C8.15789 19.9547 8.08757 20.6626 8.43919 21.2017L15.4527 31.9047L13.6055 36.3631L1.07827 38.9791C0.450059 39.1103 0 39.6635 0 40.3058V55.7014C0 56.3437 0.450059 56.8969 1.07827 57.0282L13.6055 59.6348L15.4527 64.0932L8.43919 74.7962C8.08757 75.3306 8.16258 76.0432 8.61264 76.498L19.4984 87.3884C19.9532 87.8432 20.6611 87.9135 21.2002 87.5619L31.9032 80.5484L36.3664 82.3909L38.973 94.9217C39.1043 95.5499 39.6574 96 40.2998 96H47.9977C48.7478 96 49.3525 95.3952 49.3525 94.6451V69.8211C49.3525 69.071 48.7478 68.4663 47.9977 68.4663C36.7088 68.4663 27.5242 59.2823 27.5242 47.9928C27.5242 36.7033 36.7082 27.5193 47.9977 27.5193C48.7478 27.5193 49.3525 26.9146 49.3525 26.1645V1.35486C49.3525 0.604758 48.7478 0 47.9977 0V0.00151196ZM46.6428 24.8627C34.4865 25.566 24.8144 35.6782 24.8144 48.0078C24.8144 60.3373 34.486 70.4447 46.6428 71.1528V93.304H41.4015L38.8699 81.1477C38.7808 80.707 38.4761 80.3413 38.0589 80.1725L32.2691 77.7816C31.8565 77.6081 31.383 77.655 31.0079 77.8988L20.6285 84.7013L11.2992 75.3673L18.1017 64.9832C18.3455 64.6081 18.3924 64.1346 18.2189 63.7221L15.8233 57.9369C15.6498 57.5244 15.2888 57.2197 14.8481 57.1306L2.69657 54.599V41.4069L14.8481 38.8706C15.2841 38.7815 15.6498 38.4768 15.8233 38.0642L18.2189 32.2791C18.3924 31.8665 18.3455 31.3931 18.1017 31.018L11.2992 20.6385L20.6285 11.3093L31.0079 18.1117C31.383 18.3555 31.8565 18.4024 32.2691 18.2289L38.0589 15.8333C38.4714 15.6599 38.7761 15.2989 38.8652 14.8582L41.3968 2.70661H46.6381V24.8579L46.6428 24.8627ZM90.5193 42.5182C87.9643 42.5182 85.8124 44.2762 85.2077 46.6485H53.3567C52.6066 46.6485 52.0019 47.2532 52.0019 48.0033C52.0019 48.7534 52.6067 49.3582 53.3567 49.3582H85.2077C85.8125 51.7257 87.9643 53.4837 90.5193 53.4837C93.5431 53.4837 96.0044 51.0224 96.0044 48.0033C96.0044 44.9795 93.5431 42.5182 90.5193 42.5182ZM90.5193 50.7787C88.9911 50.7787 87.7486 49.5363 87.7486 48.008C87.7486 46.4797 88.9911 45.2326 90.5193 45.2326C92.0476 45.2326 93.2947 46.4797 93.2947 48.008C93.2947 49.5409 92.0476 50.7787 90.5193 50.7787ZM53.3565 39.1615H64.8143C65.2831 39.1615 65.7144 38.9224 65.9629 38.5286L68.7242 34.1218H77.9597C78.5645 36.4893 80.721 38.2473 83.2761 38.2473C86.2999 38.2473 88.7565 35.786 88.7565 32.7669C88.7565 29.7431 86.2952 27.2818 83.2761 27.2818C80.7164 27.2818 78.5645 29.0398 77.9597 31.4121H67.9741C67.5053 31.4121 67.074 31.6512 66.8255 32.045L64.0642 36.4518H53.3565C52.6064 36.4518 52.0016 37.0566 52.0016 37.8067C52.0016 38.5567 52.6064 39.1615 53.3565 39.1615ZM83.2764 29.9869C84.8047 29.9869 86.0471 31.234 86.0471 32.7623C86.0471 34.2952 84.8047 35.533 83.2764 35.533C81.7481 35.533 80.501 34.2906 80.501 32.7623C80.501 31.234 81.7481 29.9869 83.2764 29.9869ZM65.3064 6.51308C65.3064 3.48929 62.8452 1.03269 59.8214 1.03269C56.7976 1.03269 54.341 3.49397 54.341 6.51308C54.341 9.53687 56.8023 11.9981 59.8214 11.9981C62.8452 11.9981 65.3064 9.53687 65.3064 6.51308ZM57.046 6.51308C57.046 4.9848 58.2884 3.7424 59.8167 3.7424C61.345 3.7424 62.5921 4.9848 62.5921 6.51308C62.5921 8.04136 61.345 9.28844 59.8167 9.28844C58.2837 9.28844 57.046 8.04136 57.046 6.51308ZM52.597 28.7352C52.8268 28.8899 53.0893 28.9649 53.3518 28.9649C53.7878 28.9649 54.2144 28.7539 54.477 28.3648L60.8622 18.8713H68.5506C69.1554 21.2436 71.3072 23.0016 73.8623 23.0016C76.886 23.0016 79.3473 20.5403 79.3473 17.5165C79.3473 14.4927 76.886 12.0314 73.8623 12.0314C71.3072 12.0314 69.1554 13.7894 68.5506 16.1616H60.1402C59.6901 16.1616 59.2682 16.3867 59.015 16.7617L52.2267 26.8505C51.8094 27.4693 51.9735 28.3132 52.597 28.7304V28.7352ZM73.8626 14.7461C75.3956 14.7461 76.638 15.9932 76.638 17.5215C76.638 19.0545 75.3909 20.2969 73.8626 20.2969C72.3296 20.2969 71.0919 19.0498 71.0919 17.5215C71.0919 15.9886 72.3343 14.7461 73.8626 14.7461ZM73.8626 73.0101C71.3076 73.0101 69.1557 74.7681 68.551 77.1357H60.8625L54.4773 67.6422C54.0601 67.0234 53.2162 66.8546 52.5974 67.2718C51.9786 67.6891 51.8098 68.5329 52.227 69.1517L59.0154 79.2405C59.2685 79.6155 59.6905 79.8406 60.1405 79.8406H68.551C69.1557 82.2128 71.3076 83.9708 73.8626 83.9708C76.8864 83.9708 79.3477 81.5095 79.3477 78.4857C79.3477 75.4619 76.8864 73.0053 73.8626 73.0053L73.8626 73.0101ZM73.8626 81.2706C72.3343 81.2706 71.0919 80.0235 71.0919 78.4952C71.0919 76.9622 72.3343 75.7245 73.8626 75.7245C75.3909 75.7245 76.638 76.9669 76.638 78.4952C76.638 80.0235 75.3909 81.2706 73.8626 81.2706ZM59.8172 84.0132C56.7934 84.0132 54.3368 86.4744 54.3368 89.4982C54.3368 92.522 56.7981 94.9833 59.8172 94.9833C62.841 94.9833 65.3023 92.522 65.3023 89.4982C65.3023 86.4744 62.841 84.0132 59.8172 84.0132ZM59.8172 92.2783C58.2889 92.2783 57.0465 91.0312 57.0465 89.5029C57.0465 87.9699 58.2889 86.7275 59.8172 86.7275C61.3455 86.7275 62.5925 87.9746 62.5925 89.5029C62.5925 91.0359 61.3455 92.2783 59.8172 92.2783ZM83.2766 57.769C80.7169 57.769 78.565 59.527 77.9603 61.8992H68.7247L65.9634 57.4877C65.7149 57.0939 65.2836 56.8501 64.8148 56.8501H53.3571C52.607 56.8501 52.0022 57.4549 52.0022 58.2049C52.0022 58.955 52.607 59.5598 53.3571 59.5598H64.0647L66.8261 63.9713C67.0745 64.3651 67.5058 64.6089 67.9746 64.6089H77.9603C78.5651 66.9765 80.7216 68.7344 83.2766 68.7344C86.3004 68.7344 88.757 66.2732 88.757 63.2541C88.757 60.2303 86.2957 57.769 83.2766 57.769ZM83.2766 66.0294C81.7437 66.0294 80.5013 64.787 80.5013 63.2587C80.5013 61.7305 81.7483 60.4834 83.2766 60.4834C84.8096 60.4834 86.0473 61.7305 86.0473 63.2587C86.0473 64.7917 84.8049 66.0294 83.2766 66.0294Z" fill="#F4EBEB"/>
</svg>
