<svg width="97" height="97" viewBox="0 0 97 97" fill="none" xmlns="http://www.w3.org/2000/svg">
<g id="community 1">
<path id="Vector" d="M13.9838 67.5163C13.7849 67.1732 13.4594 66.9218 13.0772 66.8159C12.6951 66.71 12.2866 66.758 11.9395 66.9497C11.5923 67.1414 11.3341 67.4615 11.2202 67.8414C11.1062 68.2212 11.1457 68.6306 11.33 68.9817C27.1077 98.081 69.9005 98.0742 85.6725 68.981C85.8659 68.6292 85.9118 68.215 85.8001 67.8293C85.6884 67.4436 85.4282 67.1181 85.0767 66.924C84.7252 66.73 84.311 66.6834 83.9252 66.7945C83.5393 66.9055 83.2133 67.1651 83.0187 67.5163C79.6153 73.692 74.6174 78.8416 68.5462 82.428C62.4749 86.0144 55.5526 87.9062 48.5012 87.9062C41.4498 87.9062 34.5275 86.0144 28.4562 82.428C22.385 78.8416 17.3871 73.692 13.9838 67.5163Z" fill="white"/>
<path id="Vector_2" d="M78.3893 22.8551C78.653 23.1513 79.0223 23.3323 79.418 23.3593C79.8137 23.3862 80.2041 23.2571 80.5057 22.9995C80.8072 22.7419 80.9958 22.3764 81.0309 21.9814C81.0661 21.5864 80.945 21.1933 80.6937 20.8865C64.4779 1.25544 32.5234 1.25688 16.3093 20.8871C16.0574 21.1938 15.9358 21.5871 15.9707 21.9825C16.0057 22.3779 16.1944 22.7438 16.4962 23.0016C16.7981 23.2594 17.189 23.3884 17.585 23.361C17.981 23.3336 18.3504 23.1519 18.6139 22.855C33.6696 4.63098 63.3355 4.6329 78.3893 22.8551Z" fill="white"/>
<path id="Vector_3" d="M28.6825 21.6999C28.3684 21.9427 28.1621 22.299 28.1079 22.6922C28.0538 23.0854 28.156 23.4842 28.3927 23.8029C28.6294 24.1216 28.9816 24.3347 29.3738 24.3964C29.7659 24.4582 30.1666 24.3636 30.4898 24.1331C35.7071 20.2862 42.019 18.2109 48.5011 18.2109C54.9833 18.2109 61.2952 20.2864 66.5124 24.1333C66.8356 24.3632 67.2361 24.4572 67.6278 24.3952C68.0196 24.3332 68.3714 24.1201 68.6079 23.8017C68.8443 23.4833 68.9466 23.0849 68.8927 22.6919C68.8388 22.299 68.633 21.9428 68.3195 21.6998C62.5791 17.4661 55.6338 15.1819 48.501 15.1819C41.3682 15.1819 34.4229 17.4661 28.6825 21.6999Z" fill="white"/>
<path id="Vector_4" d="M48.4999 81.8438C53.5284 81.8541 58.4933 80.7202 63.0188 78.528C67.5443 76.3357 71.5117 73.1426 74.6207 69.1904C74.8609 68.8744 74.9676 68.4768 74.9179 68.0829C74.8682 67.6891 74.6661 67.3305 74.3549 67.084C74.0437 66.8376 73.6483 66.723 73.2536 66.7648C72.8588 66.8066 72.4962 67.0016 72.2436 67.3078C60.6182 82.5505 36.38 82.5488 24.7561 67.3073C24.5033 67.0014 24.1407 66.8067 23.7461 66.7651C23.3514 66.7234 22.9562 66.8381 22.6451 67.0845C22.3341 67.331 22.132 67.6895 22.0823 68.0832C22.0325 68.4769 22.1391 68.8744 22.3791 69.1905C25.4881 73.1427 29.4555 76.3358 33.981 78.528C38.5064 80.7202 43.4714 81.8541 48.4999 81.8438Z" fill="white"/>
<path id="Vector_5" d="M6.86281 52.3927C6.32982 53.4055 6.06581 54.5382 6.09609 55.6823C6.12637 56.8265 6.4499 57.9436 7.03571 58.9268C7.62153 59.9101 8.44998 60.7264 9.44173 61.2977C10.4335 61.8689 11.5553 62.176 12.6997 62.1894L29.565 62.1895C29.5592 63.1898 29.7506 64.1815 30.1282 65.1079C30.5059 66.0342 31.0624 66.8771 31.7659 67.5882C32.4694 68.2994 33.3062 68.865 34.2284 69.2526C35.1506 69.6403 36.1402 69.8424 37.1406 69.8474L59.8601 69.8475C60.8617 69.8469 61.8533 69.6478 62.7775 69.2617C63.7017 68.8756 64.5403 68.3102 65.2447 67.5981C65.9491 66.8861 66.5054 66.0414 66.8814 65.1131C67.2575 64.1847 67.4458 63.1911 67.4356 62.1895H84.301C85.4455 62.176 86.5673 61.869 87.559 61.2977C88.5508 60.7264 89.3792 59.91 89.965 58.9268C90.5508 57.9435 90.8743 56.8264 90.9045 55.6822C90.9348 54.5381 90.6707 53.4054 90.1377 52.3926C88.0657 48.5538 84.6347 45.6272 80.5172 44.1863C81.6681 43.3 82.6004 42.1615 83.2423 40.8584C83.8842 39.5552 84.2185 38.1222 84.2197 36.6696C83.7679 24.0755 65.6367 24.0751 65.187 36.6697C65.1882 38.1226 65.5227 39.5559 66.1648 40.8592C66.8069 42.1625 67.7395 43.3011 68.8908 44.1874C65.176 45.4957 62.0124 48.0214 59.9139 51.3543C58.3414 50.2983 56.6296 49.4662 54.8279 48.8819C56.2663 47.8699 57.4405 46.527 58.2515 44.9663C59.0625 43.4056 59.4865 41.6728 59.4879 39.914C58.9745 25.3768 38.0277 25.371 37.5128 39.9142C37.5142 41.673 37.9382 43.4057 38.7492 44.9663C39.5602 46.527 40.7343 47.8699 42.1728 48.8819C40.3702 49.4665 38.6577 50.299 37.0846 51.3557C34.9825 48.0262 31.8206 45.5015 28.1084 44.1883C29.2601 43.3021 30.1931 42.1633 30.8355 40.8598C31.4778 39.5563 31.8125 38.1227 31.8136 36.6695C31.3772 24.0876 13.2261 24.0685 12.781 36.6696C12.7821 38.1223 13.1165 39.5553 13.7584 40.8584C14.4003 42.1615 15.3325 43.3 16.4834 44.1863C12.3659 45.6272 8.9349 48.5538 6.86281 52.3927ZM68.2182 36.6696C68.2346 34.9604 68.925 33.3267 70.1395 32.1238C71.3539 30.921 72.9941 30.2462 74.7034 30.2462C76.4127 30.2462 78.0529 30.9211 79.2673 32.1239C80.4817 33.3268 81.1721 34.9605 81.1884 36.6697C81.172 38.3789 80.4816 40.0126 79.2672 41.2155C78.0527 42.4183 76.4125 43.0931 74.7032 43.0931C72.9939 43.0931 71.3538 42.4182 70.1394 41.2153C68.925 40.0125 68.2345 38.3788 68.2182 36.6696ZM74.6926 46.1853C77.3144 46.1834 79.8877 46.8933 82.1376 48.2394C84.3876 49.5855 86.2298 51.5172 87.4678 53.8284C87.7581 54.3787 87.9024 54.9943 87.8866 55.6163C87.8709 56.2383 87.6957 56.8459 87.3779 57.3808C87.0601 57.9157 86.6102 58.36 86.0715 58.6712C85.5327 58.9824 84.923 59.1501 84.3009 59.1582H66.7619C65.6714 56.9146 64.1594 54.9018 62.3084 53.2295C63.5917 51.0886 65.4059 49.3153 67.5755 48.0812C69.7451 46.8471 72.1966 46.1941 74.6926 46.1853ZM40.544 39.914C40.8784 29.3993 56.1238 29.4018 56.4566 39.9142C56.1224 50.4296 40.8766 50.4272 40.544 39.914ZM63.8601 60.0877C64.2272 60.7825 64.4097 61.56 64.39 62.3456C64.3703 63.1312 64.149 63.8985 63.7474 64.574C63.3458 65.2495 62.7774 65.8105 62.0967 66.2031C61.416 66.5957 60.6458 66.8069 59.86 66.8162L37.1405 66.8163C36.3517 66.8147 35.5769 66.6084 34.8917 66.2177C34.2065 65.8269 33.6344 65.2651 33.2313 64.5871C32.8283 63.909 32.608 63.138 32.5921 62.3494C32.5762 61.5608 32.7652 60.7815 33.1405 60.0878C39.4925 47.9284 57.5097 47.9295 63.8601 60.0877ZM15.8123 36.6696C15.8284 34.9602 16.5187 33.3263 17.7332 32.1233C18.9476 30.9203 20.588 30.2454 22.2974 30.2454C24.0068 30.2454 25.6471 30.9203 26.8616 32.1234C28.076 33.3265 28.7663 34.9603 28.7824 36.6697C28.7663 38.3791 28.0759 40.0129 26.8615 41.216C25.647 42.419 24.0067 43.0939 22.2973 43.0939C20.5878 43.0939 18.9475 42.4189 17.7331 41.2159C16.5187 40.0128 15.8283 38.3789 15.8123 36.6696ZM22.2832 46.1851C24.7829 46.1921 27.2385 46.8443 29.4123 48.0786C31.586 49.3129 33.4043 51.0876 34.691 53.2307C32.8406 54.9028 31.329 56.9152 30.2387 59.1582H12.6996C12.0775 59.1501 11.4678 58.9824 10.9291 58.6711C10.3903 58.3599 9.94052 57.9155 9.62273 57.3806C9.30493 56.8457 9.12979 56.2382 9.11408 55.6162C9.09837 54.9942 9.24261 54.3786 9.533 53.8283C10.769 51.5208 12.6073 49.5916 14.8524 48.2457C17.0976 46.8998 19.6655 46.1877 22.2832 46.1851Z" fill="white"/>
</g>
</svg>
