<svg width="89" height="96" viewBox="0 0 89 96" fill="none" xmlns="http://www.w3.org/2000/svg">
<path id="Vector" d="M44.3518 96C42.4059 96 41.1086 94.7027 41.1086 92.7567V85.2972C41.1086 83.3512 42.4059 82.0539 44.3518 82.0539C46.2978 82.0539 47.5951 83.3512 47.5951 85.2972V92.7567C47.5951 94.7027 46.2978 96 44.3518 96ZM20.3516 91.1351C17.4326 91.1351 16.1353 87.5675 18.0813 85.6215L23.5949 80.1079C24.8922 78.8106 26.8381 78.8106 28.1354 80.1079C29.4328 81.4053 29.4328 83.3512 28.1354 84.6485L22.6219 90.1621C21.9732 90.8108 21.0002 91.1351 20.3516 91.1351ZM68.3521 91.1351C67.3791 91.1351 66.7305 90.8108 66.0818 90.1621L60.5682 84.6485C59.2709 83.3512 59.2709 81.4053 60.5682 80.1079C61.8655 78.8106 63.8115 78.8106 65.1088 80.1079L70.6224 85.6215C72.8927 87.5675 71.271 91.4594 68.3521 91.1351ZM44.3518 76.5409C25.5408 76.5409 8.67577 66.1624 0.243246 49.6211C-0.081082 48.6481 -0.081082 47.6752 0.243246 46.7022C8.67577 29.8371 25.5408 19.4586 44.3518 19.4586C63.1628 19.4586 80.0279 29.8371 88.4604 46.3784C88.7847 47.3513 88.7847 48.3243 88.4604 49.2973C80.0279 66.1624 63.1628 76.5409 44.3518 76.5409ZM6.7298 48C21.9737 77.1895 66.4061 77.1895 81.9739 48C66.7299 18.8105 21.9737 18.8105 6.7298 48ZM44.3518 64.8651C21.9737 64.5407 21.9737 31.4588 44.3518 31.135C67.0548 31.4593 66.7299 64.5412 44.3518 64.8651ZM33.9733 48C34.622 61.9466 54.7303 61.9466 55.0541 48C54.4055 34.0534 34.2971 34.0534 33.9733 48ZM63.1628 16.5407C60.2439 16.5407 58.9466 12.9731 60.8926 11.0271L66.4061 5.51357C67.7034 4.21626 69.6494 4.21626 70.9467 5.51357C72.244 6.81088 72.244 8.75685 70.9467 10.0542L65.4331 15.5677C64.7845 16.2164 63.8115 16.5407 63.1628 16.5407ZM25.5408 16.5407C24.8922 16.5407 23.9192 16.2164 23.2705 15.5677L17.7569 10.3785C16.784 9.08118 16.784 7.13521 17.7569 5.8379C19.0543 4.54059 21.0002 4.54059 22.2975 5.8379L27.8111 11.3515C30.0814 12.9731 28.4598 16.865 25.5408 16.5407ZM44.3518 13.9461C42.4059 13.9461 41.1086 12.6488 41.1086 10.7028V3.24328C41.1086 1.29731 42.4059 0 44.3518 0C46.2978 0 47.5951 1.29731 47.5951 3.24328V10.7028C47.5951 12.6488 46.2978 13.9461 44.3518 13.9461Z" fill="white"/>
</svg>
