<svg width="86" height="86" viewBox="0 0 86 86" fill="none" xmlns="http://www.w3.org/2000/svg">
<g id="Layer 2">
<path id="Vector" d="M26.2976 76.0188C27.1151 76.0169 27.9249 76.177 28.6801 76.49C29.435 76.8028 30.1204 77.2622 30.6967 77.8416C30.6969 77.8418 30.6971 77.842 30.6973 77.8422L30.3428 78.1948L8.14805 30.6967L8.14819 30.6965L7.7948 30.3428M26.2976 76.0188H26.2988V76.5188L26.2976 76.0188ZM26.2976 76.0188H21.1873M21.1873 76.0188C18.2124 76.0158 15.3602 74.8326 13.2566 72.729C11.153 70.6255 9.96984 67.7732 9.9668 64.7983M21.1873 76.0188H21.1868V76.5188M21.1873 76.0188L21.1868 76.5188M9.9668 64.7983V59.6914M9.9668 64.7983V64.7988H9.4668M9.9668 64.7983L9.4668 64.7988M9.9668 59.6914C9.96921 58.8745 9.80975 58.0653 9.49764 57.3104C9.18541 56.5552 8.72659 55.8694 8.14772 55.2926M9.9668 59.6914C9.9668 59.6917 9.9668 59.692 9.9668 59.6924L9.4668 59.6908M9.9668 59.6914V59.6908H9.4668M8.14772 55.2926L3.78081 50.9297L3.4268 51.2828M8.14772 55.2926L8.14819 55.2931L7.7948 55.6468M8.14772 55.2926L7.7948 55.6468M3.4268 51.2828L3.78019 50.9291L3.78045 50.9293C1.67972 48.8231 0.5 45.9696 0.5 42.9948C0.5 40.02 1.67967 37.1667 3.78031 35.0604L3.78019 35.0605L3.4268 34.7068M3.4268 51.2828C1.23236 49.0827 0 46.1022 0 42.9948C0 39.8874 1.23236 36.9069 3.4268 34.7068M3.4268 51.2828L7.7948 55.6468M3.4268 34.7068L3.78081 35.0599L8.14737 30.6973L7.7948 30.3428M3.4268 34.7068L7.7948 30.3428M7.7948 30.3428C8.32759 29.813 8.75005 29.1828 9.03773 28.4886C9.32541 27.7945 9.4726 27.0502 9.4708 26.2988M9.9708 26.2984V26.2988H9.4708M9.9708 26.2984C9.9708 26.2982 9.9708 26.2979 9.9708 26.2976L9.4708 26.2988M9.9708 26.2984V21.1873M9.9708 26.2984V21.1873M9.4708 26.2988L21.1868 76.5188M9.9708 21.1873C9.97384 18.2124 11.157 15.3602 13.2606 13.2566C15.3642 11.153 18.2164 9.96984 21.1913 9.9668M9.9708 21.1873L21.1913 9.9668M21.1913 9.9668H26.2982C27.1151 9.96921 27.9243 9.80975 28.6792 9.49764C29.4342 9.18549 30.1198 8.72684 30.6965 8.1482L21.1913 9.9668ZM59.6912 9.9708C58.874 9.97266 58.0645 9.81251 57.3096 9.49963C56.5544 9.18665 55.8687 8.72703 55.2923 8.14737L50.9297 3.78081C50.9296 3.78066 50.9294 3.78052 50.9293 3.78038C48.823 1.67969 45.9696 0.5 42.9948 0.5C40.02 0.5 37.1667 1.67967 35.0604 3.78031C35.0602 3.78048 35.0601 3.78064 35.0599 3.78081L30.697 8.14772L82.2048 35.0599L77.8419 30.697M59.6912 9.9708H59.6908V9.4708L59.692 9.9708C59.6917 9.9708 59.6915 9.9708 59.6912 9.9708ZM59.6912 9.9708H64.8023M64.8023 9.9708C67.7772 9.97384 70.6294 11.157 72.733 13.2606C74.8366 15.3642 76.0198 18.2164 76.0228 21.1913M64.8023 9.9708L64.8028 9.4708V9.9708H64.8023ZM76.0228 21.1913V26.2973M76.0228 21.1913V21.1908H76.5228L76.0228 21.1913ZM76.0228 26.2973C76.0203 27.1144 76.1797 27.924 76.492 28.6792C76.8042 29.4344 77.263 30.1202 77.8419 30.697M76.0228 26.2973L76.5228 26.2988H76.0228V26.2973ZM77.8419 30.697L77.8412 30.6964L78.1948 30.3428L77.8419 30.697ZM76.0188 59.692C76.0168 58.8745 76.177 58.0648 76.49 57.3096C76.803 56.5544 77.2626 55.8687 77.8422 55.2923L82.2048 50.9297L55.2923 77.8462C55.8687 77.2666 56.5544 76.807 57.3096 76.494C58.0648 76.181 58.8745 76.0209 59.692 76.0228M76.0188 59.692V59.6908H76.5188L76.0188 59.692ZM76.0188 59.692V64.8023M76.0188 64.8023C76.0158 67.7772 74.8326 70.6294 72.729 72.733C70.6254 74.8366 67.7732 76.0198 64.7983 76.0228M76.0188 64.8023L76.5188 64.8028H76.0188V64.8023ZM64.7983 76.0228H59.692M64.7983 76.0228H64.7988V76.5228L64.7983 76.0228ZM59.692 76.0228H59.6908V76.5228L59.692 76.0228ZM7.7948 55.6468C8.32687 56.177 8.74859 56.8073 9.03557 57.5015C9.32256 58.1956 9.46913 58.9397 9.4668 59.6908M9.4668 59.6908V64.7988M9.4668 64.7988C9.46998 67.9062 10.7058 70.8854 12.903 73.0826C15.1003 75.2798 18.0794 76.5156 21.1868 76.5188M82.2053 35.0604C84.3059 37.1666 85.4856 40.02 85.4856 42.9948C85.4856 45.9696 84.3059 48.823 82.2053 50.9293V35.0604ZM21.1868 14.9668H21.1865C19.5373 14.968 17.9559 15.6236 16.7898 16.7898C15.6236 17.9559 14.968 19.5373 14.9668 21.1865V21.1868L14.9668 26.2988L14.9668 26.3006C14.9721 27.7758 14.6842 29.2374 14.1196 30.6004C13.5551 31.9634 12.7253 33.2005 11.6785 34.24L11.6772 34.2413L7.31725 38.6013L7.3168 38.6017C6.15149 39.77 5.49707 41.3527 5.49707 43.0028C5.49707 44.6529 6.15149 46.2356 7.3168 47.4039L7.31725 47.4044L11.6772 51.7644L11.6785 51.7656C12.7244 52.8042 13.5537 54.0401 14.1182 55.4017C14.6826 56.7633 14.9711 58.2234 14.9668 59.6974V59.6988V64.8108V64.8112C14.968 66.4604 15.6236 68.0417 16.7898 69.2078C17.9559 70.374 19.5373 71.0297 21.1865 71.0308H21.1868H26.2988H26.3C27.7739 71.0274 29.2339 71.3162 30.5954 71.8807C31.957 72.4452 33.1931 73.274 34.2322 74.3193L34.2332 74.3204L38.5933 78.6804L38.5937 78.6808C39.762 79.8461 41.3447 80.5005 42.9948 80.5005C44.6449 80.5005 46.2276 79.8461 47.3959 78.6808L47.3964 78.6804L51.7564 74.3204L51.7574 74.3193C52.7965 73.274 54.0326 72.4452 55.3942 71.8807C56.7557 71.3162 58.2157 71.0274 59.6896 71.0308H59.6908H64.8028H64.8032C66.4524 71.0297 68.0337 70.374 69.1998 69.2078C70.366 68.0417 71.0217 66.4604 71.0228 64.8112V64.8108V59.6908V59.6894C71.0185 58.2154 71.307 56.7553 71.8714 55.3937C72.4359 54.0321 73.2652 52.7962 74.3111 51.7576L74.3124 51.7564L78.6724 47.3964L78.6728 47.3959C79.8381 46.2276 80.4925 44.6449 80.4925 42.9948C80.4925 41.3447 79.8381 39.762 78.6728 38.5937L78.672 38.5929L74.312 34.2409L74.3113 34.2402C73.266 33.2011 72.4371 31.965 71.8727 30.6034C71.3082 29.2419 71.0193 27.7819 71.0228 26.308V26.3068V21.1868V21.1865C71.0217 19.5373 70.366 17.9559 69.1998 16.7898C68.0337 15.6236 66.4524 14.968 64.8032 14.9668H64.8028L59.6908 14.9668L59.689 14.9668C58.2138 14.9721 56.7522 14.6842 55.3892 14.1196C54.0262 13.5551 52.7891 12.7253 51.7496 11.6785L51.7484 11.6772L47.3884 7.31725L47.3879 7.3168C46.2196 6.15149 44.6369 5.49707 42.9868 5.49707C41.3367 5.49707 39.754 6.15149 38.5857 7.3168L38.5846 7.3179L34.2406 11.6779L34.24 11.6785C33.2014 12.7244 31.9655 13.5537 30.6039 14.1182C29.2423 14.6826 27.7822 14.9711 26.3083 14.9668H26.3068H21.1868Z" fill="white" stroke="black"/>
<path id="Vector_2" d="M37.2304 52.7624L37.229 52.761L29.2356 44.7675C28.7976 44.2943 28.5593 43.6701 28.5707 43.0252C28.5821 42.3776 28.8445 41.7596 29.3025 41.3016C29.7606 40.8435 30.3785 40.5812 31.0262 40.5697C31.6711 40.5583 32.2953 40.7967 32.7685 41.2346L38.642 47.1042L38.9956 47.4574L39.349 47.1041L53.2225 33.2346C53.6957 32.7966 54.3199 32.5583 54.9647 32.5697C55.6124 32.5812 56.2304 32.8435 56.6884 33.3016C57.1465 33.7596 57.4088 34.3776 57.4203 35.0252C57.4316 35.6701 57.1934 36.2943 56.7554 36.7675L40.7619 52.761L40.7605 52.7624C40.5296 52.9951 40.2548 53.1796 39.9521 53.3053C39.6493 53.431 39.3245 53.4953 38.9967 53.4945L38.9942 53.4945C38.6664 53.4953 38.3417 53.431 38.0389 53.3053C37.7361 53.1796 37.4613 52.9951 37.2304 52.7624Z" fill="white" stroke="black"/>
</g>
</svg>
