<svg width="96" height="96" viewBox="0 0 96 96" fill="none" xmlns="http://www.w3.org/2000/svg">
<g id="Group">
<path id="Vector" d="M17.8155 55.6205L17.9026 55.5689L17.8499 55.4825L3.52902 31.9857L3.52908 31.9857L3.52688 31.9824C1.28502 28.6126 0.1 24.6861 0.1 20.625C0.1 9.3076 9.3076 0.1 20.625 0.1C31.9424 0.1 41.15 9.3076 41.15 20.625C41.15 24.6861 39.965 28.6126 37.7231 31.9824L37.723 31.9823L37.721 31.9857L23.4001 55.4825L23.3474 55.5689L23.4345 55.6205C24.5398 56.2761 25.3977 57.3055 25.8333 58.5334L25.8569 58.6H25.9275H40.5C45.6141 58.6 49.775 62.7609 49.775 67.875C49.775 72.9891 45.6141 77.15 40.5 77.15H18C14.8431 77.15 12.275 79.7181 12.275 82.875C12.275 86.0319 14.8431 88.6 18 88.6H36.75C37.7303 88.6 38.525 89.3947 38.525 90.375C38.525 91.3553 37.7303 92.15 36.75 92.15H18C12.8859 92.15 8.725 87.9891 8.725 82.875C8.725 77.7609 12.8859 73.6 18 73.6H40.5C43.6569 73.6 46.225 71.0319 46.225 67.875C46.225 64.7181 43.6569 62.15 40.5 62.15H25.9275H25.8569L25.8333 62.2166C25.0729 64.3604 23.0255 65.9 20.625 65.9C17.5786 65.9 15.1 63.4214 15.1 60.375C15.1 58.3543 16.1913 56.5839 17.8155 55.6205ZM34.749 30.0434L34.7491 30.0434C36.6141 27.2519 37.6 23.9949 37.6 20.625C37.6 11.2649 29.9851 3.65 20.625 3.65C11.2649 3.65 3.65 11.2649 3.65 20.625C3.65 23.9949 4.63588 27.2519 6.50091 30.0434L6.50097 30.0434C6.50061 30.0429 6.51594 30.068 6.54655 30.1182C6.5728 30.1612 6.61029 30.2227 6.65875 30.3021L7.10615 31.0358L8.69866 33.6481L13.5246 41.5651L18.3477 49.4781L19.9369 52.0854L20.3821 52.8158L20.4994 53.0082L20.5294 53.0576L20.5371 53.07L20.539 53.0732L20.5395 53.074C20.5396 53.0741 20.5396 53.0742 20.625 53.0222L20.5396 53.0742L20.625 53.2143L20.7104 53.0742L34.7093 30.1057L34.7095 30.1054C34.7221 30.0846 34.7353 30.0639 34.749 30.0434ZM18.65 60.375C18.65 61.4641 19.5359 62.35 20.625 62.35C21.7141 62.35 22.6 61.4641 22.6 60.375C22.6 59.2859 21.7141 58.4 20.625 58.4C19.5359 58.4 18.65 59.2859 18.65 60.375Z" fill="white" stroke="black" stroke-width="0.2"/>
<path id="Vector_2" d="M29.9 20.625C29.9 25.7391 25.7391 29.9 20.625 29.9C15.5109 29.9 11.35 25.7391 11.35 20.625C11.35 15.5109 15.5109 11.35 20.625 11.35C25.7391 11.35 29.9 15.5109 29.9 20.625ZM26.35 20.625C26.35 17.4681 23.7819 14.9 20.625 14.9C17.4681 14.9 14.9 17.4681 14.9 20.625C14.9 23.7819 17.4681 26.35 20.625 26.35C23.7819 26.35 26.35 23.7819 26.35 20.625Z" fill="white" stroke="black" stroke-width="0.2"/>
<path id="Vector_3" d="M75.375 83.1369L75.2907 83.1907L75.375 83.323L75.4593 83.1907L75.375 83.1369ZM75.375 83.1369C75.4593 83.1907 75.4594 83.1906 75.4595 83.1904L75.46 83.1897L75.4619 83.1867L75.4695 83.1747L75.4996 83.1275L75.6169 82.9435L76.0623 82.2448L77.6522 79.751L82.477 72.1828L87.3033 64.6126L88.8948 62.1161L89.3414 61.4158L89.4593 61.2307L89.4991 61.1684C89.4993 61.1681 89.4994 61.1678 89.4996 61.1676C91.3643 58.3762 92.35 55.1196 92.35 51.75C92.35 42.3899 84.7351 34.775 75.375 34.775C66.0149 34.775 58.4 42.3899 58.4 51.75C58.4 55.1198 59.3858 58.3766 61.2507 61.168C61.2507 61.1681 61.2508 61.1682 61.2509 61.1684L61.2731 61.2032L61.4086 61.4157L61.8552 62.1161L63.4467 64.6125L68.273 72.1828L73.0978 79.751L74.6877 82.2448L75.1331 82.9435L75.2504 83.1275L75.2805 83.1747L75.2881 83.1867L75.29 83.1897L75.2905 83.1904C75.2906 83.1906 75.2907 83.1907 75.375 83.1369ZM58.2888 63.1251L58.2877 63.1234C56.0388 59.7501 54.85 55.8176 54.85 51.75C54.85 40.4326 64.0576 31.225 75.375 31.225C86.6924 31.225 95.9 40.4326 95.9 51.75C95.9 55.8176 94.7112 59.7501 92.4625 63.1234L92.4614 63.1251L78.1939 85.5051L78.1389 85.5914L78.2265 85.6444C79.8278 86.6134 80.9 88.3714 80.9 90.375C80.9 93.4214 78.4214 95.9 75.375 95.9C72.9744 95.9 70.9271 94.3604 70.1667 92.2166L70.1431 92.15H70.0725H53.625C52.6447 92.15 51.85 91.3553 51.85 90.375C51.85 89.3947 52.6447 88.6 53.625 88.6H70.0727H70.1433L70.1669 88.5334C70.5969 87.3208 71.4385 86.3011 72.5237 85.6444L72.6113 85.5914L72.5563 85.5051L58.2888 63.1251ZM73.4 90.375C73.4 91.4641 74.2859 92.35 75.375 92.35C76.4641 92.35 77.35 91.4641 77.35 90.375C77.35 89.2859 76.4641 88.4 75.375 88.4C74.2859 88.4 73.4 89.2859 73.4 90.375Z" fill="white" stroke="black" stroke-width="0.2"/>
<path id="Vector_4" d="M66.1 51.75C66.1 46.6359 70.2609 42.475 75.375 42.475C80.4891 42.475 84.65 46.6359 84.65 51.75C84.65 56.8641 80.4891 61.025 75.375 61.025C70.2609 61.025 66.1 56.8641 66.1 51.75ZM69.65 51.75C69.65 54.9069 72.2181 57.475 75.375 57.475C78.5319 57.475 81.1 54.9069 81.1 51.75C81.1 48.5931 78.5319 46.025 75.375 46.025C72.2181 46.025 69.65 48.5931 69.65 51.75Z" fill="white" stroke="black" stroke-width="0.2"/>
<path id="Vector_5" d="M46.9625 90.375C46.9625 91.3553 46.1678 92.15 45.1875 92.15C44.2072 92.15 43.4125 91.3553 43.4125 90.375C43.4125 89.3947 44.2072 88.6 45.1875 88.6C46.1678 88.6 46.9625 89.3947 46.9625 90.375Z" fill="white" stroke="black" stroke-width="0.2"/>
</g>
</svg>
