<svg width="114" height="96" viewBox="0 0 114 96" fill="none" xmlns="http://www.w3.org/2000/svg">
<path id="Vector" d="M105.498 81.6002V81.5986C105.493 78.1913 104.369 74.8811 102.3 72.187C100.234 69.4959 97.3419 67.5708 94.0751 66.7157C93.1379 66.4462 92.3387 65.817 91.85 64.958C91.3594 64.0956 91.2219 63.072 91.4684 62.1075C91.7149 61.1431 92.3245 60.3178 93.1632 59.8057C93.9985 59.2956 94.9962 59.1357 95.9445 59.3582C100.817 60.6322 105.137 63.5044 108.224 67.5273C111.313 71.5534 112.993 76.5037 112.998 81.6012V91.2001C112.998 92.2113 112.601 93.1789 111.896 93.8907C111.192 94.6021 110.239 95 109.248 95C108.257 95 107.304 94.6021 106.6 93.8907C105.896 93.1789 105.498 92.2113 105.498 91.2001V81.6002ZM83.3333 14.5995C81.4185 12.1058 78.7944 10.2704 75.8209 9.33425V9.30517L75.0733 9.11016C74.1127 8.85958 73.2868 8.23275 72.7797 7.36367C72.2723 6.49418 72.1269 5.45533 72.3769 4.47652C72.6269 3.49788 73.2506 2.6629 74.107 2.15257C74.963 1.64253 75.983 1.49761 76.9435 1.74816L76.9456 1.7487C81.8381 3.0135 86.1767 5.88841 89.2762 9.92268C92.3759 13.9572 94.0598 18.9211 94.0598 24.0314C94.0598 29.1417 92.3759 34.1054 89.2762 38.1399C86.1767 42.1742 81.838 45.0494 76.9456 46.3142L76.9435 46.3147C75.9831 46.5652 74.9631 46.4201 74.107 45.91C73.2506 45.3997 72.6269 44.5647 72.3769 43.586C72.1269 42.6072 72.2723 41.5684 72.7797 40.6989C73.2865 39.8303 74.1118 39.2037 75.0717 38.9528C78.3529 38.1027 81.2592 36.1739 83.3333 33.4728C85.4072 30.7719 86.532 27.452 86.532 24.0361C86.532 20.6202 85.4072 17.3003 83.3333 14.5995ZM84.499 91.1989C84.499 92.2102 84.1015 93.1778 83.3972 93.8895C82.6931 94.601 81.7402 94.9989 80.749 94.9989C79.7579 94.9989 78.805 94.601 78.1009 93.8895C77.3966 93.1778 76.9991 92.2102 76.9991 91.1989V81.599C76.9991 77.5181 75.3951 73.6022 72.5363 70.7133C69.6772 67.8242 65.7972 66.1992 61.7493 66.1992H23.7497C19.7018 66.1992 15.8218 67.8242 12.9627 70.7133C10.1039 73.6022 8.49989 77.5181 8.49989 81.599V91.1989C8.49989 92.2102 8.10244 93.1778 7.39808 93.8895C6.69402 94.601 5.74111 94.9989 4.74994 94.9989C3.75878 94.9989 2.80587 94.601 2.1018 93.8895C1.39745 93.1778 1 92.2102 1 91.1989V81.599C1 75.4958 3.3994 69.6446 7.66698 65.3321C11.9342 61.02 17.7195 58.5993 23.7497 58.5993H61.7493C67.7795 58.5993 73.5648 61.02 77.832 65.3321C82.0996 69.6446 84.499 75.4958 84.499 81.599V91.1989ZM42.7495 46.9994C38.2524 46.9994 33.8555 45.6519 30.1146 43.126C26.3735 40.6 23.4561 37.0085 21.733 32.8046C20.0098 28.6007 19.5587 23.9742 20.4373 19.5107C21.3159 15.0472 23.4844 10.9487 26.6668 7.73281C29.8491 4.51701 33.9022 2.32816 38.3132 1.44153C42.7241 0.554904 47.2965 1.00993 51.4522 2.74939C55.608 4.48889 59.1615 7.43537 61.6625 11.2178C64.1636 15.0004 65.4992 19.4485 65.4992 23.9997C65.4992 30.103 63.0998 35.9541 58.8322 40.2666C54.565 44.5788 48.7797 46.9994 42.7495 46.9994ZM42.7495 39.3996C45.768 39.3996 48.718 38.4949 51.2261 36.8014C53.734 35.108 55.6868 32.7024 56.8398 29.8897C57.9926 27.0771 58.2944 23.9826 57.7068 20.9973C57.1192 18.0121 55.6685 15.2684 53.5365 13.114C51.4045 10.9596 48.6871 9.49109 45.7268 8.89607C42.7666 8.30104 39.698 8.60651 36.9101 9.77343C34.1223 10.9403 31.7415 12.9159 30.0672 15.4482C28.3929 17.9804 27.4997 20.9562 27.4997 23.9997C27.4997 28.0806 29.1037 31.9966 31.9625 34.8854C34.8216 37.7746 38.7016 39.3996 42.7495 39.3996Z" fill="white" stroke="black" stroke-width="2"/>
</svg>
