<svg width="86" height="86" viewBox="0 0 86 86" fill="none" xmlns="http://www.w3.org/2000/svg">
<mask id="path-1-inside-1_7455_7070" fill="white">
<path d="M42.9948 85.9908C41.4557 85.993 39.9313 85.6914 38.509 85.1031C37.0868 84.5149 35.7947 83.6516 34.7068 82.5628L30.3428 78.1948C29.813 77.662 29.1828 77.2396 28.4886 76.9519C27.7945 76.6642 27.0502 76.517 26.2988 76.5188H21.1868C18.0794 76.5156 15.1003 75.2798 12.903 73.0826C10.7058 70.8853 9.46998 67.9062 9.4668 64.7988V59.6908C9.46913 58.9397 9.32256 58.1956 9.03557 57.5015C8.74859 56.8073 8.32687 56.177 7.7948 55.6468L3.4268 51.2828C1.23236 49.0827 0 46.1022 0 42.9948C0 39.8874 1.23236 36.9069 3.4268 34.7068L7.7948 30.3428C8.32759 29.813 8.75005 29.1828 9.03773 28.4886C9.32541 27.7945 9.4726 27.0502 9.4708 26.2988V21.1868C9.47398 18.0794 10.7098 15.1003 12.907 12.903C15.1043 10.7058 18.0834 9.46998 21.1908 9.4668H26.2988C27.0499 9.46913 27.794 9.32256 28.4882 9.03557C29.1823 8.74859 29.8126 8.32687 30.3428 7.7948L34.7068 3.4268C36.9069 1.23236 39.8874 0 42.9948 0C46.1022 0 49.0827 1.23236 51.2828 3.4268L55.6468 7.7948C56.1766 8.3276 56.8068 8.75005 57.501 9.03773C58.1951 9.32541 58.9394 9.4726 59.6908 9.4708H64.8028C67.9102 9.47398 70.8893 10.7098 73.0866 12.907C75.2838 15.1043 76.5196 18.0834 76.5228 21.1908V26.2988C76.5205 27.0499 76.667 27.794 76.954 28.4882C77.241 29.1823 77.6627 29.8126 78.1948 30.3428L82.5588 34.7068C84.7533 36.9069 85.9856 39.8874 85.9856 42.9948C85.9856 46.1022 84.7533 49.0827 82.5588 51.2828L78.1948 55.6468C77.662 56.1766 77.2396 56.8069 76.9519 57.501C76.6642 58.1951 76.517 58.9394 76.5188 59.6908V64.8028C76.5156 67.9102 75.2798 70.8893 73.0826 73.0866C70.8853 75.2838 67.9062 76.5196 64.7988 76.5228H59.6908C58.9394 76.521 58.1951 76.6682 57.501 76.9559C56.8068 77.2436 56.1766 77.666 55.6468 78.1988L51.2828 82.5628C50.1949 83.6516 48.9028 84.5149 47.4806 85.1031C46.0583 85.6914 44.5339 85.993 42.9948 85.9908ZM21.1868 15.4668C19.6701 15.4679 18.2158 16.0708 17.1433 17.1433C16.0708 18.2158 15.4679 19.6701 15.4668 21.1868V26.2988C15.4724 27.8403 15.1715 29.3675 14.5816 30.7917C13.9917 32.2159 13.1247 33.5087 12.0308 34.5948L7.6708 38.9548C6.59898 40.0293 5.99707 41.4851 5.99707 43.0028C5.99707 44.5205 6.59898 45.9763 7.6708 47.0508L12.0308 51.4108C13.1237 52.496 13.9902 53.7875 14.58 55.2102C15.1699 56.6329 15.4713 58.1587 15.4668 59.6988V64.8108C15.4679 66.3275 16.0708 67.7818 17.1433 68.8543C18.2158 69.9268 19.6701 70.5297 21.1868 70.5308H26.2988C27.8388 70.5272 29.3643 70.829 30.7869 71.4188C32.2095 72.0086 33.5011 72.8746 34.5868 73.9668L38.9468 78.3268C40.0213 79.3986 41.4771 80.0005 42.9948 80.0005C44.5125 80.0005 45.9683 79.3986 47.0428 78.3268L51.4028 73.9668C52.4885 72.8746 53.7801 72.0086 55.2027 71.4188C56.6253 70.829 58.1508 70.5272 59.6908 70.5308H64.8028C66.3195 70.5297 67.7738 69.9268 68.8463 68.8543C69.9188 67.7818 70.5217 66.3275 70.5228 64.8108V59.6908C70.5183 58.1507 70.8197 56.6249 71.4096 55.2022C71.9994 53.7795 72.8659 52.488 73.9588 51.4028L78.3188 47.0428C79.3906 45.9683 79.9925 44.5125 79.9925 42.9948C79.9925 41.4771 79.3906 40.0213 78.3188 38.9468L73.9588 34.5948C72.8666 33.5091 72.0006 32.2175 71.4108 30.7949C70.821 29.3723 70.5192 27.8468 70.5228 26.3068V21.1868C70.5217 19.6701 69.9188 18.2158 68.8463 17.1433C67.7738 16.0708 66.3195 15.4679 64.8028 15.4668H59.6908C58.1493 15.4724 56.6221 15.1715 55.1979 14.5816C53.7737 13.9917 52.481 13.1247 51.3948 12.0308L47.0348 7.6708C45.9603 6.59898 44.5045 5.99707 42.9868 5.99707C41.4691 5.99707 40.0133 6.59898 38.9388 7.6708L34.5948 12.0308C33.5096 13.1237 32.2182 13.9902 30.7954 14.58C29.3727 15.1699 27.847 15.4713 26.3068 15.4668H21.1868Z"/>
<path d="M38.9955 53.9945C38.6015 53.9955 38.2111 53.9182 37.8472 53.7671C37.4833 53.6161 37.153 53.3942 36.8755 53.1145L28.8755 45.1145C28.3456 44.5458 28.0571 43.7936 28.0708 43.0164C28.0845 42.2392 28.3993 41.4977 28.949 40.948C29.4986 40.3984 30.2402 40.0835 31.0174 40.0698C31.7946 40.0561 32.5468 40.3446 33.1155 40.8745L38.9955 46.7505L52.8755 32.8745C53.4442 32.3446 54.1964 32.0561 54.9736 32.0698C55.7508 32.0835 56.4923 32.3984 57.042 32.948C57.5916 33.4977 57.9065 34.2392 57.9202 35.0164C57.9339 35.7936 57.6454 36.5458 57.1155 37.1145L41.1155 53.1145C40.838 53.3942 40.5077 53.6161 40.1437 53.7671C39.7798 53.9182 39.3895 53.9955 38.9955 53.9945Z"/>
</mask>
<path d="M42.9948 85.9908C41.4557 85.993 39.9313 85.6914 38.509 85.1031C37.0868 84.5149 35.7947 83.6516 34.7068 82.5628L30.3428 78.1948C29.813 77.662 29.1828 77.2396 28.4886 76.9519C27.7945 76.6642 27.0502 76.517 26.2988 76.5188H21.1868C18.0794 76.5156 15.1003 75.2798 12.903 73.0826C10.7058 70.8853 9.46998 67.9062 9.4668 64.7988V59.6908C9.46913 58.9397 9.32256 58.1956 9.03557 57.5015C8.74859 56.8073 8.32687 56.177 7.7948 55.6468L3.4268 51.2828C1.23236 49.0827 0 46.1022 0 42.9948C0 39.8874 1.23236 36.9069 3.4268 34.7068L7.7948 30.3428C8.32759 29.813 8.75005 29.1828 9.03773 28.4886C9.32541 27.7945 9.4726 27.0502 9.4708 26.2988V21.1868C9.47398 18.0794 10.7098 15.1003 12.907 12.903C15.1043 10.7058 18.0834 9.46998 21.1908 9.4668H26.2988C27.0499 9.46913 27.794 9.32256 28.4882 9.03557C29.1823 8.74859 29.8126 8.32687 30.3428 7.7948L34.7068 3.4268C36.9069 1.23236 39.8874 0 42.9948 0C46.1022 0 49.0827 1.23236 51.2828 3.4268L55.6468 7.7948C56.1766 8.3276 56.8068 8.75005 57.501 9.03773C58.1951 9.32541 58.9394 9.4726 59.6908 9.4708H64.8028C67.9102 9.47398 70.8893 10.7098 73.0866 12.907C75.2838 15.1043 76.5196 18.0834 76.5228 21.1908V26.2988C76.5205 27.0499 76.667 27.794 76.954 28.4882C77.241 29.1823 77.6627 29.8126 78.1948 30.3428L82.5588 34.7068C84.7533 36.9069 85.9856 39.8874 85.9856 42.9948C85.9856 46.1022 84.7533 49.0827 82.5588 51.2828L78.1948 55.6468C77.662 56.1766 77.2396 56.8069 76.9519 57.501C76.6642 58.1951 76.517 58.9394 76.5188 59.6908V64.8028C76.5156 67.9102 75.2798 70.8893 73.0826 73.0866C70.8853 75.2838 67.9062 76.5196 64.7988 76.5228H59.6908C58.9394 76.521 58.1951 76.6682 57.501 76.9559C56.8068 77.2436 56.1766 77.666 55.6468 78.1988L51.2828 82.5628C50.1949 83.6516 48.9028 84.5149 47.4806 85.1031C46.0583 85.6914 44.5339 85.993 42.9948 85.9908ZM21.1868 15.4668C19.6701 15.4679 18.2158 16.0708 17.1433 17.1433C16.0708 18.2158 15.4679 19.6701 15.4668 21.1868V26.2988C15.4724 27.8403 15.1715 29.3675 14.5816 30.7917C13.9917 32.2159 13.1247 33.5087 12.0308 34.5948L7.6708 38.9548C6.59898 40.0293 5.99707 41.4851 5.99707 43.0028C5.99707 44.5205 6.59898 45.9763 7.6708 47.0508L12.0308 51.4108C13.1237 52.496 13.9902 53.7875 14.58 55.2102C15.1699 56.6329 15.4713 58.1587 15.4668 59.6988V64.8108C15.4679 66.3275 16.0708 67.7818 17.1433 68.8543C18.2158 69.9268 19.6701 70.5297 21.1868 70.5308H26.2988C27.8388 70.5272 29.3643 70.829 30.7869 71.4188C32.2095 72.0086 33.5011 72.8746 34.5868 73.9668L38.9468 78.3268C40.0213 79.3986 41.4771 80.0005 42.9948 80.0005C44.5125 80.0005 45.9683 79.3986 47.0428 78.3268L51.4028 73.9668C52.4885 72.8746 53.7801 72.0086 55.2027 71.4188C56.6253 70.829 58.1508 70.5272 59.6908 70.5308H64.8028C66.3195 70.5297 67.7738 69.9268 68.8463 68.8543C69.9188 67.7818 70.5217 66.3275 70.5228 64.8108V59.6908C70.5183 58.1507 70.8197 56.6249 71.4096 55.2022C71.9994 53.7795 72.8659 52.488 73.9588 51.4028L78.3188 47.0428C79.3906 45.9683 79.9925 44.5125 79.9925 42.9948C79.9925 41.4771 79.3906 40.0213 78.3188 38.9468L73.9588 34.5948C72.8666 33.5091 72.0006 32.2175 71.4108 30.7949C70.821 29.3723 70.5192 27.8468 70.5228 26.3068V21.1868C70.5217 19.6701 69.9188 18.2158 68.8463 17.1433C67.7738 16.0708 66.3195 15.4679 64.8028 15.4668H59.6908C58.1493 15.4724 56.6221 15.1715 55.1979 14.5816C53.7737 13.9917 52.481 13.1247 51.3948 12.0308L47.0348 7.6708C45.9603 6.59898 44.5045 5.99707 42.9868 5.99707C41.4691 5.99707 40.0133 6.59898 38.9388 7.6708L34.5948 12.0308C33.5096 13.1237 32.2182 13.9902 30.7954 14.58C29.3727 15.1699 27.847 15.4713 26.3068 15.4668H21.1868Z" fill="white"/>
<path d="M38.9955 53.9945C38.6015 53.9955 38.2111 53.9182 37.8472 53.7671C37.4833 53.6161 37.153 53.3942 36.8755 53.1145L28.8755 45.1145C28.3456 44.5458 28.0571 43.7936 28.0708 43.0164C28.0845 42.2392 28.3993 41.4977 28.949 40.948C29.4986 40.3984 30.2402 40.0835 31.0174 40.0698C31.7946 40.0561 32.5468 40.3446 33.1155 40.8745L38.9955 46.7505L52.8755 32.8745C53.4442 32.3446 54.1964 32.0561 54.9736 32.0698C55.7508 32.0835 56.4923 32.3984 57.042 32.948C57.5916 33.4977 57.9065 34.2392 57.9202 35.0164C57.9339 35.7936 57.6454 36.5458 57.1155 37.1145L41.1155 53.1145C40.838 53.3942 40.5077 53.6161 40.1437 53.7671C39.7798 53.9182 39.3895 53.9955 38.9955 53.9945Z" fill="white"/>
<path d="M42.9948 85.9908C41.4557 85.993 39.9313 85.6914 38.509 85.1031C37.0868 84.5149 35.7947 83.6516 34.7068 82.5628L30.3428 78.1948C29.813 77.662 29.1828 77.2396 28.4886 76.9519C27.7945 76.6642 27.0502 76.517 26.2988 76.5188H21.1868C18.0794 76.5156 15.1003 75.2798 12.903 73.0826C10.7058 70.8853 9.46998 67.9062 9.4668 64.7988V59.6908C9.46913 58.9397 9.32256 58.1956 9.03557 57.5015C8.74859 56.8073 8.32687 56.177 7.7948 55.6468L3.4268 51.2828C1.23236 49.0827 0 46.1022 0 42.9948C0 39.8874 1.23236 36.9069 3.4268 34.7068L7.7948 30.3428C8.32759 29.813 8.75005 29.1828 9.03773 28.4886C9.32541 27.7945 9.4726 27.0502 9.4708 26.2988V21.1868C9.47398 18.0794 10.7098 15.1003 12.907 12.903C15.1043 10.7058 18.0834 9.46998 21.1908 9.4668H26.2988C27.0499 9.46913 27.794 9.32256 28.4882 9.03557C29.1823 8.74859 29.8126 8.32687 30.3428 7.7948L34.7068 3.4268C36.9069 1.23236 39.8874 0 42.9948 0C46.1022 0 49.0827 1.23236 51.2828 3.4268L55.6468 7.7948C56.1766 8.3276 56.8068 8.75005 57.501 9.03773C58.1951 9.32541 58.9394 9.4726 59.6908 9.4708H64.8028C67.9102 9.47398 70.8893 10.7098 73.0866 12.907C75.2838 15.1043 76.5196 18.0834 76.5228 21.1908V26.2988C76.5205 27.0499 76.667 27.794 76.954 28.4882C77.241 29.1823 77.6627 29.8126 78.1948 30.3428L82.5588 34.7068C84.7533 36.9069 85.9856 39.8874 85.9856 42.9948C85.9856 46.1022 84.7533 49.0827 82.5588 51.2828L78.1948 55.6468C77.662 56.1766 77.2396 56.8069 76.9519 57.501C76.6642 58.1951 76.517 58.9394 76.5188 59.6908V64.8028C76.5156 67.9102 75.2798 70.8893 73.0826 73.0866C70.8853 75.2838 67.9062 76.5196 64.7988 76.5228H59.6908C58.9394 76.521 58.1951 76.6682 57.501 76.9559C56.8068 77.2436 56.1766 77.666 55.6468 78.1988L51.2828 82.5628C50.1949 83.6516 48.9028 84.5149 47.4806 85.1031C46.0583 85.6914 44.5339 85.993 42.9948 85.9908ZM21.1868 15.4668C19.6701 15.4679 18.2158 16.0708 17.1433 17.1433C16.0708 18.2158 15.4679 19.6701 15.4668 21.1868V26.2988C15.4724 27.8403 15.1715 29.3675 14.5816 30.7917C13.9917 32.2159 13.1247 33.5087 12.0308 34.5948L7.6708 38.9548C6.59898 40.0293 5.99707 41.4851 5.99707 43.0028C5.99707 44.5205 6.59898 45.9763 7.6708 47.0508L12.0308 51.4108C13.1237 52.496 13.9902 53.7875 14.58 55.2102C15.1699 56.6329 15.4713 58.1587 15.4668 59.6988V64.8108C15.4679 66.3275 16.0708 67.7818 17.1433 68.8543C18.2158 69.9268 19.6701 70.5297 21.1868 70.5308H26.2988C27.8388 70.5272 29.3643 70.829 30.7869 71.4188C32.2095 72.0086 33.5011 72.8746 34.5868 73.9668L38.9468 78.3268C40.0213 79.3986 41.4771 80.0005 42.9948 80.0005C44.5125 80.0005 45.9683 79.3986 47.0428 78.3268L51.4028 73.9668C52.4885 72.8746 53.7801 72.0086 55.2027 71.4188C56.6253 70.829 58.1508 70.5272 59.6908 70.5308H64.8028C66.3195 70.5297 67.7738 69.9268 68.8463 68.8543C69.9188 67.7818 70.5217 66.3275 70.5228 64.8108V59.6908C70.5183 58.1507 70.8197 56.6249 71.4096 55.2022C71.9994 53.7795 72.8659 52.488 73.9588 51.4028L78.3188 47.0428C79.3906 45.9683 79.9925 44.5125 79.9925 42.9948C79.9925 41.4771 79.3906 40.0213 78.3188 38.9468L73.9588 34.5948C72.8666 33.5091 72.0006 32.2175 71.4108 30.7949C70.821 29.3723 70.5192 27.8468 70.5228 26.3068V21.1868C70.5217 19.6701 69.9188 18.2158 68.8463 17.1433C67.7738 16.0708 66.3195 15.4679 64.8028 15.4668H59.6908C58.1493 15.4724 56.6221 15.1715 55.1979 14.5816C53.7737 13.9917 52.481 13.1247 51.3948 12.0308L47.0348 7.6708C45.9603 6.59898 44.5045 5.99707 42.9868 5.99707C41.4691 5.99707 40.0133 6.59898 38.9388 7.6708L34.5948 12.0308C33.5096 13.1237 32.2182 13.9902 30.7954 14.58C29.3727 15.1699 27.847 15.4713 26.3068 15.4668H21.1868Z" stroke="black" stroke-width="2" mask="url(#path-1-inside-1_7455_7070)"/>
<path d="M38.9955 53.9945C38.6015 53.9955 38.2111 53.9182 37.8472 53.7671C37.4833 53.6161 37.153 53.3942 36.8755 53.1145L28.8755 45.1145C28.3456 44.5458 28.0571 43.7936 28.0708 43.0164C28.0845 42.2392 28.3993 41.4977 28.949 40.948C29.4986 40.3984 30.2402 40.0835 31.0174 40.0698C31.7946 40.0561 32.5468 40.3446 33.1155 40.8745L38.9955 46.7505L52.8755 32.8745C53.4442 32.3446 54.1964 32.0561 54.9736 32.0698C55.7508 32.0835 56.4923 32.3984 57.042 32.948C57.5916 33.4977 57.9065 34.2392 57.9202 35.0164C57.9339 35.7936 57.6454 36.5458 57.1155 37.1145L41.1155 53.1145C40.838 53.3942 40.5077 53.6161 40.1437 53.7671C39.7798 53.9182 39.3895 53.9955 38.9955 53.9945Z" stroke="black" stroke-width="2" mask="url(#path-1-inside-1_7455_7070)"/>
</svg>
