<svg width="98" height="98" viewBox="0 0 98 98" fill="none" xmlns="http://www.w3.org/2000/svg">
<path d="M87.259 70.5572H74.5391C74.2061 70.5572 73.9141 70.2762 73.9141 69.903C73.9141 69.5292 74.2059 69.2488 74.5391 69.2488H87.259C87.5922 69.2488 87.884 69.5292 87.884 69.903C87.884 70.2762 87.592 70.5572 87.259 70.5572Z" fill="white" stroke="white"/>
<path d="M87.259 77.1917H74.5391C74.2061 77.1917 73.9141 76.9108 73.9141 76.5375C73.9141 76.1637 74.2059 75.8833 74.5391 75.8833H87.259C87.5922 75.8833 87.884 76.1637 87.884 76.5375C87.884 76.9108 87.592 77.1917 87.259 77.1917Z" fill="white" stroke="white"/>
<path d="M87.259 83.8255H74.5391C74.2061 83.8255 73.9141 83.5446 73.9141 83.1713C73.9141 82.7975 74.2059 82.5171 74.5391 82.5171H87.259C87.5922 82.5171 87.884 82.7975 87.884 83.1713C87.884 83.5445 87.592 83.8255 87.259 83.8255Z" fill="white" stroke="white"/>
<path d="M87.259 90.4586H74.5391C74.2059 90.4586 73.9141 90.1781 73.9141 89.8044C73.9141 89.4306 74.2059 89.1501 74.5391 89.1501H87.259C87.5922 89.1501 87.884 89.4306 87.884 89.8044C87.884 90.1781 87.5922 90.4586 87.259 90.4586Z" fill="white" stroke="white"/>
<path d="M10.7422 69.2488H23.4622C23.7953 69.2488 24.0872 69.5292 24.0872 69.903C24.0872 70.2762 23.7951 70.5572 23.4622 70.5572H10.7422C10.4092 70.5572 10.1172 70.2762 10.1172 69.903C10.1172 69.5292 10.409 69.2488 10.7422 69.2488Z" fill="white" stroke="white"/>
<path d="M10.7422 75.8833H23.4622C23.7953 75.8833 24.0872 76.1637 24.0872 76.5375C24.0872 76.9108 23.7951 77.1917 23.4622 77.1917H10.7422C10.4092 77.1917 10.1172 76.9108 10.1172 76.5375C10.1172 76.1637 10.409 75.8833 10.7422 75.8833Z" fill="white" stroke="white"/>
<path d="M10.7422 82.5171H23.4622C23.7953 82.5171 24.0872 82.7975 24.0872 83.1713C24.0872 83.5445 23.7951 83.8255 23.4622 83.8255H10.7422C10.4092 83.8255 10.1172 83.5445 10.1172 83.1713C10.1172 82.7975 10.409 82.5171 10.7422 82.5171Z" fill="white" stroke="white"/>
<path d="M10.7422 89.1501H23.4622C23.7953 89.1501 24.0872 89.4306 24.0872 89.8044C24.0872 90.1781 23.7953 90.4586 23.4622 90.4586H10.7422C10.409 90.4586 10.1172 90.1781 10.1172 89.8044C10.1172 89.4306 10.409 89.1501 10.7422 89.1501Z" fill="white" stroke="white"/>
<path d="M17.1441 57.6867H39.2119C39.833 57.6867 40.3369 57.1697 40.3369 56.5325C40.3369 55.8953 39.833 55.3783 39.2119 55.3783H17.1441C9.48292 55.3783 3.25 48.9714 3.25 41.0963C3.25 35.3748 6.55908 30.2229 11.6802 27.9716C12.2295 27.7304 12.499 27.0909 12.2939 26.5153C8.28782 15.2535 16.4384 3.30845 28.0732 3.30845C32.2275 3.30845 36.2119 4.87897 39.2917 7.73071C39.6477 8.05909 40.167 8.12071 40.5867 7.88551C45.1412 5.32004 50.9596 6.29271 54.4785 10.3863C54.9667 10.9543 55.812 10.882 56.2253 10.3104C59.4451 5.86112 64.3713 3.30847 69.7414 3.30847C79.0117 3.30847 86.5535 11.0536 86.5535 20.5744C86.5535 24.0821 85.5383 27.4546 83.6179 30.3311C83.3916 30.6693 83.3579 31.1051 83.5286 31.4763C83.6992 31.8468 84.0493 32.097 84.4477 32.1331C90.2244 32.6531 94.75 37.7464 94.75 43.7279C94.75 50.152 89.6655 55.3783 83.4158 55.3783H48.9985C48.3774 55.3783 47.8735 55.8953 47.8735 56.5325V78.7001H29.311C28.6899 78.7001 28.186 79.2163 28.186 79.8543C28.186 79.8671 28.193 79.8784 28.1934 79.8911V92.5995C28.1934 93.753 27.2808 94.6916 26.1594 94.6916H8.04151C6.92017 94.6916 6.00757 93.753 6.00757 92.5995V67.1083C6.00757 65.9541 6.92017 65.0163 8.04151 65.0163H26.1594C27.2808 65.0163 28.1934 65.9541 28.1934 67.1083V73.8352C28.1934 74.4725 28.6973 74.9894 29.3184 74.9894C29.9395 74.9894 30.4434 74.4725 30.4434 73.8352V67.1083C30.4434 64.6811 28.5215 62.7078 26.1594 62.7078H8.04151C5.67945 62.7078 3.75757 64.6811 3.75757 67.1083V92.5995C3.75757 95.0259 5.67945 97 8.04151 97H26.1594C28.5215 97 30.4434 95.026 30.4434 92.5995V81.0085H67.5567V92.5995C67.5567 95.0259 69.4785 97 71.8406 97H89.9585C92.3206 97 94.2424 95.026 94.2424 92.5995V67.1083C94.2424 64.6811 92.3206 62.7078 89.9585 62.7078H71.8406C69.4785 62.7078 67.5566 64.6811 67.5566 67.1083V73.8352C67.5566 74.4725 68.0605 74.9894 68.6816 74.9894C69.3027 74.9894 69.8066 74.4725 69.8066 73.8352V67.1083C69.8066 65.9541 70.7192 65.0163 71.8406 65.0163H89.9585C91.0798 65.0163 91.9924 65.9541 91.9924 67.1083V92.5995C91.9924 93.753 91.0798 94.6916 89.9585 94.6916H71.8406C70.7192 94.6916 69.8066 93.753 69.8066 92.5995V79.8543C69.8066 79.2163 69.3027 78.7001 68.6816 78.7001H50.1235V57.6867H83.4158C90.9062 57.6867 97 51.4249 97 43.7279C97 37.1768 92.4648 31.5146 86.3945 30.1132C87.9751 27.2096 88.8035 23.9461 88.8035 20.5744C88.8035 9.7814 80.2525 1.00002 69.7415 1.00002C64.0908 1.00002 58.8738 3.49105 55.2358 7.87948C51.1535 3.9841 45.1678 3.0831 40.2087 5.49214C36.8037 2.58931 32.5242 1 28.0732 1C15.3413 1 6.10721 13.6939 9.85205 26.3011C4.44165 29.1115 1 34.8082 1 41.0963C1 50.2444 8.2422 57.6867 17.1441 57.6867Z" fill="white" stroke="white"/>
<path d="M29.5154 11.2202C29.8483 11.2202 30.1404 11.5012 30.1404 11.8744C30.1404 12.2477 29.8483 12.5287 29.5154 12.5287C24.3843 12.5287 20.2344 16.8152 20.2344 22.0557C20.2344 22.4295 19.9425 22.71 19.6094 22.71C19.2762 22.71 18.9844 22.4295 18.9844 22.0557C18.9844 16.0684 23.7215 11.2202 29.5154 11.2202Z" fill="white" stroke="white"/>
<path d="M28.1914 40.0072H27.6914V40.5072V45.3735V45.8735H28.1914H31.4932H31.9932V45.3735V40.5072V40.0072H31.4932H28.1914ZM32.6182 47.182H27.0664C26.7335 47.182 26.4414 46.901 26.4414 46.5277V39.3529C26.4414 38.9797 26.7335 38.6987 27.0664 38.6987H32.6182C32.9511 38.6987 33.2432 38.9797 33.2432 39.3529V46.5277C33.2432 46.901 32.9511 47.182 32.6182 47.182Z" fill="white" stroke="white"/>
<path d="M42.7666 45.873H43.2666V45.373V35.0985V34.5985H42.7666H39.4648H38.9648V35.0985V45.373V45.873H39.4648H42.7666ZM43.8916 33.29C44.2247 33.29 44.5166 33.5705 44.5166 33.9443V46.5272C44.5166 46.9004 44.2245 47.1814 43.8916 47.1814H38.3398C38.0069 47.1814 37.7148 46.9004 37.7148 46.5272V33.9443C37.7148 33.5705 38.0067 33.29 38.3398 33.29H43.8916Z" fill="white" stroke="white"/>
<path d="M50.7344 30.5538H50.2344V31.0538V45.3733V45.8733H50.7344H54.0361H54.5361V45.3733V31.0538V30.5538H54.0361H50.7344ZM55.7861 46.5275C55.7861 46.9008 55.4941 47.1817 55.1611 47.1817L49.6094 47.1818C49.2764 47.1818 48.9844 46.9008 48.9844 46.5275V29.8996C48.9844 29.5263 49.2764 29.2454 49.6094 29.2454H55.1611C55.4941 29.2454 55.7861 29.5263 55.7861 29.8996V46.5275Z" fill="white" stroke="white"/>
<path d="M62.0039 22.9134H61.5039V23.4134V45.3736V45.8736H62.0039H65.3057H65.8057V45.3736V23.4134V22.9134H65.3057H62.0039ZM67.0557 46.5278C67.0557 46.9011 66.7636 47.1821 66.4307 47.1821H60.8789C60.546 47.1821 60.2539 46.9011 60.2539 46.5278V22.2592C60.2539 21.886 60.546 21.605 60.8789 21.605H66.4307C66.7636 21.605 67.0557 21.886 67.0557 22.2592V46.5278Z" fill="white" stroke="white"/>
</svg>
