<svg xmlns="http://www.w3.org/2000/svg" width="61" height="78" viewBox="0 0 61 78" fill="none">
  <path d="M33.4438 0C25.2992 7.73012 17.5055 16.5566 22.3227 25.631C21.6165 26.5731 20.9928 27.4988 20.4476 28.4158C19.1378 26.6533 17.6348 24.2939 17.8355 20.4292C13.7738 25.9643 10.084 30.1154 10.084 38.9109C10.084 43.4799 11.8515 47.8819 15.0612 51.3066C18.3362 54.7384 22.1807 55.624 25.77 55.724C28.6945 55.8056 28.0253 55.7049 25.1811 54.2633C22.9177 53.1159 20.4513 51.1389 18.0873 48.6974C13.3052 43.5836 13.535 36.0452 16.4831 30.2495C17.0283 31.2706 17.6494 32.2105 18.2801 33.0788L18.273 33.0975L18.3003 33.1331C15.4117 42.2794 20.532 46.6545 24.7876 48.2912C26.1953 48.8326 26.3466 49.0067 24.526 46.8383C23.7394 45.9014 21.4692 41.7686 21.844 37.5063C21.9558 36.1444 22.344 34.4691 23.2629 32.3954C23.6998 31.4657 24.239 30.5209 24.8874 29.5511C25.7147 28.2847 26.8399 27.091 27.6725 25.9718C28.3052 25.033 29.0566 24.18 29.5951 23.3154C32.467 27.185 36.1983 30.4386 38.52 34.711C39.2349 36.0265 39.7427 37.4041 40.1852 38.8307C40.2173 38.9348 40.2502 39.0445 40.2285 39.1512C40.2035 39.2748 40.1108 39.3718 40.0204 39.4594C39.347 40.1151 38.5846 40.6723 37.748 41.1006C37.5854 41.1838 35.5802 41.9319 35.5802 41.8353C35.5802 41.8353 36.795 39.9739 36.7024 36.9551C36.5686 32.5961 33.3657 29.6316 30.298 29.914C25.7641 30.3315 23.6841 34.9709 23.7327 39.0704C23.7401 39.7077 23.7984 40.3446 23.9076 40.9726C24.5892 44.8897 27.4374 49.1531 31.7502 49.3501C36.5581 49.5695 38.2644 47.1221 38.2644 47.1221C38.2644 47.1221 34.7745 48.2489 32.5936 47.8392C31.6628 47.6643 29.7592 46.5841 28.3537 44.7511C27.1747 43.2133 26.3145 41.0257 26.7035 37.6838C27.0215 34.9511 29.1934 34.055 31.0368 34.1801C32.8799 34.3048 33.9314 36.4825 33.9965 38.0002C34.1153 40.7681 32.251 42.998 32.0645 42.8909C32.0813 42.9002 32.4972 40.7404 32.4968 40.5363C32.495 39.7852 32.3702 38.906 32.0361 38.2275C31.6082 37.358 30.5589 36.9199 29.7442 37.5872C29.2891 37.9597 29.0626 38.5559 29.0126 39.1426C28.835 41.216 29.8664 43.6079 31.7162 44.6395C33.0791 45.3993 34.7592 45.3686 36.2696 44.9799C37.5349 44.6545 38.7233 44.1007 39.9254 43.5997C40.0891 43.5315 40.4987 43.2736 40.6231 43.408C40.7203 43.5132 40.6306 43.9801 40.6239 44.1303C40.6026 44.6077 40.5525 45.084 40.4781 45.5558C40.3328 46.4785 40.0902 47.3857 39.7588 48.2586C38.8391 50.6816 37.2106 52.6827 35.319 54.4179C34.9841 54.7249 34.6415 55.023 34.2921 55.3128C34.0589 55.5064 33.5077 56.1336 33.2136 56.1681C44.3092 54.8631 50.5117 46.3141 50.5117 38.9116C50.5121 23.3776 29.958 14.6571 33.4438 0ZM44.0065 46.2231C46.6388 31.6728 32.0619 24.4448 29.8377 15.8901C28.1923 18.4218 26.8773 20.3794 25.4591 21.9453C23.9845 18.196 26.2487 12.9645 30.2584 9.38668C33.1889 20.7557 46.1541 26.9581 46.1541 38.9112C46.1541 41.581 45.3911 44.0872 44.0065 46.2231Z" fill="url(#paint0_linear_4218_464)"/>
  <path d="M1.54076 73.2286H6.92514V74.6865H0V63.0894H6.8423V64.5473H1.54076V68.1093H6.42812V69.5506H1.54076V73.2286Z" fill="white"/>
  <path d="M14.3518 66.4028H15.7932V74.6865H14.3518V73.4937C13.7664 74.4325 12.8718 74.9019 11.6679 74.9019C10.696 74.9019 9.91731 74.5981 9.33193 73.9907C8.74655 73.3722 8.45386 72.5383 8.45386 71.489V66.4028H9.89522V71.4062C9.89522 72.0799 10.0775 72.6045 10.4419 72.9801C10.8064 73.3446 11.309 73.5268 11.9496 73.5268C12.6675 73.5268 13.2473 73.3059 13.6891 72.8641C14.1309 72.4113 14.3518 71.721 14.3518 70.7932V66.4028Z" fill="white"/>
  <path d="M19.2139 68.6394C19.2139 68.9597 19.3741 69.2193 19.6944 69.4181C20.0147 69.6059 20.4013 69.7605 20.8541 69.882C21.3069 69.9924 21.7598 70.125 22.2126 70.2796C22.6655 70.4232 23.052 70.6772 23.3723 71.0417C23.6926 71.3951 23.8528 71.8535 23.8528 72.4168C23.8528 73.1678 23.5601 73.7698 22.9747 74.2226C22.4004 74.6755 21.6604 74.9019 20.7547 74.9019C19.9484 74.9019 19.2581 74.7252 18.6838 74.3717C18.1095 74.0183 17.7008 73.5489 17.4578 72.9635L18.7004 72.2511C18.8329 72.6487 19.0814 72.9635 19.4459 73.1954C19.8104 73.4274 20.2466 73.5434 20.7547 73.5434C21.2296 73.5434 21.6217 73.455 21.931 73.2783C22.2402 73.0905 22.3949 72.8034 22.3949 72.4168C22.3949 72.0965 22.2347 71.8425 21.9144 71.6547C21.5941 71.4559 21.2075 71.3013 20.7547 71.1908C20.3019 71.0693 19.849 70.9312 19.3962 70.7766C18.9433 70.622 18.5568 70.368 18.2365 70.0145C17.9162 69.6611 17.756 69.2082 17.756 68.656C17.756 67.9381 18.0321 67.3472 18.5844 66.8833C19.1477 66.4194 19.849 66.1875 20.6884 66.1875C21.3622 66.1875 21.9586 66.3421 22.4777 66.6514C23.0079 66.9496 23.4055 67.3693 23.6706 67.9105L22.4611 68.5897C22.1629 67.8829 21.572 67.5294 20.6884 67.5294C20.2798 67.5294 19.9319 67.6288 19.6447 67.8276C19.3575 68.0154 19.2139 68.286 19.2139 68.6394Z" fill="white"/>
  <path d="M32.3243 73.6428C31.4738 74.4822 30.4411 74.9019 29.2262 74.9019C28.0112 74.9019 26.9785 74.4822 26.1281 73.6428C25.2887 72.8034 24.869 71.7707 24.869 70.5447C24.869 69.3187 25.2887 68.286 26.1281 67.4466C26.9785 66.6072 28.0112 66.1875 29.2262 66.1875C30.4411 66.1875 31.4738 66.6072 32.3243 67.4466C33.1747 68.286 33.5999 69.3187 33.5999 70.5447C33.5999 71.7707 33.1747 72.8034 32.3243 73.6428ZM29.2262 73.4937C30.0545 73.4937 30.7504 73.212 31.3137 72.6487C31.8769 72.0854 32.1586 71.3841 32.1586 70.5447C32.1586 69.7053 31.8769 69.0039 31.3137 68.4406C30.7504 67.8773 30.0545 67.5957 29.2262 67.5957C28.4088 67.5957 27.7185 67.8773 27.1553 68.4406C26.592 69.0039 26.3103 69.7053 26.3103 70.5447C26.3103 71.3841 26.592 72.0854 27.1553 72.6487C27.7185 73.212 28.4088 73.4937 29.2262 73.4937Z" fill="white"/>
  <path d="M42.8704 63.0894V64.5473H39.441V74.6865H37.9168V64.5473H34.5039V63.0894H42.8704Z" fill="white"/>
  <path d="M44.555 67.7945C45.0299 66.7673 45.8914 66.2537 47.1395 66.2537V67.7614C46.4326 67.7282 45.8251 67.916 45.317 68.3247C44.809 68.7333 44.555 69.3905 44.555 70.2962V74.6865H43.1136V66.4028H44.555V67.7945Z" fill="white"/>
  <path d="M49.2787 64.8952C49.0026 64.8952 48.7706 64.8013 48.5829 64.6136C48.3951 64.4258 48.3012 64.1994 48.3012 63.9343C48.3012 63.6692 48.3951 63.4428 48.5829 63.2551C48.7706 63.0563 49.0026 62.9568 49.2787 62.9568C49.5438 62.9568 49.7702 63.0563 49.958 63.2551C50.1457 63.4428 50.2396 63.6692 50.2396 63.9343C50.2396 64.1994 50.1457 64.4258 49.958 64.6136C49.7702 64.8013 49.5438 64.8952 49.2787 64.8952ZM48.5497 74.6865V66.4028H49.9911V74.6865H48.5497Z" fill="white"/>
  <path d="M56.7626 66.1875C57.9223 66.1875 58.9108 66.6127 59.7281 67.4632C60.5455 68.3026 60.9541 69.3297 60.9541 70.5447C60.9541 71.7596 60.5455 72.7923 59.7281 73.6428C58.9108 74.4822 57.9223 74.9019 56.7626 74.9019C55.393 74.9019 54.3493 74.3552 53.6314 73.2617V78H52.19V66.4028H53.6314V67.8276C54.3493 66.7342 55.393 66.1875 56.7626 66.1875ZM56.5804 73.5102C57.4087 73.5102 58.1046 73.2286 58.6678 72.6653C59.2311 72.091 59.5128 71.3841 59.5128 70.5447C59.5128 69.7053 59.2311 69.0039 58.6678 68.4406C58.1046 67.8663 57.4087 67.5791 56.5804 67.5791C55.741 67.5791 55.0396 67.8663 54.4763 68.4406C53.913 69.0039 53.6314 69.7053 53.6314 70.5447C53.6314 71.3841 53.913 72.091 54.4763 72.6653C55.0396 73.2286 55.741 73.5102 56.5804 73.5102Z" fill="white"/>
  <defs>
    <linearGradient id="paint0_linear_4218_464" x1="12.5881" y1="5.17336" x2="39.6355" y2="53.8419" gradientUnits="userSpaceOnUse">
      <stop stop-color="#1473FF"/>
      <stop offset="0.4181" stop-color="#613FFF"/>
      <stop offset="0.8149" stop-color="#A413FF"/>
      <stop offset="1" stop-color="#BE01FF"/>
    </linearGradient>
  </defs>
</svg>