<svg width="96" height="96" viewBox="0 0 96 96" fill="none" xmlns="http://www.w3.org/2000/svg">
<g id="Frame" clip-path="url(#clip0_4410_2566)">
<path id="analytics" d="M41.9273 94.6051L41.9284 94.6052C52.1183 95.9354 62.4679 93.8868 71.3817 88.7737C80.2947 83.661 87.2851 75.7665 91.2813 66.3002C91.6206 65.4809 91.6226 64.5607 91.2868 63.7399C90.9507 62.9182 90.3032 62.2627 89.4857 61.9165C88.6682 61.5702 87.7469 61.5613 86.9228 61.8916C86.0998 62.2215 85.4404 62.863 85.088 63.6764C82.5287 69.7383 78.5234 75.0809 73.4221 79.237C68.3196 83.3941 62.2761 86.2375 55.8203 87.5184C49.3646 88.7994 42.6933 88.4788 36.3901 86.5848C30.087 84.6908 24.3439 81.2811 19.6635 76.6539C14.983 72.0267 11.5078 66.3231 9.54177 60.042C7.57575 53.7609 7.17886 47.0937 8.38582 40.6238C9.59279 34.1538 12.3668 28.0782 16.4653 22.9284C20.5636 17.7787 25.8615 13.7117 31.8954 11.0833L41.9273 94.6051ZM41.9273 94.6051C31.7295 93.285 22.2459 88.6569 14.9305 81.4303C7.61513 74.2037 2.87158 64.7774 1.42706 54.5964C-0.0174605 44.4154 1.91677 34.0416 6.93324 25.0653C11.9497 16.089 19.7716 9.00558 29.1997 4.90087L29.2002 4.90069M41.9273 94.6051L29.2002 4.90069M29.2002 4.90069C30.02 4.54328 30.9483 4.52621 31.7808 4.85322C32.6132 5.18023 33.2817 5.82454 33.6391 6.64441C33.9965 7.46428 34.0136 8.39254 33.6865 9.225L34.6173 9.59063M29.2002 4.90069L34.6173 9.59063M34.6173 9.59063L33.6865 9.225C33.3596 10.0574 32.7154 10.7258 31.8956 11.0832L34.6173 9.59063ZM44.6373 48.0077H44.6374V48V4.3632C44.6374 3.47122 44.9917 2.61578 45.6224 1.98506C46.2531 1.35434 47.1086 1 48.0006 1C60.4657 1 72.4204 5.95177 81.2346 14.766C90.0488 23.5802 95.0006 35.5348 95.0006 48C95.0006 48.8913 94.6467 49.7462 94.0168 50.3768C93.3869 51.0075 92.5324 51.3622 91.6411 51.3632L48.0005 51.3968C48.0003 51.3968 48.0001 51.3968 47.9999 51.3968C47.5562 51.3967 47.117 51.3089 46.7075 51.1383C46.2977 50.9677 45.9258 50.7177 45.6132 50.4026C45.3005 50.0876 45.0534 49.7137 44.8859 49.3027C44.7184 48.8917 44.6339 48.4515 44.6373 48.0077ZM51.3638 43.6655L51.3636 44.6656H52.3638H87.0294H88.1469L88.0232 43.5549C87.0119 34.4728 82.943 26.0044 76.4844 19.5395C70.0258 13.0747 61.5613 8.99758 52.4802 7.97745L51.3687 7.85259L51.3686 8.97106L51.3638 43.6655Z" fill="white" stroke="black" stroke-width="2"/>
</g>
<defs>
<clipPath id="clip0_4410_2566">
<rect width="96" height="96" fill="white"/>
</clipPath>
</defs>
</svg>
