<svg width="115" height="96" viewBox="0 0 115 96" fill="none" xmlns="http://www.w3.org/2000/svg">
<g id="Frame" clip-path="url(#clip0_4410_2621)">
<g id="01">
<path id="Path 3304" d="M24.9537 79.8547H25.7963H72.5554C80.9756 79.8547 87.533 77.442 91.9855 72.9895C96.438 68.537 98.8507 61.9795 98.8507 53.5594V25.8327V24.9224L99.619 25.4108C102.435 27.2013 104.685 29.7548 106.107 32.7741C107.525 35.7841 108.061 39.1337 107.655 42.4354L107.619 69.1787L24.9537 79.8547ZM24.9537 79.8547L25.3575 80.5942M24.9537 79.8547L25.3575 80.5942M25.3575 80.5942C27.0567 83.7069 29.8591 86.071 33.2135 87.2216C36.1586 88.2506 39.2649 88.7411 42.3838 88.6695H88.1279C94.5907 88.6695 99.4898 87.0986 102.769 83.8196M25.3575 80.5942L102.769 83.8196M102.769 83.8196C106.048 80.5407 107.619 75.6418 107.619 69.1794L102.769 83.8196ZM97.4707 17.1315L97.575 17.4929H97.9048C103.239 19.076 107.366 22.0277 110.168 26.1906C112.985 30.3763 114.486 35.8216 114.486 42.4042V69.1995C114.486 77.6197 112.073 84.1771 107.62 88.6296C103.168 93.0821 96.6105 95.4948 88.1903 95.4948L42.4042 95.4947L42.3949 95.4949C38.4606 95.5682 34.5455 94.9275 30.8397 93.6041C27.5785 92.4388 24.6512 90.4945 22.3123 87.9404C19.9735 85.3863 18.2938 82.2995 17.4195 78.9485L17.3473 78.672L17.0725 78.5938C16.4769 78.4244 15.8808 78.2409 15.2613 78.0176C11.883 76.7515 8.2012 74.5548 5.36218 70.739C2.5251 66.9258 0.5 61.4561 0.5 53.5906V26.7953C0.5 18.3751 2.91271 11.8177 7.36521 7.36521C11.8177 2.91271 18.3751 0.5 26.7953 0.5H72.5294C79.1465 0.5 84.61 1.99971 88.7972 4.81409C92.9793 7.62497 95.9237 11.7706 97.4707 17.1315ZM17.6349 71.6138L17.6367 71.6145C18.6154 71.9755 19.6251 72.2457 20.6531 72.4219C22.6617 72.868 24.7136 73.0892 26.7712 73.0814H72.5294C78.9922 73.0814 83.8913 71.5105 87.1703 68.2315C90.4493 64.9525 92.0202 60.0534 92.0202 53.5906V26.7989C92.0479 24.7936 91.8705 22.7906 91.4909 20.8213L91.4904 20.8188C90.5969 16.3062 88.5945 12.9045 85.4095 10.6416C82.2355 8.38638 77.9466 7.30445 72.5554 7.30445H26.7953C20.3325 7.30445 15.4334 8.87539 12.1544 12.1544C8.87539 15.4334 7.30445 20.3325 7.30445 26.7953V53.5698C7.30445 58.2778 8.13147 62.1374 9.84782 65.1531C11.5702 68.1794 14.168 70.3198 17.6349 71.6138ZM59.1809 54.4384C56.3634 56.321 53.0509 57.3258 49.6623 57.3258C45.1184 57.3258 40.7606 55.5207 37.5476 52.3077C34.3345 49.0947 32.5295 44.7369 32.5295 40.1929C32.5295 36.8044 33.5343 33.4919 35.4169 30.6744C37.2995 27.8569 39.9753 25.661 43.1059 24.3642C46.2365 23.0675 49.6814 22.7282 53.0048 23.3893C56.3283 24.0504 59.381 25.6821 61.7771 28.0782C64.1732 30.4742 65.8049 33.527 66.466 36.8505C67.1271 40.1739 66.7878 43.6188 65.4911 46.7494C64.1943 49.88 61.9983 52.5558 59.1809 54.4384ZM55.4005 31.6052C53.702 30.4703 51.7051 29.8645 49.6623 29.8645C46.9231 29.8645 44.296 30.9527 42.3591 32.8897C40.4221 34.8266 39.3339 37.4537 39.3339 40.1929C39.3339 42.2357 39.9397 44.2326 41.0746 45.9311C42.2095 47.6296 43.8226 48.9534 45.7098 49.7352C47.5971 50.5169 49.6738 50.7214 51.6773 50.3229C53.6808 49.9244 55.5212 48.9407 56.9656 47.4962C58.4101 46.0518 59.3938 44.2114 59.7923 42.2079C60.1908 40.2044 59.9863 38.1277 59.2046 36.2404C58.4228 34.3532 57.099 32.7401 55.4005 31.6052ZM23.3192 28.7464V51.6395C23.3192 52.5418 22.9607 53.4072 22.3227 54.0452C21.6847 54.6833 20.8193 55.0417 19.917 55.0417C19.0146 55.0417 18.1493 54.6833 17.5112 54.0452C16.8732 53.4072 16.5147 52.5418 16.5147 51.6395V28.7464C16.5147 27.8441 16.8732 26.9787 17.5112 26.3407C18.1493 25.7026 19.0146 25.3442 19.917 25.3442C20.8193 25.3442 21.6847 25.7026 22.3227 26.3407C22.9607 26.9787 23.3192 27.8441 23.3192 28.7464ZM75.9951 51.6395V28.7464C75.9951 27.8441 76.3535 26.9787 76.9916 26.3407C77.6296 25.7026 78.495 25.3442 79.3973 25.3442C80.2997 25.3442 81.165 25.7026 81.8031 26.3407C82.4411 26.9787 82.7996 27.8441 82.7996 28.7464V51.6395C82.7996 52.5418 82.4411 53.4072 81.8031 54.0452C81.165 54.6833 80.2997 55.0417 79.3973 55.0417C78.495 55.0417 77.6296 54.6833 76.9916 54.0452C76.3535 53.4072 75.9951 52.5418 75.9951 51.6395Z" fill="white" stroke="black"/>
</g>
</g>
<defs>
<clipPath id="clip0_4410_2621">
<rect width="114.96" height="96" fill="white"/>
</clipPath>
</defs>
</svg>
