<svg width="96" height="96" viewBox="0 0 96 96" fill="none" xmlns="http://www.w3.org/2000/svg">
<g id="Frame" clip-path="url(#clip0_4410_2568)">
<g id="petrol">
<path id="Path 6113" d="M74.1831 9.00149H75.9643C80.6201 9.2199 85.0748 11.0608 88.5376 14.2349C92.4256 17.7988 94.7478 22.7542 94.9991 28.0218V75.9748C94.7478 81.2415 92.4262 86.1963 88.5392 89.76C84.6465 93.3289 79.5001 95.2129 74.2233 95.0007L74.2032 94.9999H74.1831H30.5463H30.5261L30.5059 95.0007C25.2298 95.2142 20.0835 93.332 16.1901 89.7649C12.3024 86.203 9.97919 81.25 9.72548 75.9841V44.0078C9.73867 38.9433 10.9444 33.9531 13.2451 29.4414L13.5906 28.7638L13.03 28.2499L9.40121 24.9235L8.72525 24.3039L8.04951 24.9238L6.77923 26.089C6.11207 26.6782 5.25256 27.0035 4.36228 27.0035C3.46939 27.0035 2.60744 26.6763 1.93946 26.0838L1.93624 26.0809C1.64082 25.8212 1.40417 25.5014 1.24206 25.143C1.07994 24.7845 0.996094 24.3957 0.996094 24.0023C0.996094 23.6089 1.07994 23.22 1.24206 22.8616C1.40417 22.5032 1.64082 22.1834 1.93624 21.9236L1.9439 21.9169L1.95143 21.91L23.7756 1.91415C24.4427 1.32484 25.3023 0.999512 26.1927 0.999512C27.0856 0.999512 27.9475 1.3267 28.6155 1.9192L28.618 1.9214C28.9128 2.18117 29.149 2.50072 29.3107 2.85882C29.4725 3.21692 29.5562 3.60535 29.5562 3.99829C29.5562 4.39122 29.4725 4.77965 29.3107 5.13775C29.149 5.49585 28.9128 5.81541 28.618 6.07517L28.6111 6.08123L28.6044 6.08742L27.318 7.26342L26.5122 8L27.3165 8.7382L30.9405 12.0646L31.4145 12.4997L32.0068 12.2486C37.0659 10.1049 42.5044 9.0006 47.9989 9.00149H47.9991H74.1831ZM14.2043 19.2634L13.3944 20.0039L14.2067 20.7417L16.3523 22.6905L17.1168 23.3849L17.7862 22.5984C19.7693 20.2686 22.0331 18.1932 24.526 16.4195L25.5334 15.7028L24.6219 14.8675L22.4955 12.9187L21.8207 12.3002L21.1451 12.9178L14.2043 19.2634ZM88.2716 76.0447L88.2727 76.0215V75.9983V27.9983V27.9751L88.2716 27.9518C88.1048 24.3645 86.5254 20.9888 83.8782 18.5619C81.236 16.1397 77.7444 14.8591 74.1633 14.9983H48.0191C40.0049 14.6806 32.1897 17.544 26.2775 22.9646C20.3604 28.3898 16.8302 35.9359 16.4578 43.9551L16.4567 43.9783V44.0015V75.9983V76.0215L16.4578 76.0447C16.6246 79.6321 18.204 83.0078 20.8512 85.4346C23.4933 87.8568 26.9849 89.1374 30.566 88.9983H74.1634C77.7445 89.1374 81.2361 87.8568 83.8782 85.4346C86.5254 83.0078 88.1048 79.6321 88.2716 76.0447Z" fill="white" stroke="black" stroke-width="2"/>
<path id="Path 6114" d="M48.0016 19.667H67.2016C70.7555 19.667 74.1638 21.0788 76.6768 23.5918C79.1898 26.1047 80.6016 29.5131 80.6016 33.067C80.6016 36.6209 79.1898 40.0292 76.6768 42.5422C74.1638 45.0552 70.7555 46.467 67.2016 46.467H48.0016C44.4477 46.467 41.0393 45.0552 38.5263 42.5422C36.0133 40.0292 34.6016 36.6209 34.6016 33.067C34.6016 29.5131 36.0133 26.1047 38.5263 23.5918C41.0393 21.0788 44.4477 19.667 48.0016 19.667ZM48.0016 38.867H67.2016C68.7398 38.867 70.2151 38.2559 71.3028 37.1682C72.3905 36.0805 73.0016 34.6052 73.0016 33.067C73.0016 31.5287 72.3905 30.0535 71.3028 28.9658C70.2151 27.8781 68.7398 27.267 67.2016 27.267H48.0016C46.4633 27.267 44.9881 27.8781 43.9003 28.9658C42.8126 30.0535 42.2016 31.5287 42.2016 33.067C42.2016 34.6052 42.8126 36.0805 43.9003 37.1682C44.9881 38.2559 46.4633 38.867 48.0016 38.867Z" fill="white" stroke="black" stroke-width="2"/>
</g>
</g>
<defs>
<clipPath id="clip0_4410_2568">
<rect width="96" height="96" fill="white"/>
</clipPath>
</defs>
</svg>
