<svg width="120" height="96" viewBox="0 0 120 96" fill="none" xmlns="http://www.w3.org/2000/svg">
<g id="Frame" clip-path="url(#clip0_4410_2616)">
<g id="tanker">
<path id="Path 3730" d="M30.1537 73.7457L30.0938 73.7158" stroke="black"/>
<path id="Path 3731" d="M14.9641 73.7222L14.9102 73.7522" stroke="black"/>
<g id="Path 3732">
<mask id="path-3-inside-1_4410_2616" fill="white">
<path d="M117 63.0001H90V56.8441C97.4158 56.4711 104.392 53.2126 109.437 47.7649C114.482 42.3172 117.197 35.1124 117.001 27.6898C116.805 20.2672 113.715 13.2155 108.389 8.04153C103.063 2.86752 95.9251 -0.0185139 88.5 8.93818e-05H31.5C24.0749 -0.0185139 16.9369 2.86752 11.6112 8.04153C6.2855 13.2155 3.19451 20.2672 2.99864 27.6898C2.80277 35.1124 5.51757 42.3172 10.563 47.7649C15.6083 53.2126 22.5842 56.4711 30 56.8441V62.9941H3C2.20435 62.9941 1.44129 63.3102 0.87868 63.8728C0.316071 64.4354 0 65.1984 0 65.9941L0 77.9941C0 78.7897 0.316071 79.5528 0.87868 80.1154C1.44129 80.678 2.20435 80.9941 3 80.9941H12.426C11.973 82.6509 11.8809 84.3857 12.1561 86.0812C12.4313 87.7767 13.0672 89.3934 14.0209 90.8219C14.9746 92.2505 16.2239 93.4576 17.6844 94.3618C19.1448 95.266 20.7823 95.8461 22.4862 96.0629C24.1902 96.2798 25.9208 96.1283 27.5611 95.6187C29.2015 95.1091 30.7133 94.2534 31.9944 93.1092C33.2756 91.9651 34.2961 90.5592 34.9872 88.9867C35.6782 87.4141 36.0236 85.7116 36 83.9941C35.9871 82.98 35.8439 81.9717 35.574 80.9941H84.426C83.9385 82.7747 83.8683 84.6438 84.2211 86.456C84.5739 88.2682 85.34 89.9745 86.4599 91.4422C87.5798 92.91 89.0232 94.0995 90.6779 94.9183C92.3325 95.7371 94.1538 96.1631 96 96.1631C97.8462 96.1631 99.6675 95.7371 101.322 94.9183C102.977 94.0995 104.42 92.91 105.54 91.4422C106.66 89.9745 107.426 88.2682 107.779 86.456C108.132 84.6438 108.062 82.7747 107.574 80.9941H117C117.796 80.9941 118.559 80.678 119.121 80.1154C119.684 79.5528 120 78.7897 120 77.9941V65.9941C120 65.1984 119.684 64.4354 119.121 63.8728C118.559 63.3102 117.796 63.0001 117 63.0001ZM42 6.00009H78V12.0001H42V6.00009ZM9 28.5001C9.00635 22.5347 11.3789 16.8154 15.5971 12.5972C19.8153 8.37901 25.5346 6.00644 31.5 6.00009H36V15.0001C36 15.7957 36.3161 16.5588 36.8787 17.1214C37.4413 17.684 38.2043 18.0001 39 18.0001H81C81.7956 18.0001 82.5587 17.684 83.1213 17.1214C83.6839 16.5588 84 15.7957 84 15.0001V6.00009H88.5C91.4547 6.00009 94.3805 6.58207 97.1104 7.7128C99.8402 8.84353 102.321 10.5009 104.41 12.5902C106.499 14.6795 108.157 17.1599 109.287 19.8897C110.418 22.6195 111 25.5453 111 28.5001C111 31.4548 110.418 34.3806 109.287 37.1105C108.157 39.8403 106.499 42.3207 104.41 44.41C102.321 46.4993 99.8402 48.1566 97.1104 49.2874C94.3805 50.4181 91.4547 51.0001 88.5 51.0001H31.5C25.5346 50.9937 19.8153 48.6212 15.5971 44.403C11.3789 40.1848 9.00635 34.4655 9 28.5001ZM36 57.0001H84V63.0001H36V57.0001ZM24 90.0001C22.8133 90.0001 21.6533 89.6482 20.6666 88.9889C19.6799 88.3296 18.9108 87.3925 18.4567 86.2962C18.0026 85.1998 17.8838 83.9934 18.1153 82.8295C18.3468 81.6657 18.9182 80.5966 19.7574 79.7574C20.5965 78.9183 21.6656 78.3469 22.8295 78.1154C23.9933 77.8839 25.1997 78.0027 26.2961 78.4568C27.3925 78.9109 28.3295 79.68 28.9888 80.6667C29.6481 81.6534 30 82.8134 30 84.0001C29.9984 85.5903 29.3656 87.1149 28.2405 88.2389C27.1155 89.3628 25.5903 90.0001 24 90.0001ZM96 90.0001C94.8133 90.0001 93.6533 89.6482 92.6666 88.9889C91.6799 88.3296 90.9109 87.3925 90.4567 86.2962C90.0026 85.1998 89.8838 83.9934 90.1153 82.8295C90.3468 81.6657 90.9182 80.5966 91.7574 79.7574C92.5965 78.9183 93.6656 78.3469 94.8295 78.1154C95.9933 77.8839 97.1997 78.0027 98.2961 78.4568C99.3925 78.9109 100.33 79.68 100.989 80.6667C101.648 81.6534 102 82.8134 102 84.0001C101.998 85.5903 101.366 87.1149 100.241 88.2389C99.1155 89.3628 97.5903 90.0001 96 90.0001ZM114 75.0001H103.854C101.695 73.0692 98.8997 72.0018 96.003 72.0018C93.1063 72.0018 90.3113 73.0692 88.152 75.0001H31.854C29.6944 73.0676 26.898 71.9991 24 71.9991C21.102 71.9991 18.3056 73.0676 16.146 75.0001H6V69.0001H114V75.0001Z"/>
</mask>
<path d="M117 63.0001H90V56.8441C97.4158 56.4711 104.392 53.2126 109.437 47.7649C114.482 42.3172 117.197 35.1124 117.001 27.6898C116.805 20.2672 113.715 13.2155 108.389 8.04153C103.063 2.86752 95.9251 -0.0185139 88.5 8.93818e-05H31.5C24.0749 -0.0185139 16.9369 2.86752 11.6112 8.04153C6.2855 13.2155 3.19451 20.2672 2.99864 27.6898C2.80277 35.1124 5.51757 42.3172 10.563 47.7649C15.6083 53.2126 22.5842 56.4711 30 56.8441V62.9941H3C2.20435 62.9941 1.44129 63.3102 0.87868 63.8728C0.316071 64.4354 0 65.1984 0 65.9941L0 77.9941C0 78.7897 0.316071 79.5528 0.87868 80.1154C1.44129 80.678 2.20435 80.9941 3 80.9941H12.426C11.973 82.6509 11.8809 84.3857 12.1561 86.0812C12.4313 87.7767 13.0672 89.3934 14.0209 90.8219C14.9746 92.2505 16.2239 93.4576 17.6844 94.3618C19.1448 95.266 20.7823 95.8461 22.4862 96.0629C24.1902 96.2798 25.9208 96.1283 27.5611 95.6187C29.2015 95.1091 30.7133 94.2534 31.9944 93.1092C33.2756 91.9651 34.2961 90.5592 34.9872 88.9867C35.6782 87.4141 36.0236 85.7116 36 83.9941C35.9871 82.98 35.8439 81.9717 35.574 80.9941H84.426C83.9385 82.7747 83.8683 84.6438 84.2211 86.456C84.5739 88.2682 85.34 89.9745 86.4599 91.4422C87.5798 92.91 89.0232 94.0995 90.6779 94.9183C92.3325 95.7371 94.1538 96.1631 96 96.1631C97.8462 96.1631 99.6675 95.7371 101.322 94.9183C102.977 94.0995 104.42 92.91 105.54 91.4422C106.66 89.9745 107.426 88.2682 107.779 86.456C108.132 84.6438 108.062 82.7747 107.574 80.9941H117C117.796 80.9941 118.559 80.678 119.121 80.1154C119.684 79.5528 120 78.7897 120 77.9941V65.9941C120 65.1984 119.684 64.4354 119.121 63.8728C118.559 63.3102 117.796 63.0001 117 63.0001ZM42 6.00009H78V12.0001H42V6.00009ZM9 28.5001C9.00635 22.5347 11.3789 16.8154 15.5971 12.5972C19.8153 8.37901 25.5346 6.00644 31.5 6.00009H36V15.0001C36 15.7957 36.3161 16.5588 36.8787 17.1214C37.4413 17.684 38.2043 18.0001 39 18.0001H81C81.7956 18.0001 82.5587 17.684 83.1213 17.1214C83.6839 16.5588 84 15.7957 84 15.0001V6.00009H88.5C91.4547 6.00009 94.3805 6.58207 97.1104 7.7128C99.8402 8.84353 102.321 10.5009 104.41 12.5902C106.499 14.6795 108.157 17.1599 109.287 19.8897C110.418 22.6195 111 25.5453 111 28.5001C111 31.4548 110.418 34.3806 109.287 37.1105C108.157 39.8403 106.499 42.3207 104.41 44.41C102.321 46.4993 99.8402 48.1566 97.1104 49.2874C94.3805 50.4181 91.4547 51.0001 88.5 51.0001H31.5C25.5346 50.9937 19.8153 48.6212 15.5971 44.403C11.3789 40.1848 9.00635 34.4655 9 28.5001ZM36 57.0001H84V63.0001H36V57.0001ZM24 90.0001C22.8133 90.0001 21.6533 89.6482 20.6666 88.9889C19.6799 88.3296 18.9108 87.3925 18.4567 86.2962C18.0026 85.1998 17.8838 83.9934 18.1153 82.8295C18.3468 81.6657 18.9182 80.5966 19.7574 79.7574C20.5965 78.9183 21.6656 78.3469 22.8295 78.1154C23.9933 77.8839 25.1997 78.0027 26.2961 78.4568C27.3925 78.9109 28.3295 79.68 28.9888 80.6667C29.6481 81.6534 30 82.8134 30 84.0001C29.9984 85.5903 29.3656 87.1149 28.2405 88.2389C27.1155 89.3628 25.5903 90.0001 24 90.0001ZM96 90.0001C94.8133 90.0001 93.6533 89.6482 92.6666 88.9889C91.6799 88.3296 90.9109 87.3925 90.4567 86.2962C90.0026 85.1998 89.8838 83.9934 90.1153 82.8295C90.3468 81.6657 90.9182 80.5966 91.7574 79.7574C92.5965 78.9183 93.6656 78.3469 94.8295 78.1154C95.9933 77.8839 97.1997 78.0027 98.2961 78.4568C99.3925 78.9109 100.33 79.68 100.989 80.6667C101.648 81.6534 102 82.8134 102 84.0001C101.998 85.5903 101.366 87.1149 100.241 88.2389C99.1155 89.3628 97.5903 90.0001 96 90.0001ZM114 75.0001H103.854C101.695 73.0692 98.8997 72.0018 96.003 72.0018C93.1063 72.0018 90.3113 73.0692 88.152 75.0001H31.854C29.6944 73.0676 26.898 71.9991 24 71.9991C21.102 71.9991 18.3056 73.0676 16.146 75.0001H6V69.0001H114V75.0001Z" fill="white" stroke="black" stroke-width="2" mask="url(#path-3-inside-1_4410_2616)"/>
</g>
</g>
</g>
<defs>
<clipPath id="clip0_4410_2616">
<rect width="120" height="96" fill="white"/>
</clipPath>
</defs>
</svg>
