<svg width="22" height="16" viewBox="0 0 22 16" fill="none" xmlns="http://www.w3.org/2000/svg">
<path d="M19.066 0.000839297C18.7777 0.010941 18.4946 0.0746752 18.2338 0.18797C17.973 0.301265 17.7399 0.461915 17.5487 0.660163C14.0601 4.11958 10.8667 7.51001 7.52565 10.88L3.58592 7.75741C3.36445 7.5791 3.10467 7.44576 2.82326 7.36568C2.54185 7.28561 2.24507 7.26065 1.95252 7.2927C1.65997 7.32475 1.37808 7.41295 1.12512 7.55157C0.872157 7.69019 0.653798 7.87622 0.484298 8.09736C0.117638 8.55664 -0.050189 9.12472 0.0130725 9.6911C0.076334 10.2575 0.366316 10.7817 0.826883 11.1632L6.33952 15.5246C6.75471 15.8585 7.29704 16.0282 7.84802 15.9962C8.39899 15.9641 8.91367 15.7331 9.27954 15.3537C13.2442 11.4241 16.797 7.5636 20.6725 3.72349C21.0927 3.30398 21.3281 2.75629 21.3332 2.18653C21.3384 1.61676 21.113 1.06542 20.7004 0.639579C20.4945 0.431044 20.2416 0.265804 19.9595 0.155534C19.6774 0.0452644 19.3725 -0.00741295 19.066 0.000839297Z" fill="url(#paint0_linear_8517_2646)"/>
<defs>
<linearGradient id="paint0_linear_8517_2646" x1="10.6667" y1="-2.66667" x2="10.6667" y2="16" gradientUnits="userSpaceOnUse">
<stop stop-color="#4A4EFF"/>
<stop offset="1" stop-color="#BD01FF"/>
</linearGradient>
</defs>
</svg>
