<svg width="96" height="96" viewBox="0 0 96 96" fill="none" xmlns="http://www.w3.org/2000/svg">
<mask id="mask0_4293_1290" style="mask-type:luminance" maskUnits="userSpaceOnUse" x="43" y="54" width="10" height="10">
<path d="M43.4023 59.0137C43.4023 59.8887 43.6655 60.744 44.1586 61.4715C44.6517 62.199 45.3526 62.766 46.1725 63.1008C46.9925 63.4356 47.8947 63.5231 48.7652 63.3523C49.6356 63.1815 50.4351 62.7601 51.0625 62.1413C51.69 61.5224 52.1172 60.7341 52.2902 59.8758C52.4632 59.0176 52.3741 58.1281 52.0343 57.3198C51.6945 56.5115 51.1191 55.8206 50.3811 55.3347C49.643 54.8488 48.7754 54.5896 47.8879 54.5898C47.2987 54.5898 46.7153 54.7043 46.171 54.9266C45.6267 55.1489 45.1322 55.4748 44.7156 55.8856C44.2991 56.2964 43.9687 56.7841 43.7434 57.3208C43.518 57.8576 43.4022 58.4328 43.4023 59.0137Z" fill="white"/>
</mask>
<g mask="url(#mask0_4293_1290)">
<path d="M52.3748 54.5898H43.4023V63.4375H52.3748V54.5898Z" fill="white"/>
</g>
<mask id="mask1_4293_1290" style="mask-type:luminance" maskUnits="userSpaceOnUse" x="65" y="54" width="10" height="10">
<path d="M65.6797 59.0137C65.6797 59.8886 65.9428 60.7439 66.4359 61.4714C66.9289 62.1989 67.6297 62.7659 68.4495 63.1007C69.2694 63.4355 70.1716 63.5232 71.042 63.3525C71.9124 63.1818 72.7118 62.7605 73.3394 62.1418C73.9669 61.5231 74.3942 60.7348 74.5673 59.8767C74.7405 59.0186 74.6516 58.1291 74.312 57.3207C73.9724 56.5124 73.3973 55.8215 72.6594 55.3354C71.9216 54.8493 71.054 54.5898 70.1666 54.5898C69.5773 54.5897 68.9938 54.704 68.4493 54.9262C67.9049 55.1485 67.4102 55.4743 66.9935 55.8851C66.5768 56.296 66.2463 56.7837 66.0208 57.3205C65.7954 57.8573 65.6795 58.4327 65.6797 59.0137Z" fill="white"/>
</mask>
<g mask="url(#mask1_4293_1290)">
<path d="M74.6522 54.5898H65.6797V63.4375H74.6522V54.5898Z" fill="white"/>
</g>
<mask id="mask2_4293_1290" style="mask-type:luminance" maskUnits="userSpaceOnUse" x="75" y="65" width="10" height="9">
<path d="M75.8008 69.5332C75.8008 70.4082 76.064 71.2635 76.5571 71.991C77.0502 72.7186 77.751 73.2856 78.571 73.6204C79.3909 73.9552 80.2932 74.0427 81.1636 73.8719C82.0341 73.7011 82.8336 73.2796 83.461 72.6608C84.0885 72.042 84.5157 71.2536 84.6886 70.3954C84.8616 69.5371 84.7725 68.6476 84.4327 67.8393C84.0929 67.0309 83.5176 66.3402 82.7795 65.8542C82.0415 65.3683 81.1738 65.1091 80.2863 65.1094C79.6972 65.1094 79.1138 65.2238 78.5695 65.4461C78.0252 65.6685 77.5306 65.9943 77.1141 66.4051C76.6976 66.8159 76.3671 67.3037 76.1418 67.8404C75.9165 68.3771 75.8006 68.9523 75.8008 69.5332Z" fill="white"/>
</mask>
<g mask="url(#mask2_4293_1290)">
<path d="M84.7733 65.1094H75.8008V73.9556H84.7733V65.1094Z" fill="white"/>
</g>
<mask id="mask3_4293_1290" style="mask-type:luminance" maskUnits="userSpaceOnUse" x="22" y="76" width="10" height="9">
<path d="M22.2695 80.4395C22.2695 81.3145 22.5327 82.1698 23.0258 82.8973C23.5189 83.6248 24.2197 84.1918 25.0397 84.5266C25.8597 84.8614 26.7619 84.9489 27.6323 84.7781C28.5028 84.6073 29.3023 84.1859 29.9297 83.567C30.5572 82.9482 30.9844 82.1598 31.1574 81.3016C31.3303 80.4434 31.2413 79.5539 30.9015 78.7456C30.5616 77.9372 29.9863 77.2464 29.2483 76.7605C28.5102 76.2746 27.6426 76.0153 26.7551 76.0156C26.1659 76.0156 25.5825 76.1301 25.0382 76.3524C24.4939 76.5747 23.9993 76.9006 23.5828 77.3114C23.1663 77.7222 22.8359 78.2099 22.6106 78.7466C22.3852 79.2833 22.2693 79.8586 22.2695 80.4395Z" fill="white"/>
</mask>
<g mask="url(#mask3_4293_1290)">
<path d="M31.242 76.0156H22.2695V84.8632H31.242V76.0156Z" fill="white"/>
</g>
<mask id="mask4_4293_1290" style="mask-type:luminance" maskUnits="userSpaceOnUse" x="43" y="32" width="10" height="10">
<path d="M43.4023 36.983C43.4021 37.858 43.665 38.7135 44.1579 39.4412C44.6509 40.1689 45.3516 40.7362 46.1716 41.0712C46.9915 41.4062 47.8938 41.4939 48.7643 41.3232C49.6348 41.1526 50.4344 40.7312 51.062 40.1125C51.6896 39.4937 52.117 38.7053 52.2901 37.8471C52.4632 36.9888 52.3742 36.0992 52.0344 35.2908C51.6946 34.4824 51.1193 33.7915 50.3812 33.3055C49.6431 32.8195 48.7754 32.5603 47.8879 32.5605C46.6982 32.5605 45.5573 33.0265 44.7161 33.8558C43.8749 34.6852 43.4023 35.8101 43.4023 36.983Z" fill="white"/>
</mask>
<g mask="url(#mask4_4293_1290)">
<path d="M52.3748 32.5605H43.4023V41.4068H52.3748V32.5605Z" fill="white"/>
</g>
<mask id="mask5_4293_1290" style="mask-type:luminance" maskUnits="userSpaceOnUse" x="65" y="32" width="10" height="10">
<path d="M65.6797 36.983C65.6794 37.858 65.9423 38.7134 66.4352 39.4411C66.928 40.1688 67.6287 40.736 68.4485 41.071C69.2684 41.4061 70.1706 41.4939 71.0411 41.3233C71.9116 41.1528 72.7112 40.7316 73.3389 40.113C73.9665 39.4943 74.394 38.7061 74.5672 37.8479C74.7405 36.9898 74.6517 36.1002 74.3121 35.2918C73.9726 34.4833 73.3975 33.7924 72.6596 33.3062C71.9217 32.82 71.0541 32.5605 70.1666 32.5605C69.5774 32.5604 68.994 32.6746 68.4496 32.8968C67.9052 33.1189 67.4106 33.4447 66.9939 33.8554C66.5773 34.266 66.2467 34.7536 66.0212 35.2903C65.7957 35.8269 65.6797 36.4021 65.6797 36.983Z" fill="white"/>
</mask>
<g mask="url(#mask5_4293_1290)">
<path d="M74.6522 32.5605H65.6797V41.4068H74.6522V32.5605Z" fill="white"/>
</g>
<mask id="mask6_4293_1290" style="mask-type:luminance" maskUnits="userSpaceOnUse" x="54" y="43" width="10" height="10">
<path d="M54.5391 48C54.5391 48.875 54.8023 49.7303 55.2954 50.4579C55.7884 51.1854 56.4893 51.7524 57.3093 52.0872C58.1292 52.422 59.0315 52.5095 59.9019 52.3387C60.7723 52.1679 61.5718 51.7464 62.1993 51.1276C62.8267 50.5088 63.254 49.7204 63.4269 48.8622C63.5999 48.0039 63.5108 47.1144 63.171 46.3061C62.8312 45.4978 62.2559 44.807 61.5178 44.321C60.7797 43.8351 59.9121 43.5759 59.0246 43.5762C58.4354 43.5762 57.852 43.6906 57.3077 43.9129C56.7634 44.1353 56.2689 44.4612 55.8524 44.872C55.4358 45.2828 55.1054 45.7705 54.8801 46.3072C54.6548 46.8439 54.5389 47.4191 54.5391 48Z" fill="white"/>
</mask>
<g mask="url(#mask6_4293_1290)">
<path d="M63.5115 43.5762H54.5391V52.4238H63.5115V43.5762Z" fill="white"/>
</g>
<mask id="mask7_4293_1290" style="mask-type:luminance" maskUnits="userSpaceOnUse" x="32" y="43" width="10" height="10">
<path d="M32.2656 48C32.2656 48.8749 32.5288 49.7302 33.0218 50.4577C33.5148 51.1852 34.2156 51.7522 35.0355 52.0871C35.8554 52.4219 36.7575 52.5095 37.6279 52.3388C38.4983 52.1681 39.2978 51.7468 39.9253 51.1281C40.5528 50.5094 40.9802 49.7212 41.1533 48.863C41.3264 48.0049 41.2376 47.1154 40.898 46.3071C40.5583 45.4987 39.9833 44.8078 39.2454 44.3217C38.5075 43.8356 37.64 43.5762 36.7526 43.5762C36.1633 43.576 35.5797 43.6903 35.0353 43.9125C34.4908 44.1348 33.9961 44.4606 33.5794 44.8715C33.1627 45.2823 32.8322 45.7701 32.6068 46.3069C32.3814 46.8437 32.2654 47.419 32.2656 48Z" fill="white"/>
</mask>
<g mask="url(#mask7_4293_1290)">
<path d="M41.2381 43.5762H32.2656V52.4238H41.2381V43.5762Z" fill="white"/>
</g>
<mask id="mask8_4293_1290" style="mask-type:luminance" maskUnits="userSpaceOnUse" x="54" y="21" width="10" height="10">
<path d="M54.5391 25.9697C54.5391 26.8447 54.8023 27.7001 55.2954 28.4276C55.7884 29.1551 56.4893 29.7221 57.3093 30.0569C58.1292 30.3917 59.0315 30.4792 59.9019 30.3084C60.7723 30.1376 61.5718 29.7161 62.1993 29.0973C62.8267 28.4785 63.254 27.6901 63.4269 26.8319C63.5999 25.9737 63.5108 25.0841 63.171 24.2758C62.8312 23.4675 62.2559 22.7767 61.5178 22.2908C60.7797 21.8048 59.9121 21.5456 59.0246 21.5459C58.4354 21.5459 57.852 21.6603 57.3077 21.8827C56.7634 22.105 56.2689 22.4309 55.8524 22.8417C55.4358 23.2525 55.1054 23.7402 54.8801 24.2769C54.6548 24.8136 54.5389 25.3888 54.5391 25.9697Z" fill="white"/>
</mask>
<g mask="url(#mask8_4293_1290)">
<path d="M63.5115 21.5459H54.5391V30.3921H63.5115V21.5459Z" fill="white"/>
</g>
<mask id="mask9_4293_1290" style="mask-type:luminance" maskUnits="userSpaceOnUse" x="32" y="21" width="10" height="10">
<path d="M32.2656 25.9707C32.2656 26.8456 32.5288 27.7009 33.0218 28.4284C33.5148 29.1559 34.2156 29.7229 35.0355 30.0577C35.8554 30.3926 36.7575 30.4802 37.6279 30.3095C38.4983 30.1388 39.2978 29.7175 39.9253 29.0988C40.5528 28.4801 40.9802 27.6919 41.1533 26.8337C41.3264 25.9756 41.2376 25.0861 40.898 24.2778C40.5583 23.4694 39.9833 22.7785 39.2454 22.2924C38.5075 21.8063 37.64 21.5469 36.7526 21.5469C36.1633 21.5467 35.5797 21.661 35.0353 21.8832C34.4908 22.1055 33.9961 22.4313 33.5794 22.8422C33.1627 23.253 32.8322 23.7407 32.6068 24.2775C32.3814 24.8144 32.2654 25.3897 32.2656 25.9707Z" fill="white"/>
</mask>
<g mask="url(#mask9_4293_1290)">
<path d="M41.2381 21.5469H32.2656V30.3931H41.2381V21.5469Z" fill="white"/>
</g>
<mask id="mask10_4293_1290" style="mask-type:luminance" maskUnits="userSpaceOnUse" x="87" y="54" width="9" height="10">
<path d="M87.0273 59.0137C87.0273 59.8886 87.2905 60.7439 87.7835 61.4714C88.2766 62.1989 88.9773 62.7659 89.7972 63.1007C90.6171 63.4355 91.5193 63.5232 92.3896 63.3525C93.26 63.1818 94.0595 62.7605 94.687 62.1418C95.3146 61.5231 95.7419 60.7348 95.915 59.8767C96.0882 59.0186 95.9993 58.1291 95.6597 57.3207C95.3201 56.5124 94.745 55.8215 94.0071 55.3354C93.2692 54.8493 92.4017 54.5898 91.5143 54.5898C90.925 54.5897 90.3414 54.704 89.797 54.9262C89.2525 55.1485 88.7578 55.4743 88.3411 55.8851C87.9244 56.296 87.5939 56.7837 87.3685 57.3205C87.1431 57.8573 87.0272 58.4327 87.0273 59.0137Z" fill="white"/>
</mask>
<g mask="url(#mask10_4293_1290)">
<path d="M95.9998 54.5898H87.0273V63.4375H95.9998V54.5898Z" fill="white"/>
</g>
<mask id="mask11_4293_1290" style="mask-type:luminance" maskUnits="userSpaceOnUse" x="87" y="32" width="9" height="10">
<path d="M87.0273 36.983C87.0271 37.858 87.29 38.7134 87.7828 39.4411C88.2757 40.1688 88.9764 40.736 89.7962 41.071C90.6161 41.4061 91.5183 41.4939 92.3888 41.3233C93.2593 41.1528 94.0589 40.7316 94.6865 40.113C95.3142 39.4943 95.7417 38.7061 95.9149 37.8479C96.0881 36.9898 95.9994 36.1002 95.6598 35.2918C95.3202 34.4833 94.7451 33.7924 94.0072 33.3062C93.2693 32.82 92.4018 32.5605 91.5143 32.5605C90.9251 32.5604 90.3417 32.6746 89.7973 32.8968C89.2529 33.1189 88.7583 33.4447 88.3416 33.8554C87.925 34.266 87.5944 34.7536 87.3689 35.2903C87.1434 35.8269 87.0273 36.4021 87.0273 36.983Z" fill="white"/>
</mask>
<g mask="url(#mask11_4293_1290)">
<path d="M95.9998 32.5605H87.0273V41.4068H95.9998V32.5605Z" fill="white"/>
</g>
<mask id="mask12_4293_1290" style="mask-type:luminance" maskUnits="userSpaceOnUse" x="75" y="43" width="10" height="10">
<path d="M75.8125 48C75.8125 48.8749 76.0757 49.7302 76.5687 50.4577C77.0617 51.1852 77.7625 51.7522 78.5824 52.0871C79.4023 52.4219 80.3044 52.5095 81.1748 52.3388C82.0452 52.1681 82.8447 51.7468 83.4722 51.1281C84.0997 50.5094 84.5271 49.7212 84.7002 48.863C84.8733 48.0049 84.7845 47.1154 84.4449 46.3071C84.1053 45.4987 83.5301 44.8078 82.7923 44.3217C82.0544 43.8356 81.1869 43.5762 80.2995 43.5762C79.7102 43.576 79.1266 43.6903 78.5822 43.9125C78.0377 44.1348 77.543 44.4606 77.1263 44.8715C76.7096 45.2823 76.3791 45.7701 76.1537 46.3069C75.9283 46.8437 75.8123 47.419 75.8125 48Z" fill="white"/>
</mask>
<g mask="url(#mask12_4293_1290)">
<path d="M84.785 43.5762H75.8125V52.4238H84.785V43.5762Z" fill="white"/>
</g>
<mask id="mask13_4293_1290" style="mask-type:luminance" maskUnits="userSpaceOnUse" x="75" y="21" width="10" height="10">
<path d="M75.8125 25.9707C75.8125 26.8456 76.0757 27.7009 76.5687 28.4284C77.0617 29.1559 77.7625 29.7229 78.5824 30.0577C79.4023 30.3926 80.3044 30.4802 81.1748 30.3095C82.0452 30.1388 82.8447 29.7175 83.4722 29.0988C84.0997 28.4801 84.5271 27.6919 84.7002 26.8337C84.8733 25.9756 84.7845 25.0861 84.4449 24.2778C84.1053 23.4694 83.5301 22.7785 82.7923 22.2924C82.0544 21.8063 81.1869 21.5469 80.2995 21.5469C79.7102 21.5467 79.1266 21.661 78.5822 21.8832C78.0377 22.1055 77.543 22.4313 77.1263 22.8422C76.7096 23.253 76.3791 23.7407 76.1537 24.2775C75.9283 24.8144 75.8123 25.3897 75.8125 25.9707Z" fill="white"/>
</mask>
<g mask="url(#mask13_4293_1290)">
<path d="M84.785 21.5469H75.8125V30.3931H84.785V21.5469Z" fill="white"/>
</g>
<mask id="mask14_4293_1290" style="mask-type:luminance" maskUnits="userSpaceOnUse" x="43" y="11" width="10" height="9">
<path d="M43.1875 15.4824C43.1875 16.3574 43.4507 17.2128 43.9438 17.9403C44.4369 18.6678 45.1377 19.2348 45.9577 19.5696C46.7777 19.9044 47.6799 19.9919 48.5503 19.8211C49.4207 19.6503 50.2202 19.2288 50.8477 18.61C51.4752 17.9912 51.9024 17.2028 52.0754 16.3446C52.2483 15.4864 52.1593 14.5968 51.8194 13.7885C51.4796 12.9802 50.9043 12.2894 50.1662 11.8035C49.4282 11.3175 48.5605 11.0583 47.673 11.0586C47.0839 11.0586 46.5005 11.173 45.9562 11.3954C45.4119 11.6177 44.9173 11.9436 44.5008 12.3544C44.0842 12.7652 43.7539 13.2529 43.5285 13.7896C43.3032 14.3263 43.1873 14.9015 43.1875 15.4824Z" fill="white"/>
</mask>
<g mask="url(#mask14_4293_1290)">
<path d="M52.16 11.0586H43.1875V19.9062H52.16V11.0586Z" fill="white"/>
</g>
<mask id="mask15_4293_1290" style="mask-type:luminance" maskUnits="userSpaceOnUse" x="65" y="11" width="10" height="9">
<path d="M65.4609 15.4814C65.4609 16.3564 65.7241 17.2117 66.2171 17.9392C66.7102 18.6667 67.4109 19.2337 68.2308 19.5685C69.0507 19.9033 69.9529 19.9909 70.8232 19.8202C71.6936 19.6495 72.4931 19.2282 73.1206 18.6095C73.7481 17.9908 74.1754 17.2026 74.3486 16.3445C74.5217 15.4863 74.4329 14.5969 74.0933 13.7885C73.7537 12.9802 73.1786 12.2893 72.4407 11.8032C71.7028 11.3171 70.8353 11.0576 69.9479 11.0576C69.3586 11.0574 68.775 11.1717 68.2306 11.394C67.6861 11.6162 67.1914 11.9421 66.7747 12.3529C66.358 12.7637 66.0275 13.2515 65.8021 13.7883C65.5767 14.3251 65.4608 14.9004 65.4609 15.4814Z" fill="white"/>
</mask>
<g mask="url(#mask15_4293_1290)">
<path d="M74.4334 11.0576H65.4609V19.9052H74.4334V11.0576Z" fill="white"/>
</g>
<mask id="mask16_4293_1290" style="mask-type:luminance" maskUnits="userSpaceOnUse" x="54" y="0" width="10" height="9">
<path d="M58.8073 0C57.9198 0 57.0523 0.259452 56.3144 0.745546C55.5766 1.23164 55.0015 1.92255 54.6619 2.73089C54.3223 3.53924 54.2334 4.42872 54.4065 5.28685C54.5797 6.14499 55.007 6.93324 55.6345 7.55192C56.262 8.1706 57.0615 8.59192 57.9319 8.76262C58.8023 8.93331 59.7045 8.84571 60.5243 8.51088C61.3442 8.17605 62.045 7.60904 62.538 6.88155C63.031 6.15406 63.2942 5.29876 63.2942 4.42381C63.2942 3.25054 62.8215 2.12533 61.98 1.2957C61.1385 0.466079 59.9973 0 58.8073 0Z" fill="white"/>
</mask>
<g mask="url(#mask16_4293_1290)">
<path d="M63.2928 0H54.3203V8.84762H63.2928V0Z" fill="white"/>
</g>
<mask id="mask17_4293_1290" style="mask-type:luminance" maskUnits="userSpaceOnUse" x="32" y="0" width="10" height="9">
<path d="M36.5338 0C35.6464 0 34.7789 0.259452 34.041 0.745546C33.3031 1.23164 32.728 1.92255 32.3884 2.73089C32.0488 3.53924 31.96 4.42872 32.1331 5.28685C32.3062 6.14499 32.7336 6.93324 33.3611 7.55192C33.9886 8.1706 34.7881 8.59192 35.6585 8.76262C36.5288 8.93331 37.431 8.84571 38.2509 8.51088C39.0708 8.17605 39.7715 7.60904 40.2646 6.88155C40.7576 6.15406 41.0208 5.29876 41.0208 4.42381C41.0208 3.25054 40.548 2.12533 39.7066 1.2957C38.8651 0.466079 37.7238 0 36.5338 0Z" fill="white"/>
</mask>
<g mask="url(#mask17_4293_1290)">
<path d="M41.0194 0H32.0469V8.84762H41.0194V0Z" fill="white"/>
</g>
<mask id="mask18_4293_1290" style="mask-type:luminance" maskUnits="userSpaceOnUse" x="0" y="33" width="9" height="9">
<path d="M2.22784e-07 37.5508C2.66831e-07 38.4258 0.263191 39.2811 0.756285 40.0086C1.24938 40.7362 1.95023 41.3032 2.77019 41.638C3.59016 41.9728 4.49241 42.0603 5.36283 41.8895C6.23325 41.7187 7.03274 41.2972 7.6602 40.6784C8.28765 40.0596 8.71488 39.2712 8.88785 38.413C9.06082 37.5547 8.97176 36.6652 8.63194 35.8569C8.29212 35.0486 7.71679 34.3578 6.97873 33.8718C6.24067 33.3859 5.37303 33.1267 4.48553 33.127C3.89637 33.127 3.31297 33.2414 2.76867 33.4637C2.22436 33.6861 1.72982 34.0119 1.31328 34.4227C0.896744 34.8335 0.566371 35.3212 0.341035 35.858C0.115699 36.3947 -0.000185459 36.9699 2.22784e-07 37.5508Z" fill="white"/>
</mask>
<g mask="url(#mask18_4293_1290)">
<path d="M8.97248 33.127H0V41.9746H8.97248V33.127Z" fill="white"/>
</g>
<mask id="mask19_4293_1290" style="mask-type:luminance" maskUnits="userSpaceOnUse" x="22" y="33" width="10" height="9">
<path d="M22.2695 37.5508C22.2695 38.4258 22.5327 39.2811 23.0258 40.0086C23.5189 40.7362 24.2197 41.3032 25.0397 41.638C25.8597 41.9728 26.7619 42.0603 27.6323 41.8895C28.5028 41.7187 29.3023 41.2972 29.9297 40.6784C30.5572 40.0596 30.9844 39.2712 31.1574 38.413C31.3303 37.5547 31.2413 36.6652 30.9015 35.8569C30.5616 35.0486 29.9863 34.3578 29.2483 33.8718C28.5102 33.3859 27.6426 33.1267 26.7551 33.127C26.1659 33.127 25.5825 33.2414 25.0382 33.4637C24.4939 33.6861 23.9993 34.0119 23.5828 34.4227C23.1663 34.8335 22.8359 35.3212 22.6106 35.858C22.3852 36.3947 22.2693 36.9699 22.2695 37.5508Z" fill="white"/>
</mask>
<g mask="url(#mask19_4293_1290)">
<path d="M31.242 33.127H22.2695V41.9746H31.242V33.127Z" fill="white"/>
</g>
<mask id="mask20_4293_1290" style="mask-type:luminance" maskUnits="userSpaceOnUse" x="22" y="11" width="10" height="9">
<path d="M22.2695 15.5611C22.2693 16.4362 22.5322 17.2916 23.0251 18.0193C23.518 18.7471 24.2188 19.3143 25.0387 19.6493C25.8587 19.9843 26.761 20.072 27.6315 19.9014C28.502 19.7307 29.3016 19.3094 29.9292 18.6906C30.5568 18.0718 30.9842 17.2834 31.1573 16.4252C31.3304 15.5669 31.2414 14.6773 30.9016 13.8689C30.5618 13.0605 29.9865 12.3696 29.2484 11.8836C28.5103 11.3977 27.6426 11.1384 26.7551 11.1387C25.5654 11.1387 24.4245 11.6046 23.5833 12.434C22.7421 13.2633 22.2695 14.3882 22.2695 15.5611Z" fill="white"/>
</mask>
<g mask="url(#mask20_4293_1290)">
<path d="M31.242 11.1387H22.2695V19.9849H31.242V11.1387Z" fill="white"/>
</g>
<mask id="mask21_4293_1290" style="mask-type:luminance" maskUnits="userSpaceOnUse" x="11" y="22" width="10" height="9">
<path d="M11.2188 26.5318C11.2185 27.4068 11.4814 28.2622 11.9742 28.9899C12.4671 29.7176 13.1678 30.2848 13.9876 30.6199C14.8075 30.9549 15.7097 31.0427 16.5802 30.8722C17.4507 30.7016 18.2503 30.2804 18.8779 29.6618C19.5056 29.0432 19.9331 28.2549 20.1063 27.3967C20.2796 26.5386 20.1908 25.649 19.8512 24.8406C19.5117 24.0322 18.9366 23.3412 18.1987 22.855C17.4607 22.3689 16.5932 22.1094 15.7057 22.1094C15.1164 22.1092 14.5329 22.2235 13.9884 22.4457C13.4439 22.668 12.9492 22.9938 12.5325 23.4047C12.1158 23.8155 11.7853 24.3032 11.5599 24.84C11.3345 25.3769 11.2186 25.9522 11.2188 26.5332" fill="white"/>
</mask>
<g mask="url(#mask21_4293_1290)">
<path d="M20.1912 22.1074H11.2188V30.955H20.1912V22.1074Z" fill="white"/>
</g>
<mask id="mask22_4293_1290" style="mask-type:luminance" maskUnits="userSpaceOnUse" x="43" y="76" width="10" height="9">
<path d="M43.4023 80.5181C43.4021 81.3932 43.665 82.2487 44.1579 82.9764C44.6509 83.7041 45.3516 84.2713 46.1716 84.6063C46.9915 84.9413 47.8938 85.0291 48.7643 84.8584C49.6348 84.6878 50.4344 84.2664 51.062 83.6476C51.6896 83.0289 52.117 82.2405 52.2901 81.3822C52.4632 80.5239 52.3742 79.6344 52.0344 78.826C51.6946 78.0176 51.1193 77.3267 50.3812 76.8407C49.6431 76.3547 48.7754 76.0954 47.8879 76.0957C46.6982 76.0957 45.5573 76.5616 44.7161 77.391C43.8749 78.2204 43.4023 79.3452 43.4023 80.5181Z" fill="white"/>
</mask>
<g mask="url(#mask22_4293_1290)">
<path d="M52.3748 76.0957H43.4023V84.9419H52.3748V76.0957Z" fill="white"/>
</g>
<mask id="mask23_4293_1290" style="mask-type:luminance" maskUnits="userSpaceOnUse" x="65" y="76" width="10" height="9">
<path d="M65.6797 80.5181C65.6794 81.3931 65.9423 82.2486 66.4352 82.9763C66.928 83.7039 67.6287 84.2711 68.4485 84.6062C69.2684 84.9412 70.1706 85.029 71.0411 84.8585C71.9116 84.688 72.7112 84.2668 73.3389 83.6481C73.9665 83.0295 74.394 82.2413 74.5672 81.3831C74.7405 80.5249 74.6517 79.6353 74.3121 78.8269C73.9726 78.0185 73.3975 77.3275 72.6596 76.8414C71.9217 76.3552 71.0541 76.0957 70.1666 76.0957C69.5774 76.0955 68.994 76.2098 68.4496 76.4319C67.9052 76.6541 67.4106 76.9799 66.9939 77.3905C66.5773 77.8012 66.2467 78.2888 66.0212 78.8254C65.7957 79.3621 65.6797 79.9372 65.6797 80.5181Z" fill="white"/>
</mask>
<g mask="url(#mask23_4293_1290)">
<path d="M74.6522 76.0957H65.6797V84.9419H74.6522V76.0957Z" fill="white"/>
</g>
<mask id="mask24_4293_1290" style="mask-type:luminance" maskUnits="userSpaceOnUse" x="54" y="87" width="10" height="9">
<path d="M54.5391 91.5762C54.5391 92.4512 54.8023 93.3065 55.2954 94.034C55.7884 94.7615 56.4893 95.3285 57.3093 95.6633C58.1292 95.9981 59.0315 96.0856 59.9019 95.9148C60.7723 95.744 61.5718 95.3226 62.1993 94.7038C62.8267 94.0849 63.254 93.2966 63.4269 92.4383C63.5999 91.5801 63.5108 90.6906 63.171 89.8823C62.8312 89.074 62.2559 88.3831 61.5178 87.8972C60.7797 87.4113 59.9121 87.1521 59.0246 87.1523C58.4354 87.1523 57.852 87.2668 57.3077 87.4891C56.7634 87.7115 56.2689 88.0373 55.8524 88.4482C55.4358 88.859 55.1054 89.3466 54.8801 89.8833C54.6548 90.4201 54.5389 90.9953 54.5391 91.5762Z" fill="white"/>
</mask>
<g mask="url(#mask24_4293_1290)">
<path d="M63.5115 87.1523H54.5391V96H63.5115V87.1523Z" fill="white"/>
</g>
<mask id="mask25_4293_1290" style="mask-type:luminance" maskUnits="userSpaceOnUse" x="32" y="87" width="10" height="9">
<path d="M32.2656 91.5762C32.2656 92.4511 32.5288 93.3064 33.0218 94.0339C33.5148 94.7614 34.2156 95.3284 35.0355 95.6632C35.8554 95.998 36.7575 96.0857 37.6279 95.915C38.4983 95.7443 39.2978 95.323 39.9253 94.7043C40.5528 94.0856 40.9802 93.2973 41.1533 92.4392C41.3264 91.5811 41.2376 90.6916 40.898 89.8832C40.5583 89.0749 39.9833 88.384 39.2454 87.8979C38.5075 87.4118 37.64 87.1523 36.7526 87.1523C36.1633 87.1522 35.5797 87.2665 35.0353 87.4887C34.4908 87.711 33.9961 88.0368 33.5794 88.4476C33.1627 88.8585 32.8322 89.3462 32.6068 89.883C32.3814 90.4198 32.2654 90.9952 32.2656 91.5762Z" fill="white"/>
</mask>
<g mask="url(#mask25_4293_1290)">
<path d="M41.2381 87.1523H32.2656V96H41.2381V87.1523Z" fill="white"/>
</g>
<mask id="mask26_4293_1290" style="mask-type:luminance" maskUnits="userSpaceOnUse" x="54" y="65" width="10" height="9">
<path d="M54.5391 69.5445C54.5388 70.4196 54.8017 71.2751 55.2947 72.0028C55.7876 72.7305 56.4883 73.2977 57.3083 73.6327C58.1282 73.9677 59.0305 74.0554 59.901 73.8848C60.7716 73.7141 61.5712 73.2928 62.1987 72.674C62.8263 72.0552 63.2537 71.2669 63.4268 70.4086C63.5999 69.5504 63.5109 68.6608 63.1712 67.8523C62.8314 67.0439 62.256 66.353 61.5179 65.8671C60.7798 65.3811 59.9122 65.1218 59.0246 65.1221C57.835 65.1221 56.694 65.588 55.8528 66.4174C55.0116 67.2467 54.5391 68.3716 54.5391 69.5445Z" fill="white"/>
</mask>
<g mask="url(#mask26_4293_1290)">
<path d="M63.5115 65.1221H54.5391V73.9683H63.5115V65.1221Z" fill="white"/>
</g>
<mask id="mask27_4293_1290" style="mask-type:luminance" maskUnits="userSpaceOnUse" x="32" y="65" width="10" height="9">
<path d="M32.2656 69.5455C32.2653 70.4205 32.5283 71.2759 33.0211 72.0036C33.514 72.7313 34.2146 73.2985 35.0345 73.6335C35.8544 73.9686 36.7566 74.0564 37.6271 73.8858C38.4975 73.7153 39.2972 73.2941 39.9248 72.6755C40.5525 72.0569 40.9799 71.2686 41.1532 70.4104C41.3264 69.5523 41.2376 68.6627 40.8981 67.8543C40.5585 67.0458 39.9834 66.3549 39.2455 65.8687C38.5076 65.3826 37.6401 65.123 36.7526 65.123C36.1634 65.1229 35.58 65.2372 35.0356 65.4593C34.4912 65.6815 33.9966 66.0072 33.5799 66.4179C33.1632 66.8286 32.8327 67.3161 32.6072 67.8528C32.3817 68.3894 32.2656 68.9646 32.2656 69.5455Z" fill="white"/>
</mask>
<g mask="url(#mask27_4293_1290)">
<path d="M41.2381 65.123H32.2656V73.9693H41.2381V65.123Z" fill="white"/>
</g>
<mask id="mask28_4293_1290" style="mask-type:luminance" maskUnits="userSpaceOnUse" x="0" y="54" width="9" height="9">
<path d="M2.22726e-07 58.4517C-0.000279366 59.3268 0.262673 60.1823 0.755598 60.91C1.24852 61.6377 1.94927 62.2049 2.76921 62.5399C3.58915 62.8749 4.49145 62.9627 5.36196 62.792C6.23247 62.6214 7.0321 62.2 7.6597 61.5812C8.28729 60.9625 8.71466 60.1741 8.88775 59.3158C9.06083 58.4575 8.97185 57.568 8.63207 56.7596C8.29229 55.9512 7.71697 55.2603 6.97888 54.7743C6.24079 54.2883 5.37309 54.029 4.48553 54.0293C3.2959 54.0293 2.15498 54.4952 1.31378 55.3246C0.472582 56.154 2.22726e-07 57.2788 2.22726e-07 58.4517Z" fill="white"/>
</mask>
<g mask="url(#mask28_4293_1290)">
<path d="M8.97248 54.0264H0V62.8726H8.97248V54.0264Z" fill="white"/>
</g>
<mask id="mask29_4293_1290" style="mask-type:luminance" maskUnits="userSpaceOnUse" x="22" y="54" width="10" height="9">
<path d="M22.2695 58.4517C22.2693 59.3268 22.5322 60.1823 23.0251 60.91C23.518 61.6377 24.2188 62.2049 25.0387 62.5399C25.8587 62.8749 26.761 62.9627 27.6315 62.792C28.502 62.6214 29.3016 62.2 29.9292 61.5812C30.5568 60.9625 30.9842 60.1741 31.1573 59.3158C31.3304 58.4575 31.2414 57.568 30.9016 56.7596C30.5618 55.9512 29.9865 55.2603 29.2484 54.7743C28.5103 54.2883 27.6426 54.029 26.7551 54.0293C25.5654 54.0293 24.4245 54.4952 23.5833 55.3246C22.7421 56.154 22.2695 57.2788 22.2695 58.4517Z" fill="white"/>
</mask>
<g mask="url(#mask29_4293_1290)">
<path d="M31.242 54.0264H22.2695V62.8726H31.242V54.0264Z" fill="white"/>
</g>
<mask id="mask30_4293_1290" style="mask-type:luminance" maskUnits="userSpaceOnUse" x="11" y="65" width="10" height="9">
<path d="M11.2188 69.4648C11.2188 70.3398 11.4819 71.1951 11.9749 71.9226C12.468 72.6501 13.1687 73.2171 13.9886 73.5519C14.8085 73.8867 15.7107 73.9743 16.5811 73.8036C17.4514 73.6329 18.2509 73.2116 18.8784 72.5929C19.506 71.9743 19.9333 71.186 20.1064 70.3279C20.2796 69.4697 20.1907 68.5802 19.8511 67.7719C19.5115 66.9635 18.9364 66.2727 18.1985 65.7866C17.4606 65.3005 16.5931 65.041 15.7057 65.041C15.1164 65.0408 14.5329 65.1551 13.9884 65.3774C13.4439 65.5996 12.9492 65.9255 12.5325 66.3363C12.1158 66.7471 11.7853 67.2349 11.5599 67.7717C11.3345 68.3085 11.2186 68.8838 11.2188 69.4648Z" fill="white"/>
</mask>
<g mask="url(#mask30_4293_1290)">
<path d="M20.1912 65.041H11.2188V73.8886H20.1912V65.041Z" fill="white"/>
</g>
<mask id="mask31_4293_1290" style="mask-type:luminance" maskUnits="userSpaceOnUse" x="11" y="43" width="10" height="9">
<path d="M11.2188 47.4336C11.2188 48.3085 11.4819 49.1638 11.9749 49.8913C12.468 50.6188 13.1687 51.1858 13.9886 51.5206C14.8085 51.8555 15.7107 51.9431 16.5811 51.7724C17.4514 51.6017 18.2509 51.1804 18.8784 50.5617C19.506 49.943 19.9333 49.1548 20.1064 48.2966C20.2796 47.4385 20.1907 46.549 19.8511 45.7407C19.5115 44.9323 18.9364 44.2414 18.1985 43.7553C17.4606 43.2692 16.5931 43.0098 15.7057 43.0098C15.1164 43.0096 14.5329 43.1239 13.9884 43.3461C13.4439 43.5684 12.9492 43.8942 12.5325 44.3051C12.1158 44.7159 11.7853 45.2036 11.5599 45.7404C11.3345 46.2773 11.2186 46.8526 11.2188 47.4336Z" fill="white"/>
</mask>
<g mask="url(#mask31_4293_1290)">
<path d="M20.1912 43.0098H11.2188V51.856H20.1912V43.0098Z" fill="white"/>
</g>
</svg>
