<svg width="109" height="96" viewBox="0 0 109 96" fill="none" xmlns="http://www.w3.org/2000/svg">
<path id="Vector" d="M93.7955 29.0232H64.8628V10.9672C64.8628 8.02254 63.5538 5.26677 61.1862 3.21657C58.8152 1.14219 55.6687 0 52.3254 0H12.5374C5.62455 0 0 4.92079 0 10.9687V34.1751C0 40.223 5.62455 45.1438 12.5374 45.1438H13.2627V51.5799C13.2627 53.6981 14.7081 55.5791 16.9427 56.3708C17.6628 56.6246 18.4106 56.7485 19.1514 56.7485C20.6988 56.7485 22.2064 56.2121 23.3098 55.2105L31.7337 47.8814V69.4456C31.7337 76.4332 38.2321 82.1184 46.2191 82.1184H67.2718L81.2305 94.2641C82.4859 95.3972 84.1697 96 85.8914 96C86.7134 96 87.5423 95.8625 88.3367 95.5815C90.8183 94.7037 92.4191 92.6127 92.4191 90.2588V82.1184H93.7937C101.781 82.1184 108.279 76.4332 108.279 69.4456V41.696C108.281 34.7084 101.782 29.0232 93.7955 29.0232ZM31.7458 41.48L19.6212 52.0271C19.4105 52.219 19.1635 52.2689 18.8855 52.1676C18.6835 52.0966 18.4434 51.9365 18.4434 51.5784V42.876C18.4434 41.6235 17.2847 40.6097 15.853 40.6097H12.5374C8.48086 40.6097 5.18073 37.7225 5.18073 34.1736V10.9672C5.18073 7.4182 8.48086 4.531 12.5374 4.531H52.3254C54.2837 4.531 56.1298 5.20181 57.5321 6.42861C58.9188 7.62972 59.6821 9.24178 59.6821 10.9672V29.0232H46.2191C42.3577 29.0232 38.7225 30.3436 35.9819 32.7398C33.3018 35.0846 31.8097 38.1818 31.7458 41.48ZM103.1 69.444C103.1 73.9327 98.9261 77.5844 93.7955 77.5844H89.8305C88.4006 77.5844 87.2401 78.5997 87.2401 79.8507V90.2573C87.2401 90.9991 86.6478 91.2907 86.3939 91.3799C86.147 91.466 85.5115 91.614 84.9191 91.0792L70.1696 78.2447C69.6843 77.8231 69.0281 77.5844 68.3425 77.5844H46.2191C41.0884 77.5844 36.9145 73.9327 36.9145 69.444V41.696C36.9145 39.5265 37.885 37.4853 39.6447 35.9458C41.4062 34.4047 43.7409 33.5557 46.2191 33.5557H93.7955C98.9261 33.5557 103.1 37.2073 103.1 41.696V69.444Z" fill="white"/>
</svg>
