<svg width="128" height="96" viewBox="0 0 128 96" fill="none" xmlns="http://www.w3.org/2000/svg">
<g id="Group">
<g id="Electronic_Wallet">
<path id="Vector" d="M109.381 47.9971C106.168 47.9971 103.562 45.4984 103.562 42.416C103.562 39.3336 106.168 36.835 109.381 36.835C112.595 36.835 115.2 39.3336 115.2 42.416C115.196 45.497 112.593 47.9937 109.381 47.9971ZM109.381 41.2998C108.738 41.2998 108.217 41.7996 108.217 42.416C108.217 43.0324 108.738 43.5322 109.381 43.5322C110.024 43.5322 110.545 43.0324 110.545 42.416C110.544 41.7999 110.024 41.3006 109.381 41.2998Z" fill="white"/>
<path id="Vector_2" d="M106.5 13.3945H99.972C98.6866 13.3945 97.6445 12.395 97.6445 11.1621C97.6445 9.92926 98.6866 8.92969 99.972 8.92969H106.5C107.785 8.92969 108.827 9.92926 108.827 11.1621C108.827 12.395 107.785 13.3945 106.5 13.3945Z" fill="white"/>
<path id="Vector_3" d="M91.2683 13.3945H84.7415C83.4562 13.3945 82.4141 12.395 82.4141 11.1621C82.4141 9.92926 83.4562 8.92969 84.7415 8.92969H91.2683C92.5536 8.92969 93.5957 9.92926 93.5957 11.1621C93.5957 12.395 92.5539 13.3945 91.2683 13.3945Z" fill="white"/>
<path id="Vector_4" d="M76.0339 13.3945H69.5071C68.2218 13.3945 67.1797 12.395 67.1797 11.1621C67.1797 9.92926 68.2218 8.92969 69.5071 8.92969H76.0339C77.3192 8.92969 78.3614 9.92926 78.3614 11.1621C78.3614 12.395 77.3192 13.3945 76.0339 13.3945Z" fill="white"/>
<path id="Vector_5" d="M60.8073 13.3945H54.2806C52.9952 13.3945 51.9531 12.395 51.9531 11.1621C51.9531 9.92926 52.9952 8.92969 54.2806 8.92969H60.8073C62.0927 8.92969 63.1348 9.92926 63.1348 11.1621C63.1348 12.395 62.0927 13.3945 60.8073 13.3945Z" fill="white"/>
<path id="Vector_6" d="M45.5808 13.3945H39.054C37.7687 13.3945 36.7266 12.395 36.7266 11.1621C36.7266 9.92926 37.7687 8.92969 39.054 8.92969H45.5808C46.8661 8.92969 47.9082 9.92926 47.9082 11.1621C47.9082 12.395 46.8661 13.3945 45.5808 13.3945Z" fill="white"/>
<path id="Vector_7" d="M30.3464 13.3945H23.8196C22.5343 13.3945 21.4922 12.395 21.4922 11.1621C21.4922 9.92926 22.5343 8.92969 23.8196 8.92969H30.3464C31.6317 8.92969 32.6739 9.92926 32.6739 11.1621C32.6739 12.395 31.6317 13.3945 30.3464 13.3945Z" fill="white"/>
<path id="Vector_8" d="M106.5 75.9033H99.972C98.6866 75.9033 97.6445 74.9038 97.6445 73.6709C97.6445 72.438 98.6866 71.4385 99.972 71.4385H106.5C107.785 71.4385 108.827 72.438 108.827 73.6709C108.827 74.9038 107.785 75.9033 106.5 75.9033Z" fill="white"/>
<path id="Vector_9" d="M91.2683 75.9033H84.7415C83.4562 75.9033 82.4141 74.9038 82.4141 73.6709C82.4141 72.438 83.4562 71.4385 84.7415 71.4385H91.2683C92.5536 71.4385 93.5957 72.438 93.5957 73.6709C93.5957 74.9038 92.5539 75.9033 91.2683 75.9033Z" fill="white"/>
<path id="Vector_10" d="M76.0339 75.9033H69.5071C68.2218 75.9033 67.1797 74.9038 67.1797 73.6709C67.1797 72.438 68.2218 71.4385 69.5071 71.4385H76.0339C77.3192 71.4385 78.3614 72.438 78.3614 73.6709C78.3614 74.9038 77.3192 75.9033 76.0339 75.9033Z" fill="white"/>
<path id="Vector_11" d="M123.345 29.0268V11.1621C123.338 5.00035 118.132 0.00725538 111.708 0H18.6097C12.1856 0.00725538 6.98 5.00035 6.97244 11.1621V45.4706C-4.14493 59.0203 -1.70576 78.6491 12.421 89.3126C26.2411 99.745 46.2017 97.7609 57.498 84.8321H111.708C118.132 84.8248 123.338 79.8317 123.345 73.67V55.8053C125.922 55.776 127.997 53.7654 128 51.2936V33.5385C127.997 31.0664 125.922 29.0561 123.345 29.0268ZM32.5744 91.5294C17.1495 91.5294 4.64499 79.5354 4.64499 64.7403C4.64499 49.9452 17.1495 37.9512 32.5744 37.9512C47.9993 37.9512 60.5039 49.9452 60.5039 64.7403C60.4867 79.5287 47.9923 91.5129 32.5744 91.5294ZM111.708 80.3672H60.75C69.7706 65.4563 64.4809 46.3546 48.935 37.7023C37.0559 31.0907 22.1282 32.3442 11.6273 40.8344V13.3945H15.1185C16.4039 13.3945 17.446 12.395 17.446 11.1621C17.446 9.92926 16.4039 8.92969 15.1185 8.92969H12.0562C13.036 6.26167 15.6605 4.4735 18.6097 4.46485H111.708C114.657 4.4735 117.282 6.26167 118.261 8.92969H115.199C113.914 8.92969 112.872 9.92926 112.872 11.1621C112.872 12.395 113.914 13.3945 115.199 13.3945H118.69V29.0215H109.38C101.668 29.0215 95.4157 35.0184 95.4157 42.416C95.4157 49.8137 101.668 55.8106 109.38 55.8106H118.69V71.4376H115.199C113.914 71.4376 112.872 72.4371 112.872 73.67C112.872 74.9028 113.914 75.9024 115.199 75.9024H118.261C117.282 78.5704 114.657 80.3586 111.708 80.3672ZM123.345 51.2933C123.345 51.3223 123.321 51.3457 123.29 51.3457H109.38C104.239 51.3457 100.071 47.3478 100.071 42.416C100.071 37.4843 104.239 33.4864 109.38 33.4864L123.345 33.5388V51.2933Z" fill="white"/>
<g id="Group_2">
<path id="Vector_12" d="M34.776 45C29.6243 49.8896 24.6944 55.4728 27.7415 61.2127C27.2948 61.8086 26.9003 62.3941 26.5554 62.9742C25.7269 61.8593 24.7762 60.3669 24.9031 57.9223C22.334 61.4235 20 64.0493 20 69.6127C20 72.5028 21.1181 75.2873 23.1483 77.4536C25.2199 79.6243 27.6517 80.1845 29.9221 80.2477C31.772 80.2994 31.3486 80.2357 29.5496 79.3238C28.1178 78.5981 26.5578 77.3475 25.0624 75.8032C22.0376 72.5684 22.1829 67.8001 24.0477 64.1341C24.3926 64.78 24.7854 65.3745 25.1844 65.9237L25.1799 65.9356L25.1972 65.9581C23.37 71.7435 26.6088 74.5109 29.3007 75.5462C30.1911 75.8887 30.2868 75.9988 29.1352 74.6272C28.6376 74.0346 27.2016 71.4204 27.4387 68.7243C27.5094 67.8629 27.755 66.8032 28.3362 65.4915C28.6126 64.9034 28.9537 64.3058 29.3638 63.6923C29.8871 62.8913 30.5988 62.1362 31.1255 61.4282C31.5257 60.8344 32.001 60.2949 32.3416 59.748C34.1582 62.1956 36.5184 64.2537 37.987 66.9562C38.4392 67.7882 38.7604 68.6596 39.0403 69.5621C39.0606 69.6279 39.0814 69.6973 39.0677 69.7648C39.0518 69.843 38.9932 69.9043 38.936 69.9597C38.5101 70.3745 38.0279 70.7269 37.4986 70.9979C37.3958 71.0504 36.1274 71.5237 36.1274 71.4626C36.1274 71.4626 36.8959 70.2852 36.8372 68.3756C36.7526 65.6184 34.7266 63.7432 32.7862 63.9218C29.9183 64.1859 28.6026 67.1206 28.6334 69.7136C28.6381 70.1168 28.675 70.5197 28.744 70.9169C29.1751 73.3946 30.9768 76.0914 33.7048 76.216C36.746 76.3548 37.8253 74.8067 37.8253 74.8067C37.8253 74.8067 35.6178 75.5194 34.2383 75.2603C33.6495 75.1497 32.4454 74.4664 31.5564 73.307C30.8106 72.3342 30.2665 70.9505 30.5125 68.8366C30.7137 67.108 32.0875 66.5412 33.2536 66.6203C34.4194 66.6992 35.0845 68.0767 35.1256 69.0367C35.2008 70.7875 34.0215 72.198 33.9036 72.1303C33.9142 72.1362 34.1773 70.77 34.1771 70.6409C34.1759 70.1658 34.0969 69.6097 33.8856 69.1805C33.615 68.6305 32.9512 68.3534 32.4359 68.7755C32.148 69.0111 32.0048 69.3882 31.9731 69.7594C31.8608 71.0708 32.5132 72.5838 33.6833 73.2364C34.5453 73.717 35.6081 73.6975 36.5635 73.4517C37.3639 73.2459 38.1156 72.8955 38.876 72.5786C38.9795 72.5355 39.2386 72.3723 39.3173 72.4574C39.3787 72.5239 39.322 72.8193 39.3178 72.9143C39.3043 73.2162 39.2726 73.5175 39.2256 73.816C39.1336 74.3996 38.9802 74.9735 38.7706 75.5256C38.1888 77.0583 37.1587 78.324 35.9622 79.4216C35.7504 79.6158 35.5336 79.8044 35.3126 79.9877C35.1651 80.1101 34.8165 80.5069 34.6304 80.5287C41.6489 79.7032 45.5722 74.2956 45.5722 69.6132C45.5725 59.7873 32.5711 54.2712 34.776 45ZM41.4574 74.238C43.1225 65.0343 33.9019 60.4623 32.495 55.0512C31.4543 56.6525 30.6225 57.8908 29.7254 58.8813C28.7927 56.5097 30.2249 53.2006 32.7612 50.9375C34.6148 58.1288 42.8159 62.0521 42.8159 69.613C42.8159 71.3018 42.3332 72.887 41.4574 74.238Z" fill="white"/>
</g>
</g>
</g>
</svg>
