<svg width="98" height="98" viewBox="0 0 98 98" fill="none" xmlns="http://www.w3.org/2000/svg">
<g id="MacBook Pro 16&#34; - 4" clip-path="url(#clip0_1232_892)">
<rect width="1728" height="17883" transform="translate(-1505 -9391)" fill="black"/>
<g id="MacBook Pro 16&#34; - 5" clip-path="url(#clip1_1232_892)">
<rect width="1728" height="7245" transform="translate(-1505 -1999)" fill="black"/>
<g id="Group 1000005310">
<g id="Group">
<path id="Vector" d="M87.259 70.5575H74.5391C74.2061 70.5575 73.9141 70.2765 73.9141 69.9032C73.9141 69.5295 74.2059 69.249 74.5391 69.249H87.259C87.5922 69.249 87.884 69.5295 87.884 69.9032C87.884 70.2765 87.592 70.5575 87.259 70.5575Z" fill="white" stroke="white"/>
<path id="Vector_2" d="M87.259 77.1922H74.5391C74.2061 77.1922 73.9141 76.9113 73.9141 76.538C73.9141 76.1642 74.2059 75.8838 74.5391 75.8838H87.259C87.5922 75.8838 87.884 76.1642 87.884 76.538C87.884 76.9112 87.592 77.1922 87.259 77.1922Z" fill="white" stroke="white"/>
<path id="Vector_3" d="M87.259 83.826H74.5391C74.2061 83.826 73.9141 83.545 73.9141 83.1718C73.9141 82.798 74.2059 82.5176 74.5391 82.5176H87.259C87.5922 82.5176 87.884 82.798 87.884 83.1718C87.884 83.545 87.592 83.826 87.259 83.826Z" fill="white" stroke="white"/>
<path id="Vector_4" d="M87.259 90.4588H74.5391C74.2059 90.4588 73.9141 90.1784 73.9141 89.8046C73.9141 89.4308 74.2059 89.1504 74.5391 89.1504H87.259C87.5922 89.1504 87.884 89.4308 87.884 89.8046C87.884 90.1784 87.5922 90.4588 87.259 90.4588Z" fill="white" stroke="white"/>
<path id="Vector_5" d="M10.7422 69.249H23.4622C23.7953 69.249 24.0872 69.5295 24.0872 69.9032C24.0872 70.2765 23.7951 70.5575 23.4622 70.5575H10.7422C10.4092 70.5575 10.1172 70.2765 10.1172 69.9032C10.1172 69.5295 10.409 69.249 10.7422 69.249Z" fill="white" stroke="white"/>
<path id="Vector_6" d="M10.7422 75.8838H23.4622C23.7953 75.8838 24.0872 76.1642 24.0872 76.538C24.0872 76.9112 23.7951 77.1922 23.4622 77.1922H10.7422C10.4092 77.1922 10.1172 76.9112 10.1172 76.538C10.1172 76.1642 10.409 75.8838 10.7422 75.8838Z" fill="white" stroke="white"/>
<path id="Vector_7" d="M10.7422 82.5176H23.4622C23.7953 82.5176 24.0872 82.798 24.0872 83.1718C24.0872 83.545 23.7951 83.826 23.4622 83.826H10.7422C10.4092 83.826 10.1172 83.545 10.1172 83.1718C10.1172 82.798 10.409 82.5176 10.7422 82.5176Z" fill="white" stroke="white"/>
<path id="Vector_8" d="M10.7422 89.1504H23.4622C23.7953 89.1504 24.0872 89.4308 24.0872 89.8046C24.0872 90.1784 23.7953 90.4588 23.4622 90.4588H10.7422C10.409 90.4588 10.1172 90.1784 10.1172 89.8046C10.1172 89.4308 10.409 89.1504 10.7422 89.1504Z" fill="white" stroke="white"/>
<path id="Vector_9" d="M17.1441 57.6867H39.2119C39.833 57.6867 40.3369 57.1697 40.3369 56.5325C40.3369 55.8953 39.833 55.3783 39.2119 55.3783H17.1441C9.48292 55.3783 3.25 48.9714 3.25 41.0963C3.25 35.3748 6.55908 30.2229 11.6802 27.9716C12.2295 27.7304 12.499 27.0909 12.2939 26.5153C8.28782 15.2535 16.4384 3.30845 28.0732 3.30845C32.2275 3.30845 36.2119 4.87897 39.2917 7.73071C39.6477 8.05909 40.167 8.12071 40.5867 7.88551C45.1412 5.32004 50.9596 6.29271 54.4785 10.3863C54.9667 10.9543 55.812 10.882 56.2253 10.3104C59.4451 5.86112 64.3713 3.30847 69.7414 3.30847C79.0117 3.30847 86.5535 11.0536 86.5535 20.5744C86.5535 24.0821 85.5383 27.4546 83.6179 30.3311C83.3916 30.6693 83.3579 31.1051 83.5286 31.4763C83.6992 31.8468 84.0493 32.097 84.4477 32.1331C90.2244 32.6531 94.75 37.7464 94.75 43.7279C94.75 50.152 89.6655 55.3783 83.4158 55.3783H48.9985C48.3774 55.3783 47.8735 55.8953 47.8735 56.5325V78.7001H29.311C28.6899 78.7001 28.186 79.2163 28.186 79.8543C28.186 79.8671 28.193 79.8784 28.1934 79.8911V92.5995C28.1934 93.753 27.2808 94.6916 26.1594 94.6916H8.04151C6.92017 94.6916 6.00757 93.753 6.00757 92.5995V67.1083C6.00757 65.9541 6.92017 65.0163 8.04151 65.0163H26.1594C27.2808 65.0163 28.1934 65.9541 28.1934 67.1083V73.8352C28.1934 74.4725 28.6973 74.9894 29.3184 74.9894C29.9395 74.9894 30.4434 74.4725 30.4434 73.8352V67.1083C30.4434 64.6811 28.5215 62.7078 26.1594 62.7078H8.04151C5.67945 62.7078 3.75757 64.6811 3.75757 67.1083V92.5995C3.75757 95.0259 5.67945 97 8.04151 97H26.1594C28.5215 97 30.4434 95.026 30.4434 92.5995V81.0085H67.5567V92.5995C67.5567 95.0259 69.4785 97 71.8406 97H89.9585C92.3206 97 94.2424 95.026 94.2424 92.5995V67.1083C94.2424 64.6811 92.3206 62.7078 89.9585 62.7078H71.8406C69.4785 62.7078 67.5566 64.6811 67.5566 67.1083V73.8352C67.5566 74.4725 68.0605 74.9894 68.6816 74.9894C69.3027 74.9894 69.8066 74.4725 69.8066 73.8352V67.1083C69.8066 65.9541 70.7192 65.0163 71.8406 65.0163H89.9585C91.0798 65.0163 91.9924 65.9541 91.9924 67.1083V92.5995C91.9924 93.753 91.0798 94.6916 89.9585 94.6916H71.8406C70.7192 94.6916 69.8066 93.753 69.8066 92.5995V79.8543C69.8066 79.2163 69.3027 78.7001 68.6816 78.7001H50.1235V57.6867H83.4158C90.9062 57.6867 97 51.4249 97 43.7279C97 37.1768 92.4648 31.5146 86.3945 30.1132C87.9751 27.2096 88.8035 23.9461 88.8035 20.5744C88.8035 9.7814 80.2525 1.00002 69.7415 1.00002C64.0908 1.00002 58.8738 3.49105 55.2358 7.87948C51.1535 3.9841 45.1678 3.0831 40.2087 5.49214C36.8037 2.58931 32.5242 1 28.0732 1C15.3413 1 6.10721 13.6939 9.85205 26.3011C4.44165 29.1115 1 34.8082 1 41.0963C1 50.2444 8.2422 57.6867 17.1441 57.6867Z" fill="white" stroke="white"/>
<path id="Vector_10" d="M29.5154 11.2197C29.8483 11.2197 30.1404 11.5007 30.1404 11.8739C30.1404 12.2472 29.8483 12.5282 29.5154 12.5282C24.3843 12.5282 20.2344 16.8147 20.2344 22.0553C20.2344 22.429 19.9425 22.7095 19.6094 22.7095C19.2762 22.7095 18.9844 22.429 18.9844 22.0553C18.9844 16.068 23.7215 11.2197 29.5154 11.2197Z" fill="white" stroke="white"/>
<path id="Vector_11" d="M28.1914 40.0077H27.6914V40.5077V45.374V45.874H28.1914H31.4932H31.9932V45.374V40.5077V40.0077H31.4932H28.1914ZM32.6182 47.1824H27.0664C26.7335 47.1824 26.4414 46.9015 26.4414 46.5282V39.3534C26.4414 38.9802 26.7335 38.6992 27.0664 38.6992H32.6182C32.9511 38.6992 33.2432 38.9802 33.2432 39.3534V46.5282C33.2432 46.9015 32.9511 47.1824 32.6182 47.1824Z" fill="white" stroke="white"/>
<path id="Vector_12" d="M42.7627 45.873H43.2627V45.373V35.0985V34.5985H42.7627H39.4609H38.9609V35.0985V45.373V45.873H39.4609H42.7627ZM43.8877 33.29C44.2208 33.29 44.5127 33.5705 44.5127 33.9443V46.5272C44.5127 46.9004 44.2206 47.1814 43.8877 47.1814H38.3359C38.003 47.1814 37.7109 46.9004 37.7109 46.5272V33.9443C37.7109 33.5705 38.0028 33.29 38.3359 33.29H43.8877Z" fill="white" stroke="white"/>
<path id="Vector_13" d="M50.7344 30.5536H50.2344V31.0536V45.3731V45.8731H50.7344H54.0361H54.5361V45.3731V31.0536V30.5536H54.0361H50.7344ZM55.7861 46.5273C55.7861 46.9005 55.4941 47.1815 55.1611 47.1815L49.6094 47.1815C49.2764 47.1815 48.9844 46.9005 48.9844 46.5273V29.8993C48.9844 29.5261 49.2764 29.2451 49.6094 29.2451H55.1611C55.4941 29.2451 55.7861 29.5261 55.7861 29.8993V46.5273Z" fill="white" stroke="white"/>
<path id="Vector_14" d="M62.0078 22.9139H61.5078V23.4139V45.3741V45.8741H62.0078H65.3096H65.8096V45.3741V23.4139V22.9139H65.3096H62.0078ZM67.0596 46.5283C67.0596 46.9016 66.7675 47.1825 66.4346 47.1825H60.8828C60.5499 47.1825 60.2578 46.9016 60.2578 46.5283V22.2597C60.2578 21.8864 60.5499 21.6055 60.8828 21.6055H66.4346C66.7675 21.6055 67.0596 21.8864 67.0596 22.2597V46.5283Z" fill="white" stroke="white"/>
</g>
</g>
</g>
</g>
<defs>
<clipPath id="clip0_1232_892">
<rect width="1728" height="17883" fill="white" transform="translate(-1505 -9391)"/>
</clipPath>
<clipPath id="clip1_1232_892">
<rect width="1728" height="7245" fill="white" transform="translate(-1505 -1999)"/>
</clipPath>
</defs>
</svg>
