<svg width="96" height="96" viewBox="0 0 96 96" fill="none" xmlns="http://www.w3.org/2000/svg">
<g id="auction 1" clip-path="url(#clip0_4783_6213)">
<g id="Group">
<g id="Group_2">
<path id="Vector" d="M55.8701 28.8046C55.1122 25.073 51.8295 22.3925 48.0217 22.3963C45.3706 22.3963 43.2214 20.2472 43.2214 17.5961C43.2214 14.9449 45.3706 12.7958 48.0217 12.7958C50.6728 12.7958 52.8219 14.9449 52.8219 17.5961H56.0221C56.0173 13.7957 53.3442 10.5211 49.6218 9.75568V6.39551H46.4216V9.75568C42.0914 10.6349 39.294 14.8579 40.1733 19.1881C40.9311 22.9197 44.2139 25.6003 48.0217 25.5965C50.6728 25.5965 52.8219 27.7456 52.8219 30.3967C52.8219 33.0478 50.6728 35.197 48.0217 35.197C45.3706 35.197 43.2214 33.0478 43.2214 30.3967H40.0213C40.0261 34.1971 42.6992 37.4717 46.4216 38.2371V41.5973H49.6218V38.2371C53.9518 37.3577 56.7493 33.1346 55.8701 28.8046Z" fill="white"/>
</g>
</g>
<g id="Group_3">
<g id="Group_4">
<path id="Vector_2" d="M72.0219 23.9964C72.0193 10.7407 61.2714 -0.00279959 48.0159 5.47236e-07C34.7605 0.00280069 24.0169 10.7505 24.0195 24.0062C24.0219 35.4096 32.0475 45.2369 43.2205 47.5176V63.9984H41.6204C41.2286 63.9988 40.8506 64.1428 40.558 64.4032L26.1572 77.2039C25.8156 77.5073 25.62 77.9423 25.6196 78.3991V94.3999C25.6196 95.2836 26.336 96 27.2197 96H57.6212C60.2607 96.0116 62.41 93.8813 62.4219 91.2418C62.4273 90.0427 61.9816 88.8854 61.1734 87.9996C62.8375 86.1907 62.8375 83.4082 61.1734 81.5993C62.8375 79.7904 62.8375 77.0079 61.1734 75.199C62.9523 73.2489 62.8135 70.2259 60.8634 68.447C59.9775 67.639 58.8203 67.1934 57.6212 67.1986H55.7267C55.2427 65.8433 54.176 64.7768 52.821 64.2928V47.5176C63.9891 45.2221 72.0089 35.3978 72.0219 23.9964ZM48.0207 77.5989V73.5987H44.8206V77.5989C44.8234 79.4224 45.7156 81.1298 47.2111 82.1735C46.0058 83.9896 46.1946 86.3937 47.6687 87.9994C46.4649 89.2883 46.093 91.1469 46.7087 92.7996H28.8198V79.1173L42.2284 67.1984H51.2209C52.1045 67.1984 52.821 67.9148 52.821 68.7984V77.5989C52.821 78.9243 51.7463 79.999 50.4209 79.999C49.0954 79.999 48.0207 78.9245 48.0207 77.5989ZM46.4207 63.9982V47.9158C46.9519 47.951 47.4799 47.9974 48.0207 47.9974C48.5616 47.9974 49.0896 47.951 49.6208 47.9158V63.9982H46.4207ZM57.6212 92.7996H51.2209C50.3372 92.7996 49.6208 92.0832 49.6208 91.1996C49.6208 90.3159 50.3372 89.5995 51.2209 89.5995H57.6212C58.5049 89.5995 59.2213 90.3159 59.2213 91.1996C59.2213 92.0832 58.5051 92.7996 57.6212 92.7996ZM56.0211 70.3985H57.6212C58.5049 70.3985 59.2213 71.115 59.2213 71.9986C59.2213 72.8822 58.5049 73.5987 57.6212 73.5987H56.0211V70.3985ZM56.0211 77.5989V76.7988H57.6212C58.5049 76.7988 59.2213 77.5153 59.2213 78.3989C59.2213 79.2826 58.5049 79.999 57.6212 79.999H55.4595C55.8245 79.2514 56.0165 78.4311 56.0211 77.5989ZM57.6212 83.1992C58.5049 83.1992 59.2213 83.9156 59.2213 84.7992C59.2213 85.6829 58.5049 86.3993 57.6212 86.3993H51.2209C50.3372 86.3993 49.6208 85.6829 49.6208 84.7992C49.6208 83.9156 50.3372 83.1992 51.2209 83.1992H57.6212ZM48.0207 44.7972C36.5382 44.784 27.2329 35.4788 27.2197 23.9962C27.2197 12.508 36.5326 3.19516 48.0207 3.19516C59.5089 3.19516 68.8218 12.508 68.8218 23.9962C68.8218 35.4844 59.5089 44.7972 48.0207 44.7972Z" fill="white"/>
</g>
</g>
<g id="Group_5">
<g id="Group_6">
<path id="Vector_3" d="M14.4213 62.3979C13.5377 62.3979 12.8213 61.6814 12.8213 60.7978C12.8213 59.9141 13.5377 59.1977 14.4213 59.1977C15.305 59.1977 16.0214 59.9141 16.0214 60.7978H19.2216C19.2132 58.7709 17.9325 56.9676 16.0214 56.292V54.3975H12.8213V56.292C10.3265 57.1706 9.01646 59.9053 9.89531 62.4001C10.5713 64.3194 12.3864 65.602 14.4213 65.598C15.305 65.598 16.0214 66.3145 16.0214 67.1981C16.0214 68.0817 15.305 68.7982 14.4213 68.7982C13.5377 68.7982 12.8213 68.0817 12.8213 67.1981H9.62109C9.62949 69.225 10.9102 71.0283 12.8213 71.7039V73.5984H16.0214V71.7039C18.5161 70.8253 19.8262 68.0905 18.9474 65.5958C18.2715 63.6767 16.4562 62.3941 14.4213 62.3979Z" fill="white"/>
</g>
</g>
<g id="Group_7">
<g id="Group_8">
<path id="Vector_4" d="M14.4255 49.5918C6.47206 49.589 0.0223323 56.0339 0.0195322 63.9873C0.016932 71.3235 5.52941 77.489 12.8202 78.304V95.9993H16.0203V78.304C23.3035 77.4824 28.811 71.3271 28.821 63.9977C28.824 56.0445 22.3788 49.5948 14.4255 49.5918ZM14.4203 75.1983C8.23434 75.1983 3.21969 70.1836 3.21969 63.9977C3.21969 57.8118 8.23434 52.7972 14.4203 52.7972C20.6062 52.7972 25.6208 57.8118 25.6208 63.9977C25.613 70.1804 20.603 75.1905 14.4203 75.1983Z" fill="white"/>
</g>
</g>
<g id="Group_9">
<g id="Group_10">
<path id="Vector_5" d="M81.6245 62.3979C80.7408 62.3979 80.0244 61.6814 80.0244 60.7978C80.0244 59.9141 80.7408 59.1977 81.6245 59.1977C82.5081 59.1977 83.2245 59.9141 83.2245 60.7978H86.4247C86.4163 58.7709 85.1356 56.9676 83.2245 56.292V54.3975H80.0244V56.292C77.5297 57.1706 76.2196 59.9053 77.0984 62.4001C77.7745 64.3194 79.5896 65.602 81.6245 65.598C82.5081 65.598 83.2245 66.3145 83.2245 67.1981C83.2245 68.0817 82.5081 68.7982 81.6245 68.7982C80.7408 68.7982 80.0244 68.0817 80.0244 67.1981H76.8242C76.8326 69.225 78.1133 71.0283 80.0244 71.7039V73.5984H83.2245V71.7039C85.7193 70.8253 87.0293 68.0905 86.1507 65.5958C85.4747 63.6767 83.6594 62.3941 81.6245 62.3979Z" fill="white"/>
</g>
</g>
<g id="Group_11">
<g id="Group_12">
<path id="Vector_6" d="M95.8856 62.3527C95.0516 55.1013 88.9239 49.6207 81.6247 49.5977C73.6715 49.6229 67.2444 56.0906 67.2696 64.0438C67.2926 71.3429 72.7733 77.4706 80.0246 78.3047V96H83.2248V78.3047C91.126 77.3958 96.7945 70.2539 95.8856 62.3527ZM81.6247 75.1987C75.4388 75.1987 70.4242 70.1841 70.4242 63.9982C70.4242 57.8123 75.4388 52.7976 81.6247 52.7976C87.8106 52.7976 92.8253 57.8123 92.8253 63.9982C92.8175 70.1809 87.8074 75.1909 81.6247 75.1987Z" fill="white"/>
</g>
</g>
</g>
<defs>
<clipPath id="clip0_4783_6213">
<rect width="96" height="96" fill="white"/>
</clipPath>
</defs>
</svg>
