<svg width="96" height="96" viewBox="0 0 96 96" fill="none" xmlns="http://www.w3.org/2000/svg">
<g id="layer2">
<path id="path5277" d="M19.2 20.8001C19.2 24.2644 20.0486 27.5273 21.5532 30.4032H16.0063V27.2032C16.0063 22.7989 12.4512 19.2063 7.99688 19.2063C3.5426 19.2063 0 22.7989 0 27.2032V88.7969C0 92.758 3.18333 96 7.20626 96H89.6C93.118 96 96 93.1554 96 89.6V36.8032C96 33.2853 93.1742 30.4032 89.6 30.4032H79.9969V28.1126L94.9969 22.1126C96.2629 21.5931 96.335 19.8274 95.1154 19.2063L79.9966 11.6407V11.197C80.0087 10.2987 79.2762 9.58541 78.3779 9.59591C77.4943 9.60619 76.7863 10.3133 76.7967 11.197V30.4032H58.4373C59.9418 27.5273 60.8029 24.2644 60.8029 20.8001C60.8029 9.33154 51.5058 0.000117595 40.0062 0.000114571C28.5065 0.000111548 19.2 9.33152 19.2 20.8001ZM78.3782 0.000111688C77.4945 0.010392 76.7866 0.735214 76.7969 1.61886V3.2251C76.8453 5.31179 79.9507 5.31179 79.9969 3.2251V1.61886C80.009 0.720537 79.2765 -0.0103863 78.3782 0.000111688ZM40.0063 3.20323C49.6954 3.20323 57.6031 11.0609 57.6031 20.8001C57.6031 30.5392 49.7101 38.3969 40.0063 38.3969C30.3024 38.3969 22.4 30.5392 22.4 20.8001C22.4 11.0609 30.3171 3.20323 40.0063 3.20323ZM69.7344 6.472L70.8657 7.60638C72.4319 9.079 74.5674 6.90294 73.1344 5.34075L72 4.20638C71.6995 3.89748 71.3137 3.74056 70.8828 3.73969C69.4401 3.73123 68.7242 5.43337 69.7344 6.472ZM84.8156 4.20639L83.6813 5.34077C82.2358 6.91545 84.39 9.06647 85.95 7.60639L87.0844 6.47202C88.1206 5.42168 87.319 3.6948 85.8969 3.74077C85.4814 3.75286 85.1055 3.90808 84.8156 4.20639ZM38.3969 9.60324V20.8001C38.3978 21.2264 38.5687 21.6347 38.8716 21.9345L43.6654 26.7282C45.2253 28.2087 47.4001 25.9906 45.9341 24.472L41.5998 20.1376V9.60324C41.6179 8.70005 40.8843 7.99571 39.9812 8.00638C39.0914 8.01484 38.3796 8.71354 38.3969 9.60324ZM79.9969 15.2251L90.4969 20.4689L79.9969 24.6689V15.2251ZM7.99688 22.3939C10.6275 22.3939 12.8032 24.5164 12.8032 27.2032V78.4032C12.8032 80.133 11.4037 81.6032 9.60315 81.6032H7.20626C5.64813 81.6032 4.30503 82.0747 3.20317 82.8V27.2032C3.20317 24.5164 5.36626 22.3939 7.99688 22.3939ZM16.0063 33.6032H23.6063C27.4171 38.4606 33.3492 41.6001 40.0063 41.6001C46.6453 41.6001 52.5861 38.4615 56.3969 33.6032H76.7969V40.0063H75.2032C73.3955 40.0063 72 41.4612 72 43.2063V48.0001C71.9456 47.9972 71.8893 47.9972 71.8343 48.0001C69.7962 48.2784 69.9794 51.1722 72 51.2032H75.1125L62.4688 60.4876C61.6085 59.688 60.449 59.1969 59.1969 59.1969C57.9819 59.1969 56.8548 59.6577 56.0063 60.4157L44.6781 52.2438C44.7543 51.9069 44.8003 51.5619 44.8003 51.2032C44.8003 48.5399 42.6385 46.3938 40.0065 46.3938C37.337 46.3938 35.1972 48.5712 35.1972 51.2032C35.1972 51.6157 35.2685 52.0078 35.3689 52.3907L19.8189 64.3344C18.1335 65.6428 20.0958 68.1709 21.7814 66.8626L37.1439 55.0563C37.9437 55.6479 38.9458 55.9969 40.0064 55.9969C41.1192 55.9969 42.158 55.6141 42.9752 54.9688L54.4595 63.2469C54.4232 63.4921 54.4051 63.751 54.4051 64.0063C54.4051 66.6383 56.5315 68.8001 59.1988 68.8001C61.8621 68.8001 64.0082 66.6383 64.0082 64.0063C64.0082 63.7916 63.9901 63.5734 63.9598 63.3657L80.5192 51.2032H84.8036C86.939 51.2032 86.939 48.0001 84.8036 48.0001V43.2063C84.8036 41.4612 83.3862 40.0063 81.6036 40.0063H79.9973V33.6032H89.6004C91.401 33.6032 92.8005 35.0402 92.8005 36.8032V89.6C92.8005 91.3505 91.401 92.8 89.6004 92.8H7.20668C4.99841 92.8 3.20359 91.0406 3.20359 88.7969C3.20359 86.5532 5.00724 84.8032 7.20668 84.8032H9.60357C13.1569 84.8032 16.0067 81.9211 16.0067 78.4032L16.0063 33.6032ZM55.9969 43.1938C54.538 43.2452 53.8765 44.9127 54.8625 45.9345L56.1344 47.2001L54.8625 48.472C53.4154 50.0718 55.6339 52.1962 57.1313 50.7282L58.3969 49.4626L59.6688 50.7282C61.2388 52.2133 63.4101 49.9801 61.925 48.472L60.6594 47.2001L61.925 45.9345C62.9493 44.8949 62.2322 43.2067 60.7813 43.1938C60.3658 43.206 59.9585 43.3675 59.6688 43.6657L58.3969 44.9376L57.1313 43.6657C56.8301 43.356 56.4289 43.1938 55.9969 43.1938ZM75.2032 43.2065H81.6031V48.0002H75.2032V43.2065ZM40.0063 49.594C40.8651 49.594 41.6 50.3008 41.6 51.2034C41.6 52.106 40.8714 52.7971 40.0063 52.7971C39.0235 52.7971 38.3969 51.9783 38.3969 51.2034C38.3969 50.3008 39.1412 49.594 40.0063 49.594ZM80.0094 59.1971C78.5779 59.1976 77.8423 60.9086 78.8625 61.9252L80.1344 63.1971L78.8625 64.4659C77.35 65.9783 79.6187 68.2471 81.1313 66.7346L82.3969 65.4627L83.6688 66.7346C85.2499 68.1943 87.4055 65.9758 85.925 64.4659L84.6688 63.1971L85.9375 61.9252C86.9703 60.9095 86.2048 59.1661 84.7562 59.1971C84.3408 59.2092 83.9585 59.3707 83.6688 59.669L82.3969 60.9377L81.1313 59.669C80.8301 59.3593 80.4414 59.1971 80.0094 59.1971ZM59.1969 62.3972C60.0745 62.3972 60.8032 63.1039 60.8032 64.0065C60.8032 64.9091 60.0557 65.6003 59.1969 65.6003C58.338 65.6003 57.6031 64.9091 57.6031 64.0065C57.6031 63.1039 58.3193 62.3972 59.1969 62.3972ZM28.7844 68.7878C28.4724 68.7911 28.1683 68.8857 27.9094 69.0597L23.1157 72.2597C21.3344 73.4409 23.1035 76.1128 24.8875 74.9315L28.7969 72.319L32.7188 74.9315C33.2546 75.287 33.9515 75.287 34.4875 74.9315L38.3969 72.319L42.3094 74.9315C42.8482 75.2925 43.5518 75.2925 44.0906 74.9315L48 72.319L51.9094 74.9315C53.6906 76.1128 55.4625 73.4409 53.6813 72.2597L48.8875 69.0597C48.3505 68.7028 47.6524 68.7028 47.1157 69.0597L43.2063 71.669L39.2844 69.0597C38.7474 68.7028 38.0493 68.7028 37.5125 69.0597L33.6032 71.669L29.6813 69.0597C29.4164 68.8816 29.1038 68.7869 28.7844 68.7878ZM68.8 75.2003C66.6662 75.2003 66.6662 78.4003 68.8 78.4003H70.4C72.5339 78.4003 72.5339 75.2003 70.4 75.2003H68.8ZM76.8 75.2003C74.6662 75.2003 74.6662 78.4003 76.8 78.4003H78.4C80.5339 78.4003 80.5339 75.2003 78.4 75.2003H76.8ZM84.8 75.2003C82.6662 75.2003 82.6662 78.4003 84.8 78.4003H86.4C88.5339 78.4003 88.5339 75.2003 86.4 75.2003H84.8ZM28.7844 76.7971C28.4724 76.8005 28.1683 76.895 27.9094 77.069L23.1157 80.2565C21.2934 81.4289 23.0975 84.1496 24.8875 82.9253L28.7969 80.3159L32.7188 82.9253C33.2546 83.2807 33.9515 83.2807 34.4875 82.9253L38.3969 80.3159L42.3094 82.9253C42.8482 83.2863 43.5518 83.2863 44.0906 82.9253L48 80.3159L51.9094 82.9253C53.6971 84.1496 55.5035 81.4289 53.6813 80.2565L48.8875 77.069C48.3505 76.7122 47.6524 76.7122 47.1157 77.069L43.2063 79.6659L39.2844 77.069C38.7474 76.7122 38.0493 76.7122 37.5125 77.069L33.6032 79.6659L29.6813 77.069C29.4164 76.8909 29.1038 76.7962 28.7844 76.7971Z" fill="white"/>
</g>
</svg>
