<svg width="96" height="96" viewBox="0 0 96 96" fill="none" xmlns="http://www.w3.org/2000/svg">
<g id="route 1">
<g id="Group">
<path id="Vector" d="M38.2542 23.1133C38.2542 14.7648 31.4618 7.97237 23.1133 7.97237C14.7648 7.97237 7.97237 14.7648 7.97237 23.1133C7.97237 26.1195 8.85166 29.024 10.515 31.5137L38.2542 23.1133ZM38.2542 23.1133C38.2542 26.1195 37.3749 29.024 35.7116 31.5137M38.2542 23.1133L35.7116 31.5137M35.7116 31.5137C35.697 31.5354 35.6826 31.5579 35.6686 31.5811M35.7116 31.5137L35.6686 31.5811M35.6686 31.5811C35.6685 31.5811 35.6685 31.5812 35.6685 31.5812M35.6686 31.5811L35.6685 31.5812M35.6685 31.5812L23.1133 52.181L22.7361 51.5622L21.2915 49.192L16.9067 41.9984C13.7272 36.782 10.5388 31.5512 10.5151 31.5138L35.6685 31.5812ZM7.32513 33.596L20.2387 54.7837C18.7732 55.73 17.7996 57.3776 17.7996 59.2496C17.7996 62.1798 20.1832 64.5633 23.1133 64.5633C25.3729 64.5633 27.3058 63.1455 28.073 61.1542H41.1815C43.8907 61.1542 46.0951 63.3586 46.0951 66.0678C46.0951 68.777 43.8907 70.9815 41.1815 70.9815H20.7269C15.917 70.9815 12.0042 74.8943 12.0042 79.7042C12.0042 84.5141 15.917 88.4269 20.7269 88.4269H37.7724C38.8243 88.4269 39.6769 87.5742 39.6769 86.5224C39.6769 85.4705 38.8243 84.6178 37.7724 84.6178H20.7269C18.0177 84.6178 15.8133 82.4134 15.8133 79.7042C15.8133 76.995 18.0177 74.7906 20.7269 74.7906H41.1815C45.9914 74.7906 49.9042 70.8777 49.9042 66.0678C49.9042 61.2579 45.9914 57.3451 41.1815 57.3451H28.073C27.6651 56.2864 26.9281 55.3908 25.9879 54.7837L38.9015 33.596C40.9699 30.4854 42.0633 26.861 42.0633 23.1133C42.0633 12.6641 33.5625 4.16328 23.1133 4.16328C12.6641 4.16328 4.16328 12.6641 4.16328 23.1133C4.16328 26.861 5.25664 30.4854 7.32513 33.596ZM23.1133 60.7542C22.2839 60.7542 21.6087 60.0791 21.6087 59.2496C21.6087 58.4202 22.2839 57.7451 23.1133 57.7451C23.9427 57.7451 24.6178 58.4202 24.6178 59.2496C24.6178 60.0791 23.9427 60.7542 23.1133 60.7542Z" fill="white" stroke="white" stroke-width="0.4"/>
<path id="Vector_2" d="M23.1126 31.8363C27.9225 31.8363 31.8353 27.9234 31.8353 23.1135C31.8353 18.3037 27.9225 14.3908 23.1126 14.3908C18.3027 14.3908 14.3898 18.3037 14.3898 23.1135C14.3898 27.9234 18.3027 31.8363 23.1126 31.8363ZM23.1126 18.1999C25.8218 18.1999 28.0262 20.4043 28.0262 23.1135C28.0262 25.8227 25.8218 28.0272 23.1126 28.0272C20.4034 28.0272 18.1989 25.8228 18.1989 23.1135C18.1989 20.4043 20.4034 18.1999 23.1126 18.1999Z" fill="white" stroke="white" stroke-width="0.4"/>
<path id="Vector_3" d="M85.4856 59.8097L85.4842 59.8118L79.0985 69.8281L74.7123 76.7083L73.267 78.9753L72.8874 79.5707L72.5079 78.9753L71.0626 76.7082L66.6763 69.8281C63.4872 64.8257 60.2943 59.8174 60.2898 59.8105L60.2892 59.8097C58.6258 57.32 57.7465 54.4155 57.7465 51.4092C57.7465 43.0607 64.5389 36.2683 72.8874 36.2683C81.236 36.2683 88.0283 43.0607 88.0283 51.4092C88.0283 54.4155 87.149 57.32 85.4856 59.8097ZM72.8874 32.4592C62.4382 32.4592 53.9374 40.96 53.9374 51.4092C53.9374 55.1636 55.0346 58.7941 57.1103 61.9083C57.1107 61.9089 57.1111 61.9094 57.1115 61.91L69.9717 82.0827C69.051 82.6894 68.3297 83.5749 67.9279 84.6183H53.1147C52.0628 84.6183 51.2102 85.4709 51.2102 86.5228C51.2102 87.5747 52.0628 88.4274 53.1147 88.4274H67.9277C68.6949 90.4187 70.6277 91.8365 72.8874 91.8365C75.8175 91.8365 78.2011 89.4529 78.2011 86.5228C78.2011 84.6682 77.2461 83.0333 75.8033 82.0827L88.6636 61.91C88.6639 61.9094 88.6643 61.9089 88.6647 61.9083C90.7402 58.7941 91.8374 55.1636 91.8374 51.4092C91.8374 40.96 83.3366 32.4592 72.8874 32.4592ZM72.8874 88.0274C72.058 88.0274 71.3829 87.3522 71.3829 86.5228C71.3829 85.6934 72.058 85.0183 72.8874 85.0183C73.7169 85.0183 74.392 85.6934 74.392 86.5228C74.392 87.3522 73.7169 88.0274 72.8874 88.0274Z" fill="white" stroke="white" stroke-width="0.4"/>
<path id="Vector_4" d="M72.886 42.6857C68.0761 42.6857 64.1633 46.5986 64.1633 51.4085C64.1633 56.2184 68.0761 60.1312 72.886 60.1312C77.6959 60.1312 81.6087 56.2184 81.6087 51.4085C81.6087 46.5986 77.6959 42.6857 72.886 42.6857ZM72.886 56.3221C70.1768 56.3221 67.9724 54.1177 67.9724 51.4085C67.9724 48.6993 70.1768 46.4948 72.886 46.4948C75.5952 46.4948 77.7996 48.6993 77.7996 51.4085C77.7996 54.1177 75.5952 56.3221 72.886 56.3221Z" fill="white" stroke="white" stroke-width="0.4"/>
<path id="Vector_5" d="M45.4428 88.4265C46.4947 88.4265 47.3474 87.5738 47.3474 86.5219C47.3474 85.4701 46.4947 84.6174 45.4428 84.6174C44.391 84.6174 43.5383 85.4701 43.5383 86.5219C43.5383 87.5738 44.391 88.4265 45.4428 88.4265Z" fill="white" stroke="white" stroke-width="0.4"/>
</g>
</g>
</svg>
