<svg width="88" height="88" viewBox="0 0 88 88" fill="none" xmlns="http://www.w3.org/2000/svg">
<path d="M58.6667 82.5H14.6667C12.2364 82.4971 9.90652 81.5304 8.18807 79.8119C6.46962 78.0935 5.50291 75.7636 5.5 73.3333V14.6667C5.50291 12.2364 6.46962 9.90652 8.18807 8.18807C9.90652 6.46962 12.2364 5.50291 14.6667 5.5H43.01C44.2308 5.50082 45.4393 5.74436 46.5651 6.21647C47.6909 6.68858 48.7116 7.37982 49.5678 8.25L65.2208 24.2715C66.8998 25.9855 67.8381 28.2907 67.8333 30.69V44.3483C67.8333 44.8346 67.6402 45.3009 67.2964 45.6447C66.9525 45.9885 66.4862 46.1817 66 46.1817C65.5138 46.1817 65.0475 45.9885 64.7036 45.6447C64.3598 45.3009 64.1667 44.8346 64.1667 44.3483V30.69C64.1674 29.2508 63.604 27.8686 62.5973 26.84L46.9425 10.8167C46.4295 10.2942 45.8175 9.87916 45.1423 9.59586C44.4671 9.31256 43.7422 9.16665 43.01 9.16667H14.6667C13.208 9.16667 11.809 9.74613 10.7776 10.7776C9.74613 11.809 9.16667 13.208 9.16667 14.6667V73.3333C9.16667 74.792 9.74613 76.191 10.7776 77.2224C11.809 78.2539 13.208 78.8333 14.6667 78.8333H58.6667C59.3583 78.836 60.0436 78.7021 60.6833 78.4392C61.1331 78.2542 61.6379 78.2554 62.0868 78.4426C62.5356 78.6298 62.8917 78.9877 63.0767 79.4374C63.2618 79.8872 63.2605 80.392 63.0733 80.8409C62.8861 81.2897 62.5283 81.6458 62.0785 81.8308C60.9961 82.2754 59.8368 82.5028 58.6667 82.5Z" fill="white"/>
<path d="M65.2483 29.3334H53.1667C50.7364 29.3305 48.4065 28.3637 46.6881 26.6453C44.9696 24.9268 44.0029 22.597 44 20.1667V7.90169C44 7.41546 44.1932 6.94915 44.537 6.60533C44.8808 6.26151 45.3471 6.06836 45.8333 6.06836C46.3196 6.06836 46.7859 6.26151 47.1297 6.60533C47.4735 6.94915 47.6667 7.41546 47.6667 7.90169V20.1667C47.6667 21.6254 48.2461 23.0243 49.2776 24.0558C50.309 25.0872 51.708 25.6667 53.1667 25.6667H65.2483C65.7346 25.6667 66.2009 25.8598 66.5447 26.2037C66.8885 26.5475 67.0817 27.0138 67.0817 27.5C67.0817 27.9863 66.8885 28.4526 66.5447 28.7964C66.2009 29.1402 65.7346 29.3334 65.2483 29.3334Z" fill="white"/>
<path d="M62.3346 82.232C61.6117 82.2329 60.9047 82.0192 60.3033 81.6179L54.4146 77.6909C50.6447 75.1842 47.5536 71.7838 45.4168 67.7926C43.28 63.8014 42.1639 59.3436 42.168 54.8164V51.6777C42.1716 50.8528 42.452 50.053 42.9642 49.4065C43.4765 48.7599 44.1909 48.304 44.9931 48.1119C50.438 46.6069 55.6177 44.2699 60.3491 41.1837C60.9412 40.8024 61.6305 40.5996 62.3346 40.5996C63.0388 40.5996 63.7281 40.8024 64.3201 41.1837C69.0514 44.2703 74.2312 46.6073 79.6761 48.1119C80.4783 48.304 81.1928 48.7599 81.7051 49.4065C82.2173 50.053 82.4977 50.8528 82.5013 51.6777V54.8164C82.5066 59.3448 81.3911 63.8042 79.2542 67.7967C77.1174 71.7893 74.0256 75.1909 70.2546 77.6982L64.3678 81.6234C63.7652 82.023 63.0577 82.2348 62.3346 82.232ZM62.3346 44.2637C57.2658 47.5704 51.7144 50.0703 45.8786 51.674L45.8346 54.8164C45.8302 58.7409 46.797 62.6056 48.6488 66.0658C50.5006 69.5261 53.1799 72.4742 56.4478 74.6475L62.3346 78.5654L68.2215 74.6402C71.4883 72.4676 74.167 69.5206 76.0188 66.0617C77.8705 62.6029 78.8379 58.7397 78.8346 54.8164V51.6777C72.9845 50.0748 67.4184 47.5744 62.3346 44.2655V44.2637Z" fill="white"/>
<path d="M60.5009 65.9999C60.0147 65.9998 59.5485 65.8066 59.2047 65.4628L55.5381 61.7961C55.2041 61.4503 55.0193 60.9872 55.0235 60.5065C55.0277 60.0258 55.2205 59.566 55.5604 59.2261C55.9003 58.8862 56.3601 58.6934 56.8408 58.6892C57.3215 58.685 57.7846 58.8698 58.1304 59.2038L60.5009 61.5743L66.5381 55.5371C66.8838 55.2031 67.347 55.0184 67.8276 55.0225C68.3083 55.0267 68.7682 55.2195 69.1081 55.5594C69.448 55.8993 69.6408 56.3592 69.645 56.8399C69.6492 57.3206 69.4644 57.7837 69.1304 58.1294L61.7971 65.4628C61.4533 65.8066 60.9871 65.9998 60.5009 65.9999Z" fill="white"/>
<path d="M33 23.8337H18.3333C17.8471 23.8337 17.3808 23.6405 17.037 23.2967C16.6932 22.9529 16.5 22.4866 16.5 22.0003C16.5 21.5141 16.6932 21.0478 17.037 20.704C17.3808 20.3601 17.8471 20.167 18.3333 20.167H33C33.4862 20.167 33.9525 20.3601 34.2964 20.704C34.6402 21.0478 34.8333 21.5141 34.8333 22.0003C34.8333 22.4866 34.6402 22.9529 34.2964 23.2967C33.9525 23.6405 33.4862 23.8337 33 23.8337Z" fill="white"/>
<path d="M44 34.8337H18.3333C17.8471 34.8337 17.3808 34.6405 17.037 34.2967C16.6932 33.9529 16.5 33.4866 16.5 33.0003C16.5 32.5141 16.6932 32.0478 17.037 31.704C17.3808 31.3601 17.8471 31.167 18.3333 31.167H44C44.4862 31.167 44.9525 31.3601 45.2964 31.704C45.6402 32.0478 45.8333 32.5141 45.8333 33.0003C45.8333 33.4866 45.6402 33.9529 45.2964 34.2967C44.9525 34.6405 44.4862 34.8337 44 34.8337Z" fill="white"/>
<path d="M47.6667 45.8337H18.3333C17.8471 45.8337 17.3808 45.6405 17.037 45.2967C16.6932 44.9529 16.5 44.4866 16.5 44.0003C16.5 43.5141 16.6932 43.0478 17.037 42.704C17.3808 42.3601 17.8471 42.167 18.3333 42.167H47.6667C48.1529 42.167 48.6192 42.3601 48.963 42.704C49.3068 43.0478 49.5 43.5141 49.5 44.0003C49.5 44.4866 49.3068 44.9529 48.963 45.2967C48.6192 45.6405 48.1529 45.8337 47.6667 45.8337Z" fill="white"/>
<path d="M36.6667 56.8337H18.3333C17.8471 56.8337 17.3808 56.6405 17.037 56.2967C16.6932 55.9529 16.5 55.4866 16.5 55.0003C16.5 54.5141 16.6932 54.0478 17.037 53.704C17.3808 53.3601 17.8471 53.167 18.3333 53.167H36.6667C37.1529 53.167 37.6192 53.3601 37.963 53.704C38.3068 54.0478 38.5 54.5141 38.5 55.0003C38.5 55.4866 38.3068 55.9529 37.963 56.2967C37.6192 56.6405 37.1529 56.8337 36.6667 56.8337Z" fill="white"/>
<path d="M36.6667 67.8337H18.3333C17.8471 67.8337 17.3808 67.6405 17.037 67.2967C16.6932 66.9529 16.5 66.4866 16.5 66.0003C16.5 65.5141 16.6932 65.0478 17.037 64.704C17.3808 64.3601 17.8471 64.167 18.3333 64.167H36.6667C37.1529 64.167 37.6192 64.3601 37.963 64.704C38.3068 65.0478 38.5 65.5141 38.5 66.0003C38.5 66.4866 38.3068 66.9529 37.963 67.2967C37.6192 67.6405 37.1529 67.8337 36.6667 67.8337Z" fill="white"/>
</svg>
