<svg xmlns="http://www.w3.org/2000/svg" width="20.506" height="20.5" viewBox="0 0 20.506 20.5">
  <path id="analytics" d="M8.708,19.916A10,10,0,0,1,6,.83.909.909,0,0,1,6.728,2.5,8.183,8.183,0,1,0,17.535,13.184a.909.909,0,0,1,1.674.709,9.993,9.993,0,0,1-10.5,6.023Zm1.292-9A.909.909,0,0,1,9.091,10V.909A.909.909,0,0,1,10,0,10,10,0,0,1,20,10a.909.909,0,0,1-.908.909Zm.909-1.819h7.222A8.185,8.185,0,0,0,10.91,1.869Z" transform="translate(0.256 0.25)" fill="#fff" stroke="#000" stroke-width="0.5"/>
</svg>
